999
Dxf file generated by netDxf http://netdxf.codeplex.com, Copyright(C) 2014 Daniel Carvajal, Licensed under LGPL
0
SECTION
2
HEADER
9
$ACADVER
1
AC1015
9
$DWGCODEPAGE
3
ANSI_1252
9
$HANDSEED
5
259
9
$ANGBASE
50
0.0
9
$ANGDIR
70
0
9
$ATTMODE
70
1
9
$AUNITS
70
0
9
$AUPREC
70
0
9
$CECOLOR
62
256
9
$CELTSCALE
40
1.0
9
$CELTYPE
6
ByLayer
9
$CELWEIGHT
370
-1
9
$CLAYER
8
0
9
$CMLJUST
70
0
9
$CMLSCALE
40
20.0
9
$CMLSTYLE
2
Standard
9
$DIMSTYLE
2
Standard
9
$TEXTSIZE
40
2.5
9
$TEXTSTYLE
7
Standard
9
$LUNITS
70
2
9
$LUPREC
70
4
9
$EXTNAMES
290
1
9
$INSBASE
10
0.0
20
0.0
30
0.0
9
$INSUNITS
70
0
9
$LTSCALE
40
1.0
9
$LWDISPLAY
290
0
9
$PDMODE
70
0
9
$PDSIZE
40
0.0
9
$PLINEGEN
70
0
9
$TDCREATE
40
2458066.33982199
9
$TDUCREATE
40
2458066.25648866
9
$TDUPDATE
40
2458066.33982199
9
$TDUUPDATE
40
2458066.25648866
9
$TDINDWG
40
0.0
0
ENDSEC
0
SECTION
2
CLASSES
0
CLASS
1
RASTERVARIABLES
2
AcDbRasterVariables
3
ISM
90
0
280
0
281
0
0
ENDSEC
0
SECTION
2
TABLES
0
TABLE
2
APPID
5
3
330
0
100
AcDbSymbolTable
70
2
0
APPID
5
14
330
3
100
AcDbSymbolTableRecord
100
AcDbRegAppTableRecord
2
ACAD
70
0
0
APPID
5
253
330
3
100
AcDbSymbolTableRecord
100
AcDbRegAppTableRecord
2
AcCmTransparency
70
0
0
ENDTAB
0
TABLE
2
VPORT
5
1
330
0
100
AcDbSymbolTable
70
1
0
VPORT
5
E
330
1
100
AcDbSymbolTableRecord
100
AcDbViewportTableRecord
2
*Active
70
0
10
0.0
20
0.0
11
1.0
21
1.0
12
-1.0
22
1.0
13
0.0
23
0.0
14
0.5
24
0.5
15
10.0
25
10.0
16
0.0
26
0.0
36
1.0
17
0.0
27
0.0
37
0.0
0
ENDTAB
0
TABLE
2
LTYPE
5
5
330
0
100
AcDbSymbolTable
70
4
0
LTYPE
5
10
330
5
100
AcDbSymbolTableRecord
100
AcDbLinetypeTableRecord
70
0
2
Continuous
3
Solid line
72
65
73
0
40
0.0
0
LTYPE
5
11
330
5
100
AcDbSymbolTableRecord
100
AcDbLinetypeTableRecord
70
0
2
ByLayer
3

72
65
73
0
40
0.0
0
LTYPE
5
12
330
5
100
AcDbSymbolTableRecord
100
AcDbLinetypeTableRecord
70
0
2
ByBlock
3

72
65
73
0
40
0.0
0
LTYPE
5
1F
330
5
100
AcDbSymbolTableRecord
100
AcDbLinetypeTableRecord
70
0
2
Center
3
Center, ____ _ ____ _ ____ _ ____ _ ____ _ ____
72
65
73
4
40
2.0
49
1.25
74
0
49
-0.25
74
0
49
0.25
74
0
49
-0.25
74
0
0
ENDTAB
0
TABLE
2
LAYER
5
4
330
0
100
AcDbSymbolTable
70
7
0
LAYER
5
F
330
4
100
AcDbSymbolTableRecord
100
AcDbLayerTableRecord
2
0
70
0
62
7
6
Continuous
290
1
370
-3
390
0
0
LAYER
5
1E
330
4
100
AcDbSymbolTableRecord
100
AcDbLayerTableRecord
2
Grids
70
0
62
1
6
Continuous
290
1
370
-3
390
0
0
LAYER
5
23
330
4
100
AcDbSymbolTableRecord
100
AcDbLayerTableRecord
2
Text
70
0
62
2
6
Continuous
290
1
370
-3
390
0
0
LAYER
5
2A
330
4
100
AcDbSymbolTableRecord
100
AcDbLayerTableRecord
2
Columns
70
0
62
5
6
Continuous
290
1
370
-3
390
0
0
LAYER
5
42
330
4
100
AcDbSymbolTableRecord
100
AcDbLayerTableRecord
2
Defpoints
70
0
62
7
6
Continuous
290
0
370
-3
390
0
0
LAYER
5
4B
330
4
100
AcDbSymbolTableRecord
100
AcDbLayerTableRecord
2
Dimensions
70
0
62
6
6
Continuous
290
1
370
-3
390
0
0
LAYER
5
223
330
4
100
AcDbSymbolTableRecord
100
AcDbLayerTableRecord
2
Border
70
0
62
3
6
Continuous
290
1
370
-3
390
0
0
ENDTAB
0
TABLE
2
STYLE
5
6
330
0
100
AcDbSymbolTable
70
1
0
STYLE
5
13
330
6
100
AcDbSymbolTableRecord
100
AcDbTextStyleTableRecord
2
Standard
3
simplex.shx
70
0
71
0
40
0.0
41
1.0
42
0.0
50
0.0
0
ENDTAB
0
TABLE
2
DIMSTYLE
5
7
330
0
100
AcDbSymbolTable
70
2
100
AcDbDimStyleTable
0
DIMSTYLE
105
15
330
7
100
AcDbSymbolTableRecord
100
AcDbDimStyleTableRecord
2
Standard
70
0
3
<>
40
1.0
41
0.18
42
0.0625
43
0.38
44
0.18
46
0.0
73
0
74
0
75
0
76
0
77
1
140
0.18
141
0.09
147
0.09
173
0
176
0
177
0
178
0
179
0
271
2
275
0
278
46
280
0
340
13
345
12
346
12
347
12
371
-2
372
-2
0
DIMSTYLE
105
3D
330
7
100
AcDbSymbolTableRecord
100
AcDbDimStyleTableRecord
2
karim
70
0
3
<>
40
500.0
41
0.18
42
0.0625
43
0.38
44
0.18
46
0.0
73
0
74
0
75
0
76
0
77
1
140
0.18
141
0.09
147
0.09
173
0
176
0
177
0
178
0
179
0
271
2
275
0
278
46
280
0
340
13
345
12
346
12
347
12
371
-2
372
-2
0
ENDTAB
0
TABLE
2
VIEW
5
2
330
0
100
AcDbSymbolTable
70
0
0
ENDTAB
0
TABLE
2
UCS
5
9
330
0
100
AcDbSymbolTable
70
0
0
ENDTAB
0
TABLE
2
BLOCK_RECORD
5
A
330
0
100
AcDbSymbolTable
70
27
0
BLOCK_RECORD
5
17
330
A
100
AcDbSymbolTableRecord
100
AcDbBlockTableRecord
2
*Model_Space
340
1B
0
BLOCK_RECORD
5
27
330
A
100
AcDbSymbolTableRecord
100
AcDbBlockTableRecord
2
Vertical Down I Column
340
0
70
0
280
1
281
0
1001
ACAD
1000
DesignCenter Data
1002
{
1070
1
1070
0
1002
}
0
BLOCK_RECORD
5
3E
330
A
100
AcDbSymbolTableRecord
100
AcDbBlockTableRecord
2
*D1
340
0
0
BLOCK_RECORD
5
56
330
A
100
AcDbSymbolTableRecord
100
AcDbBlockTableRecord
2
*D2
340
0
0
BLOCK_RECORD
5
6C
330
A
100
AcDbSymbolTableRecord
100
AcDbBlockTableRecord
2
*D3
340
0
0
BLOCK_RECORD
5
82
330
A
100
AcDbSymbolTableRecord
100
AcDbBlockTableRecord
2
*D4
340
0
0
BLOCK_RECORD
5
98
330
A
100
AcDbSymbolTableRecord
100
AcDbBlockTableRecord
2
*D5
340
0
0
BLOCK_RECORD
5
AE
330
A
100
AcDbSymbolTableRecord
100
AcDbBlockTableRecord
2
*D6
340
0
0
BLOCK_RECORD
5
C4
330
A
100
AcDbSymbolTableRecord
100
AcDbBlockTableRecord
2
*D7
340
0
0
BLOCK_RECORD
5
DA
330
A
100
AcDbSymbolTableRecord
100
AcDbBlockTableRecord
2
*D8
340
0
0
BLOCK_RECORD
5
F0
330
A
100
AcDbSymbolTableRecord
100
AcDbBlockTableRecord
2
*D9
340
0
0
BLOCK_RECORD
5
106
330
A
100
AcDbSymbolTableRecord
100
AcDbBlockTableRecord
2
*D10
340
0
0
BLOCK_RECORD
5
122
330
A
100
AcDbSymbolTableRecord
100
AcDbBlockTableRecord
2
Horizontal Left I beam
340
0
70
0
280
1
281
0
1001
ACAD
1000
DesignCenter Data
1002
{
1070
1
1070
0
1002
}
0
BLOCK_RECORD
5
136
330
A
100
AcDbSymbolTableRecord
100
AcDbBlockTableRecord
2
Horizontal right I Column
340
0
70
0
280
1
281
0
1001
ACAD
1000
DesignCenter Data
1002
{
1070
1
1070
0
1002
}
0
BLOCK_RECORD
5
149
330
A
100
AcDbSymbolTableRecord
100
AcDbBlockTableRecord
2
*D11
340
0
0
BLOCK_RECORD
5
15F
330
A
100
AcDbSymbolTableRecord
100
AcDbBlockTableRecord
2
*D12
340
0
0
BLOCK_RECORD
5
175
330
A
100
AcDbSymbolTableRecord
100
AcDbBlockTableRecord
2
*D13
340
0
0
BLOCK_RECORD
5
18B
330
A
100
AcDbSymbolTableRecord
100
AcDbBlockTableRecord
2
*D14
340
0
0
BLOCK_RECORD
5
1A1
330
A
100
AcDbSymbolTableRecord
100
AcDbBlockTableRecord
2
*D15
340
0
0
BLOCK_RECORD
5
1B7
330
A
100
AcDbSymbolTableRecord
100
AcDbBlockTableRecord
2
*D16
340
0
0
BLOCK_RECORD
5
1CD
330
A
100
AcDbSymbolTableRecord
100
AcDbBlockTableRecord
2
*D17
340
0
0
BLOCK_RECORD
5
1E3
330
A
100
AcDbSymbolTableRecord
100
AcDbBlockTableRecord
2
*D18
340
0
0
BLOCK_RECORD
5
1F9
330
A
100
AcDbSymbolTableRecord
100
AcDbBlockTableRecord
2
*D19
340
0
0
BLOCK_RECORD
5
20B
330
A
100
AcDbSymbolTableRecord
100
AcDbBlockTableRecord
2
*D20
340
0
0
BLOCK_RECORD
5
234
330
A
100
AcDbSymbolTableRecord
100
AcDbBlockTableRecord
2
*D21
340
0
0
BLOCK_RECORD
5
241
330
A
100
AcDbSymbolTableRecord
100
AcDbBlockTableRecord
2
*D22
340
0
0
BLOCK_RECORD
5
24D
330
A
100
AcDbSymbolTableRecord
100
AcDbBlockTableRecord
2
*Paper_Space
340
252
0
ENDTAB
0
ENDSEC
0
SECTION
2
BLOCKS
0
BLOCK
5
19
330
17
100
AcDbEntity
8
0
100
AcDbBlockBegin
2
*Model_Space
70
0
10
0.0
20
0.0
30
0.0
3
*Model_Space
0
ENDBLK
5
18
330
17
100
AcDbEntity
8
0
100
AcDbBlockEnd
0
BLOCK
5
29
330
27
100
AcDbEntity
8
Columns
100
AcDbBlockBegin
2
Vertical Down I Column
70
0
10
0.0
20
0.0
30
0.0
3
Vertical Down I Column
0
POLYLINE
5
39
330
27
100
AcDbEntity
8
0
62
256
6
ByLayer
370
-1
48
1.0
60
0
100
AcDb3dPolyline
10
0.0
20
0.0
30
0.0
70
9
75
0
210
0.0
220
0.0
230
1.0
0
VERTEX
5
2B
100
AcDbEntity
8
0
62
256
100
AcDbVertex
100
AcDb3dPolylineVertex
10
-100.0
20
0.0
30
0.0
70
32
0
VERTEX
5
2C
100
AcDbEntity
8
0
62
256
100
AcDbVertex
100
AcDb3dPolylineVertex
10
-100.0
20
8.0
30
0.0
70
32
0
VERTEX
5
2D
100
AcDbEntity
8
0
62
256
100
AcDbVertex
100
AcDb3dPolylineVertex
10
-2.5
20
8.0
30
0.0
70
32
0
VERTEX
5
2E
100
AcDbEntity
8
0
62
256
100
AcDbVertex
100
AcDb3dPolylineVertex
10
-2.5
20
592.0
30
0.0
70
32
0
VERTEX
5
2F
100
AcDbEntity
8
0
62
256
100
AcDbVertex
100
AcDb3dPolylineVertex
10
-100.0
20
592.0
30
0.0
70
32
0
VERTEX
5
30
100
AcDbEntity
8
0
62
256
100
AcDbVertex
100
AcDb3dPolylineVertex
10
-100.0
20
600.0
30
0.0
70
32
0
VERTEX
5
31
100
AcDbEntity
8
0
62
256
100
AcDbVertex
100
AcDb3dPolylineVertex
10
100.0
20
600.0
30
0.0
70
32
0
VERTEX
5
32
100
AcDbEntity
8
0
62
256
100
AcDbVertex
100
AcDb3dPolylineVertex
10
100.0
20
592.0
30
0.0
70
32
0
VERTEX
5
33
100
AcDbEntity
8
0
62
256
100
AcDbVertex
100
AcDb3dPolylineVertex
10
2.5
20
592.0
30
0.0
70
32
0
VERTEX
5
34
100
AcDbEntity
8
0
62
256
100
AcDbVertex
100
AcDb3dPolylineVertex
10
2.5
20
8.0
30
0.0
70
32
0
VERTEX
5
35
100
AcDbEntity
8
0
62
256
100
AcDbVertex
100
AcDb3dPolylineVertex
10
100.0
20
8.0
30
0.0
70
32
0
VERTEX
5
36
100
AcDbEntity
8
0
62
256
100
AcDbVertex
100
AcDb3dPolylineVertex
10
100.0
20
0.0
30
0.0
70
32
0
VERTEX
5
37
100
AcDbEntity
8
0
62
256
100
AcDbVertex
100
AcDb3dPolylineVertex
10
-100.0
20
0.0
30
0.0
70
32
0
SEQEND
5
38
100
AcDbEntity
8
0
0
ENDBLK
5
28
330
27
100
AcDbEntity
8
Columns
100
AcDbBlockEnd
0
BLOCK
5
40
330
3E
100
AcDbEntity
8
0
100
AcDbBlockBegin
2
*D1
70
1
10
0.0
20
0.0
30
0.0
3
*D1
0
POINT
5
41
330
3E
100
AcDbEntity
8
Defpoints
62
256
6
ByLayer
370
-1
48
1.0
60
0
100
AcDbPoint
10
0.0
20
0.0
30
0.0
39
0.0
210
0.0
220
0.0
230
1.0
50
360.0
0
POINT
5
43
330
3E
100
AcDbEntity
8
Defpoints
62
256
6
ByLayer
370
-1
48
1.0
60
0
100
AcDbPoint
10
5454.54545454546
20
0.0
30
0.0
39
0.0
210
0.0
220
0.0
230
1.0
50
360.0
0
POINT
5
44
330
3E
100
AcDbEntity
8
Defpoints
62
256
6
ByLayer
370
-1
48
1.0
60
0
100
AcDbPoint
10
5454.54545454546
20
-500.0
30
0.0
39
0.0
210
0.0
220
0.0
230
1.0
50
360.0
0
LINE
5
45
330
3E
100
AcDbEntity
8
0
62
0
6
ByBlock
370
-2
48
1.0
60
0
100
AcDbLine
10
-0.00000000000000191
20
-31.25
30
0.0
11
-0.00000000000003613
21
-590.0
31
0.0
39
0.0
210
0.0
220
0.0
230
1.0
0
LINE
5
46
330
3E
100
AcDbEntity
8
0
62
0
6
ByBlock
370
-2
48
1.0
60
0
100
AcDbLine
10
5454.54545454546
20
-31.25
30
0.0
11
5454.54545454546
21
-590.0
31
0.0
39
0.0
210
0.0
220
0.0
230
1.0
0
LINE
5
47
330
3E
100
AcDbEntity
8
0
62
0
6
ByBlock
370
-2
48
1.0
60
0
100
AcDbLine
10
90.0
20
-500.0
30
0.0
11
5364.54545454546
21
-500.0
31
0.0
39
0.0
210
0.0
220
0.0
230
1.0
0
SOLID
5
48
330
3E
100
AcDbEntity
8
0
62
0
6
ByLayer
370
-1
48
1.0
60
0
100
AcDbTrace
10
-0.00000000000003062
20
-500.0
30
0.0
11
90.0
21
-485.0
31
0.0
12
90.0
22
-515.0
32
0.0
13
90.0
23
-515.0
33
0.0
39
0.0
210
0.0
220
0.0
230
1.0
0
SOLID
5
49
330
3E
100
AcDbEntity
8
0
62
0
6
ByLayer
370
-1
48
1.0
60
0
100
AcDbTrace
10
5454.54545454546
20
-500.0
30
0.0
11
5364.54545454546
21
-515.0
31
0.0
12
5364.54545454546
22
-485.0
32
0.0
13
5364.54545454546
23
-485.0
33
0.0
39
0.0
210
0.0
220
0.0
230
1.0
0
MTEXT
5
4A
330
3E
100
AcDbEntity
8
0
62
0
6
ByLayer
370
-1
48
1.0
60
0
100
AcDbMText
10
2727.27272727273
20
-455.0
30
0.0
210
0.0
220
0.0
230
1.0
1
5454.55
40
90.0
41
0.0
44
1.0
50
0.0
71
8
72
5
7
Standard
0
ENDBLK
5
3F
330
3E
100
AcDbEntity
8
0
100
AcDbBlockEnd
0
BLOCK
5
58
330
56
100
AcDbEntity
8
0
100
AcDbBlockBegin
2
*D2
70
1
10
0.0
20
0.0
30
0.0
3
*D2
0
POINT
5
59
330
56
100
AcDbEntity
8
Defpoints
62
256
6
ByLayer
370
-1
48
1.0
60
0
100
AcDbPoint
10
5454.54545454546
20
0.0
30
0.0
39
0.0
210
0.0
220
0.0
230
1.0
50
360.0
0
POINT
5
5A
330
56
100
AcDbEntity
8
Defpoints
62
256
6
ByLayer
370
-1
48
1.0
60
0
100
AcDbPoint
10
10909.0909090909
20
0.0
30
0.0
39
0.0
210
0.0
220
0.0
230
1.0
50
360.0
0
POINT
5
5B
330
56
100
AcDbEntity
8
Defpoints
62
256
6
ByLayer
370
-1
48
1.0
60
0
100
AcDbPoint
10
10909.0909090909
20
-500.0
30
0.0
39
0.0
210
0.0
220
0.0
230
1.0
50
360.0
0
LINE
5
5C
330
56
100
AcDbEntity
8
0
62
0
6
ByBlock
370
-2
48
1.0
60
0
100
AcDbLine
10
5454.54545454546
20
-31.25
30
0.0
11
5454.54545454546
21
-590.0
31
0.0
39
0.0
210
0.0
220
0.0
230
1.0
0
LINE
5
5D
330
56
100
AcDbEntity
8
0
62
0
6
ByBlock
370
-2
48
1.0
60
0
100
AcDbLine
10
10909.0909090909
20
-31.25
30
0.0
11
10909.0909090909
21
-590.0
31
0.0
39
0.0
210
0.0
220
0.0
230
1.0
0
LINE
5
5E
330
56
100
AcDbEntity
8
0
62
0
6
ByBlock
370
-2
48
1.0
60
0
100
AcDbLine
10
5544.54545454546
20
-500.0
30
0.0
11
10819.0909090909
21
-500.0
31
0.0
39
0.0
210
0.0
220
0.0
230
1.0
0
SOLID
5
5F
330
56
100
AcDbEntity
8
0
62
0
6
ByLayer
370
-1
48
1.0
60
0
100
AcDbTrace
10
5454.54545454546
20
-500.0
30
0.0
11
5544.54545454546
21
-485.0
31
0.0
12
5544.54545454546
22
-515.0
32
0.0
13
5544.54545454546
23
-515.0
33
0.0
39
0.0
210
0.0
220
0.0
230
1.0
0
SOLID
5
60
330
56
100
AcDbEntity
8
0
62
0
6
ByLayer
370
-1
48
1.0
60
0
100
AcDbTrace
10
10909.0909090909
20
-500.0
30
0.0
11
10819.0909090909
21
-515.0
31
0.0
12
10819.0909090909
22
-485.0
32
0.0
13
10819.0909090909
23
-485.0
33
0.0
39
0.0
210
0.0
220
0.0
230
1.0
0
MTEXT
5
61
330
56
100
AcDbEntity
8
0
62
0
6
ByLayer
370
-1
48
1.0
60
0
100
AcDbMText
10
8181.81818181818
20
-455.0
30
0.0
210
0.0
220
0.0
230
1.0
1
5454.55
40
90.0
41
0.0
44
1.0
50
0.0
71
8
72
5
7
Standard
0
ENDBLK
5
57
330
56
100
AcDbEntity
8
0
100
AcDbBlockEnd
0
BLOCK
5
6E
330
6C
100
AcDbEntity
8
0
100
AcDbBlockBegin
2
*D3
70
1
10
0.0
20
0.0
30
0.0
3
*D3
0
POINT
5
6F
330
6C
100
AcDbEntity
8
Defpoints
62
256
6
ByLayer
370
-1
48
1.0
60
0
100
AcDbPoint
10
10909.0909090909
20
0.0
30
0.0
39
0.0
210
0.0
220
0.0
230
1.0
50
360.0
0
POINT
5
70
330
6C
100
AcDbEntity
8
Defpoints
62
256
6
ByLayer
370
-1
48
1.0
60
0
100
AcDbPoint
10
16363.6363636364
20
0.0
30
0.0
39
0.0
210
0.0
220
0.0
230
1.0
50
360.0
0
POINT
5
71
330
6C
100
AcDbEntity
8
Defpoints
62
256
6
ByLayer
370
-1
48
1.0
60
0
100
AcDbPoint
10
16363.6363636364
20
-500.0
30
0.0
39
0.0
210
0.0
220
0.0
230
1.0
50
360.0
0
LINE
5
72
330
6C
100
AcDbEntity
8
0
62
0
6
ByBlock
370
-2
48
1.0
60
0
100
AcDbLine
10
10909.0909090909
20
-31.25
30
0.0
11
10909.0909090909
21
-590.0
31
0.0
39
0.0
210
0.0
220
0.0
230
1.0
0
LINE
5
73
330
6C
100
AcDbEntity
8
0
62
0
6
ByBlock
370
-2
48
1.0
60
0
100
AcDbLine
10
16363.6363636364
20
-31.25
30
0.0
11
16363.6363636364
21
-590.0
31
0.0
39
0.0
210
0.0
220
0.0
230
1.0
0
LINE
5
74
330
6C
100
AcDbEntity
8
0
62
0
6
ByBlock
370
-2
48
1.0
60
0
100
AcDbLine
10
10999.0909090909
20
-500.0
30
0.0
11
16273.6363636364
21
-500.0
31
0.0
39
0.0
210
0.0
220
0.0
230
1.0
0
SOLID
5
75
330
6C
100
AcDbEntity
8
0
62
0
6
ByLayer
370
-1
48
1.0
60
0
100
AcDbTrace
10
10909.0909090909
20
-500.0
30
0.0
11
10999.0909090909
21
-485.0
31
0.0
12
10999.0909090909
22
-515.0
32
0.0
13
10999.0909090909
23
-515.0
33
0.0
39
0.0
210
0.0
220
0.0
230
1.0
0
SOLID
5
76
330
6C
100
AcDbEntity
8
0
62
0
6
ByLayer
370
-1
48
1.0
60
0
100
AcDbTrace
10
16363.6363636364
20
-500.0
30
0.0
11
16273.6363636364
21
-515.0
31
0.0
12
16273.6363636364
22
-485.0
32
0.0
13
16273.6363636364
23
-485.0
33
0.0
39
0.0
210
0.0
220
0.0
230
1.0
0
MTEXT
5
77
330
6C
100
AcDbEntity
8
0
62
0
6
ByLayer
370
-1
48
1.0
60
0
100
AcDbMText
10
13636.3636363636
20
-455.0
30
0.0
210
0.0
220
0.0
230
1.0
1
5454.55
40
90.0
41
0.0
44
1.0
50
0.0
71
8
72
5
7
Standard
0
ENDBLK
5
6D
330
6C
100
AcDbEntity
8
0
100
AcDbBlockEnd
0
BLOCK
5
84
330
82
100
AcDbEntity
8
0
100
AcDbBlockBegin
2
*D4
70
1
10
0.0
20
0.0
30
0.0
3
*D4
0
POINT
5
85
330
82
100
AcDbEntity
8
Defpoints
62
256
6
ByLayer
370
-1
48
1.0
60
0
100
AcDbPoint
10
16363.6363636364
20
0.0
30
0.0
39
0.0
210
0.0
220
0.0
230
1.0
50
360.0
0
POINT
5
86
330
82
100
AcDbEntity
8
Defpoints
62
256
6
ByLayer
370
-1
48
1.0
60
0
100
AcDbPoint
10
21818.1818181818
20
0.0
30
0.0
39
0.0
210
0.0
220
0.0
230
1.0
50
360.0
0
POINT
5
87
330
82
100
AcDbEntity
8
Defpoints
62
256
6
ByLayer
370
-1
48
1.0
60
0
100
AcDbPoint
10
21818.1818181818
20
-500.0
30
0.0
39
0.0
210
0.0
220
0.0
230
1.0
50
360.0
0
LINE
5
88
330
82
100
AcDbEntity
8
0
62
0
6
ByBlock
370
-2
48
1.0
60
0
100
AcDbLine
10
16363.6363636364
20
-31.25
30
0.0
11
16363.6363636364
21
-590.0
31
0.0
39
0.0
210
0.0
220
0.0
230
1.0
0
LINE
5
89
330
82
100
AcDbEntity
8
0
62
0
6
ByBlock
370
-2
48
1.0
60
0
100
AcDbLine
10
21818.1818181818
20
-31.25
30
0.0
11
21818.1818181818
21
-590.0
31
0.0
39
0.0
210
0.0
220
0.0
230
1.0
0
LINE
5
8A
330
82
100
AcDbEntity
8
0
62
0
6
ByBlock
370
-2
48
1.0
60
0
100
AcDbLine
10
16453.6363636364
20
-500.0
30
0.0
11
21728.1818181818
21
-500.0
31
0.0
39
0.0
210
0.0
220
0.0
230
1.0
0
SOLID
5
8B
330
82
100
AcDbEntity
8
0
62
0
6
ByLayer
370
-1
48
1.0
60
0
100
AcDbTrace
10
16363.6363636364
20
-500.0
30
0.0
11
16453.6363636364
21
-485.0
31
0.0
12
16453.6363636364
22
-515.0
32
0.0
13
16453.6363636364
23
-515.0
33
0.0
39
0.0
210
0.0
220
0.0
230
1.0
0
SOLID
5
8C
330
82
100
AcDbEntity
8
0
62
0
6
ByLayer
370
-1
48
1.0
60
0
100
AcDbTrace
10
21818.1818181818
20
-500.0
30
0.0
11
21728.1818181818
21
-515.0
31
0.0
12
21728.1818181818
22
-485.0
32
0.0
13
21728.1818181818
23
-485.0
33
0.0
39
0.0
210
0.0
220
0.0
230
1.0
0
MTEXT
5
8D
330
82
100
AcDbEntity
8
0
62
0
6
ByLayer
370
-1
48
1.0
60
0
100
AcDbMText
10
19090.9090909091
20
-455.0
30
0.0
210
0.0
220
0.0
230
1.0
1
5454.55
40
90.0
41
0.0
44
1.0
50
0.0
71
8
72
5
7
Standard
0
ENDBLK
5
83
330
82
100
AcDbEntity
8
0
100
AcDbBlockEnd
0
BLOCK
5
9A
330
98
100
AcDbEntity
8
0
100
AcDbBlockBegin
2
*D5
70
1
10
0.0
20
0.0
30
0.0
3
*D5
0
POINT
5
9B
330
98
100
AcDbEntity
8
Defpoints
62
256
6
ByLayer
370
-1
48
1.0
60
0
100
AcDbPoint
10
21818.1818181818
20
0.0
30
0.0
39
0.0
210
0.0
220
0.0
230
1.0
50
360.0
0
POINT
5
9C
330
98
100
AcDbEntity
8
Defpoints
62
256
6
ByLayer
370
-1
48
1.0
60
0
100
AcDbPoint
10
27272.7272727273
20
0.0
30
0.0
39
0.0
210
0.0
220
0.0
230
1.0
50
360.0
0
POINT
5
9D
330
98
100
AcDbEntity
8
Defpoints
62
256
6
ByLayer
370
-1
48
1.0
60
0
100
AcDbPoint
10
27272.7272727273
20
-500.0
30
0.0
39
0.0
210
0.0
220
0.0
230
1.0
50
360.0
0
LINE
5
9E
330
98
100
AcDbEntity
8
0
62
0
6
ByBlock
370
-2
48
1.0
60
0
100
AcDbLine
10
21818.1818181818
20
-31.25
30
0.0
11
21818.1818181818
21
-590.0
31
0.0
39
0.0
210
0.0
220
0.0
230
1.0
0
LINE
5
9F
330
98
100
AcDbEntity
8
0
62
0
6
ByBlock
370
-2
48
1.0
60
0
100
AcDbLine
10
27272.7272727273
20
-31.25
30
0.0
11
27272.7272727273
21
-590.0
31
0.0
39
0.0
210
0.0
220
0.0
230
1.0
0
LINE
5
A0
330
98
100
AcDbEntity
8
0
62
0
6
ByBlock
370
-2
48
1.0
60
0
100
AcDbLine
10
21908.1818181818
20
-500.0
30
0.0
11
27182.7272727273
21
-500.0
31
0.0
39
0.0
210
0.0
220
0.0
230
1.0
0
SOLID
5
A1
330
98
100
AcDbEntity
8
0
62
0
6
ByLayer
370
-1
48
1.0
60
0
100
AcDbTrace
10
21818.1818181818
20
-500.0
30
0.0
11
21908.1818181818
21
-485.0
31
0.0
12
21908.1818181818
22
-515.0
32
0.0
13
21908.1818181818
23
-515.0
33
0.0
39
0.0
210
0.0
220
0.0
230
1.0
0
SOLID
5
A2
330
98
100
AcDbEntity
8
0
62
0
6
ByLayer
370
-1
48
1.0
60
0
100
AcDbTrace
10
27272.7272727273
20
-500.0
30
0.0
11
27182.7272727273
21
-515.0
31
0.0
12
27182.7272727273
22
-485.0
32
0.0
13
27182.7272727273
23
-485.0
33
0.0
39
0.0
210
0.0
220
0.0
230
1.0
0
MTEXT
5
A3
330
98
100
AcDbEntity
8
0
62
0
6
ByLayer
370
-1
48
1.0
60
0
100
AcDbMText
10
24545.4545454545
20
-455.0
30
0.0
210
0.0
220
0.0
230
1.0
1
5454.55
40
90.0
41
0.0
44
1.0
50
0.0
71
8
72
5
7
Standard
0
ENDBLK
5
99
330
98
100
AcDbEntity
8
0
100
AcDbBlockEnd
0
BLOCK
5
B0
330
AE
100
AcDbEntity
8
0
100
AcDbBlockBegin
2
*D6
70
1
10
0.0
20
0.0
30
0.0
3
*D6
0
POINT
5
B1
330
AE
100
AcDbEntity
8
Defpoints
62
256
6
ByLayer
370
-1
48
1.0
60
0
100
AcDbPoint
10
27272.7272727273
20
0.0
30
0.0
39
0.0
210
0.0
220
0.0
230
1.0
50
360.0
0
POINT
5
B2
330
AE
100
AcDbEntity
8
Defpoints
62
256
6
ByLayer
370
-1
48
1.0
60
0
100
AcDbPoint
10
32727.2727272727
20
0.0
30
0.0
39
0.0
210
0.0
220
0.0
230
1.0
50
360.0
0
POINT
5
B3
330
AE
100
AcDbEntity
8
Defpoints
62
256
6
ByLayer
370
-1
48
1.0
60
0
100
AcDbPoint
10
32727.2727272727
20
-500.0
30
0.0
39
0.0
210
0.0
220
0.0
230
1.0
50
360.0
0
LINE
5
B4
330
AE
100
AcDbEntity
8
0
62
0
6
ByBlock
370
-2
48
1.0
60
0
100
AcDbLine
10
27272.7272727273
20
-31.25
30
0.0
11
27272.7272727273
21
-590.0
31
0.0
39
0.0
210
0.0
220
0.0
230
1.0
0
LINE
5
B5
330
AE
100
AcDbEntity
8
0
62
0
6
ByBlock
370
-2
48
1.0
60
0
100
AcDbLine
10
32727.2727272727
20
-31.25
30
0.0
11
32727.2727272727
21
-590.0
31
0.0
39
0.0
210
0.0
220
0.0
230
1.0
0
LINE
5
B6
330
AE
100
AcDbEntity
8
0
62
0
6
ByBlock
370
-2
48
1.0
60
0
100
AcDbLine
10
27362.7272727273
20
-500.0
30
0.0
11
32637.2727272727
21
-500.0
31
0.0
39
0.0
210
0.0
220
0.0
230
1.0
0
SOLID
5
B7
330
AE
100
AcDbEntity
8
0
62
0
6
ByLayer
370
-1
48
1.0
60
0
100
AcDbTrace
10
27272.7272727273
20
-500.0
30
0.0
11
27362.7272727273
21
-485.0
31
0.0
12
27362.7272727273
22
-515.0
32
0.0
13
27362.7272727273
23
-515.0
33
0.0
39
0.0
210
0.0
220
0.0
230
1.0
0
SOLID
5
B8
330
AE
100
AcDbEntity
8
0
62
0
6
ByLayer
370
-1
48
1.0
60
0
100
AcDbTrace
10
32727.2727272727
20
-500.0
30
0.0
11
32637.2727272727
21
-515.0
31
0.0
12
32637.2727272727
22
-485.0
32
0.0
13
32637.2727272727
23
-485.0
33
0.0
39
0.0
210
0.0
220
0.0
230
1.0
0
MTEXT
5
B9
330
AE
100
AcDbEntity
8
0
62
0
6
ByLayer
370
-1
48
1.0
60
0
100
AcDbMText
10
30000.0
20
-455.0
30
0.0
210
0.0
220
0.0
230
1.0
1
5454.55
40
90.0
41
0.0
44
1.0
50
0.0
71
8
72
5
7
Standard
0
ENDBLK
5
AF
330
AE
100
AcDbEntity
8
0
100
AcDbBlockEnd
0
BLOCK
5
C6
330
C4
100
AcDbEntity
8
0
100
AcDbBlockBegin
2
*D7
70
1
10
0.0
20
0.0
30
0.0
3
*D7
0
POINT
5
C7
330
C4
100
AcDbEntity
8
Defpoints
62
256
6
ByLayer
370
-1
48
1.0
60
0
100
AcDbPoint
10
32727.2727272727
20
0.0
30
0.0
39
0.0
210
0.0
220
0.0
230
1.0
50
360.0
0
POINT
5
C8
330
C4
100
AcDbEntity
8
Defpoints
62
256
6
ByLayer
370
-1
48
1.0
60
0
100
AcDbPoint
10
38181.8181818182
20
0.0
30
0.0
39
0.0
210
0.0
220
0.0
230
1.0
50
360.0
0
POINT
5
C9
330
C4
100
AcDbEntity
8
Defpoints
62
256
6
ByLayer
370
-1
48
1.0
60
0
100
AcDbPoint
10
38181.8181818182
20
-500.0
30
0.0
39
0.0
210
0.0
220
0.0
230
1.0
50
360.0
0
LINE
5
CA
330
C4
100
AcDbEntity
8
0
62
0
6
ByBlock
370
-2
48
1.0
60
0
100
AcDbLine
10
32727.2727272727
20
-31.25
30
0.0
11
32727.2727272727
21
-590.0
31
0.0
39
0.0
210
0.0
220
0.0
230
1.0
0
LINE
5
CB
330
C4
100
AcDbEntity
8
0
62
0
6
ByBlock
370
-2
48
1.0
60
0
100
AcDbLine
10
38181.8181818182
20
-31.25
30
0.0
11
38181.8181818182
21
-590.0
31
0.0
39
0.0
210
0.0
220
0.0
230
1.0
0
LINE
5
CC
330
C4
100
AcDbEntity
8
0
62
0
6
ByBlock
370
-2
48
1.0
60
0
100
AcDbLine
10
32817.2727272727
20
-500.0
30
0.0
11
38091.8181818182
21
-500.0
31
0.0
39
0.0
210
0.0
220
0.0
230
1.0
0
SOLID
5
CD
330
C4
100
AcDbEntity
8
0
62
0
6
ByLayer
370
-1
48
1.0
60
0
100
AcDbTrace
10
32727.2727272727
20
-500.0
30
0.0
11
32817.2727272727
21
-485.0
31
0.0
12
32817.2727272727
22
-515.0
32
0.0
13
32817.2727272727
23
-515.0
33
0.0
39
0.0
210
0.0
220
0.0
230
1.0
0
SOLID
5
CE
330
C4
100
AcDbEntity
8
0
62
0
6
ByLayer
370
-1
48
1.0
60
0
100
AcDbTrace
10
38181.8181818182
20
-500.0
30
0.0
11
38091.8181818182
21
-515.0
31
0.0
12
38091.8181818182
22
-485.0
32
0.0
13
38091.8181818182
23
-485.0
33
0.0
39
0.0
210
0.0
220
0.0
230
1.0
0
MTEXT
5
CF
330
C4
100
AcDbEntity
8
0
62
0
6
ByLayer
370
-1
48
1.0
60
0
100
AcDbMText
10
35454.5454545455
20
-455.0
30
0.0
210
0.0
220
0.0
230
1.0
1
5454.55
40
90.0
41
0.0
44
1.0
50
0.0
71
8
72
5
7
Standard
0
ENDBLK
5
C5
330
C4
100
AcDbEntity
8
0
100
AcDbBlockEnd
0
BLOCK
5
DC
330
DA
100
AcDbEntity
8
0
100
AcDbBlockBegin
2
*D8
70
1
10
0.0
20
0.0
30
0.0
3
*D8
0
POINT
5
DD
330
DA
100
AcDbEntity
8
Defpoints
62
256
6
ByLayer
370
-1
48
1.0
60
0
100
AcDbPoint
10
38181.8181818182
20
0.0
30
0.0
39
0.0
210
0.0
220
0.0
230
1.0
50
360.0
0
POINT
5
DE
330
DA
100
AcDbEntity
8
Defpoints
62
256
6
ByLayer
370
-1
48
1.0
60
0
100
AcDbPoint
10
43636.3636363636
20
0.0
30
0.0
39
0.0
210
0.0
220
0.0
230
1.0
50
360.0
0
POINT
5
DF
330
DA
100
AcDbEntity
8
Defpoints
62
256
6
ByLayer
370
-1
48
1.0
60
0
100
AcDbPoint
10
43636.3636363636
20
-500.0
30
0.0
39
0.0
210
0.0
220
0.0
230
1.0
50
360.0
0
LINE
5
E0
330
DA
100
AcDbEntity
8
0
62
0
6
ByBlock
370
-2
48
1.0
60
0
100
AcDbLine
10
38181.8181818182
20
-31.25
30
0.0
11
38181.8181818182
21
-590.0
31
0.0
39
0.0
210
0.0
220
0.0
230
1.0
0
LINE
5
E1
330
DA
100
AcDbEntity
8
0
62
0
6
ByBlock
370
-2
48
1.0
60
0
100
AcDbLine
10
43636.3636363636
20
-31.25
30
0.0
11
43636.3636363636
21
-590.0
31
0.0
39
0.0
210
0.0
220
0.0
230
1.0
0
LINE
5
E2
330
DA
100
AcDbEntity
8
0
62
0
6
ByBlock
370
-2
48
1.0
60
0
100
AcDbLine
10
38271.8181818182
20
-500.0
30
0.0
11
43546.3636363636
21
-500.0
31
0.0
39
0.0
210
0.0
220
0.0
230
1.0
0
SOLID
5
E3
330
DA
100
AcDbEntity
8
0
62
0
6
ByLayer
370
-1
48
1.0
60
0
100
AcDbTrace
10
38181.8181818182
20
-500.0
30
0.0
11
38271.8181818182
21
-485.0
31
0.0
12
38271.8181818182
22
-515.0
32
0.0
13
38271.8181818182
23
-515.0
33
0.0
39
0.0
210
0.0
220
0.0
230
1.0
0
SOLID
5
E4
330
DA
100
AcDbEntity
8
0
62
0
6
ByLayer
370
-1
48
1.0
60
0
100
AcDbTrace
10
43636.3636363636
20
-500.0
30
0.0
11
43546.3636363636
21
-515.0
31
0.0
12
43546.3636363636
22
-485.0
32
0.0
13
43546.3636363636
23
-485.0
33
0.0
39
0.0
210
0.0
220
0.0
230
1.0
0
MTEXT
5
E5
330
DA
100
AcDbEntity
8
0
62
0
6
ByLayer
370
-1
48
1.0
60
0
100
AcDbMText
10
40909.0909090909
20
-455.0
30
0.0
210
0.0
220
0.0
230
1.0
1
5454.55
40
90.0
41
0.0
44
1.0
50
0.0
71
8
72
5
7
Standard
0
ENDBLK
5
DB
330
DA
100
AcDbEntity
8
0
100
AcDbBlockEnd
0
BLOCK
5
F2
330
F0
100
AcDbEntity
8
0
100
AcDbBlockBegin
2
*D9
70
1
10
0.0
20
0.0
30
0.0
3
*D9
0
POINT
5
F3
330
F0
100
AcDbEntity
8
Defpoints
62
256
6
ByLayer
370
-1
48
1.0
60
0
100
AcDbPoint
10
43636.3636363636
20
0.0
30
0.0
39
0.0
210
0.0
220
0.0
230
1.0
50
360.0
0
POINT
5
F4
330
F0
100
AcDbEntity
8
Defpoints
62
256
6
ByLayer
370
-1
48
1.0
60
0
100
AcDbPoint
10
49090.9090909091
20
0.0
30
0.0
39
0.0
210
0.0
220
0.0
230
1.0
50
360.0
0
POINT
5
F5
330
F0
100
AcDbEntity
8
Defpoints
62
256
6
ByLayer
370
-1
48
1.0
60
0
100
AcDbPoint
10
49090.9090909091
20
-500.0
30
0.0
39
0.0
210
0.0
220
0.0
230
1.0
50
360.0
0
LINE
5
F6
330
F0
100
AcDbEntity
8
0
62
0
6
ByBlock
370
-2
48
1.0
60
0
100
AcDbLine
10
43636.3636363636
20
-31.25
30
0.0
11
43636.3636363636
21
-590.0
31
0.0
39
0.0
210
0.0
220
0.0
230
1.0
0
LINE
5
F7
330
F0
100
AcDbEntity
8
0
62
0
6
ByBlock
370
-2
48
1.0
60
0
100
AcDbLine
10
49090.9090909091
20
-31.25
30
0.0
11
49090.9090909091
21
-590.0
31
0.0
39
0.0
210
0.0
220
0.0
230
1.0
0
LINE
5
F8
330
F0
100
AcDbEntity
8
0
62
0
6
ByBlock
370
-2
48
1.0
60
0
100
AcDbLine
10
43726.3636363636
20
-500.0
30
0.0
11
49000.9090909091
21
-500.0
31
0.0
39
0.0
210
0.0
220
0.0
230
1.0
0
SOLID
5
F9
330
F0
100
AcDbEntity
8
0
62
0
6
ByLayer
370
-1
48
1.0
60
0
100
AcDbTrace
10
43636.3636363636
20
-500.0
30
0.0
11
43726.3636363636
21
-485.0
31
0.0
12
43726.3636363636
22
-515.0
32
0.0
13
43726.3636363636
23
-515.0
33
0.0
39
0.0
210
0.0
220
0.0
230
1.0
0
SOLID
5
FA
330
F0
100
AcDbEntity
8
0
62
0
6
ByLayer
370
-1
48
1.0
60
0
100
AcDbTrace
10
49090.9090909091
20
-500.0
30
0.0
11
49000.9090909091
21
-515.0
31
0.0
12
49000.9090909091
22
-485.0
32
0.0
13
49000.9090909091
23
-485.0
33
0.0
39
0.0
210
0.0
220
0.0
230
1.0
0
MTEXT
5
FB
330
F0
100
AcDbEntity
8
0
62
0
6
ByLayer
370
-1
48
1.0
60
0
100
AcDbMText
10
46363.6363636364
20
-455.0
30
0.0
210
0.0
220
0.0
230
1.0
1
5454.55
40
90.0
41
0.0
44
1.0
50
0.0
71
8
72
5
7
Standard
0
ENDBLK
5
F1
330
F0
100
AcDbEntity
8
0
100
AcDbBlockEnd
0
BLOCK
5
108
330
106
100
AcDbEntity
8
0
100
AcDbBlockBegin
2
*D10
70
1
10
0.0
20
0.0
30
0.0
3
*D10
0
POINT
5
109
330
106
100
AcDbEntity
8
Defpoints
62
256
6
ByLayer
370
-1
48
1.0
60
0
100
AcDbPoint
10
49090.9090909091
20
0.0
30
0.0
39
0.0
210
0.0
220
0.0
230
1.0
50
360.0
0
POINT
5
10A
330
106
100
AcDbEntity
8
Defpoints
62
256
6
ByLayer
370
-1
48
1.0
60
0
100
AcDbPoint
10
54545.4545454546
20
0.0
30
0.0
39
0.0
210
0.0
220
0.0
230
1.0
50
360.0
0
POINT
5
10B
330
106
100
AcDbEntity
8
Defpoints
62
256
6
ByLayer
370
-1
48
1.0
60
0
100
AcDbPoint
10
54545.4545454546
20
-500.0
30
0.0
39
0.0
210
0.0
220
0.0
230
1.0
50
360.0
0
LINE
5
10C
330
106
100
AcDbEntity
8
0
62
0
6
ByBlock
370
-2
48
1.0
60
0
100
AcDbLine
10
49090.9090909091
20
-31.25
30
0.0
11
49090.9090909091
21
-590.0
31
0.0
39
0.0
210
0.0
220
0.0
230
1.0
0
LINE
5
10D
330
106
100
AcDbEntity
8
0
62
0
6
ByBlock
370
-2
48
1.0
60
0
100
AcDbLine
10
54545.4545454546
20
-31.25
30
0.0
11
54545.4545454546
21
-590.0
31
0.0
39
0.0
210
0.0
220
0.0
230
1.0
0
LINE
5
10E
330
106
100
AcDbEntity
8
0
62
0
6
ByBlock
370
-2
48
1.0
60
0
100
AcDbLine
10
49180.9090909091
20
-500.0
30
0.0
11
54455.4545454546
21
-500.0
31
0.0
39
0.0
210
0.0
220
0.0
230
1.0
0
SOLID
5
10F
330
106
100
AcDbEntity
8
0
62
0
6
ByLayer
370
-1
48
1.0
60
0
100
AcDbTrace
10
49090.9090909091
20
-500.0
30
0.0
11
49180.9090909091
21
-485.0
31
0.0
12
49180.9090909091
22
-515.0
32
0.0
13
49180.9090909091
23
-515.0
33
0.0
39
0.0
210
0.0
220
0.0
230
1.0
0
SOLID
5
110
330
106
100
AcDbEntity
8
0
62
0
6
ByLayer
370
-1
48
1.0
60
0
100
AcDbTrace
10
54545.4545454546
20
-500.0
30
0.0
11
54455.4545454546
21
-515.0
31
0.0
12
54455.4545454546
22
-485.0
32
0.0
13
54455.4545454546
23
-485.0
33
0.0
39
0.0
210
0.0
220
0.0
230
1.0
0
MTEXT
5
111
330
106
100
AcDbEntity
8
0
62
0
6
ByLayer
370
-1
48
1.0
60
0
100
AcDbMText
10
51818.1818181818
20
-455.0
30
0.0
210
0.0
220
0.0
230
1.0
1
5454.55
40
90.0
41
0.0
44
1.0
50
0.0
71
8
72
5
7
Standard
0
ENDBLK
5
107
330
106
100
AcDbEntity
8
0
100
AcDbBlockEnd
0
BLOCK
5
124
330
122
100
AcDbEntity
8
Columns
100
AcDbBlockBegin
2
Horizontal Left I beam
70
0
10
0.0
20
0.0
30
0.0
3
Horizontal Left I beam
0
POLYLINE
5
133
330
122
100
AcDbEntity
8
0
62
256
6
ByLayer
370
-1
48
1.0
60
0
100
AcDb3dPolyline
10
0.0
20
0.0
30
0.0
70
9
75
0
210
0.0
220
0.0
230
1.0
0
VERTEX
5
125
100
AcDbEntity
8
0
62
256
100
AcDbVertex
100
AcDb3dPolylineVertex
10
0.0
20
-100.0
30
0.0
70
32
0
VERTEX
5
126
100
AcDbEntity
8
0
62
256
100
AcDbVertex
100
AcDb3dPolylineVertex
10
8.0
20
-100.0
30
0.0
70
32
0
VERTEX
5
127
100
AcDbEntity
8
0
62
256
100
AcDbVertex
100
AcDb3dPolylineVertex
10
8.0
20
-2.5
30
0.0
70
32
0
VERTEX
5
128
100
AcDbEntity
8
0
62
256
100
AcDbVertex
100
AcDb3dPolylineVertex
10
592.0
20
-2.5
30
0.0
70
32
0
VERTEX
5
129
100
AcDbEntity
8
0
62
256
100
AcDbVertex
100
AcDb3dPolylineVertex
10
592.0
20
-100.0
30
0.0
70
32
0
VERTEX
5
12A
100
AcDbEntity
8
0
62
256
100
AcDbVertex
100
AcDb3dPolylineVertex
10
600.0
20
-100.0
30
0.0
70
32
0
VERTEX
5
12B
100
AcDbEntity
8
0
62
256
100
AcDbVertex
100
AcDb3dPolylineVertex
10
600.0
20
100.0
30
0.0
70
32
0
VERTEX
5
12C
100
AcDbEntity
8
0
62
256
100
AcDbVertex
100
AcDb3dPolylineVertex
10
592.0
20
100.0
30
0.0
70
32
0
VERTEX
5
12D
100
AcDbEntity
8
0
62
256
100
AcDbVertex
100
AcDb3dPolylineVertex
10
592.0
20
2.5
30
0.0
70
32
0
VERTEX
5
12E
100
AcDbEntity
8
0
62
256
100
AcDbVertex
100
AcDb3dPolylineVertex
10
8.0
20
2.5
30
0.0
70
32
0
VERTEX
5
12F
100
AcDbEntity
8
0
62
256
100
AcDbVertex
100
AcDb3dPolylineVertex
10
8.0
20
100.0
30
0.0
70
32
0
VERTEX
5
130
100
AcDbEntity
8
0
62
256
100
AcDbVertex
100
AcDb3dPolylineVertex
10
0.0
20
100.0
30
0.0
70
32
0
VERTEX
5
131
100
AcDbEntity
8
0
62
256
100
AcDbVertex
100
AcDb3dPolylineVertex
10
0.0
20
-100.0
30
0.0
70
32
0
SEQEND
5
132
100
AcDbEntity
8
0
0
ENDBLK
5
123
330
122
100
AcDbEntity
8
Columns
100
AcDbBlockEnd
0
BLOCK
5
138
330
136
100
AcDbEntity
8
Columns
100
AcDbBlockBegin
2
Horizontal right I Column
70
0
10
0.0
20
0.0
30
0.0
3
Horizontal right I Column
0
POLYLINE
5
147
330
136
100
AcDbEntity
8
0
62
256
6
ByLayer
370
-1
48
1.0
60
0
100
AcDb3dPolyline
10
0.0
20
0.0
30
0.0
70
9
75
0
210
0.0
220
0.0
230
1.0
0
VERTEX
5
139
100
AcDbEntity
8
0
62
256
100
AcDbVertex
100
AcDb3dPolylineVertex
10
0.0
20
-100.0
30
0.0
70
32
0
VERTEX
5
13A
100
AcDbEntity
8
0
62
256
100
AcDbVertex
100
AcDb3dPolylineVertex
10
8.0
20
-100.0
30
0.0
70
32
0
VERTEX
5
13B
100
AcDbEntity
8
0
62
256
100
AcDbVertex
100
AcDb3dPolylineVertex
10
8.0
20
-2.5
30
0.0
70
32
0
VERTEX
5
13C
100
AcDbEntity
8
0
62
256
100
AcDbVertex
100
AcDb3dPolylineVertex
10
592.0
20
-2.5
30
0.0
70
32
0
VERTEX
5
13D
100
AcDbEntity
8
0
62
256
100
AcDbVertex
100
AcDb3dPolylineVertex
10
592.0
20
-100.0
30
0.0
70
32
0
VERTEX
5
13E
100
AcDbEntity
8
0
62
256
100
AcDbVertex
100
AcDb3dPolylineVertex
10
600.0
20
-100.0
30
0.0
70
32
0
VERTEX
5
13F
100
AcDbEntity
8
0
62
256
100
AcDbVertex
100
AcDb3dPolylineVertex
10
600.0
20
100.0
30
0.0
70
32
0
VERTEX
5
140
100
AcDbEntity
8
0
62
256
100
AcDbVertex
100
AcDb3dPolylineVertex
10
592.0
20
100.0
30
0.0
70
32
0
VERTEX
5
141
100
AcDbEntity
8
0
62
256
100
AcDbVertex
100
AcDb3dPolylineVertex
10
592.0
20
2.5
30
0.0
70
32
0
VERTEX
5
142
100
AcDbEntity
8
0
62
256
100
AcDbVertex
100
AcDb3dPolylineVertex
10
8.0
20
2.5
30
0.0
70
32
0
VERTEX
5
143
100
AcDbEntity
8
0
62
256
100
AcDbVertex
100
AcDb3dPolylineVertex
10
8.0
20
100.0
30
0.0
70
32
0
VERTEX
5
144
100
AcDbEntity
8
0
62
256
100
AcDbVertex
100
AcDb3dPolylineVertex
10
0.0
20
100.0
30
0.0
70
32
0
VERTEX
5
145
100
AcDbEntity
8
0
62
256
100
AcDbVertex
100
AcDb3dPolylineVertex
10
0.0
20
-100.0
30
0.0
70
32
0
SEQEND
5
146
100
AcDbEntity
8
0
0
ENDBLK
5
137
330
136
100
AcDbEntity
8
Columns
100
AcDbBlockEnd
0
BLOCK
5
14B
330
149
100
AcDbEntity
8
0
100
AcDbBlockBegin
2
*D11
70
1
10
0.0
20
0.0
30
0.0
3
*D11
0
POINT
5
14C
330
149
100
AcDbEntity
8
Defpoints
62
256
6
ByLayer
370
-1
48
1.0
60
0
100
AcDbPoint
10
60000.0
20
0.0
30
0.0
39
0.0
210
0.0
220
0.0
230
1.0
50
360.0
0
POINT
5
14D
330
149
100
AcDbEntity
8
Defpoints
62
256
6
ByLayer
370
-1
48
1.0
60
0
100
AcDbPoint
10
60000.0
20
2000.0
30
0.0
39
0.0
210
0.0
220
0.0
230
1.0
50
360.0
0
POINT
5
14E
330
149
100
AcDbEntity
8
Defpoints
62
256
6
ByLayer
370
-1
48
1.0
60
0
100
AcDbPoint
10
60500.0
20
2000.0
30
0.0
39
0.0
210
0.0
220
0.0
230
1.0
50
360.0
0
LINE
5
14F
330
149
100
AcDbEntity
8
0
62
0
6
ByBlock
370
-2
48
1.0
60
0
100
AcDbLine
10
60031.25
20
-0.00000000000000383
30
0.0
11
60590.0
21
-0.00000000000007225
31
0.0
39
0.0
210
0.0
220
0.0
230
1.0
0
LINE
5
150
330
149
100
AcDbEntity
8
0
62
0
6
ByBlock
370
-2
48
1.0
60
0
100
AcDbLine
10
60031.25
20
2000.0
30
0.0
11
60590.0
21
2000.0
31
0.0
39
0.0
210
0.0
220
0.0
230
1.0
0
LINE
5
151
330
149
100
AcDbEntity
8
0
62
0
6
ByBlock
370
-2
48
1.0
60
0
100
AcDbLine
10
60500.0
20
89.9999999999999
30
0.0
11
60500.0
21
1910.0
31
0.0
39
0.0
210
0.0
220
0.0
230
1.0
0
SOLID
5
152
330
149
100
AcDbEntity
8
0
62
0
6
ByLayer
370
-1
48
1.0
60
0
100
AcDbTrace
10
60500.0
20
-0.00000000000006123
30
0.0
11
60485.0
21
89.9999999999999
31
0.0
12
60515.0
22
89.9999999999999
32
0.0
13
60515.0
23
89.9999999999999
33
0.0
39
0.0
210
0.0
220
0.0
230
1.0
0
SOLID
5
153
330
149
100
AcDbEntity
8
0
62
0
6
ByLayer
370
-1
48
1.0
60
0
100
AcDbTrace
10
60500.0
20
2000.0
30
0.0
11
60515.0
21
1910.0
31
0.0
12
60485.0
22
1910.0
32
0.0
13
60485.0
23
1910.0
33
0.0
39
0.0
210
0.0
220
0.0
230
1.0
0
MTEXT
5
154
330
149
100
AcDbEntity
8
0
62
0
6
ByLayer
370
-1
48
1.0
60
0
100
AcDbMText
10
60455.0
20
1000.0
30
0.0
210
0.0
220
0.0
230
1.0
1
2000.00
40
90.0
41
0.0
44
1.0
50
90.0
71
8
72
5
7
Standard
0
ENDBLK
5
14A
330
149
100
AcDbEntity
8
0
100
AcDbBlockEnd
0
BLOCK
5
161
330
15F
100
AcDbEntity
8
0
100
AcDbBlockBegin
2
*D12
70
1
10
0.0
20
0.0
30
0.0
3
*D12
0
POINT
5
162
330
15F
100
AcDbEntity
8
Defpoints
62
256
6
ByLayer
370
-1
48
1.0
60
0
100
AcDbPoint
10
60000.0
20
2000.0
30
0.0
39
0.0
210
0.0
220
0.0
230
1.0
50
360.0
0
POINT
5
163
330
15F
100
AcDbEntity
8
Defpoints
62
256
6
ByLayer
370
-1
48
1.0
60
0
100
AcDbPoint
10
60000.0
20
4000.0
30
0.0
39
0.0
210
0.0
220
0.0
230
1.0
50
360.0
0
POINT
5
164
330
15F
100
AcDbEntity
8
Defpoints
62
256
6
ByLayer
370
-1
48
1.0
60
0
100
AcDbPoint
10
60500.0
20
4000.0
30
0.0
39
0.0
210
0.0
220
0.0
230
1.0
50
360.0
0
LINE
5
165
330
15F
100
AcDbEntity
8
0
62
0
6
ByBlock
370
-2
48
1.0
60
0
100
AcDbLine
10
60031.25
20
2000.0
30
0.0
11
60590.0
21
2000.0
31
0.0
39
0.0
210
0.0
220
0.0
230
1.0
0
LINE
5
166
330
15F
100
AcDbEntity
8
0
62
0
6
ByBlock
370
-2
48
1.0
60
0
100
AcDbLine
10
60031.25
20
4000.0
30
0.0
11
60590.0
21
4000.0
31
0.0
39
0.0
210
0.0
220
0.0
230
1.0
0
LINE
5
167
330
15F
100
AcDbEntity
8
0
62
0
6
ByBlock
370
-2
48
1.0
60
0
100
AcDbLine
10
60500.0
20
2090.0
30
0.0
11
60500.0
21
3910.0
31
0.0
39
0.0
210
0.0
220
0.0
230
1.0
0
SOLID
5
168
330
15F
100
AcDbEntity
8
0
62
0
6
ByLayer
370
-1
48
1.0
60
0
100
AcDbTrace
10
60500.0
20
2000.0
30
0.0
11
60485.0
21
2090.0
31
0.0
12
60515.0
22
2090.0
32
0.0
13
60515.0
23
2090.0
33
0.0
39
0.0
210
0.0
220
0.0
230
1.0
0
SOLID
5
169
330
15F
100
AcDbEntity
8
0
62
0
6
ByLayer
370
-1
48
1.0
60
0
100
AcDbTrace
10
60500.0
20
4000.0
30
0.0
11
60515.0
21
3910.0
31
0.0
12
60485.0
22
3910.0
32
0.0
13
60485.0
23
3910.0
33
0.0
39
0.0
210
0.0
220
0.0
230
1.0
0
MTEXT
5
16A
330
15F
100
AcDbEntity
8
0
62
0
6
ByLayer
370
-1
48
1.0
60
0
100
AcDbMText
10
60455.0
20
3000.0
30
0.0
210
0.0
220
0.0
230
1.0
1
2000.00
40
90.0
41
0.0
44
1.0
50
90.0
71
8
72
5
7
Standard
0
ENDBLK
5
160
330
15F
100
AcDbEntity
8
0
100
AcDbBlockEnd
0
BLOCK
5
177
330
175
100
AcDbEntity
8
0
100
AcDbBlockBegin
2
*D13
70
1
10
0.0
20
0.0
30
0.0
3
*D13
0
POINT
5
178
330
175
100
AcDbEntity
8
Defpoints
62
256
6
ByLayer
370
-1
48
1.0
60
0
100
AcDbPoint
10
60000.0
20
4000.0
30
0.0
39
0.0
210
0.0
220
0.0
230
1.0
50
360.0
0
POINT
5
179
330
175
100
AcDbEntity
8
Defpoints
62
256
6
ByLayer
370
-1
48
1.0
60
0
100
AcDbPoint
10
60000.0
20
6000.0
30
0.0
39
0.0
210
0.0
220
0.0
230
1.0
50
360.0
0
POINT
5
17A
330
175
100
AcDbEntity
8
Defpoints
62
256
6
ByLayer
370
-1
48
1.0
60
0
100
AcDbPoint
10
60500.0
20
6000.0
30
0.0
39
0.0
210
0.0
220
0.0
230
1.0
50
360.0
0
LINE
5
17B
330
175
100
AcDbEntity
8
0
62
0
6
ByBlock
370
-2
48
1.0
60
0
100
AcDbLine
10
60031.25
20
4000.0
30
0.0
11
60590.0
21
4000.0
31
0.0
39
0.0
210
0.0
220
0.0
230
1.0
0
LINE
5
17C
330
175
100
AcDbEntity
8
0
62
0
6
ByBlock
370
-2
48
1.0
60
0
100
AcDbLine
10
60031.25
20
6000.0
30
0.0
11
60590.0
21
6000.0
31
0.0
39
0.0
210
0.0
220
0.0
230
1.0
0
LINE
5
17D
330
175
100
AcDbEntity
8
0
62
0
6
ByBlock
370
-2
48
1.0
60
0
100
AcDbLine
10
60500.0
20
4090.0
30
0.0
11
60500.0
21
5910.0
31
0.0
39
0.0
210
0.0
220
0.0
230
1.0
0
SOLID
5
17E
330
175
100
AcDbEntity
8
0
62
0
6
ByLayer
370
-1
48
1.0
60
0
100
AcDbTrace
10
60500.0
20
4000.0
30
0.0
11
60485.0
21
4090.0
31
0.0
12
60515.0
22
4090.0
32
0.0
13
60515.0
23
4090.0
33
0.0
39
0.0
210
0.0
220
0.0
230
1.0
0
SOLID
5
17F
330
175
100
AcDbEntity
8
0
62
0
6
ByLayer
370
-1
48
1.0
60
0
100
AcDbTrace
10
60500.0
20
6000.0
30
0.0
11
60515.0
21
5910.0
31
0.0
12
60485.0
22
5910.0
32
0.0
13
60485.0
23
5910.0
33
0.0
39
0.0
210
0.0
220
0.0
230
1.0
0
MTEXT
5
180
330
175
100
AcDbEntity
8
0
62
0
6
ByLayer
370
-1
48
1.0
60
0
100
AcDbMText
10
60455.0
20
5000.0
30
0.0
210
0.0
220
0.0
230
1.0
1
2000.00
40
90.0
41
0.0
44
1.0
50
90.0
71
8
72
5
7
Standard
0
ENDBLK
5
176
330
175
100
AcDbEntity
8
0
100
AcDbBlockEnd
0
BLOCK
5
18D
330
18B
100
AcDbEntity
8
0
100
AcDbBlockBegin
2
*D14
70
1
10
0.0
20
0.0
30
0.0
3
*D14
0
POINT
5
18E
330
18B
100
AcDbEntity
8
Defpoints
62
256
6
ByLayer
370
-1
48
1.0
60
0
100
AcDbPoint
10
60000.0
20
6000.0
30
0.0
39
0.0
210
0.0
220
0.0
230
1.0
50
360.0
0
POINT
5
18F
330
18B
100
AcDbEntity
8
Defpoints
62
256
6
ByLayer
370
-1
48
1.0
60
0
100
AcDbPoint
10
60000.0
20
8000.0
30
0.0
39
0.0
210
0.0
220
0.0
230
1.0
50
360.0
0
POINT
5
190
330
18B
100
AcDbEntity
8
Defpoints
62
256
6
ByLayer
370
-1
48
1.0
60
0
100
AcDbPoint
10
60500.0
20
8000.0
30
0.0
39
0.0
210
0.0
220
0.0
230
1.0
50
360.0
0
LINE
5
191
330
18B
100
AcDbEntity
8
0
62
0
6
ByBlock
370
-2
48
1.0
60
0
100
AcDbLine
10
60031.25
20
6000.0
30
0.0
11
60590.0
21
6000.0
31
0.0
39
0.0
210
0.0
220
0.0
230
1.0
0
LINE
5
192
330
18B
100
AcDbEntity
8
0
62
0
6
ByBlock
370
-2
48
1.0
60
0
100
AcDbLine
10
60031.25
20
8000.0
30
0.0
11
60590.0
21
8000.0
31
0.0
39
0.0
210
0.0
220
0.0
230
1.0
0
LINE
5
193
330
18B
100
AcDbEntity
8
0
62
0
6
ByBlock
370
-2
48
1.0
60
0
100
AcDbLine
10
60500.0
20
6090.0
30
0.0
11
60500.0
21
7910.0
31
0.0
39
0.0
210
0.0
220
0.0
230
1.0
0
SOLID
5
194
330
18B
100
AcDbEntity
8
0
62
0
6
ByLayer
370
-1
48
1.0
60
0
100
AcDbTrace
10
60500.0
20
6000.0
30
0.0
11
60485.0
21
6090.0
31
0.0
12
60515.0
22
6090.0
32
0.0
13
60515.0
23
6090.0
33
0.0
39
0.0
210
0.0
220
0.0
230
1.0
0
SOLID
5
195
330
18B
100
AcDbEntity
8
0
62
0
6
ByLayer
370
-1
48
1.0
60
0
100
AcDbTrace
10
60500.0
20
8000.0
30
0.0
11
60515.0
21
7910.0
31
0.0
12
60485.0
22
7910.0
32
0.0
13
60485.0
23
7910.0
33
0.0
39
0.0
210
0.0
220
0.0
230
1.0
0
MTEXT
5
196
330
18B
100
AcDbEntity
8
0
62
0
6
ByLayer
370
-1
48
1.0
60
0
100
AcDbMText
10
60455.0
20
7000.0
30
0.0
210
0.0
220
0.0
230
1.0
1
2000.00
40
90.0
41
0.0
44
1.0
50
90.0
71
8
72
5
7
Standard
0
ENDBLK
5
18C
330
18B
100
AcDbEntity
8
0
100
AcDbBlockEnd
0
BLOCK
5
1A3
330
1A1
100
AcDbEntity
8
0
100
AcDbBlockBegin
2
*D15
70
1
10
0.0
20
0.0
30
0.0
3
*D15
0
POINT
5
1A4
330
1A1
100
AcDbEntity
8
Defpoints
62
256
6
ByLayer
370
-1
48
1.0
60
0
100
AcDbPoint
10
60000.0
20
8000.0
30
0.0
39
0.0
210
0.0
220
0.0
230
1.0
50
360.0
0
POINT
5
1A5
330
1A1
100
AcDbEntity
8
Defpoints
62
256
6
ByLayer
370
-1
48
1.0
60
0
100
AcDbPoint
10
60000.0
20
10000.0
30
0.0
39
0.0
210
0.0
220
0.0
230
1.0
50
360.0
0
POINT
5
1A6
330
1A1
100
AcDbEntity
8
Defpoints
62
256
6
ByLayer
370
-1
48
1.0
60
0
100
AcDbPoint
10
60500.0
20
10000.0
30
0.0
39
0.0
210
0.0
220
0.0
230
1.0
50
360.0
0
LINE
5
1A7
330
1A1
100
AcDbEntity
8
0
62
0
6
ByBlock
370
-2
48
1.0
60
0
100
AcDbLine
10
60031.25
20
8000.0
30
0.0
11
60590.0
21
8000.0
31
0.0
39
0.0
210
0.0
220
0.0
230
1.0
0
LINE
5
1A8
330
1A1
100
AcDbEntity
8
0
62
0
6
ByBlock
370
-2
48
1.0
60
0
100
AcDbLine
10
60031.25
20
10000.0
30
0.0
11
60590.0
21
10000.0
31
0.0
39
0.0
210
0.0
220
0.0
230
1.0
0
LINE
5
1A9
330
1A1
100
AcDbEntity
8
0
62
0
6
ByBlock
370
-2
48
1.0
60
0
100
AcDbLine
10
60500.0
20
8090.0
30
0.0
11
60500.0
21
9910.0
31
0.0
39
0.0
210
0.0
220
0.0
230
1.0
0
SOLID
5
1AA
330
1A1
100
AcDbEntity
8
0
62
0
6
ByLayer
370
-1
48
1.0
60
0
100
AcDbTrace
10
60500.0
20
8000.0
30
0.0
11
60485.0
21
8090.0
31
0.0
12
60515.0
22
8090.0
32
0.0
13
60515.0
23
8090.0
33
0.0
39
0.0
210
0.0
220
0.0
230
1.0
0
SOLID
5
1AB
330
1A1
100
AcDbEntity
8
0
62
0
6
ByLayer
370
-1
48
1.0
60
0
100
AcDbTrace
10
60500.0
20
10000.0
30
0.0
11
60515.0
21
9910.0
31
0.0
12
60485.0
22
9910.0
32
0.0
13
60485.0
23
9910.0
33
0.0
39
0.0
210
0.0
220
0.0
230
1.0
0
MTEXT
5
1AC
330
1A1
100
AcDbEntity
8
0
62
0
6
ByLayer
370
-1
48
1.0
60
0
100
AcDbMText
10
60455.0
20
9000.0
30
0.0
210
0.0
220
0.0
230
1.0
1
2000.00
40
90.0
41
0.0
44
1.0
50
90.0
71
8
72
5
7
Standard
0
ENDBLK
5
1A2
330
1A1
100
AcDbEntity
8
0
100
AcDbBlockEnd
0
BLOCK
5
1B9
330
1B7
100
AcDbEntity
8
0
100
AcDbBlockBegin
2
*D16
70
1
10
0.0
20
0.0
30
0.0
3
*D16
0
POINT
5
1BA
330
1B7
100
AcDbEntity
8
Defpoints
62
256
6
ByLayer
370
-1
48
1.0
60
0
100
AcDbPoint
10
60000.0
20
10000.0
30
0.0
39
0.0
210
0.0
220
0.0
230
1.0
50
360.0
0
POINT
5
1BB
330
1B7
100
AcDbEntity
8
Defpoints
62
256
6
ByLayer
370
-1
48
1.0
60
0
100
AcDbPoint
10
60000.0
20
12000.0
30
0.0
39
0.0
210
0.0
220
0.0
230
1.0
50
360.0
0
POINT
5
1BC
330
1B7
100
AcDbEntity
8
Defpoints
62
256
6
ByLayer
370
-1
48
1.0
60
0
100
AcDbPoint
10
60500.0
20
12000.0
30
0.0
39
0.0
210
0.0
220
0.0
230
1.0
50
360.0
0
LINE
5
1BD
330
1B7
100
AcDbEntity
8
0
62
0
6
ByBlock
370
-2
48
1.0
60
0
100
AcDbLine
10
60031.25
20
10000.0
30
0.0
11
60590.0
21
10000.0
31
0.0
39
0.0
210
0.0
220
0.0
230
1.0
0
LINE
5
1BE
330
1B7
100
AcDbEntity
8
0
62
0
6
ByBlock
370
-2
48
1.0
60
0
100
AcDbLine
10
60031.25
20
12000.0
30
0.0
11
60590.0
21
12000.0
31
0.0
39
0.0
210
0.0
220
0.0
230
1.0
0
LINE
5
1BF
330
1B7
100
AcDbEntity
8
0
62
0
6
ByBlock
370
-2
48
1.0
60
0
100
AcDbLine
10
60500.0
20
10090.0
30
0.0
11
60500.0
21
11910.0
31
0.0
39
0.0
210
0.0
220
0.0
230
1.0
0
SOLID
5
1C0
330
1B7
100
AcDbEntity
8
0
62
0
6
ByLayer
370
-1
48
1.0
60
0
100
AcDbTrace
10
60500.0
20
10000.0
30
0.0
11
60485.0
21
10090.0
31
0.0
12
60515.0
22
10090.0
32
0.0
13
60515.0
23
10090.0
33
0.0
39
0.0
210
0.0
220
0.0
230
1.0
0
SOLID
5
1C1
330
1B7
100
AcDbEntity
8
0
62
0
6
ByLayer
370
-1
48
1.0
60
0
100
AcDbTrace
10
60500.0
20
12000.0
30
0.0
11
60515.0
21
11910.0
31
0.0
12
60485.0
22
11910.0
32
0.0
13
60485.0
23
11910.0
33
0.0
39
0.0
210
0.0
220
0.0
230
1.0
0
MTEXT
5
1C2
330
1B7
100
AcDbEntity
8
0
62
0
6
ByLayer
370
-1
48
1.0
60
0
100
AcDbMText
10
60455.0
20
11000.0
30
0.0
210
0.0
220
0.0
230
1.0
1
2000.00
40
90.0
41
0.0
44
1.0
50
90.0
71
8
72
5
7
Standard
0
ENDBLK
5
1B8
330
1B7
100
AcDbEntity
8
0
100
AcDbBlockEnd
0
BLOCK
5
1CF
330
1CD
100
AcDbEntity
8
0
100
AcDbBlockBegin
2
*D17
70
1
10
0.0
20
0.0
30
0.0
3
*D17
0
POINT
5
1D0
330
1CD
100
AcDbEntity
8
Defpoints
62
256
6
ByLayer
370
-1
48
1.0
60
0
100
AcDbPoint
10
60000.0
20
12000.0
30
0.0
39
0.0
210
0.0
220
0.0
230
1.0
50
360.0
0
POINT
5
1D1
330
1CD
100
AcDbEntity
8
Defpoints
62
256
6
ByLayer
370
-1
48
1.0
60
0
100
AcDbPoint
10
60000.0
20
14000.0
30
0.0
39
0.0
210
0.0
220
0.0
230
1.0
50
360.0
0
POINT
5
1D2
330
1CD
100
AcDbEntity
8
Defpoints
62
256
6
ByLayer
370
-1
48
1.0
60
0
100
AcDbPoint
10
60500.0
20
14000.0
30
0.0
39
0.0
210
0.0
220
0.0
230
1.0
50
360.0
0
LINE
5
1D3
330
1CD
100
AcDbEntity
8
0
62
0
6
ByBlock
370
-2
48
1.0
60
0
100
AcDbLine
10
60031.25
20
12000.0
30
0.0
11
60590.0
21
12000.0
31
0.0
39
0.0
210
0.0
220
0.0
230
1.0
0
LINE
5
1D4
330
1CD
100
AcDbEntity
8
0
62
0
6
ByBlock
370
-2
48
1.0
60
0
100
AcDbLine
10
60031.25
20
14000.0
30
0.0
11
60590.0
21
14000.0
31
0.0
39
0.0
210
0.0
220
0.0
230
1.0
0
LINE
5
1D5
330
1CD
100
AcDbEntity
8
0
62
0
6
ByBlock
370
-2
48
1.0
60
0
100
AcDbLine
10
60500.0
20
12090.0
30
0.0
11
60500.0
21
13910.0
31
0.0
39
0.0
210
0.0
220
0.0
230
1.0
0
SOLID
5
1D6
330
1CD
100
AcDbEntity
8
0
62
0
6
ByLayer
370
-1
48
1.0
60
0
100
AcDbTrace
10
60500.0
20
12000.0
30
0.0
11
60485.0
21
12090.0
31
0.0
12
60515.0
22
12090.0
32
0.0
13
60515.0
23
12090.0
33
0.0
39
0.0
210
0.0
220
0.0
230
1.0
0
SOLID
5
1D7
330
1CD
100
AcDbEntity
8
0
62
0
6
ByLayer
370
-1
48
1.0
60
0
100
AcDbTrace
10
60500.0
20
14000.0
30
0.0
11
60515.0
21
13910.0
31
0.0
12
60485.0
22
13910.0
32
0.0
13
60485.0
23
13910.0
33
0.0
39
0.0
210
0.0
220
0.0
230
1.0
0
MTEXT
5
1D8
330
1CD
100
AcDbEntity
8
0
62
0
6
ByLayer
370
-1
48
1.0
60
0
100
AcDbMText
10
60455.0
20
13000.0
30
0.0
210
0.0
220
0.0
230
1.0
1
2000.00
40
90.0
41
0.0
44
1.0
50
90.0
71
8
72
5
7
Standard
0
ENDBLK
5
1CE
330
1CD
100
AcDbEntity
8
0
100
AcDbBlockEnd
0
BLOCK
5
1E5
330
1E3
100
AcDbEntity
8
0
100
AcDbBlockBegin
2
*D18
70
1
10
0.0
20
0.0
30
0.0
3
*D18
0
POINT
5
1E6
330
1E3
100
AcDbEntity
8
Defpoints
62
256
6
ByLayer
370
-1
48
1.0
60
0
100
AcDbPoint
10
60000.0
20
14000.0
30
0.0
39
0.0
210
0.0
220
0.0
230
1.0
50
360.0
0
POINT
5
1E7
330
1E3
100
AcDbEntity
8
Defpoints
62
256
6
ByLayer
370
-1
48
1.0
60
0
100
AcDbPoint
10
60000.0
20
16000.0
30
0.0
39
0.0
210
0.0
220
0.0
230
1.0
50
360.0
0
POINT
5
1E8
330
1E3
100
AcDbEntity
8
Defpoints
62
256
6
ByLayer
370
-1
48
1.0
60
0
100
AcDbPoint
10
60500.0
20
16000.0
30
0.0
39
0.0
210
0.0
220
0.0
230
1.0
50
360.0
0
LINE
5
1E9
330
1E3
100
AcDbEntity
8
0
62
0
6
ByBlock
370
-2
48
1.0
60
0
100
AcDbLine
10
60031.25
20
14000.0
30
0.0
11
60590.0
21
14000.0
31
0.0
39
0.0
210
0.0
220
0.0
230
1.0
0
LINE
5
1EA
330
1E3
100
AcDbEntity
8
0
62
0
6
ByBlock
370
-2
48
1.0
60
0
100
AcDbLine
10
60031.25
20
16000.0
30
0.0
11
60590.0
21
16000.0
31
0.0
39
0.0
210
0.0
220
0.0
230
1.0
0
LINE
5
1EB
330
1E3
100
AcDbEntity
8
0
62
0
6
ByBlock
370
-2
48
1.0
60
0
100
AcDbLine
10
60500.0
20
14090.0
30
0.0
11
60500.0
21
15910.0
31
0.0
39
0.0
210
0.0
220
0.0
230
1.0
0
SOLID
5
1EC
330
1E3
100
AcDbEntity
8
0
62
0
6
ByLayer
370
-1
48
1.0
60
0
100
AcDbTrace
10
60500.0
20
14000.0
30
0.0
11
60485.0
21
14090.0
31
0.0
12
60515.0
22
14090.0
32
0.0
13
60515.0
23
14090.0
33
0.0
39
0.0
210
0.0
220
0.0
230
1.0
0
SOLID
5
1ED
330
1E3
100
AcDbEntity
8
0
62
0
6
ByLayer
370
-1
48
1.0
60
0
100
AcDbTrace
10
60500.0
20
16000.0
30
0.0
11
60515.0
21
15910.0
31
0.0
12
60485.0
22
15910.0
32
0.0
13
60485.0
23
15910.0
33
0.0
39
0.0
210
0.0
220
0.0
230
1.0
0
MTEXT
5
1EE
330
1E3
100
AcDbEntity
8
0
62
0
6
ByLayer
370
-1
48
1.0
60
0
100
AcDbMText
10
60455.0
20
15000.0
30
0.0
210
0.0
220
0.0
230
1.0
1
2000.00
40
90.0
41
0.0
44
1.0
50
90.0
71
8
72
5
7
Standard
0
ENDBLK
5
1E4
330
1E3
100
AcDbEntity
8
0
100
AcDbBlockEnd
0
BLOCK
5
1FB
330
1F9
100
AcDbEntity
8
0
100
AcDbBlockBegin
2
*D19
70
1
10
0.0
20
0.0
30
0.0
3
*D19
0
POINT
5
1FC
330
1F9
100
AcDbEntity
8
Defpoints
62
256
6
ByLayer
370
-1
48
1.0
60
0
100
AcDbPoint
10
60000.0
20
16000.0
30
0.0
39
0.0
210
0.0
220
0.0
230
1.0
50
360.0
0
POINT
5
1FD
330
1F9
100
AcDbEntity
8
Defpoints
62
256
6
ByLayer
370
-1
48
1.0
60
0
100
AcDbPoint
10
60000.0
20
18000.0
30
0.0
39
0.0
210
0.0
220
0.0
230
1.0
50
360.0
0
POINT
5
1FE
330
1F9
100
AcDbEntity
8
Defpoints
62
256
6
ByLayer
370
-1
48
1.0
60
0
100
AcDbPoint
10
60500.0
20
18000.0
30
0.0
39
0.0
210
0.0
220
0.0
230
1.0
50
360.0
0
LINE
5
1FF
330
1F9
100
AcDbEntity
8
0
62
0
6
ByBlock
370
-2
48
1.0
60
0
100
AcDbLine
10
60031.25
20
16000.0
30
0.0
11
60590.0
21
16000.0
31
0.0
39
0.0
210
0.0
220
0.0
230
1.0
0
LINE
5
200
330
1F9
100
AcDbEntity
8
0
62
0
6
ByBlock
370
-2
48
1.0
60
0
100
AcDbLine
10
60031.25
20
18000.0
30
0.0
11
60590.0
21
18000.0
31
0.0
39
0.0
210
0.0
220
0.0
230
1.0
0
LINE
5
201
330
1F9
100
AcDbEntity
8
0
62
0
6
ByBlock
370
-2
48
1.0
60
0
100
AcDbLine
10
60500.0
20
16090.0
30
0.0
11
60500.0
21
17910.0
31
0.0
39
0.0
210
0.0
220
0.0
230
1.0
0
SOLID
5
202
330
1F9
100
AcDbEntity
8
0
62
0
6
ByLayer
370
-1
48
1.0
60
0
100
AcDbTrace
10
60500.0
20
16000.0
30
0.0
11
60485.0
21
16090.0
31
0.0
12
60515.0
22
16090.0
32
0.0
13
60515.0
23
16090.0
33
0.0
39
0.0
210
0.0
220
0.0
230
1.0
0
SOLID
5
203
330
1F9
100
AcDbEntity
8
0
62
0
6
ByLayer
370
-1
48
1.0
60
0
100
AcDbTrace
10
60500.0
20
18000.0
30
0.0
11
60515.0
21
17910.0
31
0.0
12
60485.0
22
17910.0
32
0.0
13
60485.0
23
17910.0
33
0.0
39
0.0
210
0.0
220
0.0
230
1.0
0
MTEXT
5
204
330
1F9
100
AcDbEntity
8
0
62
0
6
ByLayer
370
-1
48
1.0
60
0
100
AcDbMText
10
60455.0
20
17000.0
30
0.0
210
0.0
220
0.0
230
1.0
1
2000.00
40
90.0
41
0.0
44
1.0
50
90.0
71
8
72
5
7
Standard
0
ENDBLK
5
1FA
330
1F9
100
AcDbEntity
8
0
100
AcDbBlockEnd
0
BLOCK
5
20D
330
20B
100
AcDbEntity
8
0
100
AcDbBlockBegin
2
*D20
70
1
10
0.0
20
0.0
30
0.0
3
*D20
0
POINT
5
20E
330
20B
100
AcDbEntity
8
Defpoints
62
256
6
ByLayer
370
-1
48
1.0
60
0
100
AcDbPoint
10
60000.0
20
18000.0
30
0.0
39
0.0
210
0.0
220
0.0
230
1.0
50
360.0
0
POINT
5
20F
330
20B
100
AcDbEntity
8
Defpoints
62
256
6
ByLayer
370
-1
48
1.0
60
0
100
AcDbPoint
10
60000.0
20
20000.0
30
0.0
39
0.0
210
0.0
220
0.0
230
1.0
50
360.0
0
POINT
5
210
330
20B
100
AcDbEntity
8
Defpoints
62
256
6
ByLayer
370
-1
48
1.0
60
0
100
AcDbPoint
10
60500.0
20
20000.0
30
0.0
39
0.0
210
0.0
220
0.0
230
1.0
50
360.0
0
LINE
5
211
330
20B
100
AcDbEntity
8
0
62
0
6
ByBlock
370
-2
48
1.0
60
0
100
AcDbLine
10
60031.25
20
18000.0
30
0.0
11
60590.0
21
18000.0
31
0.0
39
0.0
210
0.0
220
0.0
230
1.0
0
LINE
5
212
330
20B
100
AcDbEntity
8
0
62
0
6
ByBlock
370
-2
48
1.0
60
0
100
AcDbLine
10
60031.25
20
20000.0
30
0.0
11
60590.0
21
20000.0
31
0.0
39
0.0
210
0.0
220
0.0
230
1.0
0
LINE
5
213
330
20B
100
AcDbEntity
8
0
62
0
6
ByBlock
370
-2
48
1.0
60
0
100
AcDbLine
10
60500.0
20
18090.0
30
0.0
11
60500.0
21
19910.0
31
0.0
39
0.0
210
0.0
220
0.0
230
1.0
0
SOLID
5
214
330
20B
100
AcDbEntity
8
0
62
0
6
ByLayer
370
-1
48
1.0
60
0
100
AcDbTrace
10
60500.0
20
18000.0
30
0.0
11
60485.0
21
18090.0
31
0.0
12
60515.0
22
18090.0
32
0.0
13
60515.0
23
18090.0
33
0.0
39
0.0
210
0.0
220
0.0
230
1.0
0
SOLID
5
215
330
20B
100
AcDbEntity
8
0
62
0
6
ByLayer
370
-1
48
1.0
60
0
100
AcDbTrace
10
60500.0
20
20000.0
30
0.0
11
60515.0
21
19910.0
31
0.0
12
60485.0
22
19910.0
32
0.0
13
60485.0
23
19910.0
33
0.0
39
0.0
210
0.0
220
0.0
230
1.0
0
MTEXT
5
216
330
20B
100
AcDbEntity
8
0
62
0
6
ByLayer
370
-1
48
1.0
60
0
100
AcDbMText
10
60455.0
20
19000.0
30
0.0
210
0.0
220
0.0
230
1.0
1
2000.00
40
90.0
41
0.0
44
1.0
50
90.0
71
8
72
5
7
Standard
0
ENDBLK
5
20C
330
20B
100
AcDbEntity
8
0
100
AcDbBlockEnd
0
BLOCK
5
236
330
234
100
AcDbEntity
8
0
100
AcDbBlockBegin
2
*D21
70
1
10
0.0
20
0.0
30
0.0
3
*D21
0
POINT
5
237
330
234
100
AcDbEntity
8
Defpoints
62
256
6
ByLayer
370
-1
48
1.0
60
0
100
AcDbPoint
10
0.0
20
0.0
30
0.0
39
0.0
210
0.0
220
0.0
230
1.0
50
360.0
0
POINT
5
238
330
234
100
AcDbEntity
8
Defpoints
62
256
6
ByLayer
370
-1
48
1.0
60
0
100
AcDbPoint
10
60000.0
20
0.0
30
0.0
39
0.0
210
0.0
220
0.0
230
1.0
50
360.0
0
POINT
5
239
330
234
100
AcDbEntity
8
Defpoints
62
256
6
ByLayer
370
-1
48
1.0
60
0
100
AcDbPoint
10
60000.0
20
-3000.0
30
0.0
39
0.0
210
0.0
220
0.0
230
1.0
50
360.0
0
LINE
5
23A
330
234
100
AcDbEntity
8
0
62
0
6
ByBlock
370
-2
48
1.0
60
0
100
AcDbLine
10
-0.00000000000000191
20
-31.25
30
0.0
11
-0.0000000000001892
21
-3090.0
31
0.0
39
0.0
210
0.0
220
0.0
230
1.0
0
LINE
5
23B
330
234
100
AcDbEntity
8
0
62
0
6
ByBlock
370
-2
48
1.0
60
0
100
AcDbLine
10
60000.0
20
-31.25
30
0.0
11
60000.0
21
-3090.0
31
0.0
39
0.0
210
0.0
220
0.0
230
1.0
0
LINE
5
23C
330
234
100
AcDbEntity
8
0
62
0
6
ByBlock
370
-2
48
1.0
60
0
100
AcDbLine
10
89.9999999999998
20
-3000.0
30
0.0
11
59910.0
21
-3000.0
31
0.0
39
0.0
210
0.0
220
0.0
230
1.0
0
SOLID
5
23D
330
234
100
AcDbEntity
8
0
62
0
6
ByLayer
370
-1
48
1.0
60
0
100
AcDbTrace
10
-0.00000000000018369
20
-3000.0
30
0.0
11
89.9999999999998
21
-2985.0
31
0.0
12
89.9999999999998
22
-3015.0
32
0.0
13
89.9999999999998
23
-3015.0
33
0.0
39
0.0
210
0.0
220
0.0
230
1.0
0
SOLID
5
23E
330
234
100
AcDbEntity
8
0
62
0
6
ByLayer
370
-1
48
1.0
60
0
100
AcDbTrace
10
60000.0
20
-3000.0
30
0.0
11
59910.0
21
-3015.0
31
0.0
12
59910.0
22
-2985.0
32
0.0
13
59910.0
23
-2985.0
33
0.0
39
0.0
210
0.0
220
0.0
230
1.0
0
MTEXT
5
23F
330
234
100
AcDbEntity
8
0
62
0
6
ByLayer
370
-1
48
1.0
60
0
100
AcDbMText
10
30000.0
20
-2955.0
30
0.0
210
0.0
220
0.0
230
1.0
1
60000.00
40
90.0
41
0.0
44
1.0
50
0.0
71
8
72
5
7
Standard
0
ENDBLK
5
235
330
234
100
AcDbEntity
8
0
100
AcDbBlockEnd
0
BLOCK
5
243
330
241
100
AcDbEntity
8
0
100
AcDbBlockBegin
2
*D22
70
1
10
0.0
20
0.0
30
0.0
3
*D22
0
POINT
5
244
330
241
100
AcDbEntity
8
Defpoints
62
256
6
ByLayer
370
-1
48
1.0
60
0
100
AcDbPoint
10
60000.0
20
0.0
30
0.0
39
0.0
210
0.0
220
0.0
230
1.0
50
360.0
0
POINT
5
245
330
241
100
AcDbEntity
8
Defpoints
62
256
6
ByLayer
370
-1
48
1.0
60
0
100
AcDbPoint
10
60000.0
20
20000.0
30
0.0
39
0.0
210
0.0
220
0.0
230
1.0
50
360.0
0
POINT
5
246
330
241
100
AcDbEntity
8
Defpoints
62
256
6
ByLayer
370
-1
48
1.0
60
0
100
AcDbPoint
10
63000.0
20
20000.0
30
0.0
39
0.0
210
0.0
220
0.0
230
1.0
50
360.0
0
LINE
5
247
330
241
100
AcDbEntity
8
0
62
0
6
ByBlock
370
-2
48
1.0
60
0
100
AcDbLine
10
60031.25
20
-0.00000000000000383
30
0.0
11
63090.0
21
-0.0000000000003784
31
0.0
39
0.0
210
0.0
220
0.0
230
1.0
0
LINE
5
248
330
241
100
AcDbEntity
8
0
62
0
6
ByBlock
370
-2
48
1.0
60
0
100
AcDbLine
10
60031.25
20
20000.0
30
0.0
11
63090.0
21
20000.0
31
0.0
39
0.0
210
0.0
220
0.0
230
1.0
0
LINE
5
249
330
241
100
AcDbEntity
8
0
62
0
6
ByBlock
370
-2
48
1.0
60
0
100
AcDbLine
10
63000.0
20
89.9999999999996
30
0.0
11
63000.0
21
19910.0
31
0.0
39
0.0
210
0.0
220
0.0
230
1.0
0
SOLID
5
24A
330
241
100
AcDbEntity
8
0
62
0
6
ByLayer
370
-1
48
1.0
60
0
100
AcDbTrace
10
63000.0
20
-0.00000000000036738
30
0.0
11
62985.0
21
89.9999999999996
31
0.0
12
63015.0
22
89.9999999999996
32
0.0
13
63015.0
23
89.9999999999996
33
0.0
39
0.0
210
0.0
220
0.0
230
1.0
0
SOLID
5
24B
330
241
100
AcDbEntity
8
0
62
0
6
ByLayer
370
-1
48
1.0
60
0
100
AcDbTrace
10
63000.0
20
20000.0
30
0.0
11
63015.0
21
19910.0
31
0.0
12
62985.0
22
19910.0
32
0.0
13
62985.0
23
19910.0
33
0.0
39
0.0
210
0.0
220
0.0
230
1.0
0
MTEXT
5
24C
330
241
100
AcDbEntity
8
0
62
0
6
ByLayer
370
-1
48
1.0
60
0
100
AcDbMText
10
62955.0
20
10000.0
30
0.0
210
0.0
220
0.0
230
1.0
1
20000.00
40
90.0
41
0.0
44
1.0
50
90.0
71
8
72
5
7
Standard
0
ENDBLK
5
242
330
241
100
AcDbEntity
8
0
100
AcDbBlockEnd
0
BLOCK
5
24F
330
24D
100
AcDbEntity
8
0
100
AcDbBlockBegin
2
*Paper_Space
70
0
10
0.0
20
0.0
30
0.0
3
*Paper_Space
0
ENDBLK
5
24E
330
24D
100
AcDbEntity
8
0
100
AcDbBlockEnd
0
ENDSEC
0
SECTION
2
ENTITIES
0
LINE
5
1D
330
17
100
AcDbEntity
67
0
8
Grids
62
256
6
Center
370
-1
48
300.0
60
0
100
AcDbLine
10
0.0
20
-1000.0
30
0.0
11
0.0
21
21000.0
31
0.0
39
0.0
210
0.0
220
0.0
230
1.0
0
CIRCLE
5
20
330
17
100
AcDbEntity
67
0
8
Grids
62
256
6
ByLayer
370
-1
48
1.0
60
0
100
AcDbCircle
10
0.0
20
-1500.0
30
0.0
40
500.0
39
0.0
210
0.0
220
0.0
230
1.0
0
CIRCLE
5
21
330
17
100
AcDbEntity
67
0
8
Grids
62
256
6
ByLayer
370
-1
48
1.0
60
0
100
AcDbCircle
10
0.0
20
21500.0
30
0.0
40
500.0
39
0.0
210
0.0
220
0.0
230
1.0
0
MTEXT
5
22
330
17
100
AcDbEntity
67
0
8
Text
62
256
6
ByLayer
370
-1
48
1.0
60
0
100
AcDbMText
10
-200.0
20
-1400.0
30
0.0
210
0.0
220
0.0
230
1.0
1
1
40
400.0
41
0.0
44
1.0
50
0.0
71
1
72
5
7
Standard
0
MTEXT
5
24
330
17
100
AcDbEntity
67
0
8
Text
62
256
6
ByLayer
370
-1
48
1.0
60
0
100
AcDbMText
10
-200.0
20
21600.0
30
0.0
210
0.0
220
0.0
230
1.0
1
1
40
400.0
41
0.0
44
1.0
50
0.0
71
1
72
5
7
Standard
0
INSERT
5
26
330
17
100
AcDbEntity
67
0
8
Columns
62
256
6
ByLayer
370
-1
48
1.0
60
0
100
AcDbBlockReference
2
Vertical Down I Column
10
0.0
20
0.0
30
0.0
41
1.0
42
1.0
43
1.0
50
0.0
210
0.0
220
0.0
230
1.0
0
INSERT
5
3B
330
17
100
AcDbEntity
67
0
8
Columns
62
256
6
ByLayer
370
-1
48
1.0
60
0
100
AcDbBlockReference
2
Vertical Down I Column
10
0.0
20
19400.0
30
0.0
41
1.0
42
1.0
43
1.0
50
0.0
210
0.0
220
0.0
230
1.0
0
DIMENSION
5
3C
330
17
100
AcDbEntity
67
0
8
Dimensions
62
256
6
ByLayer
370
-1
48
1.0
60
0
100
AcDbDimension
2
*D1
10
5454.54545454546
20
-500.0
30
0.0
11
2727.27272727273
21
-500.0
31
0.0
70
33
71
5
72
1
41
1.0
210
0.0
220
0.0
230
1.0
3
karim
100
AcDbAlignedDimension
13
0.0
23
0.0
33
0.0
14
5454.54545454546
24
0.0
34
0.0
0
LINE
5
4C
330
17
100
AcDbEntity
67
0
8
Grids
62
256
6
Center
370
-1
48
300.0
60
0
100
AcDbLine
10
5454.54545454546
20
-1000.0
30
0.0
11
5454.54545454546
21
21000.0
31
0.0
39
0.0
210
0.0
220
0.0
230
1.0
0
CIRCLE
5
4D
330
17
100
AcDbEntity
67
0
8
Grids
62
256
6
ByLayer
370
-1
48
1.0
60
0
100
AcDbCircle
10
5454.54545454546
20
-1500.0
30
0.0
40
500.0
39
0.0
210
0.0
220
0.0
230
1.0
0
CIRCLE
5
4E
330
17
100
AcDbEntity
67
0
8
Grids
62
256
6
ByLayer
370
-1
48
1.0
60
0
100
AcDbCircle
10
5454.54545454546
20
21500.0
30
0.0
40
500.0
39
0.0
210
0.0
220
0.0
230
1.0
0
MTEXT
5
4F
330
17
100
AcDbEntity
67
0
8
Text
62
256
6
ByLayer
370
-1
48
1.0
60
0
100
AcDbMText
10
5254.54545454546
20
-1400.0
30
0.0
210
0.0
220
0.0
230
1.0
1
2
40
400.0
41
0.0
44
1.0
50
0.0
71
1
72
5
7
Standard
0
MTEXT
5
50
330
17
100
AcDbEntity
67
0
8
Text
62
256
6
ByLayer
370
-1
48
1.0
60
0
100
AcDbMText
10
5254.54545454546
20
21600.0
30
0.0
210
0.0
220
0.0
230
1.0
1
2
40
400.0
41
0.0
44
1.0
50
0.0
71
1
72
5
7
Standard
0
INSERT
5
52
330
17
100
AcDbEntity
67
0
8
Columns
62
256
6
ByLayer
370
-1
48
1.0
60
0
100
AcDbBlockReference
2
Vertical Down I Column
10
5454.54545454546
20
0.0
30
0.0
41
1.0
42
1.0
43
1.0
50
0.0
210
0.0
220
0.0
230
1.0
0
INSERT
5
54
330
17
100
AcDbEntity
67
0
8
Columns
62
256
6
ByLayer
370
-1
48
1.0
60
0
100
AcDbBlockReference
2
Vertical Down I Column
10
5454.54545454546
20
19400.0
30
0.0
41
1.0
42
1.0
43
1.0
50
0.0
210
0.0
220
0.0
230
1.0
0
DIMENSION
5
55
330
17
100
AcDbEntity
67
0
8
Dimensions
62
256
6
ByLayer
370
-1
48
1.0
60
0
100
AcDbDimension
2
*D2
10
10909.0909090909
20
-500.0
30
0.0
11
8181.81818181818
21
-500.0
31
0.0
70
33
71
5
72
1
41
1.0
210
0.0
220
0.0
230
1.0
3
karim
100
AcDbAlignedDimension
13
5454.54545454546
23
0.0
33
0.0
14
10909.0909090909
24
0.0
34
0.0
0
LINE
5
62
330
17
100
AcDbEntity
67
0
8
Grids
62
256
6
Center
370
-1
48
300.0
60
0
100
AcDbLine
10
10909.0909090909
20
-1000.0
30
0.0
11
10909.0909090909
21
21000.0
31
0.0
39
0.0
210
0.0
220
0.0
230
1.0
0
CIRCLE
5
63
330
17
100
AcDbEntity
67
0
8
Grids
62
256
6
ByLayer
370
-1
48
1.0
60
0
100
AcDbCircle
10
10909.0909090909
20
-1500.0
30
0.0
40
500.0
39
0.0
210
0.0
220
0.0
230
1.0
0
CIRCLE
5
64
330
17
100
AcDbEntity
67
0
8
Grids
62
256
6
ByLayer
370
-1
48
1.0
60
0
100
AcDbCircle
10
10909.0909090909
20
21500.0
30
0.0
40
500.0
39
0.0
210
0.0
220
0.0
230
1.0
0
MTEXT
5
65
330
17
100
AcDbEntity
67
0
8
Text
62
256
6
ByLayer
370
-1
48
1.0
60
0
100
AcDbMText
10
10709.0909090909
20
-1400.0
30
0.0
210
0.0
220
0.0
230
1.0
1
3
40
400.0
41
0.0
44
1.0
50
0.0
71
1
72
5
7
Standard
0
MTEXT
5
66
330
17
100
AcDbEntity
67
0
8
Text
62
256
6
ByLayer
370
-1
48
1.0
60
0
100
AcDbMText
10
10709.0909090909
20
21600.0
30
0.0
210
0.0
220
0.0
230
1.0
1
3
40
400.0
41
0.0
44
1.0
50
0.0
71
1
72
5
7
Standard
0
INSERT
5
68
330
17
100
AcDbEntity
67
0
8
Columns
62
256
6
ByLayer
370
-1
48
1.0
60
0
100
AcDbBlockReference
2
Vertical Down I Column
10
10909.0909090909
20
0.0
30
0.0
41
1.0
42
1.0
43
1.0
50
0.0
210
0.0
220
0.0
230
1.0
0
INSERT
5
6A
330
17
100
AcDbEntity
67
0
8
Columns
62
256
6
ByLayer
370
-1
48
1.0
60
0
100
AcDbBlockReference
2
Vertical Down I Column
10
10909.0909090909
20
19400.0
30
0.0
41
1.0
42
1.0
43
1.0
50
0.0
210
0.0
220
0.0
230
1.0
0
DIMENSION
5
6B
330
17
100
AcDbEntity
67
0
8
Dimensions
62
256
6
ByLayer
370
-1
48
1.0
60
0
100
AcDbDimension
2
*D3
10
16363.6363636364
20
-500.0
30
0.0
11
13636.3636363636
21
-500.0
31
0.0
70
33
71
5
72
1
41
1.0
210
0.0
220
0.0
230
1.0
3
karim
100
AcDbAlignedDimension
13
10909.0909090909
23
0.0
33
0.0
14
16363.6363636364
24
0.0
34
0.0
0
LINE
5
78
330
17
100
AcDbEntity
67
0
8
Grids
62
256
6
Center
370
-1
48
300.0
60
0
100
AcDbLine
10
16363.6363636364
20
-1000.0
30
0.0
11
16363.6363636364
21
21000.0
31
0.0
39
0.0
210
0.0
220
0.0
230
1.0
0
CIRCLE
5
79
330
17
100
AcDbEntity
67
0
8
Grids
62
256
6
ByLayer
370
-1
48
1.0
60
0
100
AcDbCircle
10
16363.6363636364
20
-1500.0
30
0.0
40
500.0
39
0.0
210
0.0
220
0.0
230
1.0
0
CIRCLE
5
7A
330
17
100
AcDbEntity
67
0
8
Grids
62
256
6
ByLayer
370
-1
48
1.0
60
0
100
AcDbCircle
10
16363.6363636364
20
21500.0
30
0.0
40
500.0
39
0.0
210
0.0
220
0.0
230
1.0
0
MTEXT
5
7B
330
17
100
AcDbEntity
67
0
8
Text
62
256
6
ByLayer
370
-1
48
1.0
60
0
100
AcDbMText
10
16163.6363636364
20
-1400.0
30
0.0
210
0.0
220
0.0
230
1.0
1
4
40
400.0
41
0.0
44
1.0
50
0.0
71
1
72
5
7
Standard
0
MTEXT
5
7C
330
17
100
AcDbEntity
67
0
8
Text
62
256
6
ByLayer
370
-1
48
1.0
60
0
100
AcDbMText
10
16163.6363636364
20
21600.0
30
0.0
210
0.0
220
0.0
230
1.0
1
4
40
400.0
41
0.0
44
1.0
50
0.0
71
1
72
5
7
Standard
0
INSERT
5
7E
330
17
100
AcDbEntity
67
0
8
Columns
62
256
6
ByLayer
370
-1
48
1.0
60
0
100
AcDbBlockReference
2
Vertical Down I Column
10
16363.6363636364
20
0.0
30
0.0
41
1.0
42
1.0
43
1.0
50
0.0
210
0.0
220
0.0
230
1.0
0
INSERT
5
80
330
17
100
AcDbEntity
67
0
8
Columns
62
256
6
ByLayer
370
-1
48
1.0
60
0
100
AcDbBlockReference
2
Vertical Down I Column
10
16363.6363636364
20
19400.0
30
0.0
41
1.0
42
1.0
43
1.0
50
0.0
210
0.0
220
0.0
230
1.0
0
DIMENSION
5
81
330
17
100
AcDbEntity
67
0
8
Dimensions
62
256
6
ByLayer
370
-1
48
1.0
60
0
100
AcDbDimension
2
*D4
10
21818.1818181818
20
-500.0
30
0.0
11
19090.9090909091
21
-500.0
31
0.0
70
33
71
5
72
1
41
1.0
210
0.0
220
0.0
230
1.0
3
karim
100
AcDbAlignedDimension
13
16363.6363636364
23
0.0
33
0.0
14
21818.1818181818
24
0.0
34
0.0
0
LINE
5
8E
330
17
100
AcDbEntity
67
0
8
Grids
62
256
6
Center
370
-1
48
300.0
60
0
100
AcDbLine
10
21818.1818181818
20
-1000.0
30
0.0
11
21818.1818181818
21
21000.0
31
0.0
39
0.0
210
0.0
220
0.0
230
1.0
0
CIRCLE
5
8F
330
17
100
AcDbEntity
67
0
8
Grids
62
256
6
ByLayer
370
-1
48
1.0
60
0
100
AcDbCircle
10
21818.1818181818
20
-1500.0
30
0.0
40
500.0
39
0.0
210
0.0
220
0.0
230
1.0
0
CIRCLE
5
90
330
17
100
AcDbEntity
67
0
8
Grids
62
256
6
ByLayer
370
-1
48
1.0
60
0
100
AcDbCircle
10
21818.1818181818
20
21500.0
30
0.0
40
500.0
39
0.0
210
0.0
220
0.0
230
1.0
0
MTEXT
5
91
330
17
100
AcDbEntity
67
0
8
Text
62
256
6
ByLayer
370
-1
48
1.0
60
0
100
AcDbMText
10
21618.1818181818
20
-1400.0
30
0.0
210
0.0
220
0.0
230
1.0
1
5
40
400.0
41
0.0
44
1.0
50
0.0
71
1
72
5
7
Standard
0
MTEXT
5
92
330
17
100
AcDbEntity
67
0
8
Text
62
256
6
ByLayer
370
-1
48
1.0
60
0
100
AcDbMText
10
21618.1818181818
20
21600.0
30
0.0
210
0.0
220
0.0
230
1.0
1
5
40
400.0
41
0.0
44
1.0
50
0.0
71
1
72
5
7
Standard
0
INSERT
5
94
330
17
100
AcDbEntity
67
0
8
Columns
62
256
6
ByLayer
370
-1
48
1.0
60
0
100
AcDbBlockReference
2
Vertical Down I Column
10
21818.1818181818
20
0.0
30
0.0
41
1.0
42
1.0
43
1.0
50
0.0
210
0.0
220
0.0
230
1.0
0
INSERT
5
96
330
17
100
AcDbEntity
67
0
8
Columns
62
256
6
ByLayer
370
-1
48
1.0
60
0
100
AcDbBlockReference
2
Vertical Down I Column
10
21818.1818181818
20
19400.0
30
0.0
41
1.0
42
1.0
43
1.0
50
0.0
210
0.0
220
0.0
230
1.0
0
DIMENSION
5
97
330
17
100
AcDbEntity
67
0
8
Dimensions
62
256
6
ByLayer
370
-1
48
1.0
60
0
100
AcDbDimension
2
*D5
10
27272.7272727273
20
-500.0
30
0.0
11
24545.4545454545
21
-500.0
31
0.0
70
33
71
5
72
1
41
1.0
210
0.0
220
0.0
230
1.0
3
karim
100
AcDbAlignedDimension
13
21818.1818181818
23
0.0
33
0.0
14
27272.7272727273
24
0.0
34
0.0
0
LINE
5
A4
330
17
100
AcDbEntity
67
0
8
Grids
62
256
6
Center
370
-1
48
300.0
60
0
100
AcDbLine
10
27272.7272727273
20
-1000.0
30
0.0
11
27272.7272727273
21
21000.0
31
0.0
39
0.0
210
0.0
220
0.0
230
1.0
0
CIRCLE
5
A5
330
17
100
AcDbEntity
67
0
8
Grids
62
256
6
ByLayer
370
-1
48
1.0
60
0
100
AcDbCircle
10
27272.7272727273
20
-1500.0
30
0.0
40
500.0
39
0.0
210
0.0
220
0.0
230
1.0
0
CIRCLE
5
A6
330
17
100
AcDbEntity
67
0
8
Grids
62
256
6
ByLayer
370
-1
48
1.0
60
0
100
AcDbCircle
10
27272.7272727273
20
21500.0
30
0.0
40
500.0
39
0.0
210
0.0
220
0.0
230
1.0
0
MTEXT
5
A7
330
17
100
AcDbEntity
67
0
8
Text
62
256
6
ByLayer
370
-1
48
1.0
60
0
100
AcDbMText
10
27072.7272727273
20
-1400.0
30
0.0
210
0.0
220
0.0
230
1.0
1
6
40
400.0
41
0.0
44
1.0
50
0.0
71
1
72
5
7
Standard
0
MTEXT
5
A8
330
17
100
AcDbEntity
67
0
8
Text
62
256
6
ByLayer
370
-1
48
1.0
60
0
100
AcDbMText
10
27072.7272727273
20
21600.0
30
0.0
210
0.0
220
0.0
230
1.0
1
6
40
400.0
41
0.0
44
1.0
50
0.0
71
1
72
5
7
Standard
0
INSERT
5
AA
330
17
100
AcDbEntity
67
0
8
Columns
62
256
6
ByLayer
370
-1
48
1.0
60
0
100
AcDbBlockReference
2
Vertical Down I Column
10
27272.7272727273
20
0.0
30
0.0
41
1.0
42
1.0
43
1.0
50
0.0
210
0.0
220
0.0
230
1.0
0
INSERT
5
AC
330
17
100
AcDbEntity
67
0
8
Columns
62
256
6
ByLayer
370
-1
48
1.0
60
0
100
AcDbBlockReference
2
Vertical Down I Column
10
27272.7272727273
20
19400.0
30
0.0
41
1.0
42
1.0
43
1.0
50
0.0
210
0.0
220
0.0
230
1.0
0
DIMENSION
5
AD
330
17
100
AcDbEntity
67
0
8
Dimensions
62
256
6
ByLayer
370
-1
48
1.0
60
0
100
AcDbDimension
2
*D6
10
32727.2727272727
20
-500.0
30
0.0
11
30000.0
21
-500.0
31
0.0
70
33
71
5
72
1
41
1.0
210
0.0
220
0.0
230
1.0
3
karim
100
AcDbAlignedDimension
13
27272.7272727273
23
0.0
33
0.0
14
32727.2727272727
24
0.0
34
0.0
0
LINE
5
BA
330
17
100
AcDbEntity
67
0
8
Grids
62
256
6
Center
370
-1
48
300.0
60
0
100
AcDbLine
10
32727.2727272727
20
-1000.0
30
0.0
11
32727.2727272727
21
21000.0
31
0.0
39
0.0
210
0.0
220
0.0
230
1.0
0
CIRCLE
5
BB
330
17
100
AcDbEntity
67
0
8
Grids
62
256
6
ByLayer
370
-1
48
1.0
60
0
100
AcDbCircle
10
32727.2727272727
20
-1500.0
30
0.0
40
500.0
39
0.0
210
0.0
220
0.0
230
1.0
0
CIRCLE
5
BC
330
17
100
AcDbEntity
67
0
8
Grids
62
256
6
ByLayer
370
-1
48
1.0
60
0
100
AcDbCircle
10
32727.2727272727
20
21500.0
30
0.0
40
500.0
39
0.0
210
0.0
220
0.0
230
1.0
0
MTEXT
5
BD
330
17
100
AcDbEntity
67
0
8
Text
62
256
6
ByLayer
370
-1
48
1.0
60
0
100
AcDbMText
10
32527.2727272727
20
-1400.0
30
0.0
210
0.0
220
0.0
230
1.0
1
7
40
400.0
41
0.0
44
1.0
50
0.0
71
1
72
5
7
Standard
0
MTEXT
5
BE
330
17
100
AcDbEntity
67
0
8
Text
62
256
6
ByLayer
370
-1
48
1.0
60
0
100
AcDbMText
10
32527.2727272727
20
21600.0
30
0.0
210
0.0
220
0.0
230
1.0
1
7
40
400.0
41
0.0
44
1.0
50
0.0
71
1
72
5
7
Standard
0
INSERT
5
C0
330
17
100
AcDbEntity
67
0
8
Columns
62
256
6
ByLayer
370
-1
48
1.0
60
0
100
AcDbBlockReference
2
Vertical Down I Column
10
32727.2727272727
20
0.0
30
0.0
41
1.0
42
1.0
43
1.0
50
0.0
210
0.0
220
0.0
230
1.0
0
INSERT
5
C2
330
17
100
AcDbEntity
67
0
8
Columns
62
256
6
ByLayer
370
-1
48
1.0
60
0
100
AcDbBlockReference
2
Vertical Down I Column
10
32727.2727272727
20
19400.0
30
0.0
41
1.0
42
1.0
43
1.0
50
0.0
210
0.0
220
0.0
230
1.0
0
DIMENSION
5
C3
330
17
100
AcDbEntity
67
0
8
Dimensions
62
256
6
ByLayer
370
-1
48
1.0
60
0
100
AcDbDimension
2
*D7
10
38181.8181818182
20
-500.0
30
0.0
11
35454.5454545455
21
-500.0
31
0.0
70
33
71
5
72
1
41
1.0
210
0.0
220
0.0
230
1.0
3
karim
100
AcDbAlignedDimension
13
32727.2727272727
23
0.0
33
0.0
14
38181.8181818182
24
0.0
34
0.0
0
LINE
5
D0
330
17
100
AcDbEntity
67
0
8
Grids
62
256
6
Center
370
-1
48
300.0
60
0
100
AcDbLine
10
38181.8181818182
20
-1000.0
30
0.0
11
38181.8181818182
21
21000.0
31
0.0
39
0.0
210
0.0
220
0.0
230
1.0
0
CIRCLE
5
D1
330
17
100
AcDbEntity
67
0
8
Grids
62
256
6
ByLayer
370
-1
48
1.0
60
0
100
AcDbCircle
10
38181.8181818182
20
-1500.0
30
0.0
40
500.0
39
0.0
210
0.0
220
0.0
230
1.0
0
CIRCLE
5
D2
330
17
100
AcDbEntity
67
0
8
Grids
62
256
6
ByLayer
370
-1
48
1.0
60
0
100
AcDbCircle
10
38181.8181818182
20
21500.0
30
0.0
40
500.0
39
0.0
210
0.0
220
0.0
230
1.0
0
MTEXT
5
D3
330
17
100
AcDbEntity
67
0
8
Text
62
256
6
ByLayer
370
-1
48
1.0
60
0
100
AcDbMText
10
37981.8181818182
20
-1400.0
30
0.0
210
0.0
220
0.0
230
1.0
1
8
40
400.0
41
0.0
44
1.0
50
0.0
71
1
72
5
7
Standard
0
MTEXT
5
D4
330
17
100
AcDbEntity
67
0
8
Text
62
256
6
ByLayer
370
-1
48
1.0
60
0
100
AcDbMText
10
37981.8181818182
20
21600.0
30
0.0
210
0.0
220
0.0
230
1.0
1
8
40
400.0
41
0.0
44
1.0
50
0.0
71
1
72
5
7
Standard
0
INSERT
5
D6
330
17
100
AcDbEntity
67
0
8
Columns
62
256
6
ByLayer
370
-1
48
1.0
60
0
100
AcDbBlockReference
2
Vertical Down I Column
10
38181.8181818182
20
0.0
30
0.0
41
1.0
42
1.0
43
1.0
50
0.0
210
0.0
220
0.0
230
1.0
0
INSERT
5
D8
330
17
100
AcDbEntity
67
0
8
Columns
62
256
6
ByLayer
370
-1
48
1.0
60
0
100
AcDbBlockReference
2
Vertical Down I Column
10
38181.8181818182
20
19400.0
30
0.0
41
1.0
42
1.0
43
1.0
50
0.0
210
0.0
220
0.0
230
1.0
0
DIMENSION
5
D9
330
17
100
AcDbEntity
67
0
8
Dimensions
62
256
6
ByLayer
370
-1
48
1.0
60
0
100
AcDbDimension
2
*D8
10
43636.3636363636
20
-500.0
30
0.0
11
40909.0909090909
21
-500.0
31
0.0
70
33
71
5
72
1
41
1.0
210
0.0
220
0.0
230
1.0
3
karim
100
AcDbAlignedDimension
13
38181.8181818182
23
0.0
33
0.0
14
43636.3636363636
24
0.0
34
0.0
0
LINE
5
E6
330
17
100
AcDbEntity
67
0
8
Grids
62
256
6
Center
370
-1
48
300.0
60
0
100
AcDbLine
10
43636.3636363636
20
-1000.0
30
0.0
11
43636.3636363636
21
21000.0
31
0.0
39
0.0
210
0.0
220
0.0
230
1.0
0
CIRCLE
5
E7
330
17
100
AcDbEntity
67
0
8
Grids
62
256
6
ByLayer
370
-1
48
1.0
60
0
100
AcDbCircle
10
43636.3636363636
20
-1500.0
30
0.0
40
500.0
39
0.0
210
0.0
220
0.0
230
1.0
0
CIRCLE
5
E8
330
17
100
AcDbEntity
67
0
8
Grids
62
256
6
ByLayer
370
-1
48
1.0
60
0
100
AcDbCircle
10
43636.3636363636
20
21500.0
30
0.0
40
500.0
39
0.0
210
0.0
220
0.0
230
1.0
0
MTEXT
5
E9
330
17
100
AcDbEntity
67
0
8
Text
62
256
6
ByLayer
370
-1
48
1.0
60
0
100
AcDbMText
10
43436.3636363636
20
-1400.0
30
0.0
210
0.0
220
0.0
230
1.0
1
9
40
400.0
41
0.0
44
1.0
50
0.0
71
1
72
5
7
Standard
0
MTEXT
5
EA
330
17
100
AcDbEntity
67
0
8
Text
62
256
6
ByLayer
370
-1
48
1.0
60
0
100
AcDbMText
10
43436.3636363636
20
21600.0
30
0.0
210
0.0
220
0.0
230
1.0
1
9
40
400.0
41
0.0
44
1.0
50
0.0
71
1
72
5
7
Standard
0
INSERT
5
EC
330
17
100
AcDbEntity
67
0
8
Columns
62
256
6
ByLayer
370
-1
48
1.0
60
0
100
AcDbBlockReference
2
Vertical Down I Column
10
43636.3636363636
20
0.0
30
0.0
41
1.0
42
1.0
43
1.0
50
0.0
210
0.0
220
0.0
230
1.0
0
INSERT
5
EE
330
17
100
AcDbEntity
67
0
8
Columns
62
256
6
ByLayer
370
-1
48
1.0
60
0
100
AcDbBlockReference
2
Vertical Down I Column
10
43636.3636363636
20
19400.0
30
0.0
41
1.0
42
1.0
43
1.0
50
0.0
210
0.0
220
0.0
230
1.0
0
DIMENSION
5
EF
330
17
100
AcDbEntity
67
0
8
Dimensions
62
256
6
ByLayer
370
-1
48
1.0
60
0
100
AcDbDimension
2
*D9
10
49090.9090909091
20
-500.0
30
0.0
11
46363.6363636364
21
-500.0
31
0.0
70
33
71
5
72
1
41
1.0
210
0.0
220
0.0
230
1.0
3
karim
100
AcDbAlignedDimension
13
43636.3636363636
23
0.0
33
0.0
14
49090.9090909091
24
0.0
34
0.0
0
LINE
5
FC
330
17
100
AcDbEntity
67
0
8
Grids
62
256
6
Center
370
-1
48
300.0
60
0
100
AcDbLine
10
49090.9090909091
20
-1000.0
30
0.0
11
49090.9090909091
21
21000.0
31
0.0
39
0.0
210
0.0
220
0.0
230
1.0
0
CIRCLE
5
FD
330
17
100
AcDbEntity
67
0
8
Grids
62
256
6
ByLayer
370
-1
48
1.0
60
0
100
AcDbCircle
10
49090.9090909091
20
-1500.0
30
0.0
40
500.0
39
0.0
210
0.0
220
0.0
230
1.0
0
CIRCLE
5
FE
330
17
100
AcDbEntity
67
0
8
Grids
62
256
6
ByLayer
370
-1
48
1.0
60
0
100
AcDbCircle
10
49090.9090909091
20
21500.0
30
0.0
40
500.0
39
0.0
210
0.0
220
0.0
230
1.0
0
MTEXT
5
FF
330
17
100
AcDbEntity
67
0
8
Text
62
256
6
ByLayer
370
-1
48
1.0
60
0
100
AcDbMText
10
48890.9090909091
20
-1400.0
30
0.0
210
0.0
220
0.0
230
1.0
1
10
40
400.0
41
0.0
44
1.0
50
0.0
71
1
72
5
7
Standard
0
MTEXT
5
100
330
17
100
AcDbEntity
67
0
8
Text
62
256
6
ByLayer
370
-1
48
1.0
60
0
100
AcDbMText
10
48890.9090909091
20
21600.0
30
0.0
210
0.0
220
0.0
230
1.0
1
10
40
400.0
41
0.0
44
1.0
50
0.0
71
1
72
5
7
Standard
0
INSERT
5
102
330
17
100
AcDbEntity
67
0
8
Columns
62
256
6
ByLayer
370
-1
48
1.0
60
0
100
AcDbBlockReference
2
Vertical Down I Column
10
49090.9090909091
20
0.0
30
0.0
41
1.0
42
1.0
43
1.0
50
0.0
210
0.0
220
0.0
230
1.0
0
INSERT
5
104
330
17
100
AcDbEntity
67
0
8
Columns
62
256
6
ByLayer
370
-1
48
1.0
60
0
100
AcDbBlockReference
2
Vertical Down I Column
10
49090.9090909091
20
19400.0
30
0.0
41
1.0
42
1.0
43
1.0
50
0.0
210
0.0
220
0.0
230
1.0
0
DIMENSION
5
105
330
17
100
AcDbEntity
67
0
8
Dimensions
62
256
6
ByLayer
370
-1
48
1.0
60
0
100
AcDbDimension
2
*D10
10
54545.4545454546
20
-500.0
30
0.0
11
51818.1818181818
21
-500.0
31
0.0
70
33
71
5
72
1
41
1.0
210
0.0
220
0.0
230
1.0
3
karim
100
AcDbAlignedDimension
13
49090.9090909091
23
0.0
33
0.0
14
54545.4545454546
24
0.0
34
0.0
0
LINE
5
112
330
17
100
AcDbEntity
67
0
8
Grids
62
256
6
Center
370
-1
48
300.0
60
0
100
AcDbLine
10
54545.4545454546
20
-1000.0
30
0.0
11
54545.4545454546
21
21000.0
31
0.0
39
0.0
210
0.0
220
0.0
230
1.0
0
CIRCLE
5
113
330
17
100
AcDbEntity
67
0
8
Grids
62
256
6
ByLayer
370
-1
48
1.0
60
0
100
AcDbCircle
10
54545.4545454546
20
-1500.0
30
0.0
40
500.0
39
0.0
210
0.0
220
0.0
230
1.0
0
CIRCLE
5
114
330
17
100
AcDbEntity
67
0
8
Grids
62
256
6
ByLayer
370
-1
48
1.0
60
0
100
AcDbCircle
10
54545.4545454546
20
21500.0
30
0.0
40
500.0
39
0.0
210
0.0
220
0.0
230
1.0
0
MTEXT
5
115
330
17
100
AcDbEntity
67
0
8
Text
62
256
6
ByLayer
370
-1
48
1.0
60
0
100
AcDbMText
10
54345.4545454546
20
-1400.0
30
0.0
210
0.0
220
0.0
230
1.0
1
11
40
400.0
41
0.0
44
1.0
50
0.0
71
1
72
5
7
Standard
0
MTEXT
5
116
330
17
100
AcDbEntity
67
0
8
Text
62
256
6
ByLayer
370
-1
48
1.0
60
0
100
AcDbMText
10
54345.4545454546
20
21600.0
30
0.0
210
0.0
220
0.0
230
1.0
1
11
40
400.0
41
0.0
44
1.0
50
0.0
71
1
72
5
7
Standard
0
INSERT
5
118
330
17
100
AcDbEntity
67
0
8
Columns
62
256
6
ByLayer
370
-1
48
1.0
60
0
100
AcDbBlockReference
2
Vertical Down I Column
10
54545.4545454546
20
0.0
30
0.0
41
1.0
42
1.0
43
1.0
50
0.0
210
0.0
220
0.0
230
1.0
0
INSERT
5
11A
330
17
100
AcDbEntity
67
0
8
Columns
62
256
6
ByLayer
370
-1
48
1.0
60
0
100
AcDbBlockReference
2
Vertical Down I Column
10
54545.4545454546
20
19400.0
30
0.0
41
1.0
42
1.0
43
1.0
50
0.0
210
0.0
220
0.0
230
1.0
0
LINE
5
11B
330
17
100
AcDbEntity
67
0
8
Grids
62
256
6
Center
370
-1
48
150.0
60
0
100
AcDbLine
10
-1000.0
20
0.0
30
0.0
11
61000.0
21
0.0
31
0.0
39
0.0
210
0.0
220
0.0
230
1.0
0
CIRCLE
5
11C
330
17
100
AcDbEntity
67
0
8
Grids
62
256
6
ByLayer
370
-1
48
1.0
60
0
100
AcDbCircle
10
-1500.0
20
0.0
30
0.0
40
500.0
39
0.0
210
0.0
220
0.0
230
1.0
0
CIRCLE
5
11D
330
17
100
AcDbEntity
67
0
8
Grids
62
256
6
ByLayer
370
-1
48
1.0
60
0
100
AcDbCircle
10
61500.0
20
0.0
30
0.0
40
500.0
39
0.0
210
0.0
220
0.0
230
1.0
0
MTEXT
5
11E
330
17
100
AcDbEntity
67
0
8
Text
62
256
6
ByLayer
370
-1
48
1.0
60
0
100
AcDbMText
10
-1700.0
20
100.0
30
0.0
210
0.0
220
0.0
230
1.0
1
A
40
400.0
41
0.0
44
1.0
50
0.0
71
1
72
5
7
Standard
0
MTEXT
5
11F
330
17
100
AcDbEntity
67
0
8
Text
62
256
6
ByLayer
370
-1
48
1.0
60
0
100
AcDbMText
10
61300.0
20
100.0
30
0.0
210
0.0
220
0.0
230
1.0
1
A
40
400.0
41
0.0
44
1.0
50
0.0
71
1
72
5
7
Standard
0
INSERT
5
121
330
17
100
AcDbEntity
67
0
8
Columns
62
256
6
ByLayer
370
-1
48
1.0
60
0
100
AcDbBlockReference
2
Horizontal Left I beam
10
0.0
20
2000.0
30
0.0
41
1.0
42
1.0
43
1.0
50
0.0
210
0.0
220
0.0
230
1.0
0
INSERT
5
135
330
17
100
AcDbEntity
67
0
8
Columns
62
256
6
ByLayer
370
-1
48
1.0
60
0
100
AcDbBlockReference
2
Horizontal right I Column
10
59400.0
20
2000.0
30
0.0
41
1.0
42
1.0
43
1.0
50
0.0
210
0.0
220
0.0
230
1.0
0
DIMENSION
5
148
330
17
100
AcDbEntity
67
0
8
Dimensions
62
256
6
ByLayer
370
-1
48
1.0
60
0
100
AcDbDimension
2
*D11
10
60500.0
20
2000.0
30
0.0
11
60500.0
21
1000.0
31
0.0
70
33
71
5
72
1
41
1.0
210
0.0
220
0.0
230
1.0
3
karim
100
AcDbAlignedDimension
13
60000.0
23
0.0
33
0.0
14
60000.0
24
2000.0
34
0.0
0
LINE
5
155
330
17
100
AcDbEntity
67
0
8
Grids
62
256
6
Center
370
-1
48
150.0
60
0
100
AcDbLine
10
-1000.0
20
2000.0
30
0.0
11
61000.0
21
2000.0
31
0.0
39
0.0
210
0.0
220
0.0
230
1.0
0
CIRCLE
5
156
330
17
100
AcDbEntity
67
0
8
Grids
62
256
6
ByLayer
370
-1
48
1.0
60
0
100
AcDbCircle
10
-1500.0
20
2000.0
30
0.0
40
500.0
39
0.0
210
0.0
220
0.0
230
1.0
0
CIRCLE
5
157
330
17
100
AcDbEntity
67
0
8
Grids
62
256
6
ByLayer
370
-1
48
1.0
60
0
100
AcDbCircle
10
61500.0
20
2000.0
30
0.0
40
500.0
39
0.0
210
0.0
220
0.0
230
1.0
0
MTEXT
5
158
330
17
100
AcDbEntity
67
0
8
Text
62
256
6
ByLayer
370
-1
48
1.0
60
0
100
AcDbMText
10
-1700.0
20
2100.0
30
0.0
210
0.0
220
0.0
230
1.0
1
B
40
400.0
41
0.0
44
1.0
50
0.0
71
1
72
5
7
Standard
0
MTEXT
5
159
330
17
100
AcDbEntity
67
0
8
Text
62
256
6
ByLayer
370
-1
48
1.0
60
0
100
AcDbMText
10
61300.0
20
2100.0
30
0.0
210
0.0
220
0.0
230
1.0
1
B
40
400.0
41
0.0
44
1.0
50
0.0
71
1
72
5
7
Standard
0
INSERT
5
15B
330
17
100
AcDbEntity
67
0
8
Columns
62
256
6
ByLayer
370
-1
48
1.0
60
0
100
AcDbBlockReference
2
Horizontal Left I beam
10
0.0
20
4000.0
30
0.0
41
1.0
42
1.0
43
1.0
50
0.0
210
0.0
220
0.0
230
1.0
0
INSERT
5
15D
330
17
100
AcDbEntity
67
0
8
Columns
62
256
6
ByLayer
370
-1
48
1.0
60
0
100
AcDbBlockReference
2
Horizontal right I Column
10
59400.0
20
4000.0
30
0.0
41
1.0
42
1.0
43
1.0
50
0.0
210
0.0
220
0.0
230
1.0
0
DIMENSION
5
15E
330
17
100
AcDbEntity
67
0
8
Dimensions
62
256
6
ByLayer
370
-1
48
1.0
60
0
100
AcDbDimension
2
*D12
10
60500.0
20
4000.0
30
0.0
11
60500.0
21
3000.0
31
0.0
70
33
71
5
72
1
41
1.0
210
0.0
220
0.0
230
1.0
3
karim
100
AcDbAlignedDimension
13
60000.0
23
2000.0
33
0.0
14
60000.0
24
4000.0
34
0.0
0
LINE
5
16B
330
17
100
AcDbEntity
67
0
8
Grids
62
256
6
Center
370
-1
48
150.0
60
0
100
AcDbLine
10
-1000.0
20
4000.0
30
0.0
11
61000.0
21
4000.0
31
0.0
39
0.0
210
0.0
220
0.0
230
1.0
0
CIRCLE
5
16C
330
17
100
AcDbEntity
67
0
8
Grids
62
256
6
ByLayer
370
-1
48
1.0
60
0
100
AcDbCircle
10
-1500.0
20
4000.0
30
0.0
40
500.0
39
0.0
210
0.0
220
0.0
230
1.0
0
CIRCLE
5
16D
330
17
100
AcDbEntity
67
0
8
Grids
62
256
6
ByLayer
370
-1
48
1.0
60
0
100
AcDbCircle
10
61500.0
20
4000.0
30
0.0
40
500.0
39
0.0
210
0.0
220
0.0
230
1.0
0
MTEXT
5
16E
330
17
100
AcDbEntity
67
0
8
Text
62
256
6
ByLayer
370
-1
48
1.0
60
0
100
AcDbMText
10
-1700.0
20
4100.0
30
0.0
210
0.0
220
0.0
230
1.0
1
C
40
400.0
41
0.0
44
1.0
50
0.0
71
1
72
5
7
Standard
0
MTEXT
5
16F
330
17
100
AcDbEntity
67
0
8
Text
62
256
6
ByLayer
370
-1
48
1.0
60
0
100
AcDbMText
10
61300.0
20
4100.0
30
0.0
210
0.0
220
0.0
230
1.0
1
C
40
400.0
41
0.0
44
1.0
50
0.0
71
1
72
5
7
Standard
0
INSERT
5
171
330
17
100
AcDbEntity
67
0
8
Columns
62
256
6
ByLayer
370
-1
48
1.0
60
0
100
AcDbBlockReference
2
Horizontal Left I beam
10
0.0
20
6000.0
30
0.0
41
1.0
42
1.0
43
1.0
50
0.0
210
0.0
220
0.0
230
1.0
0
INSERT
5
173
330
17
100
AcDbEntity
67
0
8
Columns
62
256
6
ByLayer
370
-1
48
1.0
60
0
100
AcDbBlockReference
2
Horizontal right I Column
10
59400.0
20
6000.0
30
0.0
41
1.0
42
1.0
43
1.0
50
0.0
210
0.0
220
0.0
230
1.0
0
DIMENSION
5
174
330
17
100
AcDbEntity
67
0
8
Dimensions
62
256
6
ByLayer
370
-1
48
1.0
60
0
100
AcDbDimension
2
*D13
10
60500.0
20
6000.0
30
0.0
11
60500.0
21
5000.0
31
0.0
70
33
71
5
72
1
41
1.0
210
0.0
220
0.0
230
1.0
3
karim
100
AcDbAlignedDimension
13
60000.0
23
4000.0
33
0.0
14
60000.0
24
6000.0
34
0.0
0
LINE
5
181
330
17
100
AcDbEntity
67
0
8
Grids
62
256
6
Center
370
-1
48
150.0
60
0
100
AcDbLine
10
-1000.0
20
6000.0
30
0.0
11
61000.0
21
6000.0
31
0.0
39
0.0
210
0.0
220
0.0
230
1.0
0
CIRCLE
5
182
330
17
100
AcDbEntity
67
0
8
Grids
62
256
6
ByLayer
370
-1
48
1.0
60
0
100
AcDbCircle
10
-1500.0
20
6000.0
30
0.0
40
500.0
39
0.0
210
0.0
220
0.0
230
1.0
0
CIRCLE
5
183
330
17
100
AcDbEntity
67
0
8
Grids
62
256
6
ByLayer
370
-1
48
1.0
60
0
100
AcDbCircle
10
61500.0
20
6000.0
30
0.0
40
500.0
39
0.0
210
0.0
220
0.0
230
1.0
0
MTEXT
5
184
330
17
100
AcDbEntity
67
0
8
Text
62
256
6
ByLayer
370
-1
48
1.0
60
0
100
AcDbMText
10
-1700.0
20
6100.0
30
0.0
210
0.0
220
0.0
230
1.0
1
D
40
400.0
41
0.0
44
1.0
50
0.0
71
1
72
5
7
Standard
0
MTEXT
5
185
330
17
100
AcDbEntity
67
0
8
Text
62
256
6
ByLayer
370
-1
48
1.0
60
0
100
AcDbMText
10
61300.0
20
6100.0
30
0.0
210
0.0
220
0.0
230
1.0
1
D
40
400.0
41
0.0
44
1.0
50
0.0
71
1
72
5
7
Standard
0
INSERT
5
187
330
17
100
AcDbEntity
67
0
8
Columns
62
256
6
ByLayer
370
-1
48
1.0
60
0
100
AcDbBlockReference
2
Horizontal Left I beam
10
0.0
20
8000.0
30
0.0
41
1.0
42
1.0
43
1.0
50
0.0
210
0.0
220
0.0
230
1.0
0
INSERT
5
189
330
17
100
AcDbEntity
67
0
8
Columns
62
256
6
ByLayer
370
-1
48
1.0
60
0
100
AcDbBlockReference
2
Horizontal right I Column
10
59400.0
20
8000.0
30
0.0
41
1.0
42
1.0
43
1.0
50
0.0
210
0.0
220
0.0
230
1.0
0
DIMENSION
5
18A
330
17
100
AcDbEntity
67
0
8
Dimensions
62
256
6
ByLayer
370
-1
48
1.0
60
0
100
AcDbDimension
2
*D14
10
60500.0
20
8000.0
30
0.0
11
60500.0
21
7000.0
31
0.0
70
33
71
5
72
1
41
1.0
210
0.0
220
0.0
230
1.0
3
karim
100
AcDbAlignedDimension
13
60000.0
23
6000.0
33
0.0
14
60000.0
24
8000.0
34
0.0
0
LINE
5
197
330
17
100
AcDbEntity
67
0
8
Grids
62
256
6
Center
370
-1
48
150.0
60
0
100
AcDbLine
10
-1000.0
20
8000.0
30
0.0
11
61000.0
21
8000.0
31
0.0
39
0.0
210
0.0
220
0.0
230
1.0
0
CIRCLE
5
198
330
17
100
AcDbEntity
67
0
8
Grids
62
256
6
ByLayer
370
-1
48
1.0
60
0
100
AcDbCircle
10
-1500.0
20
8000.0
30
0.0
40
500.0
39
0.0
210
0.0
220
0.0
230
1.0
0
CIRCLE
5
199
330
17
100
AcDbEntity
67
0
8
Grids
62
256
6
ByLayer
370
-1
48
1.0
60
0
100
AcDbCircle
10
61500.0
20
8000.0
30
0.0
40
500.0
39
0.0
210
0.0
220
0.0
230
1.0
0
MTEXT
5
19A
330
17
100
AcDbEntity
67
0
8
Text
62
256
6
ByLayer
370
-1
48
1.0
60
0
100
AcDbMText
10
-1700.0
20
8100.0
30
0.0
210
0.0
220
0.0
230
1.0
1
E
40
400.0
41
0.0
44
1.0
50
0.0
71
1
72
5
7
Standard
0
MTEXT
5
19B
330
17
100
AcDbEntity
67
0
8
Text
62
256
6
ByLayer
370
-1
48
1.0
60
0
100
AcDbMText
10
61300.0
20
8100.0
30
0.0
210
0.0
220
0.0
230
1.0
1
E
40
400.0
41
0.0
44
1.0
50
0.0
71
1
72
5
7
Standard
0
INSERT
5
19D
330
17
100
AcDbEntity
67
0
8
Columns
62
256
6
ByLayer
370
-1
48
1.0
60
0
100
AcDbBlockReference
2
Horizontal Left I beam
10
0.0
20
10000.0
30
0.0
41
1.0
42
1.0
43
1.0
50
0.0
210
0.0
220
0.0
230
1.0
0
INSERT
5
19F
330
17
100
AcDbEntity
67
0
8
Columns
62
256
6
ByLayer
370
-1
48
1.0
60
0
100
AcDbBlockReference
2
Horizontal right I Column
10
59400.0
20
10000.0
30
0.0
41
1.0
42
1.0
43
1.0
50
0.0
210
0.0
220
0.0
230
1.0
0
DIMENSION
5
1A0
330
17
100
AcDbEntity
67
0
8
Dimensions
62
256
6
ByLayer
370
-1
48
1.0
60
0
100
AcDbDimension
2
*D15
10
60500.0
20
10000.0
30
0.0
11
60500.0
21
9000.0
31
0.0
70
33
71
5
72
1
41
1.0
210
0.0
220
0.0
230
1.0
3
karim
100
AcDbAlignedDimension
13
60000.0
23
8000.0
33
0.0
14
60000.0
24
10000.0
34
0.0
0
LINE
5
1AD
330
17
100
AcDbEntity
67
0
8
Grids
62
256
6
Center
370
-1
48
150.0
60
0
100
AcDbLine
10
-1000.0
20
10000.0
30
0.0
11
61000.0
21
10000.0
31
0.0
39
0.0
210
0.0
220
0.0
230
1.0
0
CIRCLE
5
1AE
330
17
100
AcDbEntity
67
0
8
Grids
62
256
6
ByLayer
370
-1
48
1.0
60
0
100
AcDbCircle
10
-1500.0
20
10000.0
30
0.0
40
500.0
39
0.0
210
0.0
220
0.0
230
1.0
0
CIRCLE
5
1AF
330
17
100
AcDbEntity
67
0
8
Grids
62
256
6
ByLayer
370
-1
48
1.0
60
0
100
AcDbCircle
10
61500.0
20
10000.0
30
0.0
40
500.0
39
0.0
210
0.0
220
0.0
230
1.0
0
MTEXT
5
1B0
330
17
100
AcDbEntity
67
0
8
Text
62
256
6
ByLayer
370
-1
48
1.0
60
0
100
AcDbMText
10
-1700.0
20
10100.0
30
0.0
210
0.0
220
0.0
230
1.0
1
F
40
400.0
41
0.0
44
1.0
50
0.0
71
1
72
5
7
Standard
0
MTEXT
5
1B1
330
17
100
AcDbEntity
67
0
8
Text
62
256
6
ByLayer
370
-1
48
1.0
60
0
100
AcDbMText
10
61300.0
20
10100.0
30
0.0
210
0.0
220
0.0
230
1.0
1
F
40
400.0
41
0.0
44
1.0
50
0.0
71
1
72
5
7
Standard
0
INSERT
5
1B3
330
17
100
AcDbEntity
67
0
8
Columns
62
256
6
ByLayer
370
-1
48
1.0
60
0
100
AcDbBlockReference
2
Horizontal Left I beam
10
0.0
20
12000.0
30
0.0
41
1.0
42
1.0
43
1.0
50
0.0
210
0.0
220
0.0
230
1.0
0
INSERT
5
1B5
330
17
100
AcDbEntity
67
0
8
Columns
62
256
6
ByLayer
370
-1
48
1.0
60
0
100
AcDbBlockReference
2
Horizontal right I Column
10
59400.0
20
12000.0
30
0.0
41
1.0
42
1.0
43
1.0
50
0.0
210
0.0
220
0.0
230
1.0
0
DIMENSION
5
1B6
330
17
100
AcDbEntity
67
0
8
Dimensions
62
256
6
ByLayer
370
-1
48
1.0
60
0
100
AcDbDimension
2
*D16
10
60500.0
20
12000.0
30
0.0
11
60500.0
21
11000.0
31
0.0
70
33
71
5
72
1
41
1.0
210
0.0
220
0.0
230
1.0
3
karim
100
AcDbAlignedDimension
13
60000.0
23
10000.0
33
0.0
14
60000.0
24
12000.0
34
0.0
0
LINE
5
1C3
330
17
100
AcDbEntity
67
0
8
Grids
62
256
6
Center
370
-1
48
150.0
60
0
100
AcDbLine
10
-1000.0
20
12000.0
30
0.0
11
61000.0
21
12000.0
31
0.0
39
0.0
210
0.0
220
0.0
230
1.0
0
CIRCLE
5
1C4
330
17
100
AcDbEntity
67
0
8
Grids
62
256
6
ByLayer
370
-1
48
1.0
60
0
100
AcDbCircle
10
-1500.0
20
12000.0
30
0.0
40
500.0
39
0.0
210
0.0
220
0.0
230
1.0
0
CIRCLE
5
1C5
330
17
100
AcDbEntity
67
0
8
Grids
62
256
6
ByLayer
370
-1
48
1.0
60
0
100
AcDbCircle
10
61500.0
20
12000.0
30
0.0
40
500.0
39
0.0
210
0.0
220
0.0
230
1.0
0
MTEXT
5
1C6
330
17
100
AcDbEntity
67
0
8
Text
62
256
6
ByLayer
370
-1
48
1.0
60
0
100
AcDbMText
10
-1700.0
20
12100.0
30
0.0
210
0.0
220
0.0
230
1.0
1
G
40
400.0
41
0.0
44
1.0
50
0.0
71
1
72
5
7
Standard
0
MTEXT
5
1C7
330
17
100
AcDbEntity
67
0
8
Text
62
256
6
ByLayer
370
-1
48
1.0
60
0
100
AcDbMText
10
61300.0
20
12100.0
30
0.0
210
0.0
220
0.0
230
1.0
1
G
40
400.0
41
0.0
44
1.0
50
0.0
71
1
72
5
7
Standard
0
INSERT
5
1C9
330
17
100
AcDbEntity
67
0
8
Columns
62
256
6
ByLayer
370
-1
48
1.0
60
0
100
AcDbBlockReference
2
Horizontal Left I beam
10
0.0
20
14000.0
30
0.0
41
1.0
42
1.0
43
1.0
50
0.0
210
0.0
220
0.0
230
1.0
0
INSERT
5
1CB
330
17
100
AcDbEntity
67
0
8
Columns
62
256
6
ByLayer
370
-1
48
1.0
60
0
100
AcDbBlockReference
2
Horizontal right I Column
10
59400.0
20
14000.0
30
0.0
41
1.0
42
1.0
43
1.0
50
0.0
210
0.0
220
0.0
230
1.0
0
DIMENSION
5
1CC
330
17
100
AcDbEntity
67
0
8
Dimensions
62
256
6
ByLayer
370
-1
48
1.0
60
0
100
AcDbDimension
2
*D17
10
60500.0
20
14000.0
30
0.0
11
60500.0
21
13000.0
31
0.0
70
33
71
5
72
1
41
1.0
210
0.0
220
0.0
230
1.0
3
karim
100
AcDbAlignedDimension
13
60000.0
23
12000.0
33
0.0
14
60000.0
24
14000.0
34
0.0
0
LINE
5
1D9
330
17
100
AcDbEntity
67
0
8
Grids
62
256
6
Center
370
-1
48
150.0
60
0
100
AcDbLine
10
-1000.0
20
14000.0
30
0.0
11
61000.0
21
14000.0
31
0.0
39
0.0
210
0.0
220
0.0
230
1.0
0
CIRCLE
5
1DA
330
17
100
AcDbEntity
67
0
8
Grids
62
256
6
ByLayer
370
-1
48
1.0
60
0
100
AcDbCircle
10
-1500.0
20
14000.0
30
0.0
40
500.0
39
0.0
210
0.0
220
0.0
230
1.0
0
CIRCLE
5
1DB
330
17
100
AcDbEntity
67
0
8
Grids
62
256
6
ByLayer
370
-1
48
1.0
60
0
100
AcDbCircle
10
61500.0
20
14000.0
30
0.0
40
500.0
39
0.0
210
0.0
220
0.0
230
1.0
0
MTEXT
5
1DC
330
17
100
AcDbEntity
67
0
8
Text
62
256
6
ByLayer
370
-1
48
1.0
60
0
100
AcDbMText
10
-1700.0
20
14100.0
30
0.0
210
0.0
220
0.0
230
1.0
1
H
40
400.0
41
0.0
44
1.0
50
0.0
71
1
72
5
7
Standard
0
MTEXT
5
1DD
330
17
100
AcDbEntity
67
0
8
Text
62
256
6
ByLayer
370
-1
48
1.0
60
0
100
AcDbMText
10
61300.0
20
14100.0
30
0.0
210
0.0
220
0.0
230
1.0
1
H
40
400.0
41
0.0
44
1.0
50
0.0
71
1
72
5
7
Standard
0
INSERT
5
1DF
330
17
100
AcDbEntity
67
0
8
Columns
62
256
6
ByLayer
370
-1
48
1.0
60
0
100
AcDbBlockReference
2
Horizontal Left I beam
10
0.0
20
16000.0
30
0.0
41
1.0
42
1.0
43
1.0
50
0.0
210
0.0
220
0.0
230
1.0
0
INSERT
5
1E1
330
17
100
AcDbEntity
67
0
8
Columns
62
256
6
ByLayer
370
-1
48
1.0
60
0
100
AcDbBlockReference
2
Horizontal right I Column
10
59400.0
20
16000.0
30
0.0
41
1.0
42
1.0
43
1.0
50
0.0
210
0.0
220
0.0
230
1.0
0
DIMENSION
5
1E2
330
17
100
AcDbEntity
67
0
8
Dimensions
62
256
6
ByLayer
370
-1
48
1.0
60
0
100
AcDbDimension
2
*D18
10
60500.0
20
16000.0
30
0.0
11
60500.0
21
15000.0
31
0.0
70
33
71
5
72
1
41
1.0
210
0.0
220
0.0
230
1.0
3
karim
100
AcDbAlignedDimension
13
60000.0
23
14000.0
33
0.0
14
60000.0
24
16000.0
34
0.0
0
LINE
5
1EF
330
17
100
AcDbEntity
67
0
8
Grids
62
256
6
Center
370
-1
48
150.0
60
0
100
AcDbLine
10
-1000.0
20
16000.0
30
0.0
11
61000.0
21
16000.0
31
0.0
39
0.0
210
0.0
220
0.0
230
1.0
0
CIRCLE
5
1F0
330
17
100
AcDbEntity
67
0
8
Grids
62
256
6
ByLayer
370
-1
48
1.0
60
0
100
AcDbCircle
10
-1500.0
20
16000.0
30
0.0
40
500.0
39
0.0
210
0.0
220
0.0
230
1.0
0
CIRCLE
5
1F1
330
17
100
AcDbEntity
67
0
8
Grids
62
256
6
ByLayer
370
-1
48
1.0
60
0
100
AcDbCircle
10
61500.0
20
16000.0
30
0.0
40
500.0
39
0.0
210
0.0
220
0.0
230
1.0
0
MTEXT
5
1F2
330
17
100
AcDbEntity
67
0
8
Text
62
256
6
ByLayer
370
-1
48
1.0
60
0
100
AcDbMText
10
-1700.0
20
16100.0
30
0.0
210
0.0
220
0.0
230
1.0
1
I
40
400.0
41
0.0
44
1.0
50
0.0
71
1
72
5
7
Standard
0
MTEXT
5
1F3
330
17
100
AcDbEntity
67
0
8
Text
62
256
6
ByLayer
370
-1
48
1.0
60
0
100
AcDbMText
10
61300.0
20
16100.0
30
0.0
210
0.0
220
0.0
230
1.0
1
I
40
400.0
41
0.0
44
1.0
50
0.0
71
1
72
5
7
Standard
0
INSERT
5
1F5
330
17
100
AcDbEntity
67
0
8
Columns
62
256
6
ByLayer
370
-1
48
1.0
60
0
100
AcDbBlockReference
2
Horizontal Left I beam
10
0.0
20
18000.0
30
0.0
41
1.0
42
1.0
43
1.0
50
0.0
210
0.0
220
0.0
230
1.0
0
INSERT
5
1F7
330
17
100
AcDbEntity
67
0
8
Columns
62
256
6
ByLayer
370
-1
48
1.0
60
0
100
AcDbBlockReference
2
Horizontal right I Column
10
59400.0
20
18000.0
30
0.0
41
1.0
42
1.0
43
1.0
50
0.0
210
0.0
220
0.0
230
1.0
0
DIMENSION
5
1F8
330
17
100
AcDbEntity
67
0
8
Dimensions
62
256
6
ByLayer
370
-1
48
1.0
60
0
100
AcDbDimension
2
*D19
10
60500.0
20
18000.0
30
0.0
11
60500.0
21
17000.0
31
0.0
70
33
71
5
72
1
41
1.0
210
0.0
220
0.0
230
1.0
3
karim
100
AcDbAlignedDimension
13
60000.0
23
16000.0
33
0.0
14
60000.0
24
18000.0
34
0.0
0
LINE
5
205
330
17
100
AcDbEntity
67
0
8
Grids
62
256
6
Center
370
-1
48
150.0
60
0
100
AcDbLine
10
-1000.0
20
18000.0
30
0.0
11
61000.0
21
18000.0
31
0.0
39
0.0
210
0.0
220
0.0
230
1.0
0
CIRCLE
5
206
330
17
100
AcDbEntity
67
0
8
Grids
62
256
6
ByLayer
370
-1
48
1.0
60
0
100
AcDbCircle
10
-1500.0
20
18000.0
30
0.0
40
500.0
39
0.0
210
0.0
220
0.0
230
1.0
0
CIRCLE
5
207
330
17
100
AcDbEntity
67
0
8
Grids
62
256
6
ByLayer
370
-1
48
1.0
60
0
100
AcDbCircle
10
61500.0
20
18000.0
30
0.0
40
500.0
39
0.0
210
0.0
220
0.0
230
1.0
0
MTEXT
5
208
330
17
100
AcDbEntity
67
0
8
Text
62
256
6
ByLayer
370
-1
48
1.0
60
0
100
AcDbMText
10
-1700.0
20
18100.0
30
0.0
210
0.0
220
0.0
230
1.0
1
J
40
400.0
41
0.0
44
1.0
50
0.0
71
1
72
5
7
Standard
0
MTEXT
5
209
330
17
100
AcDbEntity
67
0
8
Text
62
256
6
ByLayer
370
-1
48
1.0
60
0
100
AcDbMText
10
61300.0
20
18100.0
30
0.0
210
0.0
220
0.0
230
1.0
1
J
40
400.0
41
0.0
44
1.0
50
0.0
71
1
72
5
7
Standard
0
DIMENSION
5
20A
330
17
100
AcDbEntity
67
0
8
Dimensions
62
256
6
ByLayer
370
-1
48
1.0
60
0
100
AcDbDimension
2
*D20
10
60500.0
20
20000.0
30
0.0
11
60500.0
21
19000.0
31
0.0
70
33
71
5
72
1
41
1.0
210
0.0
220
0.0
230
1.0
3
karim
100
AcDbAlignedDimension
13
60000.0
23
18000.0
33
0.0
14
60000.0
24
20000.0
34
0.0
0
LINE
5
217
330
17
100
AcDbEntity
67
0
8
Grids
62
256
6
Center
370
-1
48
150.0
60
0
100
AcDbLine
10
-1000.0
20
20000.0
30
0.0
11
61000.0
21
20000.0
31
0.0
39
0.0
210
0.0
220
0.0
230
1.0
0
CIRCLE
5
218
330
17
100
AcDbEntity
67
0
8
Grids
62
256
6
ByLayer
370
-1
48
1.0
60
0
100
AcDbCircle
10
-1500.0
20
20000.0
30
0.0
40
500.0
39
0.0
210
0.0
220
0.0
230
1.0
0
CIRCLE
5
219
330
17
100
AcDbEntity
67
0
8
Grids
62
256
6
ByLayer
370
-1
48
1.0
60
0
100
AcDbCircle
10
61500.0
20
20000.0
30
0.0
40
500.0
39
0.0
210
0.0
220
0.0
230
1.0
0
MTEXT
5
21A
330
17
100
AcDbEntity
67
0
8
Text
62
256
6
ByLayer
370
-1
48
1.0
60
0
100
AcDbMText
10
-1700.0
20
20100.0
30
0.0
210
0.0
220
0.0
230
1.0
1
K
40
400.0
41
0.0
44
1.0
50
0.0
71
1
72
5
7
Standard
0
MTEXT
5
21B
330
17
100
AcDbEntity
67
0
8
Text
62
256
6
ByLayer
370
-1
48
1.0
60
0
100
AcDbMText
10
61300.0
20
20100.0
30
0.0
210
0.0
220
0.0
230
1.0
1
K
40
400.0
41
0.0
44
1.0
50
0.0
71
1
72
5
7
Standard
0
POLYLINE
5
222
330
17
100
AcDbEntity
67
0
8
Border
62
256
6
ByLayer
370
-1
48
1.0
60
0
100
AcDb3dPolyline
10
0.0
20
0.0
30
0.0
70
8
75
0
210
0.0
220
0.0
230
1.0
0
VERTEX
5
21C
100
AcDbEntity
8
Border
62
256
100
AcDbVertex
100
AcDb3dPolylineVertex
10
-8000.0
20
-18000.0
30
0.0
70
32
0
VERTEX
5
21D
100
AcDbEntity
8
Border
62
256
100
AcDbVertex
100
AcDb3dPolylineVertex
10
75000.0
20
-18000.0
30
0.0
70
32
0
VERTEX
5
21E
100
AcDbEntity
8
Border
62
256
100
AcDbVertex
100
AcDb3dPolylineVertex
10
75000.0
20
35000.0
30
0.0
70
32
0
VERTEX
5
21F
100
AcDbEntity
8
Border
62
256
100
AcDbVertex
100
AcDb3dPolylineVertex
10
-8000.0
20
35000.0
30
0.0
70
32
0
VERTEX
5
220
100
AcDbEntity
8
Border
62
256
100
AcDbVertex
100
AcDb3dPolylineVertex
10
-8000.0
20
-18000.0
30
0.0
70
32
0
SEQEND
5
221
100
AcDbEntity
8
0
0
POLYLINE
5
22A
330
17
100
AcDbEntity
67
0
8
Border
62
256
6
ByLayer
370
-1
48
1.0
60
0
100
AcDb3dPolyline
10
0.0
20
0.0
30
0.0
70
8
75
0
210
0.0
220
0.0
230
1.0
0
VERTEX
5
224
100
AcDbEntity
8
Border
62
256
100
AcDbVertex
100
AcDb3dPolylineVertex
10
-8300.0
20
-18300.0
30
0.0
70
32
0
VERTEX
5
225
100
AcDbEntity
8
Border
62
256
100
AcDbVertex
100
AcDb3dPolylineVertex
10
75300.0
20
-18300.0
30
0.0
70
32
0
VERTEX
5
226
100
AcDbEntity
8
Border
62
256
100
AcDbVertex
100
AcDb3dPolylineVertex
10
75300.0
20
35300.0
30
0.0
70
32
0
VERTEX
5
227
100
AcDbEntity
8
Border
62
256
100
AcDbVertex
100
AcDb3dPolylineVertex
10
-8300.0
20
35300.0
30
0.0
70
32
0
VERTEX
5
228
100
AcDbEntity
8
Border
62
256
100
AcDbVertex
100
AcDb3dPolylineVertex
10
-8300.0
20
-18300.0
30
0.0
70
32
0
SEQEND
5
229
100
AcDbEntity
8
0
0
POLYLINE
5
231
330
17
100
AcDbEntity
67
0
8
Border
62
256
6
ByLayer
370
-1
48
1.0
60
0
100
AcDb3dPolyline
10
0.0
20
0.0
30
0.0
70
8
75
0
210
0.0
220
0.0
230
1.0
0
VERTEX
5
22B
100
AcDbEntity
8
Border
62
256
100
AcDbVertex
100
AcDb3dPolylineVertex
10
60000.0
20
-18000.0
30
0.0
70
32
0
VERTEX
5
22C
100
AcDbEntity
8
Border
62
256
100
AcDbVertex
100
AcDb3dPolylineVertex
10
75000.0
20
-18000.0
30
0.0
70
32
0
VERTEX
5
22D
100
AcDbEntity
8
Border
62
256
100
AcDbVertex
100
AcDb3dPolylineVertex
10
75000.0
20
-5000.0
30
0.0
70
32
0
VERTEX
5
22E
100
AcDbEntity
8
Border
62
256
100
AcDbVertex
100
AcDb3dPolylineVertex
10
60000.0
20
-5000.0
30
0.0
70
32
0
VERTEX
5
22F
100
AcDbEntity
8
Border
62
256
100
AcDbVertex
100
AcDb3dPolylineVertex
10
60000.0
20
-18000.0
30
0.0
70
32
0
SEQEND
5
230
100
AcDbEntity
8
0
0
MTEXT
5
232
330
17
100
AcDbEntity
67
0
8
Text
62
256
6
ByLayer
370
-1
48
1.0
60
0
100
AcDbMText
10
27500.0
20
-4000.0
30
0.0
210
0.0
220
0.0
230
1.0
1
Column Layout
40
700.0
41
10000.0
44
1.0
50
0.0
71
1
72
5
7
Standard
0
DIMENSION
5
233
330
17
100
AcDbEntity
67
0
8
Dimensions
62
256
6
ByLayer
370
-1
48
1.0
60
0
100
AcDbDimension
2
*D21
10
60000.0
20
-3000.0
30
0.0
11
30000.0
21
-3000.0
31
0.0
70
33
71
5
72
1
41
1.0
210
0.0
220
0.0
230
1.0
3
karim
100
AcDbAlignedDimension
13
0.0
23
0.0
33
0.0
14
60000.0
24
0.0
34
0.0
0
DIMENSION
5
240
330
17
100
AcDbEntity
67
0
8
Dimensions
62
256
6
ByLayer
370
-1
48
1.0
60
0
100
AcDbDimension
2
*D22
10
63000.0
20
20000.0
30
0.0
11
63000.0
21
10000.0
31
0.0
70
33
71
5
72
1
41
1.0
210
0.0
220
0.0
230
1.0
3
karim
100
AcDbAlignedDimension
13
60000.0
23
0.0
33
0.0
14
60000.0
24
20000.0
34
0.0
0
VIEWPORT
5
251
330
24D
100
AcDbEntity
67
1
8
0
62
256
6
ByLayer
370
-1
48
1.0
60
0
100
AcDbViewport
10
0.0
20
0.0
30
0.0
40
297.0
41
210.0
68
1
69
1
12
50.0
22
100.0
13
0.0
23
0.0
14
10.0
24
10.0
15
10.0
25
10.0
16
0.0
26
0.0
36
1.0
17
0.0
27
0.0
37
0.0
42
50.0
43
0.0
44
0.0
45
250.0
50
0.0
51
0.0
72
1000
90
819232
110
0.0
120
0.0
130
0.0
111
1.0
121
0.0
131
0.0
112
0.0
122
1.0
132
0.0
0
ENDSEC
0
SECTION
2
OBJECTS
0
DICTIONARY
5
254
330
0
100
AcDbDictionary
280
0
281
1
3
ACAD_GROUP
350
255
3
ACAD_LAYOUT
350
256
3
ACAD_MLINESTYLE
350
257
0
DICTIONARY
5
255
330
254
100
AcDbDictionary
280
0
281
1
0
DICTIONARY
5
256
330
254
100
AcDbDictionary
280
0
281
1
3
Model
350
1B
3
Layout1
350
252
0
DICTIONARY
5
257
330
254
100
AcDbDictionary
280
0
281
1
3
Standard
350
16
0
LAYOUT
5
1B
330
256
100
AcDbPlotSettings
1

2
none_device
4
ISO_A4_(210.00_x_297.00_MM)
6

40
7.5
41
20.0
42
7.5
43
20.0
44
210.0
45
297.0
46
0.0
47
0.0
48
0.0
49
0.0
140
0.0
141
0.0
142
1.0
143
1.0
70
11952
72
1
73
1
74
5
7

75
16
147
1.0
148
0.0
149
0.0
100
AcDbLayout
1
Model
70
1
71
0
10
-20.0
20
-7.5
11
277.0
21
202.5
12
0.0
22
0.0
32
0.0
14
25.7
24
19.5
34
0.0
15
231.3
25
175.5
35
0.0
146
0.0
13
0.0
23
0.0
33
0.0
16
1.0
26
0.0
36
0.0
17
0.0
27
1.0
37
0.0
76
0
330
17
0
LAYOUT
5
252
330
256
100
AcDbPlotSettings
1

2
none_device
4
ISO_A4_(210.00_x_297.00_MM)
6

40
7.5
41
20.0
42
7.5
43
20.0
44
210.0
45
297.0
46
0.0
47
0.0
48
0.0
49
0.0
140
0.0
141
0.0
142
1.0
143
1.0
70
688
72
1
73
1
74
5
7

75
16
147
1.0
148
0.0
149
0.0
100
AcDbLayout
1
Layout1
70
1
71
1
10
-20.0
20
-7.5
11
277.0
21
202.5
12
0.0
22
0.0
32
0.0
14
25.7
24
19.5
34
0.0
15
231.3
25
175.5
35
0.0
146
0.0
13
0.0
23
0.0
33
0.0
16
1.0
26
0.0
36
0.0
17
0.0
27
1.0
37
0.0
76
0
330
24D
0
MLINESTYLE
5
16
330
257
100
AcDbMlineStyle
2
Standard
70
0
3

62
256
51
90.0
52
90.0
71
2
49
0.5
62
256
6
ByLayer
49
-0.5
62
256
6
ByLayer
0
ENDSEC
0
EOF
