999
Dxf file generated by netDxf http://netdxf.codeplex.com, Copyright(C) 2014 Daniel Carvajal, Licensed under LGPL
0
SECTION
2
HEADER
9
$ACADVER
1
AC1015
9
$DWGCODEPAGE
3
ANSI_1252
9
$HANDSEED
5
6A
9
$ANGBASE
50
0.0
9
$ANGDIR
70
0
9
$ATTMODE
70
1
9
$AUNITS
70
0
9
$AUPREC
70
0
9
$CECOLOR
62
256
9
$CELTSCALE
40
1.0
9
$CELTYPE
6
ByLayer
9
$CELWEIGHT
370
-1
9
$CLAYER
8
0
9
$CMLJUST
70
0
9
$CMLSCALE
40
20.0
9
$CMLSTYLE
2
Standard
9
$DIMSTYLE
2
Standard
9
$TEXTSIZE
40
2.5
9
$TEXTSTYLE
7
Standard
9
$LUNITS
70
2
9
$LUPREC
70
4
9
$EXTNAMES
290
1
9
$INSBASE
10
0.0
20
0.0
30
0.0
9
$INSUNITS
70
0
9
$LTSCALE
40
1.0
9
$LWDISPLAY
290
0
9
$PDMODE
70
0
9
$PDSIZE
40
0.0
9
$PLINEGEN
70
0
9
$TDCREATE
40
2458066.76522559
9
$TDUCREATE
40
2458066.68189226
9
$TDUPDATE
40
2458066.76522559
9
$TDUUPDATE
40
2458066.68189226
9
$TDINDWG
40
0.0
0
ENDSEC
0
SECTION
2
CLASSES
0
CLASS
1
RASTERVARIABLES
2
AcDbRasterVariables
3
ISM
90
0
280
0
281
0
0
ENDSEC
0
SECTION
2
TABLES
0
TABLE
2
APPID
5
3
330
0
100
AcDbSymbolTable
70
2
0
APPID
5
14
330
3
100
AcDbSymbolTableRecord
100
AcDbRegAppTableRecord
2
ACAD
70
0
0
APPID
5
64
330
3
100
AcDbSymbolTableRecord
100
AcDbRegAppTableRecord
2
AcCmTransparency
70
0
0
ENDTAB
0
TABLE
2
VPORT
5
1
330
0
100
AcDbSymbolTable
70
1
0
VPORT
5
E
330
1
100
AcDbSymbolTableRecord
100
AcDbViewportTableRecord
2
*Active
70
0
10
0.0
20
0.0
11
1.0
21
1.0
12
-1.0
22
1.0
13
0.0
23
0.0
14
0.5
24
0.5
15
10.0
25
10.0
16
0.0
26
0.0
36
1.0
17
0.0
27
0.0
37
0.0
0
ENDTAB
0
TABLE
2
LTYPE
5
5
330
0
100
AcDbSymbolTable
70
5
0
LTYPE
5
10
330
5
100
AcDbSymbolTableRecord
100
AcDbLinetypeTableRecord
70
0
2
Continuous
3
Solid line
72
65
73
0
40
0.0
0
LTYPE
5
11
330
5
100
AcDbSymbolTableRecord
100
AcDbLinetypeTableRecord
70
0
2
ByLayer
3

72
65
73
0
40
0.0
0
LTYPE
5
12
330
5
100
AcDbSymbolTableRecord
100
AcDbLinetypeTableRecord
70
0
2
ByBlock
3

72
65
73
0
40
0.0
0
LTYPE
5
20
330
5
100
AcDbSymbolTableRecord
100
AcDbLinetypeTableRecord
70
0
2
Center
3
Center, ____ _ ____ _ ____ _ ____ _ ____ _ ____
72
65
73
4
40
2.0
49
1.25
74
0
49
-0.25
74
0
49
0.25
74
0
49
-0.25
74
0
0
LTYPE
5
5A
330
5
100
AcDbSymbolTableRecord
100
AcDbLinetypeTableRecord
70
0
2
Dashed
3
Dashed, __ __ __ __ __ __ __ __ __ __ __ __ __ _
72
65
73
2
40
0.75
49
0.5
74
0
49
-0.25
74
0
0
ENDTAB
0
TABLE
2
LAYER
5
4
330
0
100
AcDbSymbolTable
70
6
0
LAYER
5
F
330
4
100
AcDbSymbolTableRecord
100
AcDbLayerTableRecord
2
0
70
0
62
7
6
Continuous
290
1
370
-3
390
0
0
LAYER
5
1F
330
4
100
AcDbSymbolTableRecord
100
AcDbLayerTableRecord
2
Grids
70
0
62
1
6
Center
290
1
370
-3
390
0
0
LAYER
5
2C
330
4
100
AcDbSymbolTableRecord
100
AcDbLayerTableRecord
2
Defpoints
70
0
62
7
6
Continuous
290
0
370
-3
390
0
0
LAYER
5
35
330
4
100
AcDbSymbolTableRecord
100
AcDbLayerTableRecord
2
Dimension
70
0
62
6
6
Continuous
290
1
370
-3
390
0
0
LAYER
5
46
330
4
100
AcDbSymbolTableRecord
100
AcDbLayerTableRecord
2
STMember
70
0
62
5
6
Continuous
290
1
370
-3
390
0
0
LAYER
5
59
330
4
100
AcDbSymbolTableRecord
100
AcDbLayerTableRecord
2
SEC
70
0
62
4
6
Dashed
290
1
370
-3
390
0
0
ENDTAB
0
TABLE
2
STYLE
5
6
330
0
100
AcDbSymbolTable
70
1
0
STYLE
5
13
330
6
100
AcDbSymbolTableRecord
100
AcDbTextStyleTableRecord
2
Standard
3
simplex.shx
70
0
71
0
40
0.0
41
1.0
42
0.0
50
0.0
0
ENDTAB
0
TABLE
2
DIMSTYLE
5
7
330
0
100
AcDbSymbolTable
70
2
100
AcDbDimStyleTable
0
DIMSTYLE
105
15
330
7
100
AcDbSymbolTableRecord
100
AcDbDimStyleTableRecord
2
Standard
70
0
3
<>
40
1.0
41
0.18
42
0.0625
43
0.38
44
0.18
46
0.0
73
0
74
0
75
0
76
0
77
1
140
0.18
141
0.09
147
0.09
173
0
176
0
177
0
178
0
179
0
271
2
275
0
278
46
280
0
340
13
345
12
346
12
347
12
371
-2
372
-2
0
DIMSTYLE
105
27
330
7
100
AcDbSymbolTableRecord
100
AcDbDimStyleTableRecord
2
karim
70
0
3
<>
40
500.0
41
0.18
42
0.0625
43
0.38
44
0.18
46
0.0
73
0
74
0
75
0
76
0
77
1
140
0.18
141
0.09
147
0.09
173
0
176
0
177
0
178
0
179
0
271
2
275
0
278
46
280
0
340
13
345
12
346
12
347
12
371
-2
372
-2
0
ENDTAB
0
TABLE
2
VIEW
5
2
330
0
100
AcDbSymbolTable
70
0
0
ENDTAB
0
TABLE
2
UCS
5
9
330
0
100
AcDbSymbolTable
70
0
0
ENDTAB
0
TABLE
2
BLOCK_RECORD
5
A
330
0
100
AcDbSymbolTable
70
4
0
BLOCK_RECORD
5
17
330
A
100
AcDbSymbolTableRecord
100
AcDbBlockTableRecord
2
*Model_Space
340
1B
0
BLOCK_RECORD
5
28
330
A
100
AcDbSymbolTableRecord
100
AcDbBlockTableRecord
2
*D1
340
0
0
BLOCK_RECORD
5
37
330
A
100
AcDbSymbolTableRecord
100
AcDbBlockTableRecord
2
*D2
340
0
0
BLOCK_RECORD
5
5E
330
A
100
AcDbSymbolTableRecord
100
AcDbBlockTableRecord
2
*Paper_Space
340
63
0
ENDTAB
0
ENDSEC
0
SECTION
2
BLOCKS
0
BLOCK
5
19
330
17
100
AcDbEntity
8
0
100
AcDbBlockBegin
2
*Model_Space
70
0
10
0.0
20
0.0
30
0.0
3
*Model_Space
0
ENDBLK
5
18
330
17
100
AcDbEntity
8
0
100
AcDbBlockEnd
0
BLOCK
5
2A
330
28
100
AcDbEntity
8
0
100
AcDbBlockBegin
2
*D1
70
1
10
0.0
20
0.0
30
0.0
3
*D1
0
POINT
5
2B
330
28
100
AcDbEntity
8
Defpoints
62
256
6
ByLayer
370
-1
48
1.0
60
0
100
AcDbPoint
10
-50.0
20
-500.0
30
0.0
39
0.0
210
0.0
220
0.0
230
1.0
50
360.0
0
POINT
5
2D
330
28
100
AcDbEntity
8
Defpoints
62
256
6
ByLayer
370
-1
48
1.0
60
0
100
AcDbPoint
10
19950.0
20
-500.0
30
0.0
39
0.0
210
0.0
220
0.0
230
1.0
50
360.0
0
POINT
5
2E
330
28
100
AcDbEntity
8
Defpoints
62
256
6
ByLayer
370
-1
48
1.0
60
0
100
AcDbPoint
10
19950.0
20
-600.0
30
0.0
39
0.0
210
0.0
220
0.0
230
1.0
50
360.0
0
LINE
5
2F
330
28
100
AcDbEntity
8
0
62
0
6
ByBlock
370
-2
48
1.0
60
0
100
AcDbLine
10
-50.0
20
-531.25
30
0.0
11
-50.0
21
-690.0
31
0.0
39
0.0
210
0.0
220
0.0
230
1.0
0
LINE
5
30
330
28
100
AcDbEntity
8
0
62
0
6
ByBlock
370
-2
48
1.0
60
0
100
AcDbLine
10
19950.0
20
-531.25
30
0.0
11
19950.0
21
-690.0
31
0.0
39
0.0
210
0.0
220
0.0
230
1.0
0
LINE
5
31
330
28
100
AcDbEntity
8
0
62
0
6
ByBlock
370
-2
48
1.0
60
0
100
AcDbLine
10
40.0
20
-600.0
30
0.0
11
19860.0
21
-600.0
31
0.0
39
0.0
210
0.0
220
0.0
230
1.0
0
SOLID
5
32
330
28
100
AcDbEntity
8
0
62
0
6
ByLayer
370
-1
48
1.0
60
0
100
AcDbTrace
10
-50.0
20
-600.0
30
0.0
11
40.0
21
-585.0
31
0.0
12
40.0
22
-615.0
32
0.0
13
40.0
23
-615.0
33
0.0
39
0.0
210
0.0
220
0.0
230
1.0
0
SOLID
5
33
330
28
100
AcDbEntity
8
0
62
0
6
ByLayer
370
-1
48
1.0
60
0
100
AcDbTrace
10
19950.0
20
-600.0
30
0.0
11
19860.0
21
-615.0
31
0.0
12
19860.0
22
-585.0
32
0.0
13
19860.0
23
-585.0
33
0.0
39
0.0
210
0.0
220
0.0
230
1.0
0
MTEXT
5
34
330
28
100
AcDbEntity
8
0
62
0
6
ByLayer
370
-1
48
1.0
60
0
100
AcDbMText
10
9950.0
20
-555.0
30
0.0
210
0.0
220
0.0
230
1.0
1
20000.00
40
90.0
41
0.0
44
1.0
50
0.0
71
8
72
5
7
Standard
0
ENDBLK
5
29
330
28
100
AcDbEntity
8
0
100
AcDbBlockEnd
0
BLOCK
5
39
330
37
100
AcDbEntity
8
0
100
AcDbBlockBegin
2
*D2
70
1
10
0.0
20
0.0
30
0.0
3
*D2
0
POINT
5
3A
330
37
100
AcDbEntity
8
Defpoints
62
256
6
ByLayer
370
-1
48
1.0
60
0
100
AcDbPoint
10
0.0
20
0.0
30
0.0
39
0.0
210
0.0
220
0.0
230
1.0
50
360.0
0
POINT
5
3B
330
37
100
AcDbEntity
8
Defpoints
62
256
6
ByLayer
370
-1
48
1.0
60
0
100
AcDbPoint
10
0.0
20
6000.0
30
0.0
39
0.0
210
0.0
220
0.0
230
1.0
50
360.0
0
POINT
5
3C
330
37
100
AcDbEntity
8
Defpoints
62
256
6
ByLayer
370
-1
48
1.0
60
0
100
AcDbPoint
10
-400.0
20
6000.0
30
0.0
39
0.0
210
0.0
220
0.0
230
1.0
50
360.0
0
LINE
5
3D
330
37
100
AcDbEntity
8
0
62
0
6
ByBlock
370
-2
48
1.0
60
0
100
AcDbLine
10
-31.25
20
0.00000000000000383
30
0.0
11
-490.0
21
0.00000000000006001
31
0.0
39
0.0
210
0.0
220
0.0
230
1.0
0
LINE
5
3E
330
37
100
AcDbEntity
8
0
62
0
6
ByBlock
370
-2
48
1.0
60
0
100
AcDbLine
10
-31.25
20
6000.0
30
0.0
11
-490.0
21
6000.0
31
0.0
39
0.0
210
0.0
220
0.0
230
1.0
0
LINE
5
3F
330
37
100
AcDbEntity
8
0
62
0
6
ByBlock
370
-2
48
1.0
60
0
100
AcDbLine
10
-400.0
20
90.0
30
0.0
11
-400.0
21
5910.0
31
0.0
39
0.0
210
0.0
220
0.0
230
1.0
0
SOLID
5
40
330
37
100
AcDbEntity
8
0
62
0
6
ByLayer
370
-1
48
1.0
60
0
100
AcDbTrace
10
-400.0
20
0.00000000000004898
30
0.0
11
-415.0
21
90.0
31
0.0
12
-385.0
22
90.0
32
0.0
13
-385.0
23
90.0
33
0.0
39
0.0
210
0.0
220
0.0
230
1.0
0
SOLID
5
41
330
37
100
AcDbEntity
8
0
62
0
6
ByLayer
370
-1
48
1.0
60
0
100
AcDbTrace
10
-400.0
20
6000.0
30
0.0
11
-385.0
21
5910.0
31
0.0
12
-415.0
22
5910.0
32
0.0
13
-415.0
23
5910.0
33
0.0
39
0.0
210
0.0
220
0.0
230
1.0
0
MTEXT
5
42
330
37
100
AcDbEntity
8
0
62
0
6
ByLayer
370
-1
48
1.0
60
0
100
AcDbMText
10
-445.0
20
3000.0
30
0.0
210
0.0
220
0.0
230
1.0
1
6000.00
40
90.0
41
0.0
44
1.0
50
90.0
71
8
72
5
7
Standard
0
ENDBLK
5
38
330
37
100
AcDbEntity
8
0
100
AcDbBlockEnd
0
BLOCK
5
60
330
5E
100
AcDbEntity
8
0
100
AcDbBlockBegin
2
*Paper_Space
70
0
10
0.0
20
0.0
30
0.0
3
*Paper_Space
0
ENDBLK
5
5F
330
5E
100
AcDbEntity
8
0
100
AcDbBlockEnd
0
ENDSEC
0
SECTION
2
ENTITIES
0
MTEXT
5
1D
330
17
100
AcDbEntity
67
0
8
0
62
2
6
ByLayer
370
-1
48
1.0
60
0
100
AcDbMText
10
6000.0
20
-2500.0
30
0.0
210
0.0
220
0.0
230
1.0
1
Cross Section Elevation 
40
400.0
41
8000.0
44
1.0
50
0.0
71
1
72
5
7
Standard
0
LINE
5
1E
330
17
100
AcDbEntity
67
0
8
Grids
62
256
6
ByLayer
370
-1
48
300.0
60
0
100
AcDbLine
10
50.0
20
-1000.0
30
0.0
11
50.0
21
6000.0
31
0.0
39
0.0
210
0.0
220
0.0
230
1.0
0
LINE
5
21
330
17
100
AcDbEntity
67
0
8
Grids
62
256
6
ByLayer
370
-1
48
300.0
60
0
100
AcDbLine
10
19950.0
20
-1000.0
30
0.0
11
19950.0
21
6000.0
31
0.0
39
0.0
210
0.0
220
0.0
230
1.0
0
CIRCLE
5
22
330
17
100
AcDbEntity
67
0
8
Grids
62
256
6
ByLayer
370
-1
48
1.0
60
0
100
AcDbCircle
10
50.0
20
-1500.0
30
0.0
40
500.0
39
0.0
210
0.0
220
0.0
230
1.0
0
CIRCLE
5
23
330
17
100
AcDbEntity
67
0
8
Grids
62
256
6
ByLayer
370
-1
48
1.0
60
0
100
AcDbCircle
10
19950.0
20
-1500.0
30
0.0
40
500.0
39
0.0
210
0.0
220
0.0
230
1.0
0
MTEXT
5
24
330
17
100
AcDbEntity
67
0
8
0
62
256
6
ByLayer
370
-1
48
1.0
60
0
100
AcDbMText
10
-50.0
20
-1500.0
30
0.0
210
0.0
220
0.0
230
1.0
1
F
40
400.0
41
400.0
44
1.0
50
0.0
71
1
72
5
7
Standard
0
MTEXT
5
25
330
17
100
AcDbEntity
67
0
8
0
62
256
6
ByLayer
370
-1
48
1.0
60
0
100
AcDbMText
10
19850.0
20
-1500.0
30
0.0
210
0.0
220
0.0
230
1.0
1
A
40
400.0
41
400.0
44
1.0
50
0.0
71
1
72
5
7
Standard
0
DIMENSION
5
26
330
17
100
AcDbEntity
67
0
8
Dimension
62
256
6
ByLayer
370
-1
48
1.0
60
0
100
AcDbDimension
2
*D1
10
19950.0
20
-600.0
30
0.0
11
9950.0
21
-600.0
31
0.0
70
33
71
5
72
1
41
1.0
210
0.0
220
0.0
230
1.0
3
karim
100
AcDbAlignedDimension
13
-50.0
23
-500.0
33
0.0
14
19950.0
24
-500.0
34
0.0
0
DIMENSION
5
36
330
17
100
AcDbEntity
67
0
8
Dimension
62
256
6
ByLayer
370
-1
48
1.0
60
0
100
AcDbDimension
2
*D2
10
-400.0
20
6000.0
30
0.0
11
-400.0
21
3000.0
31
0.0
70
33
71
5
72
1
41
1.0
210
0.0
220
0.0
230
1.0
3
karim
100
AcDbAlignedDimension
13
0.0
23
0.0
33
0.0
14
0.0
24
6000.0
34
0.0
0
MTEXT
5
43
330
17
100
AcDbEntity
67
0
8
Dimension
62
256
6
ByLayer
370
-1
48
1.0
60
0
100
AcDbMText
10
0.0
20
7200.0
30
0.0
210
0.0
220
0.0
230
1.0
1
From1To10
40
200.0
41
400.0
44
1.0
50
0.0
71
1
72
5
7
Standard
0
MTEXT
5
44
330
17
100
AcDbEntity
67
0
8
Dimension
62
256
6
ByLayer
370
-1
48
1.0
60
0
100
AcDbMText
10
17142.8571428571
20
7200.0
30
0.0
210
0.0
220
0.0
230
1.0
1
From1To10
40
200.0
41
400.0
44
1.0
50
0.0
71
1
72
5
7
Standard
0
LINE
5
45
330
17
100
AcDbEntity
67
0
8
STMember
62
256
6
ByLayer
370
-1
48
1.0
60
0
100
AcDbLine
10
0.0
20
0.0
30
0.0
11
0.0
21
6000.0
31
0.0
39
0.0
210
0.0
220
0.0
230
1.0
0
LINE
5
47
330
17
100
AcDbEntity
67
0
8
STMember
62
256
6
ByLayer
370
-1
48
1.0
60
0
100
AcDbLine
10
170.0
20
0.0
30
0.0
11
170.0
21
5830.0
31
0.0
39
0.0
210
0.0
220
0.0
230
1.0
0
LINE
5
48
330
17
100
AcDbEntity
67
0
8
STMember
62
256
6
ByLayer
370
-1
48
1.0
60
0
100
AcDbLine
10
20000.0
20
0.0
30
0.0
11
20000.0
21
6000.0
31
0.0
39
0.0
210
0.0
220
0.0
230
1.0
0
LINE
5
49
330
17
100
AcDbEntity
67
0
8
STMember
62
256
6
ByLayer
370
-1
48
1.0
60
0
100
AcDbLine
10
19830.0
20
0.0
30
0.0
11
19830.0
21
5830.0
31
0.0
39
0.0
210
0.0
220
0.0
230
1.0
0
LINE
5
4A
330
17
100
AcDbEntity
67
0
8
0
62
7
6
ByLayer
370
-1
48
1.0
60
0
100
AcDbLine
10
0.0
20
0.0
30
0.0
11
170.0
21
0.0
31
0.0
39
0.0
210
0.0
220
0.0
230
1.0
0
LINE
5
4B
330
17
100
AcDbEntity
67
0
8
0
62
256
6
ByLayer
370
-1
48
1.0
60
0
100
AcDbLine
10
20000.0
20
0.0
30
0.0
11
19830.0
21
0.0
31
0.0
39
0.0
210
0.0
220
0.0
230
1.0
0
LINE
5
4C
330
17
100
AcDbEntity
67
0
8
STMember
62
256
6
ByLayer
370
-1
48
1.0
60
0
100
AcDbLine
10
0.0
20
6000.0
30
0.0
11
10000.0
21
7000.0
31
0.0
39
0.0
210
0.0
220
0.0
230
1.0
0
LINE
5
4D
330
17
100
AcDbEntity
67
0
8
STMember
62
256
6
ByLayer
370
-1
48
1.0
60
0
100
AcDbLine
10
170.0
20
5830.0
30
0.0
11
10000.0
21
6830.0
31
0.0
39
0.0
210
0.0
220
0.0
230
1.0
0
LINE
5
4E
330
17
100
AcDbEntity
67
0
8
STMember
62
256
6
ByLayer
370
-1
48
1.0
60
0
100
AcDbLine
10
20000.0
20
6000.0
30
0.0
11
10000.0
21
7000.0
31
0.0
39
0.0
210
0.0
220
0.0
230
1.0
0
LINE
5
4F
330
17
100
AcDbEntity
67
0
8
STMember
62
256
6
ByLayer
370
-1
48
1.0
60
0
100
AcDbLine
10
19830.0
20
5830.0
30
0.0
11
10000.0
21
6830.0
31
0.0
39
0.0
210
0.0
220
0.0
230
1.0
0
LINE
5
50
330
17
100
AcDbEntity
67
0
8
STMember
62
256
6
ByLayer
370
-1
48
1.0
60
0
100
AcDbLine
10
50.0
20
0.0
30
0.0
11
50.0
21
6000.0
31
0.0
39
0.0
210
0.0
220
0.0
230
1.0
0
LINE
5
51
330
17
100
AcDbEntity
67
0
8
STMember
62
256
6
ByLayer
370
-1
48
1.0
60
0
100
AcDbLine
10
120.0
20
0.0
30
0.0
11
120.0
21
5830.0
31
0.0
39
0.0
210
0.0
220
0.0
230
1.0
0
LINE
5
52
330
17
100
AcDbEntity
67
0
8
STMember
62
256
6
ByLayer
370
-1
48
1.0
60
0
100
AcDbLine
10
19950.0
20
0.0
30
0.0
11
19950.0
21
6000.0
31
0.0
39
0.0
210
0.0
220
0.0
230
1.0
0
LINE
5
53
330
17
100
AcDbEntity
67
0
8
STMember
62
256
6
ByLayer
370
-1
48
1.0
60
0
100
AcDbLine
10
19880.0
20
0.0
30
0.0
11
19880.0
21
5830.0
31
0.0
39
0.0
210
0.0
220
0.0
230
1.0
0
LINE
5
54
330
17
100
AcDbEntity
67
0
8
STMember
62
256
6
ByLayer
370
-1
48
1.0
60
0
100
AcDbLine
10
0.0
20
5950.0
30
0.0
11
10000.0
21
6950.0
31
0.0
39
0.0
210
0.0
220
0.0
230
1.0
0
LINE
5
55
330
17
100
AcDbEntity
67
0
8
STMember
62
256
6
ByLayer
370
-1
48
1.0
60
0
100
AcDbLine
10
170.0
20
5880.0
30
0.0
11
10000.0
21
6880.0
31
0.0
39
0.0
210
0.0
220
0.0
230
1.0
0
LINE
5
56
330
17
100
AcDbEntity
67
0
8
STMember
62
256
6
ByLayer
370
-1
48
1.0
60
0
100
AcDbLine
10
20000.0
20
5950.0
30
0.0
11
10000.0
21
6950.0
31
0.0
39
0.0
210
0.0
220
0.0
230
1.0
0
LINE
5
57
330
17
100
AcDbEntity
67
0
8
STMember
62
256
6
ByLayer
370
-1
48
1.0
60
0
100
AcDbLine
10
19830.0
20
5880.0
30
0.0
11
10000.0
21
6880.0
31
0.0
39
0.0
210
0.0
220
0.0
230
1.0
0
LINE
5
58
330
17
100
AcDbEntity
67
0
8
SEC
62
256
6
ByLayer
370
-1
48
300.0
60
0
100
AcDbLine
10
-50.0
20
0.0
30
0.0
11
-50.0
21
6050.0
31
0.0
39
0.0
210
0.0
220
0.0
230
1.0
0
LINE
5
5B
330
17
100
AcDbEntity
67
0
8
SEC
62
256
6
ByLayer
370
-1
48
300.0
60
0
100
AcDbLine
10
20050.0
20
0.0
30
0.0
11
20050.0
21
6050.0
31
0.0
39
0.0
210
0.0
220
0.0
230
1.0
0
LINE
5
5C
330
17
100
AcDbEntity
67
0
8
SEC
62
256
6
ByLayer
370
-1
48
300.0
60
0
100
AcDbLine
10
20050.0
20
6050.0
30
0.0
11
10000.0
21
7050.0
31
0.0
39
0.0
210
0.0
220
0.0
230
1.0
0
LINE
5
5D
330
17
100
AcDbEntity
67
0
8
SEC
62
256
6
ByLayer
370
-1
48
300.0
60
0
100
AcDbLine
10
-50.0
20
6050.0
30
0.0
11
10000.0
21
7050.0
31
0.0
39
0.0
210
0.0
220
0.0
230
1.0
0
VIEWPORT
5
62
330
5E
100
AcDbEntity
67
1
8
0
62
256
6
ByLayer
370
-1
48
1.0
60
0
100
AcDbViewport
10
0.0
20
0.0
30
0.0
40
297.0
41
210.0
68
1
69
1
12
50.0
22
100.0
13
0.0
23
0.0
14
10.0
24
10.0
15
10.0
25
10.0
16
0.0
26
0.0
36
1.0
17
0.0
27
0.0
37
0.0
42
50.0
43
0.0
44
0.0
45
250.0
50
0.0
51
0.0
72
1000
90
819232
110
0.0
120
0.0
130
0.0
111
1.0
121
0.0
131
0.0
112
0.0
122
1.0
132
0.0
0
ENDSEC
0
SECTION
2
OBJECTS
0
DICTIONARY
5
65
330
0
100
AcDbDictionary
280
0
281
1
3
ACAD_GROUP
350
66
3
ACAD_LAYOUT
350
67
3
ACAD_MLINESTYLE
350
68
0
DICTIONARY
5
66
330
65
100
AcDbDictionary
280
0
281
1
0
DICTIONARY
5
67
330
65
100
AcDbDictionary
280
0
281
1
3
Model
350
1B
3
Layout1
350
63
0
DICTIONARY
5
68
330
65
100
AcDbDictionary
280
0
281
1
3
Standard
350
16
0
LAYOUT
5
1B
330
67
100
AcDbPlotSettings
1

2
none_device
4
ISO_A4_(210.00_x_297.00_MM)
6

40
7.5
41
20.0
42
7.5
43
20.0
44
210.0
45
297.0
46
0.0
47
0.0
48
0.0
49
0.0
140
0.0
141
0.0
142
1.0
143
1.0
70
11952
72
1
73
1
74
5
7

75
16
147
1.0
148
0.0
149
0.0
100
AcDbLayout
1
Model
70
1
71
0
10
-20.0
20
-7.5
11
277.0
21
202.5
12
0.0
22
0.0
32
0.0
14
25.7
24
19.5
34
0.0
15
231.3
25
175.5
35
0.0
146
0.0
13
0.0
23
0.0
33
0.0
16
1.0
26
0.0
36
0.0
17
0.0
27
1.0
37
0.0
76
0
330
17
0
LAYOUT
5
63
330
67
100
AcDbPlotSettings
1

2
none_device
4
ISO_A4_(210.00_x_297.00_MM)
6

40
7.5
41
20.0
42
7.5
43
20.0
44
210.0
45
297.0
46
0.0
47
0.0
48
0.0
49
0.0
140
0.0
141
0.0
142
1.0
143
1.0
70
688
72
1
73
1
74
5
7

75
16
147
1.0
148
0.0
149
0.0
100
AcDbLayout
1
Layout1
70
1
71
1
10
-20.0
20
-7.5
11
277.0
21
202.5
12
0.0
22
0.0
32
0.0
14
25.7
24
19.5
34
0.0
15
231.3
25
175.5
35
0.0
146
0.0
13
0.0
23
0.0
33
0.0
16
1.0
26
0.0
36
0.0
17
0.0
27
1.0
37
0.0
76
0
330
5E
0
MLINESTYLE
5
16
330
68
100
AcDbMlineStyle
2
Standard
70
0
3

62
256
51
90.0
52
90.0
71
2
49
0.5
62
256
6
ByLayer
49
-0.5
62
256
6
ByLayer
0
ENDSEC
0
EOF
