999
Dxf file generated by netDxf http://netdxf.codeplex.com, Copyright(C) 2014 Daniel Carvajal, Licensed under LGPL
0
SECTION
2
HEADER
9
$ACADVER
1
AC1015
9
$DWGCODEPAGE
3
ANSI_1252
9
$HANDSEED
5
396
9
$ANGBASE
50
0.0
9
$ANGDIR
70
0
9
$ATTMODE
70
1
9
$AUNITS
70
0
9
$AUPREC
70
0
9
$CECOLOR
62
256
9
$CELTSCALE
40
1.0
9
$CELTYPE
6
ByLayer
9
$CELWEIGHT
370
-1
9
$CLAYER
8
0
9
$CMLJUST
70
0
9
$CMLSCALE
40
20.0
9
$CMLSTYLE
2
Standard
9
$DIMSTYLE
2
Standard
9
$TEXTSIZE
40
2.5
9
$TEXTSTYLE
7
Standard
9
$LUNITS
70
2
9
$LUPREC
70
4
9
$EXTNAMES
290
1
9
$INSBASE
10
0.0
20
0.0
30
0.0
9
$INSUNITS
70
0
9
$LTSCALE
40
1.0
9
$LWDISPLAY
290
0
9
$PDMODE
70
0
9
$PDSIZE
40
0.0
9
$PLINEGEN
70
0
9
$TDCREATE
40
2458383.63882094
9
$TDUCREATE
40
2458383.5554876
9
$TDUPDATE
40
2458383.63882094
9
$TDUUPDATE
40
2458383.5554876
9
$TDINDWG
40
0.0
0
ENDSEC
0
SECTION
2
CLASSES
0
CLASS
1
RASTERVARIABLES
2
AcDbRasterVariables
3
ISM
90
0
280
0
281
0
0
ENDSEC
0
SECTION
2
TABLES
0
TABLE
2
APPID
5
3
330
0
100
AcDbSymbolTable
70
2
0
APPID
5
14
330
3
100
AcDbSymbolTableRecord
100
AcDbRegAppTableRecord
2
ACAD
70
0
0
APPID
5
390
330
3
100
AcDbSymbolTableRecord
100
AcDbRegAppTableRecord
2
AcCmTransparency
70
0
0
ENDTAB
0
TABLE
2
VPORT
5
1
330
0
100
AcDbSymbolTable
70
1
0
VPORT
5
E
330
1
100
AcDbSymbolTableRecord
100
AcDbViewportTableRecord
2
*Active
70
0
10
0.0
20
0.0
11
1.0
21
1.0
12
-1.0
22
1.0
13
0.0
23
0.0
14
0.5
24
0.5
15
10.0
25
10.0
16
0.0
26
0.0
36
1.0
17
0.0
27
0.0
37
0.0
0
ENDTAB
0
TABLE
2
LTYPE
5
5
330
0
100
AcDbSymbolTable
70
4
0
LTYPE
5
10
330
5
100
AcDbSymbolTableRecord
100
AcDbLinetypeTableRecord
70
0
2
Continuous
3
Solid line
72
65
73
0
40
0.0
0
LTYPE
5
11
330
5
100
AcDbSymbolTableRecord
100
AcDbLinetypeTableRecord
70
0
2
ByLayer
3

72
65
73
0
40
0.0
0
LTYPE
5
12
330
5
100
AcDbSymbolTableRecord
100
AcDbLinetypeTableRecord
70
0
2
ByBlock
3

72
65
73
0
40
0.0
0
LTYPE
5
33
330
5
100
AcDbSymbolTableRecord
100
AcDbLinetypeTableRecord
70
0
2
Center
3
Center, ____ _ ____ _ ____ _ ____ _ ____ _ ____
72
65
73
4
40
2.0
49
1.25
74
0
49
-0.25
74
0
49
0.25
74
0
49
-0.25
74
0
0
ENDTAB
0
TABLE
2
LAYER
5
4
330
0
100
AcDbSymbolTable
70
8
0
LAYER
5
F
330
4
100
AcDbSymbolTableRecord
100
AcDbLayerTableRecord
2
0
70
0
62
7
6
Continuous
290
1
370
-3
390
0
0
LAYER
5
22
330
4
100
AcDbSymbolTableRecord
100
AcDbLayerTableRecord
2
Bracing
70
0
62
6
6
Continuous
290
1
370
-3
390
0
0
LAYER
5
32
330
4
100
AcDbSymbolTableRecord
100
AcDbLayerTableRecord
2
Grids
70
0
62
1
6
Continuous
290
1
370
-3
390
0
0
LAYER
5
37
330
4
100
AcDbSymbolTableRecord
100
AcDbLayerTableRecord
2
Text
70
0
62
2
6
Continuous
290
1
370
-3
390
0
0
LAYER
5
3E
330
4
100
AcDbSymbolTableRecord
100
AcDbLayerTableRecord
2
Columns
70
0
62
5
6
Continuous
290
1
370
-3
390
0
0
LAYER
5
56
330
4
100
AcDbSymbolTableRecord
100
AcDbLayerTableRecord
2
Defpoints
70
0
62
7
6
Continuous
290
0
370
-3
390
0
0
LAYER
5
5F
330
4
100
AcDbSymbolTableRecord
100
AcDbLayerTableRecord
2
Dimensions
70
0
62
6
6
Continuous
290
1
370
-3
390
0
0
LAYER
5
24B
330
4
100
AcDbSymbolTableRecord
100
AcDbLayerTableRecord
2
Border
70
0
62
3
6
Continuous
290
1
370
-3
390
0
0
ENDTAB
0
TABLE
2
STYLE
5
6
330
0
100
AcDbSymbolTable
70
1
0
STYLE
5
13
330
6
100
AcDbSymbolTableRecord
100
AcDbTextStyleTableRecord
2
Standard
3
simplex.shx
70
0
71
0
40
0.0
41
1.0
42
0.0
50
0.0
0
ENDTAB
0
TABLE
2
DIMSTYLE
5
7
330
0
100
AcDbSymbolTable
70
3
100
AcDbDimStyleTable
0
DIMSTYLE
105
15
330
7
100
AcDbSymbolTableRecord
100
AcDbDimStyleTableRecord
2
Standard
70
0
3
<>
40
1.0
41
0.18
42
0.0625
43
0.38
44
0.18
46
0.0
73
0
74
0
75
0
76
0
77
1
140
0.18
141
0.09
147
0.09
173
0
176
0
177
0
178
0
179
0
271
2
275
0
278
46
280
0
340
13
345
12
346
12
347
12
371
-2
372
-2
0
DIMSTYLE
105
51
330
7
100
AcDbSymbolTableRecord
100
AcDbDimStyleTableRecord
2
karim
70
0
3
<>
40
500.0
41
0.18
42
0.0625
43
0.38
44
0.18
46
0.0
73
0
74
0
75
0
76
0
77
1
140
0.18
141
0.09
147
0.09
173
0
176
0
177
0
178
0
179
0
271
2
275
0
278
46
280
0
340
13
345
12
346
12
347
12
371
-2
372
-2
0
DIMSTYLE
105
321
330
7
100
AcDbSymbolTableRecord
100
AcDbDimStyleTableRecord
2
karim2
70
0
3
<>
40
500.0
41
0.18
42
0.0625
43
0.38
44
0.18
46
0.0
73
0
74
0
75
0
76
0
77
1
140
0.18
141
0.09
147
0.09
173
0
176
0
177
0
178
0
179
0
271
2
275
0
278
46
280
0
340
13
345
12
346
12
347
12
371
-2
372
-2
0
ENDTAB
0
TABLE
2
VIEW
5
2
330
0
100
AcDbSymbolTable
70
0
0
ENDTAB
0
TABLE
2
UCS
5
9
330
0
100
AcDbSymbolTable
70
0
0
ENDTAB
0
TABLE
2
BLOCK_RECORD
5
A
330
0
100
AcDbSymbolTable
70
48
0
BLOCK_RECORD
5
17
330
A
100
AcDbSymbolTableRecord
100
AcDbBlockTableRecord
2
*Model_Space
340
1B
0
BLOCK_RECORD
5
1F
330
A
100
AcDbSymbolTableRecord
100
AcDbBlockTableRecord
2
Bracing
340
0
70
0
280
1
281
0
1001
ACAD
1000
DesignCenter Data
1002
{
1070
1
1070
0
1002
}
0
BLOCK_RECORD
5
3B
330
A
100
AcDbSymbolTableRecord
100
AcDbBlockTableRecord
2
Vertical Down I Column
340
0
70
0
280
1
281
0
1001
ACAD
1000
DesignCenter Data
1002
{
1070
1
1070
0
1002
}
0
BLOCK_RECORD
5
52
330
A
100
AcDbSymbolTableRecord
100
AcDbBlockTableRecord
2
*D1
340
0
0
BLOCK_RECORD
5
6A
330
A
100
AcDbSymbolTableRecord
100
AcDbBlockTableRecord
2
*D2
340
0
0
BLOCK_RECORD
5
80
330
A
100
AcDbSymbolTableRecord
100
AcDbBlockTableRecord
2
*D3
340
0
0
BLOCK_RECORD
5
96
330
A
100
AcDbSymbolTableRecord
100
AcDbBlockTableRecord
2
*D4
340
0
0
BLOCK_RECORD
5
AC
330
A
100
AcDbSymbolTableRecord
100
AcDbBlockTableRecord
2
*D5
340
0
0
BLOCK_RECORD
5
C2
330
A
100
AcDbSymbolTableRecord
100
AcDbBlockTableRecord
2
*D6
340
0
0
BLOCK_RECORD
5
D8
330
A
100
AcDbSymbolTableRecord
100
AcDbBlockTableRecord
2
*D7
340
0
0
BLOCK_RECORD
5
EE
330
A
100
AcDbSymbolTableRecord
100
AcDbBlockTableRecord
2
*D8
340
0
0
BLOCK_RECORD
5
104
330
A
100
AcDbSymbolTableRecord
100
AcDbBlockTableRecord
2
*D9
340
0
0
BLOCK_RECORD
5
11A
330
A
100
AcDbSymbolTableRecord
100
AcDbBlockTableRecord
2
*D10
340
0
0
BLOCK_RECORD
5
136
330
A
100
AcDbSymbolTableRecord
100
AcDbBlockTableRecord
2
Horizontal Left I beam
340
0
70
0
280
1
281
0
1001
ACAD
1000
DesignCenter Data
1002
{
1070
1
1070
0
1002
}
0
BLOCK_RECORD
5
14A
330
A
100
AcDbSymbolTableRecord
100
AcDbBlockTableRecord
2
Horizontal right I Column
340
0
70
0
280
1
281
0
1001
ACAD
1000
DesignCenter Data
1002
{
1070
1
1070
0
1002
}
0
BLOCK_RECORD
5
15D
330
A
100
AcDbSymbolTableRecord
100
AcDbBlockTableRecord
2
*D11
340
0
0
BLOCK_RECORD
5
173
330
A
100
AcDbSymbolTableRecord
100
AcDbBlockTableRecord
2
*D12
340
0
0
BLOCK_RECORD
5
189
330
A
100
AcDbSymbolTableRecord
100
AcDbBlockTableRecord
2
*D13
340
0
0
BLOCK_RECORD
5
19F
330
A
100
AcDbSymbolTableRecord
100
AcDbBlockTableRecord
2
*D14
340
0
0
BLOCK_RECORD
5
1B5
330
A
100
AcDbSymbolTableRecord
100
AcDbBlockTableRecord
2
*D15
340
0
0
BLOCK_RECORD
5
1CB
330
A
100
AcDbSymbolTableRecord
100
AcDbBlockTableRecord
2
*D16
340
0
0
BLOCK_RECORD
5
1E1
330
A
100
AcDbSymbolTableRecord
100
AcDbBlockTableRecord
2
*D17
340
0
0
BLOCK_RECORD
5
1F7
330
A
100
AcDbSymbolTableRecord
100
AcDbBlockTableRecord
2
*D18
340
0
0
BLOCK_RECORD
5
20D
330
A
100
AcDbSymbolTableRecord
100
AcDbBlockTableRecord
2
*D19
340
0
0
BLOCK_RECORD
5
21F
330
A
100
AcDbSymbolTableRecord
100
AcDbBlockTableRecord
2
*D20
340
0
0
BLOCK_RECORD
5
25C
330
A
100
AcDbSymbolTableRecord
100
AcDbBlockTableRecord
2
*D21
340
0
0
BLOCK_RECORD
5
269
330
A
100
AcDbSymbolTableRecord
100
AcDbBlockTableRecord
2
*D22
340
0
0
BLOCK_RECORD
5
277
330
A
100
AcDbSymbolTableRecord
100
AcDbBlockTableRecord
2
Right Column Detailing
340
0
70
0
280
1
281
0
1001
ACAD
1000
DesignCenter Data
1002
{
1070
1
1070
0
1002
}
0
BLOCK_RECORD
5
28A
330
A
100
AcDbSymbolTableRecord
100
AcDbBlockTableRecord
2
*D23
340
0
0
BLOCK_RECORD
5
297
330
A
100
AcDbSymbolTableRecord
100
AcDbBlockTableRecord
2
*D24
340
0
0
BLOCK_RECORD
5
2A4
330
A
100
AcDbSymbolTableRecord
100
AcDbBlockTableRecord
2
*D25
340
0
0
BLOCK_RECORD
5
2B1
330
A
100
AcDbSymbolTableRecord
100
AcDbBlockTableRecord
2
*D26
340
0
0
BLOCK_RECORD
5
2BE
330
A
100
AcDbSymbolTableRecord
100
AcDbBlockTableRecord
2
*D27
340
0
0
BLOCK_RECORD
5
2CB
330
A
100
AcDbSymbolTableRecord
100
AcDbBlockTableRecord
2
*D28
340
0
0
BLOCK_RECORD
5
2D8
330
A
100
AcDbSymbolTableRecord
100
AcDbBlockTableRecord
2
*D29
340
0
0
BLOCK_RECORD
5
2E5
330
A
100
AcDbSymbolTableRecord
100
AcDbBlockTableRecord
2
*D30
340
0
0
BLOCK_RECORD
5
2F2
330
A
100
AcDbSymbolTableRecord
100
AcDbBlockTableRecord
2
*D31
340
0
0
BLOCK_RECORD
5
301
330
A
100
AcDbSymbolTableRecord
100
AcDbBlockTableRecord
2
Right Beam Detailing
340
0
70
0
280
1
281
0
1001
ACAD
1000
DesignCenter Data
1002
{
1070
1
1070
0
1002
}
0
BLOCK_RECORD
5
314
330
A
100
AcDbSymbolTableRecord
100
AcDbBlockTableRecord
2
*D32
340
0
0
BLOCK_RECORD
5
322
330
A
100
AcDbSymbolTableRecord
100
AcDbBlockTableRecord
2
*D33
340
0
0
BLOCK_RECORD
5
32F
330
A
100
AcDbSymbolTableRecord
100
AcDbBlockTableRecord
2
*D34
340
0
0
BLOCK_RECORD
5
33C
330
A
100
AcDbSymbolTableRecord
100
AcDbBlockTableRecord
2
*D35
340
0
0
BLOCK_RECORD
5
349
330
A
100
AcDbSymbolTableRecord
100
AcDbBlockTableRecord
2
*D36
340
0
0
BLOCK_RECORD
5
356
330
A
100
AcDbSymbolTableRecord
100
AcDbBlockTableRecord
2
*D37
340
0
0
BLOCK_RECORD
5
363
330
A
100
AcDbSymbolTableRecord
100
AcDbBlockTableRecord
2
*D38
340
0
0
BLOCK_RECORD
5
370
330
A
100
AcDbSymbolTableRecord
100
AcDbBlockTableRecord
2
*D39
340
0
0
BLOCK_RECORD
5
37D
330
A
100
AcDbSymbolTableRecord
100
AcDbBlockTableRecord
2
*D40
340
0
0
BLOCK_RECORD
5
38A
330
A
100
AcDbSymbolTableRecord
100
AcDbBlockTableRecord
2
*Paper_Space
340
38F
0
ENDTAB
0
ENDSEC
0
SECTION
2
BLOCKS
0
BLOCK
5
19
330
17
100
AcDbEntity
8
0
100
AcDbBlockBegin
2
*Model_Space
70
0
10
0.0
20
0.0
30
0.0
3
*Model_Space
0
ENDBLK
5
18
330
17
100
AcDbEntity
8
0
100
AcDbBlockEnd
0
BLOCK
5
21
330
1F
100
AcDbEntity
8
Bracing
100
AcDbBlockBegin
2
Bracing
70
0
10
0.0
20
0.0
30
0.0
3
Bracing
0
LINE
5
23
330
1F
100
AcDbEntity
8
0
62
256
6
ByLayer
370
-1
48
1.0
60
0
100
AcDbLine
10
0.0
20
0.0
30
0.0
11
5454.54545454546
21
4000.0
31
0.0
39
0.0
210
0.0
220
0.0
230
1.0
0
LINE
5
24
330
1F
100
AcDbEntity
8
0
62
256
6
ByLayer
370
-1
48
1.0
60
0
100
AcDbLine
10
0.0
20
4000.0
30
0.0
11
5454.54545454546
21
0.0
31
0.0
39
0.0
210
0.0
220
0.0
230
1.0
0
MTEXT
5
25
330
1F
100
AcDbEntity
8
0
62
4
6
ByLayer
370
-1
48
1.0
60
0
100
AcDbMText
10
500.0
20
700.0
30
0.0
210
0.0
220
0.0
230
1.0
1
1 < 80*80*8
40
200.0
41
2000.0
44
1.0
50
36.2538377374448
71
1
72
5
7
Standard
0
MTEXT
5
26
330
1F
100
AcDbEntity
8
0
62
4
6
ByLayer
370
-1
48
1.0
60
0
100
AcDbMText
10
3227.27272727273
20
2700.0
30
0.0
210
0.0
220
0.0
230
1.0
1
1 < 80*80*8
40
200.0
41
2000.0
44
1.0
50
36.2538377374448
71
1
72
5
7
Standard
0
MTEXT
5
27
330
1F
100
AcDbEntity
8
0
62
4
6
ByLayer
370
-1
48
1.0
60
0
100
AcDbMText
10
800.0
20
3800.0
30
0.0
210
0.0
220
0.0
230
1.0
1
1 < 80*80*8
40
200.0
41
2000.0
44
1.0
50
323.746162262555
71
1
72
5
7
Standard
0
MTEXT
5
28
330
1F
100
AcDbEntity
8
0
62
4
6
ByLayer
370
-1
48
1.0
60
0
100
AcDbMText
10
3227.27272727273
20
2000.0
30
0.0
210
0.0
220
0.0
230
1.0
1
1 < 80*80*8
40
200.0
41
2000.0
44
1.0
50
323.746162262555
71
1
72
5
7
Standard
0
ENDBLK
5
20
330
1F
100
AcDbEntity
8
Bracing
100
AcDbBlockEnd
0
BLOCK
5
3D
330
3B
100
AcDbEntity
8
Columns
100
AcDbBlockBegin
2
Vertical Down I Column
70
0
10
0.0
20
0.0
30
0.0
3
Vertical Down I Column
0
POLYLINE
5
4D
330
3B
100
AcDbEntity
8
0
62
256
6
ByLayer
370
-1
48
1.0
60
0
100
AcDb3dPolyline
10
0.0
20
0.0
30
0.0
70
9
75
0
210
0.0
220
0.0
230
1.0
0
VERTEX
5
3F
100
AcDbEntity
8
0
62
256
100
AcDbVertex
100
AcDb3dPolylineVertex
10
-500.0
20
0.0
30
0.0
70
32
0
VERTEX
5
40
100
AcDbEntity
8
0
62
256
100
AcDbVertex
100
AcDb3dPolylineVertex
10
-500.0
20
200.0
30
0.0
70
32
0
VERTEX
5
41
100
AcDbEntity
8
0
62
256
100
AcDbVertex
100
AcDb3dPolylineVertex
10
-50.0
20
200.0
30
0.0
70
32
0
VERTEX
5
42
100
AcDbEntity
8
0
62
256
100
AcDbVertex
100
AcDb3dPolylineVertex
10
-50.0
20
1800.0
30
0.0
70
32
0
VERTEX
5
43
100
AcDbEntity
8
0
62
256
100
AcDbVertex
100
AcDb3dPolylineVertex
10
-500.0
20
1800.0
30
0.0
70
32
0
VERTEX
5
44
100
AcDbEntity
8
0
62
256
100
AcDbVertex
100
AcDb3dPolylineVertex
10
-500.0
20
2000.0
30
0.0
70
32
0
VERTEX
5
45
100
AcDbEntity
8
0
62
256
100
AcDbVertex
100
AcDb3dPolylineVertex
10
500.0
20
2000.0
30
0.0
70
32
0
VERTEX
5
46
100
AcDbEntity
8
0
62
256
100
AcDbVertex
100
AcDb3dPolylineVertex
10
500.0
20
1800.0
30
0.0
70
32
0
VERTEX
5
47
100
AcDbEntity
8
0
62
256
100
AcDbVertex
100
AcDb3dPolylineVertex
10
50.0
20
1800.0
30
0.0
70
32
0
VERTEX
5
48
100
AcDbEntity
8
0
62
256
100
AcDbVertex
100
AcDb3dPolylineVertex
10
50.0
20
200.0
30
0.0
70
32
0
VERTEX
5
49
100
AcDbEntity
8
0
62
256
100
AcDbVertex
100
AcDb3dPolylineVertex
10
500.0
20
200.0
30
0.0
70
32
0
VERTEX
5
4A
100
AcDbEntity
8
0
62
256
100
AcDbVertex
100
AcDb3dPolylineVertex
10
500.0
20
0.0
30
0.0
70
32
0
VERTEX
5
4B
100
AcDbEntity
8
0
62
256
100
AcDbVertex
100
AcDb3dPolylineVertex
10
-500.0
20
0.0
30
0.0
70
32
0
SEQEND
5
4C
100
AcDbEntity
8
0
0
ENDBLK
5
3C
330
3B
100
AcDbEntity
8
Columns
100
AcDbBlockEnd
0
BLOCK
5
54
330
52
100
AcDbEntity
8
0
100
AcDbBlockBegin
2
*D1
70
1
10
0.0
20
0.0
30
0.0
3
*D1
0
POINT
5
55
330
52
100
AcDbEntity
8
Defpoints
62
256
6
ByLayer
370
-1
48
1.0
60
0
100
AcDbPoint
10
0.0
20
0.0
30
0.0
39
0.0
210
0.0
220
0.0
230
1.0
50
360.0
0
POINT
5
57
330
52
100
AcDbEntity
8
Defpoints
62
256
6
ByLayer
370
-1
48
1.0
60
0
100
AcDbPoint
10
5454.54545454546
20
0.0
30
0.0
39
0.0
210
0.0
220
0.0
230
1.0
50
360.0
0
POINT
5
58
330
52
100
AcDbEntity
8
Defpoints
62
256
6
ByLayer
370
-1
48
1.0
60
0
100
AcDbPoint
10
5454.54545454546
20
-500.0
30
0.0
39
0.0
210
0.0
220
0.0
230
1.0
50
360.0
0
LINE
5
59
330
52
100
AcDbEntity
8
0
62
0
6
ByBlock
370
-2
48
1.0
60
0
100
AcDbLine
10
-0.00000000000000191
20
-31.25
30
0.0
11
-0.00000000000003613
21
-590.0
31
0.0
39
0.0
210
0.0
220
0.0
230
1.0
0
LINE
5
5A
330
52
100
AcDbEntity
8
0
62
0
6
ByBlock
370
-2
48
1.0
60
0
100
AcDbLine
10
5454.54545454546
20
-31.25
30
0.0
11
5454.54545454546
21
-590.0
31
0.0
39
0.0
210
0.0
220
0.0
230
1.0
0
LINE
5
5B
330
52
100
AcDbEntity
8
0
62
0
6
ByBlock
370
-2
48
1.0
60
0
100
AcDbLine
10
90.0
20
-500.0
30
0.0
11
5364.54545454546
21
-500.0
31
0.0
39
0.0
210
0.0
220
0.0
230
1.0
0
SOLID
5
5C
330
52
100
AcDbEntity
8
0
62
0
6
ByLayer
370
-1
48
1.0
60
0
100
AcDbTrace
10
-0.00000000000003062
20
-500.0
30
0.0
11
90.0
21
-485.0
31
0.0
12
90.0
22
-515.0
32
0.0
13
90.0
23
-515.0
33
0.0
39
0.0
210
0.0
220
0.0
230
1.0
0
SOLID
5
5D
330
52
100
AcDbEntity
8
0
62
0
6
ByLayer
370
-1
48
1.0
60
0
100
AcDbTrace
10
5454.54545454546
20
-500.0
30
0.0
11
5364.54545454546
21
-515.0
31
0.0
12
5364.54545454546
22
-485.0
32
0.0
13
5364.54545454546
23
-485.0
33
0.0
39
0.0
210
0.0
220
0.0
230
1.0
0
MTEXT
5
5E
330
52
100
AcDbEntity
8
0
62
0
6
ByLayer
370
-1
48
1.0
60
0
100
AcDbMText
10
2727.27272727273
20
-455.0
30
0.0
210
0.0
220
0.0
230
1.0
1
5454.55
40
90.0
41
0.0
44
1.0
50
0.0
71
8
72
5
7
Standard
0
ENDBLK
5
53
330
52
100
AcDbEntity
8
0
100
AcDbBlockEnd
0
BLOCK
5
6C
330
6A
100
AcDbEntity
8
0
100
AcDbBlockBegin
2
*D2
70
1
10
0.0
20
0.0
30
0.0
3
*D2
0
POINT
5
6D
330
6A
100
AcDbEntity
8
Defpoints
62
256
6
ByLayer
370
-1
48
1.0
60
0
100
AcDbPoint
10
5454.54545454546
20
0.0
30
0.0
39
0.0
210
0.0
220
0.0
230
1.0
50
360.0
0
POINT
5
6E
330
6A
100
AcDbEntity
8
Defpoints
62
256
6
ByLayer
370
-1
48
1.0
60
0
100
AcDbPoint
10
10909.0909090909
20
0.0
30
0.0
39
0.0
210
0.0
220
0.0
230
1.0
50
360.0
0
POINT
5
6F
330
6A
100
AcDbEntity
8
Defpoints
62
256
6
ByLayer
370
-1
48
1.0
60
0
100
AcDbPoint
10
10909.0909090909
20
-500.0
30
0.0
39
0.0
210
0.0
220
0.0
230
1.0
50
360.0
0
LINE
5
70
330
6A
100
AcDbEntity
8
0
62
0
6
ByBlock
370
-2
48
1.0
60
0
100
AcDbLine
10
5454.54545454546
20
-31.25
30
0.0
11
5454.54545454546
21
-590.0
31
0.0
39
0.0
210
0.0
220
0.0
230
1.0
0
LINE
5
71
330
6A
100
AcDbEntity
8
0
62
0
6
ByBlock
370
-2
48
1.0
60
0
100
AcDbLine
10
10909.0909090909
20
-31.25
30
0.0
11
10909.0909090909
21
-590.0
31
0.0
39
0.0
210
0.0
220
0.0
230
1.0
0
LINE
5
72
330
6A
100
AcDbEntity
8
0
62
0
6
ByBlock
370
-2
48
1.0
60
0
100
AcDbLine
10
5544.54545454546
20
-500.0
30
0.0
11
10819.0909090909
21
-500.0
31
0.0
39
0.0
210
0.0
220
0.0
230
1.0
0
SOLID
5
73
330
6A
100
AcDbEntity
8
0
62
0
6
ByLayer
370
-1
48
1.0
60
0
100
AcDbTrace
10
5454.54545454546
20
-500.0
30
0.0
11
5544.54545454546
21
-485.0
31
0.0
12
5544.54545454546
22
-515.0
32
0.0
13
5544.54545454546
23
-515.0
33
0.0
39
0.0
210
0.0
220
0.0
230
1.0
0
SOLID
5
74
330
6A
100
AcDbEntity
8
0
62
0
6
ByLayer
370
-1
48
1.0
60
0
100
AcDbTrace
10
10909.0909090909
20
-500.0
30
0.0
11
10819.0909090909
21
-515.0
31
0.0
12
10819.0909090909
22
-485.0
32
0.0
13
10819.0909090909
23
-485.0
33
0.0
39
0.0
210
0.0
220
0.0
230
1.0
0
MTEXT
5
75
330
6A
100
AcDbEntity
8
0
62
0
6
ByLayer
370
-1
48
1.0
60
0
100
AcDbMText
10
8181.81818181818
20
-455.0
30
0.0
210
0.0
220
0.0
230
1.0
1
5454.55
40
90.0
41
0.0
44
1.0
50
0.0
71
8
72
5
7
Standard
0
ENDBLK
5
6B
330
6A
100
AcDbEntity
8
0
100
AcDbBlockEnd
0
BLOCK
5
82
330
80
100
AcDbEntity
8
0
100
AcDbBlockBegin
2
*D3
70
1
10
0.0
20
0.0
30
0.0
3
*D3
0
POINT
5
83
330
80
100
AcDbEntity
8
Defpoints
62
256
6
ByLayer
370
-1
48
1.0
60
0
100
AcDbPoint
10
10909.0909090909
20
0.0
30
0.0
39
0.0
210
0.0
220
0.0
230
1.0
50
360.0
0
POINT
5
84
330
80
100
AcDbEntity
8
Defpoints
62
256
6
ByLayer
370
-1
48
1.0
60
0
100
AcDbPoint
10
16363.6363636364
20
0.0
30
0.0
39
0.0
210
0.0
220
0.0
230
1.0
50
360.0
0
POINT
5
85
330
80
100
AcDbEntity
8
Defpoints
62
256
6
ByLayer
370
-1
48
1.0
60
0
100
AcDbPoint
10
16363.6363636364
20
-500.0
30
0.0
39
0.0
210
0.0
220
0.0
230
1.0
50
360.0
0
LINE
5
86
330
80
100
AcDbEntity
8
0
62
0
6
ByBlock
370
-2
48
1.0
60
0
100
AcDbLine
10
10909.0909090909
20
-31.25
30
0.0
11
10909.0909090909
21
-590.0
31
0.0
39
0.0
210
0.0
220
0.0
230
1.0
0
LINE
5
87
330
80
100
AcDbEntity
8
0
62
0
6
ByBlock
370
-2
48
1.0
60
0
100
AcDbLine
10
16363.6363636364
20
-31.25
30
0.0
11
16363.6363636364
21
-590.0
31
0.0
39
0.0
210
0.0
220
0.0
230
1.0
0
LINE
5
88
330
80
100
AcDbEntity
8
0
62
0
6
ByBlock
370
-2
48
1.0
60
0
100
AcDbLine
10
10999.0909090909
20
-500.0
30
0.0
11
16273.6363636364
21
-500.0
31
0.0
39
0.0
210
0.0
220
0.0
230
1.0
0
SOLID
5
89
330
80
100
AcDbEntity
8
0
62
0
6
ByLayer
370
-1
48
1.0
60
0
100
AcDbTrace
10
10909.0909090909
20
-500.0
30
0.0
11
10999.0909090909
21
-485.0
31
0.0
12
10999.0909090909
22
-515.0
32
0.0
13
10999.0909090909
23
-515.0
33
0.0
39
0.0
210
0.0
220
0.0
230
1.0
0
SOLID
5
8A
330
80
100
AcDbEntity
8
0
62
0
6
ByLayer
370
-1
48
1.0
60
0
100
AcDbTrace
10
16363.6363636364
20
-500.0
30
0.0
11
16273.6363636364
21
-515.0
31
0.0
12
16273.6363636364
22
-485.0
32
0.0
13
16273.6363636364
23
-485.0
33
0.0
39
0.0
210
0.0
220
0.0
230
1.0
0
MTEXT
5
8B
330
80
100
AcDbEntity
8
0
62
0
6
ByLayer
370
-1
48
1.0
60
0
100
AcDbMText
10
13636.3636363636
20
-455.0
30
0.0
210
0.0
220
0.0
230
1.0
1
5454.55
40
90.0
41
0.0
44
1.0
50
0.0
71
8
72
5
7
Standard
0
ENDBLK
5
81
330
80
100
AcDbEntity
8
0
100
AcDbBlockEnd
0
BLOCK
5
98
330
96
100
AcDbEntity
8
0
100
AcDbBlockBegin
2
*D4
70
1
10
0.0
20
0.0
30
0.0
3
*D4
0
POINT
5
99
330
96
100
AcDbEntity
8
Defpoints
62
256
6
ByLayer
370
-1
48
1.0
60
0
100
AcDbPoint
10
16363.6363636364
20
0.0
30
0.0
39
0.0
210
0.0
220
0.0
230
1.0
50
360.0
0
POINT
5
9A
330
96
100
AcDbEntity
8
Defpoints
62
256
6
ByLayer
370
-1
48
1.0
60
0
100
AcDbPoint
10
21818.1818181818
20
0.0
30
0.0
39
0.0
210
0.0
220
0.0
230
1.0
50
360.0
0
POINT
5
9B
330
96
100
AcDbEntity
8
Defpoints
62
256
6
ByLayer
370
-1
48
1.0
60
0
100
AcDbPoint
10
21818.1818181818
20
-500.0
30
0.0
39
0.0
210
0.0
220
0.0
230
1.0
50
360.0
0
LINE
5
9C
330
96
100
AcDbEntity
8
0
62
0
6
ByBlock
370
-2
48
1.0
60
0
100
AcDbLine
10
16363.6363636364
20
-31.25
30
0.0
11
16363.6363636364
21
-590.0
31
0.0
39
0.0
210
0.0
220
0.0
230
1.0
0
LINE
5
9D
330
96
100
AcDbEntity
8
0
62
0
6
ByBlock
370
-2
48
1.0
60
0
100
AcDbLine
10
21818.1818181818
20
-31.25
30
0.0
11
21818.1818181818
21
-590.0
31
0.0
39
0.0
210
0.0
220
0.0
230
1.0
0
LINE
5
9E
330
96
100
AcDbEntity
8
0
62
0
6
ByBlock
370
-2
48
1.0
60
0
100
AcDbLine
10
16453.6363636364
20
-500.0
30
0.0
11
21728.1818181818
21
-500.0
31
0.0
39
0.0
210
0.0
220
0.0
230
1.0
0
SOLID
5
9F
330
96
100
AcDbEntity
8
0
62
0
6
ByLayer
370
-1
48
1.0
60
0
100
AcDbTrace
10
16363.6363636364
20
-500.0
30
0.0
11
16453.6363636364
21
-485.0
31
0.0
12
16453.6363636364
22
-515.0
32
0.0
13
16453.6363636364
23
-515.0
33
0.0
39
0.0
210
0.0
220
0.0
230
1.0
0
SOLID
5
A0
330
96
100
AcDbEntity
8
0
62
0
6
ByLayer
370
-1
48
1.0
60
0
100
AcDbTrace
10
21818.1818181818
20
-500.0
30
0.0
11
21728.1818181818
21
-515.0
31
0.0
12
21728.1818181818
22
-485.0
32
0.0
13
21728.1818181818
23
-485.0
33
0.0
39
0.0
210
0.0
220
0.0
230
1.0
0
MTEXT
5
A1
330
96
100
AcDbEntity
8
0
62
0
6
ByLayer
370
-1
48
1.0
60
0
100
AcDbMText
10
19090.9090909091
20
-455.0
30
0.0
210
0.0
220
0.0
230
1.0
1
5454.55
40
90.0
41
0.0
44
1.0
50
0.0
71
8
72
5
7
Standard
0
ENDBLK
5
97
330
96
100
AcDbEntity
8
0
100
AcDbBlockEnd
0
BLOCK
5
AE
330
AC
100
AcDbEntity
8
0
100
AcDbBlockBegin
2
*D5
70
1
10
0.0
20
0.0
30
0.0
3
*D5
0
POINT
5
AF
330
AC
100
AcDbEntity
8
Defpoints
62
256
6
ByLayer
370
-1
48
1.0
60
0
100
AcDbPoint
10
21818.1818181818
20
0.0
30
0.0
39
0.0
210
0.0
220
0.0
230
1.0
50
360.0
0
POINT
5
B0
330
AC
100
AcDbEntity
8
Defpoints
62
256
6
ByLayer
370
-1
48
1.0
60
0
100
AcDbPoint
10
27272.7272727273
20
0.0
30
0.0
39
0.0
210
0.0
220
0.0
230
1.0
50
360.0
0
POINT
5
B1
330
AC
100
AcDbEntity
8
Defpoints
62
256
6
ByLayer
370
-1
48
1.0
60
0
100
AcDbPoint
10
27272.7272727273
20
-500.0
30
0.0
39
0.0
210
0.0
220
0.0
230
1.0
50
360.0
0
LINE
5
B2
330
AC
100
AcDbEntity
8
0
62
0
6
ByBlock
370
-2
48
1.0
60
0
100
AcDbLine
10
21818.1818181818
20
-31.25
30
0.0
11
21818.1818181818
21
-590.0
31
0.0
39
0.0
210
0.0
220
0.0
230
1.0
0
LINE
5
B3
330
AC
100
AcDbEntity
8
0
62
0
6
ByBlock
370
-2
48
1.0
60
0
100
AcDbLine
10
27272.7272727273
20
-31.25
30
0.0
11
27272.7272727273
21
-590.0
31
0.0
39
0.0
210
0.0
220
0.0
230
1.0
0
LINE
5
B4
330
AC
100
AcDbEntity
8
0
62
0
6
ByBlock
370
-2
48
1.0
60
0
100
AcDbLine
10
21908.1818181818
20
-500.0
30
0.0
11
27182.7272727273
21
-500.0
31
0.0
39
0.0
210
0.0
220
0.0
230
1.0
0
SOLID
5
B5
330
AC
100
AcDbEntity
8
0
62
0
6
ByLayer
370
-1
48
1.0
60
0
100
AcDbTrace
10
21818.1818181818
20
-500.0
30
0.0
11
21908.1818181818
21
-485.0
31
0.0
12
21908.1818181818
22
-515.0
32
0.0
13
21908.1818181818
23
-515.0
33
0.0
39
0.0
210
0.0
220
0.0
230
1.0
0
SOLID
5
B6
330
AC
100
AcDbEntity
8
0
62
0
6
ByLayer
370
-1
48
1.0
60
0
100
AcDbTrace
10
27272.7272727273
20
-500.0
30
0.0
11
27182.7272727273
21
-515.0
31
0.0
12
27182.7272727273
22
-485.0
32
0.0
13
27182.7272727273
23
-485.0
33
0.0
39
0.0
210
0.0
220
0.0
230
1.0
0
MTEXT
5
B7
330
AC
100
AcDbEntity
8
0
62
0
6
ByLayer
370
-1
48
1.0
60
0
100
AcDbMText
10
24545.4545454545
20
-455.0
30
0.0
210
0.0
220
0.0
230
1.0
1
5454.55
40
90.0
41
0.0
44
1.0
50
0.0
71
8
72
5
7
Standard
0
ENDBLK
5
AD
330
AC
100
AcDbEntity
8
0
100
AcDbBlockEnd
0
BLOCK
5
C4
330
C2
100
AcDbEntity
8
0
100
AcDbBlockBegin
2
*D6
70
1
10
0.0
20
0.0
30
0.0
3
*D6
0
POINT
5
C5
330
C2
100
AcDbEntity
8
Defpoints
62
256
6
ByLayer
370
-1
48
1.0
60
0
100
AcDbPoint
10
27272.7272727273
20
0.0
30
0.0
39
0.0
210
0.0
220
0.0
230
1.0
50
360.0
0
POINT
5
C6
330
C2
100
AcDbEntity
8
Defpoints
62
256
6
ByLayer
370
-1
48
1.0
60
0
100
AcDbPoint
10
32727.2727272727
20
0.0
30
0.0
39
0.0
210
0.0
220
0.0
230
1.0
50
360.0
0
POINT
5
C7
330
C2
100
AcDbEntity
8
Defpoints
62
256
6
ByLayer
370
-1
48
1.0
60
0
100
AcDbPoint
10
32727.2727272727
20
-500.0
30
0.0
39
0.0
210
0.0
220
0.0
230
1.0
50
360.0
0
LINE
5
C8
330
C2
100
AcDbEntity
8
0
62
0
6
ByBlock
370
-2
48
1.0
60
0
100
AcDbLine
10
27272.7272727273
20
-31.25
30
0.0
11
27272.7272727273
21
-590.0
31
0.0
39
0.0
210
0.0
220
0.0
230
1.0
0
LINE
5
C9
330
C2
100
AcDbEntity
8
0
62
0
6
ByBlock
370
-2
48
1.0
60
0
100
AcDbLine
10
32727.2727272727
20
-31.25
30
0.0
11
32727.2727272727
21
-590.0
31
0.0
39
0.0
210
0.0
220
0.0
230
1.0
0
LINE
5
CA
330
C2
100
AcDbEntity
8
0
62
0
6
ByBlock
370
-2
48
1.0
60
0
100
AcDbLine
10
27362.7272727273
20
-500.0
30
0.0
11
32637.2727272727
21
-500.0
31
0.0
39
0.0
210
0.0
220
0.0
230
1.0
0
SOLID
5
CB
330
C2
100
AcDbEntity
8
0
62
0
6
ByLayer
370
-1
48
1.0
60
0
100
AcDbTrace
10
27272.7272727273
20
-500.0
30
0.0
11
27362.7272727273
21
-485.0
31
0.0
12
27362.7272727273
22
-515.0
32
0.0
13
27362.7272727273
23
-515.0
33
0.0
39
0.0
210
0.0
220
0.0
230
1.0
0
SOLID
5
CC
330
C2
100
AcDbEntity
8
0
62
0
6
ByLayer
370
-1
48
1.0
60
0
100
AcDbTrace
10
32727.2727272727
20
-500.0
30
0.0
11
32637.2727272727
21
-515.0
31
0.0
12
32637.2727272727
22
-485.0
32
0.0
13
32637.2727272727
23
-485.0
33
0.0
39
0.0
210
0.0
220
0.0
230
1.0
0
MTEXT
5
CD
330
C2
100
AcDbEntity
8
0
62
0
6
ByLayer
370
-1
48
1.0
60
0
100
AcDbMText
10
30000.0
20
-455.0
30
0.0
210
0.0
220
0.0
230
1.0
1
5454.55
40
90.0
41
0.0
44
1.0
50
0.0
71
8
72
5
7
Standard
0
ENDBLK
5
C3
330
C2
100
AcDbEntity
8
0
100
AcDbBlockEnd
0
BLOCK
5
DA
330
D8
100
AcDbEntity
8
0
100
AcDbBlockBegin
2
*D7
70
1
10
0.0
20
0.0
30
0.0
3
*D7
0
POINT
5
DB
330
D8
100
AcDbEntity
8
Defpoints
62
256
6
ByLayer
370
-1
48
1.0
60
0
100
AcDbPoint
10
32727.2727272727
20
0.0
30
0.0
39
0.0
210
0.0
220
0.0
230
1.0
50
360.0
0
POINT
5
DC
330
D8
100
AcDbEntity
8
Defpoints
62
256
6
ByLayer
370
-1
48
1.0
60
0
100
AcDbPoint
10
38181.8181818182
20
0.0
30
0.0
39
0.0
210
0.0
220
0.0
230
1.0
50
360.0
0
POINT
5
DD
330
D8
100
AcDbEntity
8
Defpoints
62
256
6
ByLayer
370
-1
48
1.0
60
0
100
AcDbPoint
10
38181.8181818182
20
-500.0
30
0.0
39
0.0
210
0.0
220
0.0
230
1.0
50
360.0
0
LINE
5
DE
330
D8
100
AcDbEntity
8
0
62
0
6
ByBlock
370
-2
48
1.0
60
0
100
AcDbLine
10
32727.2727272727
20
-31.25
30
0.0
11
32727.2727272727
21
-590.0
31
0.0
39
0.0
210
0.0
220
0.0
230
1.0
0
LINE
5
DF
330
D8
100
AcDbEntity
8
0
62
0
6
ByBlock
370
-2
48
1.0
60
0
100
AcDbLine
10
38181.8181818182
20
-31.25
30
0.0
11
38181.8181818182
21
-590.0
31
0.0
39
0.0
210
0.0
220
0.0
230
1.0
0
LINE
5
E0
330
D8
100
AcDbEntity
8
0
62
0
6
ByBlock
370
-2
48
1.0
60
0
100
AcDbLine
10
32817.2727272727
20
-500.0
30
0.0
11
38091.8181818182
21
-500.0
31
0.0
39
0.0
210
0.0
220
0.0
230
1.0
0
SOLID
5
E1
330
D8
100
AcDbEntity
8
0
62
0
6
ByLayer
370
-1
48
1.0
60
0
100
AcDbTrace
10
32727.2727272727
20
-500.0
30
0.0
11
32817.2727272727
21
-485.0
31
0.0
12
32817.2727272727
22
-515.0
32
0.0
13
32817.2727272727
23
-515.0
33
0.0
39
0.0
210
0.0
220
0.0
230
1.0
0
SOLID
5
E2
330
D8
100
AcDbEntity
8
0
62
0
6
ByLayer
370
-1
48
1.0
60
0
100
AcDbTrace
10
38181.8181818182
20
-500.0
30
0.0
11
38091.8181818182
21
-515.0
31
0.0
12
38091.8181818182
22
-485.0
32
0.0
13
38091.8181818182
23
-485.0
33
0.0
39
0.0
210
0.0
220
0.0
230
1.0
0
MTEXT
5
E3
330
D8
100
AcDbEntity
8
0
62
0
6
ByLayer
370
-1
48
1.0
60
0
100
AcDbMText
10
35454.5454545455
20
-455.0
30
0.0
210
0.0
220
0.0
230
1.0
1
5454.55
40
90.0
41
0.0
44
1.0
50
0.0
71
8
72
5
7
Standard
0
ENDBLK
5
D9
330
D8
100
AcDbEntity
8
0
100
AcDbBlockEnd
0
BLOCK
5
F0
330
EE
100
AcDbEntity
8
0
100
AcDbBlockBegin
2
*D8
70
1
10
0.0
20
0.0
30
0.0
3
*D8
0
POINT
5
F1
330
EE
100
AcDbEntity
8
Defpoints
62
256
6
ByLayer
370
-1
48
1.0
60
0
100
AcDbPoint
10
38181.8181818182
20
0.0
30
0.0
39
0.0
210
0.0
220
0.0
230
1.0
50
360.0
0
POINT
5
F2
330
EE
100
AcDbEntity
8
Defpoints
62
256
6
ByLayer
370
-1
48
1.0
60
0
100
AcDbPoint
10
43636.3636363636
20
0.0
30
0.0
39
0.0
210
0.0
220
0.0
230
1.0
50
360.0
0
POINT
5
F3
330
EE
100
AcDbEntity
8
Defpoints
62
256
6
ByLayer
370
-1
48
1.0
60
0
100
AcDbPoint
10
43636.3636363636
20
-500.0
30
0.0
39
0.0
210
0.0
220
0.0
230
1.0
50
360.0
0
LINE
5
F4
330
EE
100
AcDbEntity
8
0
62
0
6
ByBlock
370
-2
48
1.0
60
0
100
AcDbLine
10
38181.8181818182
20
-31.25
30
0.0
11
38181.8181818182
21
-590.0
31
0.0
39
0.0
210
0.0
220
0.0
230
1.0
0
LINE
5
F5
330
EE
100
AcDbEntity
8
0
62
0
6
ByBlock
370
-2
48
1.0
60
0
100
AcDbLine
10
43636.3636363636
20
-31.25
30
0.0
11
43636.3636363636
21
-590.0
31
0.0
39
0.0
210
0.0
220
0.0
230
1.0
0
LINE
5
F6
330
EE
100
AcDbEntity
8
0
62
0
6
ByBlock
370
-2
48
1.0
60
0
100
AcDbLine
10
38271.8181818182
20
-500.0
30
0.0
11
43546.3636363636
21
-500.0
31
0.0
39
0.0
210
0.0
220
0.0
230
1.0
0
SOLID
5
F7
330
EE
100
AcDbEntity
8
0
62
0
6
ByLayer
370
-1
48
1.0
60
0
100
AcDbTrace
10
38181.8181818182
20
-500.0
30
0.0
11
38271.8181818182
21
-485.0
31
0.0
12
38271.8181818182
22
-515.0
32
0.0
13
38271.8181818182
23
-515.0
33
0.0
39
0.0
210
0.0
220
0.0
230
1.0
0
SOLID
5
F8
330
EE
100
AcDbEntity
8
0
62
0
6
ByLayer
370
-1
48
1.0
60
0
100
AcDbTrace
10
43636.3636363636
20
-500.0
30
0.0
11
43546.3636363636
21
-515.0
31
0.0
12
43546.3636363636
22
-485.0
32
0.0
13
43546.3636363636
23
-485.0
33
0.0
39
0.0
210
0.0
220
0.0
230
1.0
0
MTEXT
5
F9
330
EE
100
AcDbEntity
8
0
62
0
6
ByLayer
370
-1
48
1.0
60
0
100
AcDbMText
10
40909.0909090909
20
-455.0
30
0.0
210
0.0
220
0.0
230
1.0
1
5454.55
40
90.0
41
0.0
44
1.0
50
0.0
71
8
72
5
7
Standard
0
ENDBLK
5
EF
330
EE
100
AcDbEntity
8
0
100
AcDbBlockEnd
0
BLOCK
5
106
330
104
100
AcDbEntity
8
0
100
AcDbBlockBegin
2
*D9
70
1
10
0.0
20
0.0
30
0.0
3
*D9
0
POINT
5
107
330
104
100
AcDbEntity
8
Defpoints
62
256
6
ByLayer
370
-1
48
1.0
60
0
100
AcDbPoint
10
43636.3636363636
20
0.0
30
0.0
39
0.0
210
0.0
220
0.0
230
1.0
50
360.0
0
POINT
5
108
330
104
100
AcDbEntity
8
Defpoints
62
256
6
ByLayer
370
-1
48
1.0
60
0
100
AcDbPoint
10
49090.9090909091
20
0.0
30
0.0
39
0.0
210
0.0
220
0.0
230
1.0
50
360.0
0
POINT
5
109
330
104
100
AcDbEntity
8
Defpoints
62
256
6
ByLayer
370
-1
48
1.0
60
0
100
AcDbPoint
10
49090.9090909091
20
-500.0
30
0.0
39
0.0
210
0.0
220
0.0
230
1.0
50
360.0
0
LINE
5
10A
330
104
100
AcDbEntity
8
0
62
0
6
ByBlock
370
-2
48
1.0
60
0
100
AcDbLine
10
43636.3636363636
20
-31.25
30
0.0
11
43636.3636363636
21
-590.0
31
0.0
39
0.0
210
0.0
220
0.0
230
1.0
0
LINE
5
10B
330
104
100
AcDbEntity
8
0
62
0
6
ByBlock
370
-2
48
1.0
60
0
100
AcDbLine
10
49090.9090909091
20
-31.25
30
0.0
11
49090.9090909091
21
-590.0
31
0.0
39
0.0
210
0.0
220
0.0
230
1.0
0
LINE
5
10C
330
104
100
AcDbEntity
8
0
62
0
6
ByBlock
370
-2
48
1.0
60
0
100
AcDbLine
10
43726.3636363636
20
-500.0
30
0.0
11
49000.9090909091
21
-500.0
31
0.0
39
0.0
210
0.0
220
0.0
230
1.0
0
SOLID
5
10D
330
104
100
AcDbEntity
8
0
62
0
6
ByLayer
370
-1
48
1.0
60
0
100
AcDbTrace
10
43636.3636363636
20
-500.0
30
0.0
11
43726.3636363636
21
-485.0
31
0.0
12
43726.3636363636
22
-515.0
32
0.0
13
43726.3636363636
23
-515.0
33
0.0
39
0.0
210
0.0
220
0.0
230
1.0
0
SOLID
5
10E
330
104
100
AcDbEntity
8
0
62
0
6
ByLayer
370
-1
48
1.0
60
0
100
AcDbTrace
10
49090.9090909091
20
-500.0
30
0.0
11
49000.9090909091
21
-515.0
31
0.0
12
49000.9090909091
22
-485.0
32
0.0
13
49000.9090909091
23
-485.0
33
0.0
39
0.0
210
0.0
220
0.0
230
1.0
0
MTEXT
5
10F
330
104
100
AcDbEntity
8
0
62
0
6
ByLayer
370
-1
48
1.0
60
0
100
AcDbMText
10
46363.6363636364
20
-455.0
30
0.0
210
0.0
220
0.0
230
1.0
1
5454.55
40
90.0
41
0.0
44
1.0
50
0.0
71
8
72
5
7
Standard
0
ENDBLK
5
105
330
104
100
AcDbEntity
8
0
100
AcDbBlockEnd
0
BLOCK
5
11C
330
11A
100
AcDbEntity
8
0
100
AcDbBlockBegin
2
*D10
70
1
10
0.0
20
0.0
30
0.0
3
*D10
0
POINT
5
11D
330
11A
100
AcDbEntity
8
Defpoints
62
256
6
ByLayer
370
-1
48
1.0
60
0
100
AcDbPoint
10
49090.9090909091
20
0.0
30
0.0
39
0.0
210
0.0
220
0.0
230
1.0
50
360.0
0
POINT
5
11E
330
11A
100
AcDbEntity
8
Defpoints
62
256
6
ByLayer
370
-1
48
1.0
60
0
100
AcDbPoint
10
54545.4545454546
20
0.0
30
0.0
39
0.0
210
0.0
220
0.0
230
1.0
50
360.0
0
POINT
5
11F
330
11A
100
AcDbEntity
8
Defpoints
62
256
6
ByLayer
370
-1
48
1.0
60
0
100
AcDbPoint
10
54545.4545454546
20
-500.0
30
0.0
39
0.0
210
0.0
220
0.0
230
1.0
50
360.0
0
LINE
5
120
330
11A
100
AcDbEntity
8
0
62
0
6
ByBlock
370
-2
48
1.0
60
0
100
AcDbLine
10
49090.9090909091
20
-31.25
30
0.0
11
49090.9090909091
21
-590.0
31
0.0
39
0.0
210
0.0
220
0.0
230
1.0
0
LINE
5
121
330
11A
100
AcDbEntity
8
0
62
0
6
ByBlock
370
-2
48
1.0
60
0
100
AcDbLine
10
54545.4545454546
20
-31.25
30
0.0
11
54545.4545454546
21
-590.0
31
0.0
39
0.0
210
0.0
220
0.0
230
1.0
0
LINE
5
122
330
11A
100
AcDbEntity
8
0
62
0
6
ByBlock
370
-2
48
1.0
60
0
100
AcDbLine
10
49180.9090909091
20
-500.0
30
0.0
11
54455.4545454546
21
-500.0
31
0.0
39
0.0
210
0.0
220
0.0
230
1.0
0
SOLID
5
123
330
11A
100
AcDbEntity
8
0
62
0
6
ByLayer
370
-1
48
1.0
60
0
100
AcDbTrace
10
49090.9090909091
20
-500.0
30
0.0
11
49180.9090909091
21
-485.0
31
0.0
12
49180.9090909091
22
-515.0
32
0.0
13
49180.9090909091
23
-515.0
33
0.0
39
0.0
210
0.0
220
0.0
230
1.0
0
SOLID
5
124
330
11A
100
AcDbEntity
8
0
62
0
6
ByLayer
370
-1
48
1.0
60
0
100
AcDbTrace
10
54545.4545454546
20
-500.0
30
0.0
11
54455.4545454546
21
-515.0
31
0.0
12
54455.4545454546
22
-485.0
32
0.0
13
54455.4545454546
23
-485.0
33
0.0
39
0.0
210
0.0
220
0.0
230
1.0
0
MTEXT
5
125
330
11A
100
AcDbEntity
8
0
62
0
6
ByLayer
370
-1
48
1.0
60
0
100
AcDbMText
10
51818.1818181818
20
-455.0
30
0.0
210
0.0
220
0.0
230
1.0
1
5454.55
40
90.0
41
0.0
44
1.0
50
0.0
71
8
72
5
7
Standard
0
ENDBLK
5
11B
330
11A
100
AcDbEntity
8
0
100
AcDbBlockEnd
0
BLOCK
5
138
330
136
100
AcDbEntity
8
Columns
100
AcDbBlockBegin
2
Horizontal Left I beam
70
0
10
0.0
20
0.0
30
0.0
3
Horizontal Left I beam
0
POLYLINE
5
147
330
136
100
AcDbEntity
8
0
62
256
6
ByLayer
370
-1
48
1.0
60
0
100
AcDb3dPolyline
10
0.0
20
0.0
30
0.0
70
9
75
0
210
0.0
220
0.0
230
1.0
0
VERTEX
5
139
100
AcDbEntity
8
0
62
256
100
AcDbVertex
100
AcDb3dPolylineVertex
10
0.0
20
-500.0
30
0.0
70
32
0
VERTEX
5
13A
100
AcDbEntity
8
0
62
256
100
AcDbVertex
100
AcDb3dPolylineVertex
10
200.0
20
-500.0
30
0.0
70
32
0
VERTEX
5
13B
100
AcDbEntity
8
0
62
256
100
AcDbVertex
100
AcDb3dPolylineVertex
10
200.0
20
-50.0
30
0.0
70
32
0
VERTEX
5
13C
100
AcDbEntity
8
0
62
256
100
AcDbVertex
100
AcDb3dPolylineVertex
10
1800.0
20
-50.0
30
0.0
70
32
0
VERTEX
5
13D
100
AcDbEntity
8
0
62
256
100
AcDbVertex
100
AcDb3dPolylineVertex
10
1800.0
20
-500.0
30
0.0
70
32
0
VERTEX
5
13E
100
AcDbEntity
8
0
62
256
100
AcDbVertex
100
AcDb3dPolylineVertex
10
2000.0
20
-500.0
30
0.0
70
32
0
VERTEX
5
13F
100
AcDbEntity
8
0
62
256
100
AcDbVertex
100
AcDb3dPolylineVertex
10
2000.0
20
500.0
30
0.0
70
32
0
VERTEX
5
140
100
AcDbEntity
8
0
62
256
100
AcDbVertex
100
AcDb3dPolylineVertex
10
1800.0
20
500.0
30
0.0
70
32
0
VERTEX
5
141
100
AcDbEntity
8
0
62
256
100
AcDbVertex
100
AcDb3dPolylineVertex
10
1800.0
20
50.0
30
0.0
70
32
0
VERTEX
5
142
100
AcDbEntity
8
0
62
256
100
AcDbVertex
100
AcDb3dPolylineVertex
10
200.0
20
50.0
30
0.0
70
32
0
VERTEX
5
143
100
AcDbEntity
8
0
62
256
100
AcDbVertex
100
AcDb3dPolylineVertex
10
200.0
20
500.0
30
0.0
70
32
0
VERTEX
5
144
100
AcDbEntity
8
0
62
256
100
AcDbVertex
100
AcDb3dPolylineVertex
10
0.0
20
500.0
30
0.0
70
32
0
VERTEX
5
145
100
AcDbEntity
8
0
62
256
100
AcDbVertex
100
AcDb3dPolylineVertex
10
0.0
20
-500.0
30
0.0
70
32
0
SEQEND
5
146
100
AcDbEntity
8
0
0
ENDBLK
5
137
330
136
100
AcDbEntity
8
Columns
100
AcDbBlockEnd
0
BLOCK
5
14C
330
14A
100
AcDbEntity
8
Columns
100
AcDbBlockBegin
2
Horizontal right I Column
70
0
10
0.0
20
0.0
30
0.0
3
Horizontal right I Column
0
POLYLINE
5
15B
330
14A
100
AcDbEntity
8
0
62
256
6
ByLayer
370
-1
48
1.0
60
0
100
AcDb3dPolyline
10
0.0
20
0.0
30
0.0
70
9
75
0
210
0.0
220
0.0
230
1.0
0
VERTEX
5
14D
100
AcDbEntity
8
0
62
256
100
AcDbVertex
100
AcDb3dPolylineVertex
10
0.0
20
-500.0
30
0.0
70
32
0
VERTEX
5
14E
100
AcDbEntity
8
0
62
256
100
AcDbVertex
100
AcDb3dPolylineVertex
10
200.0
20
-500.0
30
0.0
70
32
0
VERTEX
5
14F
100
AcDbEntity
8
0
62
256
100
AcDbVertex
100
AcDb3dPolylineVertex
10
200.0
20
-50.0
30
0.0
70
32
0
VERTEX
5
150
100
AcDbEntity
8
0
62
256
100
AcDbVertex
100
AcDb3dPolylineVertex
10
1800.0
20
-50.0
30
0.0
70
32
0
VERTEX
5
151
100
AcDbEntity
8
0
62
256
100
AcDbVertex
100
AcDb3dPolylineVertex
10
1800.0
20
-500.0
30
0.0
70
32
0
VERTEX
5
152
100
AcDbEntity
8
0
62
256
100
AcDbVertex
100
AcDb3dPolylineVertex
10
2000.0
20
-500.0
30
0.0
70
32
0
VERTEX
5
153
100
AcDbEntity
8
0
62
256
100
AcDbVertex
100
AcDb3dPolylineVertex
10
2000.0
20
500.0
30
0.0
70
32
0
VERTEX
5
154
100
AcDbEntity
8
0
62
256
100
AcDbVertex
100
AcDb3dPolylineVertex
10
1800.0
20
500.0
30
0.0
70
32
0
VERTEX
5
155
100
AcDbEntity
8
0
62
256
100
AcDbVertex
100
AcDb3dPolylineVertex
10
1800.0
20
50.0
30
0.0
70
32
0
VERTEX
5
156
100
AcDbEntity
8
0
62
256
100
AcDbVertex
100
AcDb3dPolylineVertex
10
200.0
20
50.0
30
0.0
70
32
0
VERTEX
5
157
100
AcDbEntity
8
0
62
256
100
AcDbVertex
100
AcDb3dPolylineVertex
10
200.0
20
500.0
30
0.0
70
32
0
VERTEX
5
158
100
AcDbEntity
8
0
62
256
100
AcDbVertex
100
AcDb3dPolylineVertex
10
0.0
20
500.0
30
0.0
70
32
0
VERTEX
5
159
100
AcDbEntity
8
0
62
256
100
AcDbVertex
100
AcDb3dPolylineVertex
10
0.0
20
-500.0
30
0.0
70
32
0
SEQEND
5
15A
100
AcDbEntity
8
0
0
ENDBLK
5
14B
330
14A
100
AcDbEntity
8
Columns
100
AcDbBlockEnd
0
BLOCK
5
15F
330
15D
100
AcDbEntity
8
0
100
AcDbBlockBegin
2
*D11
70
1
10
0.0
20
0.0
30
0.0
3
*D11
0
POINT
5
160
330
15D
100
AcDbEntity
8
Defpoints
62
256
6
ByLayer
370
-1
48
1.0
60
0
100
AcDbPoint
10
60000.0
20
0.0
30
0.0
39
0.0
210
0.0
220
0.0
230
1.0
50
360.0
0
POINT
5
161
330
15D
100
AcDbEntity
8
Defpoints
62
256
6
ByLayer
370
-1
48
1.0
60
0
100
AcDbPoint
10
60000.0
20
2000.0
30
0.0
39
0.0
210
0.0
220
0.0
230
1.0
50
360.0
0
POINT
5
162
330
15D
100
AcDbEntity
8
Defpoints
62
256
6
ByLayer
370
-1
48
1.0
60
0
100
AcDbPoint
10
60500.0
20
2000.0
30
0.0
39
0.0
210
0.0
220
0.0
230
1.0
50
360.0
0
LINE
5
163
330
15D
100
AcDbEntity
8
0
62
0
6
ByBlock
370
-2
48
1.0
60
0
100
AcDbLine
10
60031.25
20
-0.00000000000000383
30
0.0
11
60590.0
21
-0.00000000000007225
31
0.0
39
0.0
210
0.0
220
0.0
230
1.0
0
LINE
5
164
330
15D
100
AcDbEntity
8
0
62
0
6
ByBlock
370
-2
48
1.0
60
0
100
AcDbLine
10
60031.25
20
2000.0
30
0.0
11
60590.0
21
2000.0
31
0.0
39
0.0
210
0.0
220
0.0
230
1.0
0
LINE
5
165
330
15D
100
AcDbEntity
8
0
62
0
6
ByBlock
370
-2
48
1.0
60
0
100
AcDbLine
10
60500.0
20
89.9999999999999
30
0.0
11
60500.0
21
1910.0
31
0.0
39
0.0
210
0.0
220
0.0
230
1.0
0
SOLID
5
166
330
15D
100
AcDbEntity
8
0
62
0
6
ByLayer
370
-1
48
1.0
60
0
100
AcDbTrace
10
60500.0
20
-0.00000000000006123
30
0.0
11
60485.0
21
89.9999999999999
31
0.0
12
60515.0
22
89.9999999999999
32
0.0
13
60515.0
23
89.9999999999999
33
0.0
39
0.0
210
0.0
220
0.0
230
1.0
0
SOLID
5
167
330
15D
100
AcDbEntity
8
0
62
0
6
ByLayer
370
-1
48
1.0
60
0
100
AcDbTrace
10
60500.0
20
2000.0
30
0.0
11
60515.0
21
1910.0
31
0.0
12
60485.0
22
1910.0
32
0.0
13
60485.0
23
1910.0
33
0.0
39
0.0
210
0.0
220
0.0
230
1.0
0
MTEXT
5
168
330
15D
100
AcDbEntity
8
0
62
0
6
ByLayer
370
-1
48
1.0
60
0
100
AcDbMText
10
60455.0
20
1000.0
30
0.0
210
0.0
220
0.0
230
1.0
1
2000.00
40
90.0
41
0.0
44
1.0
50
90.0
71
8
72
5
7
Standard
0
ENDBLK
5
15E
330
15D
100
AcDbEntity
8
0
100
AcDbBlockEnd
0
BLOCK
5
175
330
173
100
AcDbEntity
8
0
100
AcDbBlockBegin
2
*D12
70
1
10
0.0
20
0.0
30
0.0
3
*D12
0
POINT
5
176
330
173
100
AcDbEntity
8
Defpoints
62
256
6
ByLayer
370
-1
48
1.0
60
0
100
AcDbPoint
10
60000.0
20
2000.0
30
0.0
39
0.0
210
0.0
220
0.0
230
1.0
50
360.0
0
POINT
5
177
330
173
100
AcDbEntity
8
Defpoints
62
256
6
ByLayer
370
-1
48
1.0
60
0
100
AcDbPoint
10
60000.0
20
4000.0
30
0.0
39
0.0
210
0.0
220
0.0
230
1.0
50
360.0
0
POINT
5
178
330
173
100
AcDbEntity
8
Defpoints
62
256
6
ByLayer
370
-1
48
1.0
60
0
100
AcDbPoint
10
60500.0
20
4000.0
30
0.0
39
0.0
210
0.0
220
0.0
230
1.0
50
360.0
0
LINE
5
179
330
173
100
AcDbEntity
8
0
62
0
6
ByBlock
370
-2
48
1.0
60
0
100
AcDbLine
10
60031.25
20
2000.0
30
0.0
11
60590.0
21
2000.0
31
0.0
39
0.0
210
0.0
220
0.0
230
1.0
0
LINE
5
17A
330
173
100
AcDbEntity
8
0
62
0
6
ByBlock
370
-2
48
1.0
60
0
100
AcDbLine
10
60031.25
20
4000.0
30
0.0
11
60590.0
21
4000.0
31
0.0
39
0.0
210
0.0
220
0.0
230
1.0
0
LINE
5
17B
330
173
100
AcDbEntity
8
0
62
0
6
ByBlock
370
-2
48
1.0
60
0
100
AcDbLine
10
60500.0
20
2090.0
30
0.0
11
60500.0
21
3910.0
31
0.0
39
0.0
210
0.0
220
0.0
230
1.0
0
SOLID
5
17C
330
173
100
AcDbEntity
8
0
62
0
6
ByLayer
370
-1
48
1.0
60
0
100
AcDbTrace
10
60500.0
20
2000.0
30
0.0
11
60485.0
21
2090.0
31
0.0
12
60515.0
22
2090.0
32
0.0
13
60515.0
23
2090.0
33
0.0
39
0.0
210
0.0
220
0.0
230
1.0
0
SOLID
5
17D
330
173
100
AcDbEntity
8
0
62
0
6
ByLayer
370
-1
48
1.0
60
0
100
AcDbTrace
10
60500.0
20
4000.0
30
0.0
11
60515.0
21
3910.0
31
0.0
12
60485.0
22
3910.0
32
0.0
13
60485.0
23
3910.0
33
0.0
39
0.0
210
0.0
220
0.0
230
1.0
0
MTEXT
5
17E
330
173
100
AcDbEntity
8
0
62
0
6
ByLayer
370
-1
48
1.0
60
0
100
AcDbMText
10
60455.0
20
3000.0
30
0.0
210
0.0
220
0.0
230
1.0
1
2000.00
40
90.0
41
0.0
44
1.0
50
90.0
71
8
72
5
7
Standard
0
ENDBLK
5
174
330
173
100
AcDbEntity
8
0
100
AcDbBlockEnd
0
BLOCK
5
18B
330
189
100
AcDbEntity
8
0
100
AcDbBlockBegin
2
*D13
70
1
10
0.0
20
0.0
30
0.0
3
*D13
0
POINT
5
18C
330
189
100
AcDbEntity
8
Defpoints
62
256
6
ByLayer
370
-1
48
1.0
60
0
100
AcDbPoint
10
60000.0
20
4000.0
30
0.0
39
0.0
210
0.0
220
0.0
230
1.0
50
360.0
0
POINT
5
18D
330
189
100
AcDbEntity
8
Defpoints
62
256
6
ByLayer
370
-1
48
1.0
60
0
100
AcDbPoint
10
60000.0
20
6000.0
30
0.0
39
0.0
210
0.0
220
0.0
230
1.0
50
360.0
0
POINT
5
18E
330
189
100
AcDbEntity
8
Defpoints
62
256
6
ByLayer
370
-1
48
1.0
60
0
100
AcDbPoint
10
60500.0
20
6000.0
30
0.0
39
0.0
210
0.0
220
0.0
230
1.0
50
360.0
0
LINE
5
18F
330
189
100
AcDbEntity
8
0
62
0
6
ByBlock
370
-2
48
1.0
60
0
100
AcDbLine
10
60031.25
20
4000.0
30
0.0
11
60590.0
21
4000.0
31
0.0
39
0.0
210
0.0
220
0.0
230
1.0
0
LINE
5
190
330
189
100
AcDbEntity
8
0
62
0
6
ByBlock
370
-2
48
1.0
60
0
100
AcDbLine
10
60031.25
20
6000.0
30
0.0
11
60590.0
21
6000.0
31
0.0
39
0.0
210
0.0
220
0.0
230
1.0
0
LINE
5
191
330
189
100
AcDbEntity
8
0
62
0
6
ByBlock
370
-2
48
1.0
60
0
100
AcDbLine
10
60500.0
20
4090.0
30
0.0
11
60500.0
21
5910.0
31
0.0
39
0.0
210
0.0
220
0.0
230
1.0
0
SOLID
5
192
330
189
100
AcDbEntity
8
0
62
0
6
ByLayer
370
-1
48
1.0
60
0
100
AcDbTrace
10
60500.0
20
4000.0
30
0.0
11
60485.0
21
4090.0
31
0.0
12
60515.0
22
4090.0
32
0.0
13
60515.0
23
4090.0
33
0.0
39
0.0
210
0.0
220
0.0
230
1.0
0
SOLID
5
193
330
189
100
AcDbEntity
8
0
62
0
6
ByLayer
370
-1
48
1.0
60
0
100
AcDbTrace
10
60500.0
20
6000.0
30
0.0
11
60515.0
21
5910.0
31
0.0
12
60485.0
22
5910.0
32
0.0
13
60485.0
23
5910.0
33
0.0
39
0.0
210
0.0
220
0.0
230
1.0
0
MTEXT
5
194
330
189
100
AcDbEntity
8
0
62
0
6
ByLayer
370
-1
48
1.0
60
0
100
AcDbMText
10
60455.0
20
5000.0
30
0.0
210
0.0
220
0.0
230
1.0
1
2000.00
40
90.0
41
0.0
44
1.0
50
90.0
71
8
72
5
7
Standard
0
ENDBLK
5
18A
330
189
100
AcDbEntity
8
0
100
AcDbBlockEnd
0
BLOCK
5
1A1
330
19F
100
AcDbEntity
8
0
100
AcDbBlockBegin
2
*D14
70
1
10
0.0
20
0.0
30
0.0
3
*D14
0
POINT
5
1A2
330
19F
100
AcDbEntity
8
Defpoints
62
256
6
ByLayer
370
-1
48
1.0
60
0
100
AcDbPoint
10
60000.0
20
6000.0
30
0.0
39
0.0
210
0.0
220
0.0
230
1.0
50
360.0
0
POINT
5
1A3
330
19F
100
AcDbEntity
8
Defpoints
62
256
6
ByLayer
370
-1
48
1.0
60
0
100
AcDbPoint
10
60000.0
20
8000.0
30
0.0
39
0.0
210
0.0
220
0.0
230
1.0
50
360.0
0
POINT
5
1A4
330
19F
100
AcDbEntity
8
Defpoints
62
256
6
ByLayer
370
-1
48
1.0
60
0
100
AcDbPoint
10
60500.0
20
8000.0
30
0.0
39
0.0
210
0.0
220
0.0
230
1.0
50
360.0
0
LINE
5
1A5
330
19F
100
AcDbEntity
8
0
62
0
6
ByBlock
370
-2
48
1.0
60
0
100
AcDbLine
10
60031.25
20
6000.0
30
0.0
11
60590.0
21
6000.0
31
0.0
39
0.0
210
0.0
220
0.0
230
1.0
0
LINE
5
1A6
330
19F
100
AcDbEntity
8
0
62
0
6
ByBlock
370
-2
48
1.0
60
0
100
AcDbLine
10
60031.25
20
8000.0
30
0.0
11
60590.0
21
8000.0
31
0.0
39
0.0
210
0.0
220
0.0
230
1.0
0
LINE
5
1A7
330
19F
100
AcDbEntity
8
0
62
0
6
ByBlock
370
-2
48
1.0
60
0
100
AcDbLine
10
60500.0
20
6090.0
30
0.0
11
60500.0
21
7910.0
31
0.0
39
0.0
210
0.0
220
0.0
230
1.0
0
SOLID
5
1A8
330
19F
100
AcDbEntity
8
0
62
0
6
ByLayer
370
-1
48
1.0
60
0
100
AcDbTrace
10
60500.0
20
6000.0
30
0.0
11
60485.0
21
6090.0
31
0.0
12
60515.0
22
6090.0
32
0.0
13
60515.0
23
6090.0
33
0.0
39
0.0
210
0.0
220
0.0
230
1.0
0
SOLID
5
1A9
330
19F
100
AcDbEntity
8
0
62
0
6
ByLayer
370
-1
48
1.0
60
0
100
AcDbTrace
10
60500.0
20
8000.0
30
0.0
11
60515.0
21
7910.0
31
0.0
12
60485.0
22
7910.0
32
0.0
13
60485.0
23
7910.0
33
0.0
39
0.0
210
0.0
220
0.0
230
1.0
0
MTEXT
5
1AA
330
19F
100
AcDbEntity
8
0
62
0
6
ByLayer
370
-1
48
1.0
60
0
100
AcDbMText
10
60455.0
20
7000.0
30
0.0
210
0.0
220
0.0
230
1.0
1
2000.00
40
90.0
41
0.0
44
1.0
50
90.0
71
8
72
5
7
Standard
0
ENDBLK
5
1A0
330
19F
100
AcDbEntity
8
0
100
AcDbBlockEnd
0
BLOCK
5
1B7
330
1B5
100
AcDbEntity
8
0
100
AcDbBlockBegin
2
*D15
70
1
10
0.0
20
0.0
30
0.0
3
*D15
0
POINT
5
1B8
330
1B5
100
AcDbEntity
8
Defpoints
62
256
6
ByLayer
370
-1
48
1.0
60
0
100
AcDbPoint
10
60000.0
20
8000.0
30
0.0
39
0.0
210
0.0
220
0.0
230
1.0
50
360.0
0
POINT
5
1B9
330
1B5
100
AcDbEntity
8
Defpoints
62
256
6
ByLayer
370
-1
48
1.0
60
0
100
AcDbPoint
10
60000.0
20
10000.0
30
0.0
39
0.0
210
0.0
220
0.0
230
1.0
50
360.0
0
POINT
5
1BA
330
1B5
100
AcDbEntity
8
Defpoints
62
256
6
ByLayer
370
-1
48
1.0
60
0
100
AcDbPoint
10
60500.0
20
10000.0
30
0.0
39
0.0
210
0.0
220
0.0
230
1.0
50
360.0
0
LINE
5
1BB
330
1B5
100
AcDbEntity
8
0
62
0
6
ByBlock
370
-2
48
1.0
60
0
100
AcDbLine
10
60031.25
20
8000.0
30
0.0
11
60590.0
21
8000.0
31
0.0
39
0.0
210
0.0
220
0.0
230
1.0
0
LINE
5
1BC
330
1B5
100
AcDbEntity
8
0
62
0
6
ByBlock
370
-2
48
1.0
60
0
100
AcDbLine
10
60031.25
20
10000.0
30
0.0
11
60590.0
21
10000.0
31
0.0
39
0.0
210
0.0
220
0.0
230
1.0
0
LINE
5
1BD
330
1B5
100
AcDbEntity
8
0
62
0
6
ByBlock
370
-2
48
1.0
60
0
100
AcDbLine
10
60500.0
20
8090.0
30
0.0
11
60500.0
21
9910.0
31
0.0
39
0.0
210
0.0
220
0.0
230
1.0
0
SOLID
5
1BE
330
1B5
100
AcDbEntity
8
0
62
0
6
ByLayer
370
-1
48
1.0
60
0
100
AcDbTrace
10
60500.0
20
8000.0
30
0.0
11
60485.0
21
8090.0
31
0.0
12
60515.0
22
8090.0
32
0.0
13
60515.0
23
8090.0
33
0.0
39
0.0
210
0.0
220
0.0
230
1.0
0
SOLID
5
1BF
330
1B5
100
AcDbEntity
8
0
62
0
6
ByLayer
370
-1
48
1.0
60
0
100
AcDbTrace
10
60500.0
20
10000.0
30
0.0
11
60515.0
21
9910.0
31
0.0
12
60485.0
22
9910.0
32
0.0
13
60485.0
23
9910.0
33
0.0
39
0.0
210
0.0
220
0.0
230
1.0
0
MTEXT
5
1C0
330
1B5
100
AcDbEntity
8
0
62
0
6
ByLayer
370
-1
48
1.0
60
0
100
AcDbMText
10
60455.0
20
9000.0
30
0.0
210
0.0
220
0.0
230
1.0
1
2000.00
40
90.0
41
0.0
44
1.0
50
90.0
71
8
72
5
7
Standard
0
ENDBLK
5
1B6
330
1B5
100
AcDbEntity
8
0
100
AcDbBlockEnd
0
BLOCK
5
1CD
330
1CB
100
AcDbEntity
8
0
100
AcDbBlockBegin
2
*D16
70
1
10
0.0
20
0.0
30
0.0
3
*D16
0
POINT
5
1CE
330
1CB
100
AcDbEntity
8
Defpoints
62
256
6
ByLayer
370
-1
48
1.0
60
0
100
AcDbPoint
10
60000.0
20
10000.0
30
0.0
39
0.0
210
0.0
220
0.0
230
1.0
50
360.0
0
POINT
5
1CF
330
1CB
100
AcDbEntity
8
Defpoints
62
256
6
ByLayer
370
-1
48
1.0
60
0
100
AcDbPoint
10
60000.0
20
12000.0
30
0.0
39
0.0
210
0.0
220
0.0
230
1.0
50
360.0
0
POINT
5
1D0
330
1CB
100
AcDbEntity
8
Defpoints
62
256
6
ByLayer
370
-1
48
1.0
60
0
100
AcDbPoint
10
60500.0
20
12000.0
30
0.0
39
0.0
210
0.0
220
0.0
230
1.0
50
360.0
0
LINE
5
1D1
330
1CB
100
AcDbEntity
8
0
62
0
6
ByBlock
370
-2
48
1.0
60
0
100
AcDbLine
10
60031.25
20
10000.0
30
0.0
11
60590.0
21
10000.0
31
0.0
39
0.0
210
0.0
220
0.0
230
1.0
0
LINE
5
1D2
330
1CB
100
AcDbEntity
8
0
62
0
6
ByBlock
370
-2
48
1.0
60
0
100
AcDbLine
10
60031.25
20
12000.0
30
0.0
11
60590.0
21
12000.0
31
0.0
39
0.0
210
0.0
220
0.0
230
1.0
0
LINE
5
1D3
330
1CB
100
AcDbEntity
8
0
62
0
6
ByBlock
370
-2
48
1.0
60
0
100
AcDbLine
10
60500.0
20
10090.0
30
0.0
11
60500.0
21
11910.0
31
0.0
39
0.0
210
0.0
220
0.0
230
1.0
0
SOLID
5
1D4
330
1CB
100
AcDbEntity
8
0
62
0
6
ByLayer
370
-1
48
1.0
60
0
100
AcDbTrace
10
60500.0
20
10000.0
30
0.0
11
60485.0
21
10090.0
31
0.0
12
60515.0
22
10090.0
32
0.0
13
60515.0
23
10090.0
33
0.0
39
0.0
210
0.0
220
0.0
230
1.0
0
SOLID
5
1D5
330
1CB
100
AcDbEntity
8
0
62
0
6
ByLayer
370
-1
48
1.0
60
0
100
AcDbTrace
10
60500.0
20
12000.0
30
0.0
11
60515.0
21
11910.0
31
0.0
12
60485.0
22
11910.0
32
0.0
13
60485.0
23
11910.0
33
0.0
39
0.0
210
0.0
220
0.0
230
1.0
0
MTEXT
5
1D6
330
1CB
100
AcDbEntity
8
0
62
0
6
ByLayer
370
-1
48
1.0
60
0
100
AcDbMText
10
60455.0
20
11000.0
30
0.0
210
0.0
220
0.0
230
1.0
1
2000.00
40
90.0
41
0.0
44
1.0
50
90.0
71
8
72
5
7
Standard
0
ENDBLK
5
1CC
330
1CB
100
AcDbEntity
8
0
100
AcDbBlockEnd
0
BLOCK
5
1E3
330
1E1
100
AcDbEntity
8
0
100
AcDbBlockBegin
2
*D17
70
1
10
0.0
20
0.0
30
0.0
3
*D17
0
POINT
5
1E4
330
1E1
100
AcDbEntity
8
Defpoints
62
256
6
ByLayer
370
-1
48
1.0
60
0
100
AcDbPoint
10
60000.0
20
12000.0
30
0.0
39
0.0
210
0.0
220
0.0
230
1.0
50
360.0
0
POINT
5
1E5
330
1E1
100
AcDbEntity
8
Defpoints
62
256
6
ByLayer
370
-1
48
1.0
60
0
100
AcDbPoint
10
60000.0
20
14000.0
30
0.0
39
0.0
210
0.0
220
0.0
230
1.0
50
360.0
0
POINT
5
1E6
330
1E1
100
AcDbEntity
8
Defpoints
62
256
6
ByLayer
370
-1
48
1.0
60
0
100
AcDbPoint
10
60500.0
20
14000.0
30
0.0
39
0.0
210
0.0
220
0.0
230
1.0
50
360.0
0
LINE
5
1E7
330
1E1
100
AcDbEntity
8
0
62
0
6
ByBlock
370
-2
48
1.0
60
0
100
AcDbLine
10
60031.25
20
12000.0
30
0.0
11
60590.0
21
12000.0
31
0.0
39
0.0
210
0.0
220
0.0
230
1.0
0
LINE
5
1E8
330
1E1
100
AcDbEntity
8
0
62
0
6
ByBlock
370
-2
48
1.0
60
0
100
AcDbLine
10
60031.25
20
14000.0
30
0.0
11
60590.0
21
14000.0
31
0.0
39
0.0
210
0.0
220
0.0
230
1.0
0
LINE
5
1E9
330
1E1
100
AcDbEntity
8
0
62
0
6
ByBlock
370
-2
48
1.0
60
0
100
AcDbLine
10
60500.0
20
12090.0
30
0.0
11
60500.0
21
13910.0
31
0.0
39
0.0
210
0.0
220
0.0
230
1.0
0
SOLID
5
1EA
330
1E1
100
AcDbEntity
8
0
62
0
6
ByLayer
370
-1
48
1.0
60
0
100
AcDbTrace
10
60500.0
20
12000.0
30
0.0
11
60485.0
21
12090.0
31
0.0
12
60515.0
22
12090.0
32
0.0
13
60515.0
23
12090.0
33
0.0
39
0.0
210
0.0
220
0.0
230
1.0
0
SOLID
5
1EB
330
1E1
100
AcDbEntity
8
0
62
0
6
ByLayer
370
-1
48
1.0
60
0
100
AcDbTrace
10
60500.0
20
14000.0
30
0.0
11
60515.0
21
13910.0
31
0.0
12
60485.0
22
13910.0
32
0.0
13
60485.0
23
13910.0
33
0.0
39
0.0
210
0.0
220
0.0
230
1.0
0
MTEXT
5
1EC
330
1E1
100
AcDbEntity
8
0
62
0
6
ByLayer
370
-1
48
1.0
60
0
100
AcDbMText
10
60455.0
20
13000.0
30
0.0
210
0.0
220
0.0
230
1.0
1
2000.00
40
90.0
41
0.0
44
1.0
50
90.0
71
8
72
5
7
Standard
0
ENDBLK
5
1E2
330
1E1
100
AcDbEntity
8
0
100
AcDbBlockEnd
0
BLOCK
5
1F9
330
1F7
100
AcDbEntity
8
0
100
AcDbBlockBegin
2
*D18
70
1
10
0.0
20
0.0
30
0.0
3
*D18
0
POINT
5
1FA
330
1F7
100
AcDbEntity
8
Defpoints
62
256
6
ByLayer
370
-1
48
1.0
60
0
100
AcDbPoint
10
60000.0
20
14000.0
30
0.0
39
0.0
210
0.0
220
0.0
230
1.0
50
360.0
0
POINT
5
1FB
330
1F7
100
AcDbEntity
8
Defpoints
62
256
6
ByLayer
370
-1
48
1.0
60
0
100
AcDbPoint
10
60000.0
20
16000.0
30
0.0
39
0.0
210
0.0
220
0.0
230
1.0
50
360.0
0
POINT
5
1FC
330
1F7
100
AcDbEntity
8
Defpoints
62
256
6
ByLayer
370
-1
48
1.0
60
0
100
AcDbPoint
10
60500.0
20
16000.0
30
0.0
39
0.0
210
0.0
220
0.0
230
1.0
50
360.0
0
LINE
5
1FD
330
1F7
100
AcDbEntity
8
0
62
0
6
ByBlock
370
-2
48
1.0
60
0
100
AcDbLine
10
60031.25
20
14000.0
30
0.0
11
60590.0
21
14000.0
31
0.0
39
0.0
210
0.0
220
0.0
230
1.0
0
LINE
5
1FE
330
1F7
100
AcDbEntity
8
0
62
0
6
ByBlock
370
-2
48
1.0
60
0
100
AcDbLine
10
60031.25
20
16000.0
30
0.0
11
60590.0
21
16000.0
31
0.0
39
0.0
210
0.0
220
0.0
230
1.0
0
LINE
5
1FF
330
1F7
100
AcDbEntity
8
0
62
0
6
ByBlock
370
-2
48
1.0
60
0
100
AcDbLine
10
60500.0
20
14090.0
30
0.0
11
60500.0
21
15910.0
31
0.0
39
0.0
210
0.0
220
0.0
230
1.0
0
SOLID
5
200
330
1F7
100
AcDbEntity
8
0
62
0
6
ByLayer
370
-1
48
1.0
60
0
100
AcDbTrace
10
60500.0
20
14000.0
30
0.0
11
60485.0
21
14090.0
31
0.0
12
60515.0
22
14090.0
32
0.0
13
60515.0
23
14090.0
33
0.0
39
0.0
210
0.0
220
0.0
230
1.0
0
SOLID
5
201
330
1F7
100
AcDbEntity
8
0
62
0
6
ByLayer
370
-1
48
1.0
60
0
100
AcDbTrace
10
60500.0
20
16000.0
30
0.0
11
60515.0
21
15910.0
31
0.0
12
60485.0
22
15910.0
32
0.0
13
60485.0
23
15910.0
33
0.0
39
0.0
210
0.0
220
0.0
230
1.0
0
MTEXT
5
202
330
1F7
100
AcDbEntity
8
0
62
0
6
ByLayer
370
-1
48
1.0
60
0
100
AcDbMText
10
60455.0
20
15000.0
30
0.0
210
0.0
220
0.0
230
1.0
1
2000.00
40
90.0
41
0.0
44
1.0
50
90.0
71
8
72
5
7
Standard
0
ENDBLK
5
1F8
330
1F7
100
AcDbEntity
8
0
100
AcDbBlockEnd
0
BLOCK
5
20F
330
20D
100
AcDbEntity
8
0
100
AcDbBlockBegin
2
*D19
70
1
10
0.0
20
0.0
30
0.0
3
*D19
0
POINT
5
210
330
20D
100
AcDbEntity
8
Defpoints
62
256
6
ByLayer
370
-1
48
1.0
60
0
100
AcDbPoint
10
60000.0
20
16000.0
30
0.0
39
0.0
210
0.0
220
0.0
230
1.0
50
360.0
0
POINT
5
211
330
20D
100
AcDbEntity
8
Defpoints
62
256
6
ByLayer
370
-1
48
1.0
60
0
100
AcDbPoint
10
60000.0
20
18000.0
30
0.0
39
0.0
210
0.0
220
0.0
230
1.0
50
360.0
0
POINT
5
212
330
20D
100
AcDbEntity
8
Defpoints
62
256
6
ByLayer
370
-1
48
1.0
60
0
100
AcDbPoint
10
60500.0
20
18000.0
30
0.0
39
0.0
210
0.0
220
0.0
230
1.0
50
360.0
0
LINE
5
213
330
20D
100
AcDbEntity
8
0
62
0
6
ByBlock
370
-2
48
1.0
60
0
100
AcDbLine
10
60031.25
20
16000.0
30
0.0
11
60590.0
21
16000.0
31
0.0
39
0.0
210
0.0
220
0.0
230
1.0
0
LINE
5
214
330
20D
100
AcDbEntity
8
0
62
0
6
ByBlock
370
-2
48
1.0
60
0
100
AcDbLine
10
60031.25
20
18000.0
30
0.0
11
60590.0
21
18000.0
31
0.0
39
0.0
210
0.0
220
0.0
230
1.0
0
LINE
5
215
330
20D
100
AcDbEntity
8
0
62
0
6
ByBlock
370
-2
48
1.0
60
0
100
AcDbLine
10
60500.0
20
16090.0
30
0.0
11
60500.0
21
17910.0
31
0.0
39
0.0
210
0.0
220
0.0
230
1.0
0
SOLID
5
216
330
20D
100
AcDbEntity
8
0
62
0
6
ByLayer
370
-1
48
1.0
60
0
100
AcDbTrace
10
60500.0
20
16000.0
30
0.0
11
60485.0
21
16090.0
31
0.0
12
60515.0
22
16090.0
32
0.0
13
60515.0
23
16090.0
33
0.0
39
0.0
210
0.0
220
0.0
230
1.0
0
SOLID
5
217
330
20D
100
AcDbEntity
8
0
62
0
6
ByLayer
370
-1
48
1.0
60
0
100
AcDbTrace
10
60500.0
20
18000.0
30
0.0
11
60515.0
21
17910.0
31
0.0
12
60485.0
22
17910.0
32
0.0
13
60485.0
23
17910.0
33
0.0
39
0.0
210
0.0
220
0.0
230
1.0
0
MTEXT
5
218
330
20D
100
AcDbEntity
8
0
62
0
6
ByLayer
370
-1
48
1.0
60
0
100
AcDbMText
10
60455.0
20
17000.0
30
0.0
210
0.0
220
0.0
230
1.0
1
2000.00
40
90.0
41
0.0
44
1.0
50
90.0
71
8
72
5
7
Standard
0
ENDBLK
5
20E
330
20D
100
AcDbEntity
8
0
100
AcDbBlockEnd
0
BLOCK
5
221
330
21F
100
AcDbEntity
8
0
100
AcDbBlockBegin
2
*D20
70
1
10
0.0
20
0.0
30
0.0
3
*D20
0
POINT
5
222
330
21F
100
AcDbEntity
8
Defpoints
62
256
6
ByLayer
370
-1
48
1.0
60
0
100
AcDbPoint
10
60000.0
20
18000.0
30
0.0
39
0.0
210
0.0
220
0.0
230
1.0
50
360.0
0
POINT
5
223
330
21F
100
AcDbEntity
8
Defpoints
62
256
6
ByLayer
370
-1
48
1.0
60
0
100
AcDbPoint
10
60000.0
20
20000.0
30
0.0
39
0.0
210
0.0
220
0.0
230
1.0
50
360.0
0
POINT
5
224
330
21F
100
AcDbEntity
8
Defpoints
62
256
6
ByLayer
370
-1
48
1.0
60
0
100
AcDbPoint
10
60500.0
20
20000.0
30
0.0
39
0.0
210
0.0
220
0.0
230
1.0
50
360.0
0
LINE
5
225
330
21F
100
AcDbEntity
8
0
62
0
6
ByBlock
370
-2
48
1.0
60
0
100
AcDbLine
10
60031.25
20
18000.0
30
0.0
11
60590.0
21
18000.0
31
0.0
39
0.0
210
0.0
220
0.0
230
1.0
0
LINE
5
226
330
21F
100
AcDbEntity
8
0
62
0
6
ByBlock
370
-2
48
1.0
60
0
100
AcDbLine
10
60031.25
20
20000.0
30
0.0
11
60590.0
21
20000.0
31
0.0
39
0.0
210
0.0
220
0.0
230
1.0
0
LINE
5
227
330
21F
100
AcDbEntity
8
0
62
0
6
ByBlock
370
-2
48
1.0
60
0
100
AcDbLine
10
60500.0
20
18090.0
30
0.0
11
60500.0
21
19910.0
31
0.0
39
0.0
210
0.0
220
0.0
230
1.0
0
SOLID
5
228
330
21F
100
AcDbEntity
8
0
62
0
6
ByLayer
370
-1
48
1.0
60
0
100
AcDbTrace
10
60500.0
20
18000.0
30
0.0
11
60485.0
21
18090.0
31
0.0
12
60515.0
22
18090.0
32
0.0
13
60515.0
23
18090.0
33
0.0
39
0.0
210
0.0
220
0.0
230
1.0
0
SOLID
5
229
330
21F
100
AcDbEntity
8
0
62
0
6
ByLayer
370
-1
48
1.0
60
0
100
AcDbTrace
10
60500.0
20
20000.0
30
0.0
11
60515.0
21
19910.0
31
0.0
12
60485.0
22
19910.0
32
0.0
13
60485.0
23
19910.0
33
0.0
39
0.0
210
0.0
220
0.0
230
1.0
0
MTEXT
5
22A
330
21F
100
AcDbEntity
8
0
62
0
6
ByLayer
370
-1
48
1.0
60
0
100
AcDbMText
10
60455.0
20
19000.0
30
0.0
210
0.0
220
0.0
230
1.0
1
2000.00
40
90.0
41
0.0
44
1.0
50
90.0
71
8
72
5
7
Standard
0
ENDBLK
5
220
330
21F
100
AcDbEntity
8
0
100
AcDbBlockEnd
0
BLOCK
5
25E
330
25C
100
AcDbEntity
8
0
100
AcDbBlockBegin
2
*D21
70
1
10
0.0
20
0.0
30
0.0
3
*D21
0
POINT
5
25F
330
25C
100
AcDbEntity
8
Defpoints
62
256
6
ByLayer
370
-1
48
1.0
60
0
100
AcDbPoint
10
0.0
20
0.0
30
0.0
39
0.0
210
0.0
220
0.0
230
1.0
50
360.0
0
POINT
5
260
330
25C
100
AcDbEntity
8
Defpoints
62
256
6
ByLayer
370
-1
48
1.0
60
0
100
AcDbPoint
10
60000.0
20
0.0
30
0.0
39
0.0
210
0.0
220
0.0
230
1.0
50
360.0
0
POINT
5
261
330
25C
100
AcDbEntity
8
Defpoints
62
256
6
ByLayer
370
-1
48
1.0
60
0
100
AcDbPoint
10
60000.0
20
-3000.0
30
0.0
39
0.0
210
0.0
220
0.0
230
1.0
50
360.0
0
LINE
5
262
330
25C
100
AcDbEntity
8
0
62
0
6
ByBlock
370
-2
48
1.0
60
0
100
AcDbLine
10
-0.00000000000000191
20
-31.25
30
0.0
11
-0.0000000000001892
21
-3090.0
31
0.0
39
0.0
210
0.0
220
0.0
230
1.0
0
LINE
5
263
330
25C
100
AcDbEntity
8
0
62
0
6
ByBlock
370
-2
48
1.0
60
0
100
AcDbLine
10
60000.0
20
-31.25
30
0.0
11
60000.0
21
-3090.0
31
0.0
39
0.0
210
0.0
220
0.0
230
1.0
0
LINE
5
264
330
25C
100
AcDbEntity
8
0
62
0
6
ByBlock
370
-2
48
1.0
60
0
100
AcDbLine
10
89.9999999999998
20
-3000.0
30
0.0
11
59910.0
21
-3000.0
31
0.0
39
0.0
210
0.0
220
0.0
230
1.0
0
SOLID
5
265
330
25C
100
AcDbEntity
8
0
62
0
6
ByLayer
370
-1
48
1.0
60
0
100
AcDbTrace
10
-0.00000000000018369
20
-3000.0
30
0.0
11
89.9999999999998
21
-2985.0
31
0.0
12
89.9999999999998
22
-3015.0
32
0.0
13
89.9999999999998
23
-3015.0
33
0.0
39
0.0
210
0.0
220
0.0
230
1.0
0
SOLID
5
266
330
25C
100
AcDbEntity
8
0
62
0
6
ByLayer
370
-1
48
1.0
60
0
100
AcDbTrace
10
60000.0
20
-3000.0
30
0.0
11
59910.0
21
-3015.0
31
0.0
12
59910.0
22
-2985.0
32
0.0
13
59910.0
23
-2985.0
33
0.0
39
0.0
210
0.0
220
0.0
230
1.0
0
MTEXT
5
267
330
25C
100
AcDbEntity
8
0
62
0
6
ByLayer
370
-1
48
1.0
60
0
100
AcDbMText
10
30000.0
20
-2955.0
30
0.0
210
0.0
220
0.0
230
1.0
1
60000.00
40
90.0
41
0.0
44
1.0
50
0.0
71
8
72
5
7
Standard
0
ENDBLK
5
25D
330
25C
100
AcDbEntity
8
0
100
AcDbBlockEnd
0
BLOCK
5
26B
330
269
100
AcDbEntity
8
0
100
AcDbBlockBegin
2
*D22
70
1
10
0.0
20
0.0
30
0.0
3
*D22
0
POINT
5
26C
330
269
100
AcDbEntity
8
Defpoints
62
256
6
ByLayer
370
-1
48
1.0
60
0
100
AcDbPoint
10
60000.0
20
0.0
30
0.0
39
0.0
210
0.0
220
0.0
230
1.0
50
360.0
0
POINT
5
26D
330
269
100
AcDbEntity
8
Defpoints
62
256
6
ByLayer
370
-1
48
1.0
60
0
100
AcDbPoint
10
60000.0
20
20000.0
30
0.0
39
0.0
210
0.0
220
0.0
230
1.0
50
360.0
0
POINT
5
26E
330
269
100
AcDbEntity
8
Defpoints
62
256
6
ByLayer
370
-1
48
1.0
60
0
100
AcDbPoint
10
63000.0
20
20000.0
30
0.0
39
0.0
210
0.0
220
0.0
230
1.0
50
360.0
0
LINE
5
26F
330
269
100
AcDbEntity
8
0
62
0
6
ByBlock
370
-2
48
1.0
60
0
100
AcDbLine
10
60031.25
20
-0.00000000000000383
30
0.0
11
63090.0
21
-0.0000000000003784
31
0.0
39
0.0
210
0.0
220
0.0
230
1.0
0
LINE
5
270
330
269
100
AcDbEntity
8
0
62
0
6
ByBlock
370
-2
48
1.0
60
0
100
AcDbLine
10
60031.25
20
20000.0
30
0.0
11
63090.0
21
20000.0
31
0.0
39
0.0
210
0.0
220
0.0
230
1.0
0
LINE
5
271
330
269
100
AcDbEntity
8
0
62
0
6
ByBlock
370
-2
48
1.0
60
0
100
AcDbLine
10
63000.0
20
89.9999999999996
30
0.0
11
63000.0
21
19910.0
31
0.0
39
0.0
210
0.0
220
0.0
230
1.0
0
SOLID
5
272
330
269
100
AcDbEntity
8
0
62
0
6
ByLayer
370
-1
48
1.0
60
0
100
AcDbTrace
10
63000.0
20
-0.00000000000036738
30
0.0
11
62985.0
21
89.9999999999996
31
0.0
12
63015.0
22
89.9999999999996
32
0.0
13
63015.0
23
89.9999999999996
33
0.0
39
0.0
210
0.0
220
0.0
230
1.0
0
SOLID
5
273
330
269
100
AcDbEntity
8
0
62
0
6
ByLayer
370
-1
48
1.0
60
0
100
AcDbTrace
10
63000.0
20
20000.0
30
0.0
11
63015.0
21
19910.0
31
0.0
12
62985.0
22
19910.0
32
0.0
13
62985.0
23
19910.0
33
0.0
39
0.0
210
0.0
220
0.0
230
1.0
0
MTEXT
5
274
330
269
100
AcDbEntity
8
0
62
0
6
ByLayer
370
-1
48
1.0
60
0
100
AcDbMText
10
62955.0
20
10000.0
30
0.0
210
0.0
220
0.0
230
1.0
1
20000.00
40
90.0
41
0.0
44
1.0
50
90.0
71
8
72
5
7
Standard
0
ENDBLK
5
26A
330
269
100
AcDbEntity
8
0
100
AcDbBlockEnd
0
BLOCK
5
279
330
277
100
AcDbEntity
8
Columns
100
AcDbBlockBegin
2
Right Column Detailing
70
0
10
0.0
20
0.0
30
0.0
3
Right Column Detailing
0
POLYLINE
5
288
330
277
100
AcDbEntity
8
0
62
256
6
ByLayer
370
-1
48
1.0
60
0
100
AcDb3dPolyline
10
0.0
20
0.0
30
0.0
70
9
75
0
210
0.0
220
0.0
230
1.0
0
VERTEX
5
27A
100
AcDbEntity
8
0
62
256
100
AcDbVertex
100
AcDb3dPolylineVertex
10
-500.0
20
0.0
30
0.0
70
32
0
VERTEX
5
27B
100
AcDbEntity
8
0
62
256
100
AcDbVertex
100
AcDb3dPolylineVertex
10
-500.0
20
200.0
30
0.0
70
32
0
VERTEX
5
27C
100
AcDbEntity
8
0
62
256
100
AcDbVertex
100
AcDb3dPolylineVertex
10
-50.0
20
200.0
30
0.0
70
32
0
VERTEX
5
27D
100
AcDbEntity
8
0
62
256
100
AcDbVertex
100
AcDb3dPolylineVertex
10
-50.0
20
1800.0
30
0.0
70
32
0
VERTEX
5
27E
100
AcDbEntity
8
0
62
256
100
AcDbVertex
100
AcDb3dPolylineVertex
10
-500.0
20
1800.0
30
0.0
70
32
0
VERTEX
5
27F
100
AcDbEntity
8
0
62
256
100
AcDbVertex
100
AcDb3dPolylineVertex
10
-500.0
20
2000.0
30
0.0
70
32
0
VERTEX
5
280
100
AcDbEntity
8
0
62
256
100
AcDbVertex
100
AcDb3dPolylineVertex
10
500.0
20
2000.0
30
0.0
70
32
0
VERTEX
5
281
100
AcDbEntity
8
0
62
256
100
AcDbVertex
100
AcDb3dPolylineVertex
10
500.0
20
1800.0
30
0.0
70
32
0
VERTEX
5
282
100
AcDbEntity
8
0
62
256
100
AcDbVertex
100
AcDb3dPolylineVertex
10
50.0
20
1800.0
30
0.0
70
32
0
VERTEX
5
283
100
AcDbEntity
8
0
62
256
100
AcDbVertex
100
AcDb3dPolylineVertex
10
50.0
20
200.0
30
0.0
70
32
0
VERTEX
5
284
100
AcDbEntity
8
0
62
256
100
AcDbVertex
100
AcDb3dPolylineVertex
10
500.0
20
200.0
30
0.0
70
32
0
VERTEX
5
285
100
AcDbEntity
8
0
62
256
100
AcDbVertex
100
AcDb3dPolylineVertex
10
500.0
20
0.0
30
0.0
70
32
0
VERTEX
5
286
100
AcDbEntity
8
0
62
256
100
AcDbVertex
100
AcDb3dPolylineVertex
10
-500.0
20
0.0
30
0.0
70
32
0
SEQEND
5
287
100
AcDbEntity
8
0
0
ENDBLK
5
278
330
277
100
AcDbEntity
8
Columns
100
AcDbBlockEnd
0
BLOCK
5
28C
330
28A
100
AcDbEntity
8
0
100
AcDbBlockBegin
2
*D23
70
1
10
0.0
20
0.0
30
0.0
3
*D23
0
POINT
5
28D
330
28A
100
AcDbEntity
8
Defpoints
62
256
6
ByLayer
370
-1
48
1.0
60
0
100
AcDbPoint
10
600.0
20
-9000.0
30
0.0
39
0.0
210
0.0
220
0.0
230
1.0
50
360.0
0
POINT
5
28E
330
28A
100
AcDbEntity
8
Defpoints
62
256
6
ByLayer
370
-1
48
1.0
60
0
100
AcDbPoint
10
600.0
20
-7000.0
30
0.0
39
0.0
210
0.0
220
0.0
230
1.0
50
360.0
0
POINT
5
28F
330
28A
100
AcDbEntity
8
Defpoints
62
256
6
ByLayer
370
-1
48
1.0
60
0
100
AcDbPoint
10
700.0
20
-7000.0
30
0.0
39
0.0
210
0.0
220
0.0
230
1.0
50
360.0
0
LINE
5
290
330
28A
100
AcDbEntity
8
0
62
0
6
ByBlock
370
-2
48
1.0
60
0
100
AcDbLine
10
631.25
20
-9000.0
30
0.0
11
790.0
21
-9000.0
31
0.0
39
0.0
210
0.0
220
0.0
230
1.0
0
LINE
5
291
330
28A
100
AcDbEntity
8
0
62
0
6
ByBlock
370
-2
48
1.0
60
0
100
AcDbLine
10
631.25
20
-7000.0
30
0.0
11
790.0
21
-7000.0
31
0.0
39
0.0
210
0.0
220
0.0
230
1.0
0
LINE
5
292
330
28A
100
AcDbEntity
8
0
62
0
6
ByBlock
370
-2
48
1.0
60
0
100
AcDbLine
10
700.0
20
-8910.0
30
0.0
11
700.0
21
-7090.0
31
0.0
39
0.0
210
0.0
220
0.0
230
1.0
0
SOLID
5
293
330
28A
100
AcDbEntity
8
0
62
0
6
ByLayer
370
-1
48
1.0
60
0
100
AcDbTrace
10
700.0
20
-9000.0
30
0.0
11
685.0
21
-8910.0
31
0.0
12
715.0
22
-8910.0
32
0.0
13
715.0
23
-8910.0
33
0.0
39
0.0
210
0.0
220
0.0
230
1.0
0
SOLID
5
294
330
28A
100
AcDbEntity
8
0
62
0
6
ByLayer
370
-1
48
1.0
60
0
100
AcDbTrace
10
700.0
20
-7000.0
30
0.0
11
715.0
21
-7090.0
31
0.0
12
685.0
22
-7090.0
32
0.0
13
685.0
23
-7090.0
33
0.0
39
0.0
210
0.0
220
0.0
230
1.0
0
MTEXT
5
295
330
28A
100
AcDbEntity
8
0
62
0
6
ByLayer
370
-1
48
1.0
60
0
100
AcDbMText
10
655.0
20
-8000.0
30
0.0
210
0.0
220
0.0
230
1.0
1
2000.00
40
90.0
41
0.0
44
1.0
50
90.0
71
8
72
5
7
Standard
0
ENDBLK
5
28B
330
28A
100
AcDbEntity
8
0
100
AcDbBlockEnd
0
BLOCK
5
299
330
297
100
AcDbEntity
8
0
100
AcDbBlockBegin
2
*D24
70
1
10
0.0
20
0.0
30
0.0
3
*D24
0
POINT
5
29A
330
297
100
AcDbEntity
8
Defpoints
62
256
6
ByLayer
370
-1
48
1.0
60
0
100
AcDbPoint
10
-500.0
20
-9000.0
30
0.0
39
0.0
210
0.0
220
0.0
230
1.0
50
360.0
0
POINT
5
29B
330
297
100
AcDbEntity
8
Defpoints
62
256
6
ByLayer
370
-1
48
1.0
60
0
100
AcDbPoint
10
-500.0
20
-8800.0
30
0.0
39
0.0
210
0.0
220
0.0
230
1.0
50
360.0
0
POINT
5
29C
330
297
100
AcDbEntity
8
Defpoints
62
256
6
ByLayer
370
-1
48
1.0
60
0
100
AcDbPoint
10
-600.0
20
-8800.0
30
0.0
39
0.0
210
0.0
220
0.0
230
1.0
50
360.0
0
LINE
5
29D
330
297
100
AcDbEntity
8
0
62
0
6
ByBlock
370
-2
48
1.0
60
0
100
AcDbLine
10
-531.25
20
-9000.0
30
0.0
11
-690.0
21
-9000.0
31
0.0
39
0.0
210
0.0
220
0.0
230
1.0
0
LINE
5
29E
330
297
100
AcDbEntity
8
0
62
0
6
ByBlock
370
-2
48
1.0
60
0
100
AcDbLine
10
-531.25
20
-8800.0
30
0.0
11
-690.0
21
-8800.0
31
0.0
39
0.0
210
0.0
220
0.0
230
1.0
0
LINE
5
29F
330
297
100
AcDbEntity
8
0
62
0
6
ByBlock
370
-2
48
1.0
60
0
100
AcDbLine
10
-600.0
20
-8910.0
30
0.0
11
-600.0
21
-8890.0
31
0.0
39
0.0
210
0.0
220
0.0
230
1.0
0
SOLID
5
2A0
330
297
100
AcDbEntity
8
0
62
0
6
ByLayer
370
-1
48
1.0
60
0
100
AcDbTrace
10
-600.0
20
-9000.0
30
0.0
11
-615.0
21
-8910.0
31
0.0
12
-585.0
22
-8910.0
32
0.0
13
-585.0
23
-8910.0
33
0.0
39
0.0
210
0.0
220
0.0
230
1.0
0
SOLID
5
2A1
330
297
100
AcDbEntity
8
0
62
0
6
ByLayer
370
-1
48
1.0
60
0
100
AcDbTrace
10
-600.0
20
-8800.0
30
0.0
11
-585.0
21
-8890.0
31
0.0
12
-615.0
22
-8890.0
32
0.0
13
-615.0
23
-8890.0
33
0.0
39
0.0
210
0.0
220
0.0
230
1.0
0
MTEXT
5
2A2
330
297
100
AcDbEntity
8
0
62
0
6
ByLayer
370
-1
48
1.0
60
0
100
AcDbMText
10
-645.0
20
-8900.0
30
0.0
210
0.0
220
0.0
230
1.0
1
200.00
40
90.0
41
0.0
44
1.0
50
90.0
71
8
72
5
7
Standard
0
ENDBLK
5
298
330
297
100
AcDbEntity
8
0
100
AcDbBlockEnd
0
BLOCK
5
2A6
330
2A4
100
AcDbEntity
8
0
100
AcDbBlockBegin
2
*D25
70
1
10
0.0
20
0.0
30
0.0
3
*D25
0
POINT
5
2A7
330
2A4
100
AcDbEntity
8
Defpoints
62
256
6
ByLayer
370
-1
48
1.0
60
0
100
AcDbPoint
10
-500.0
20
-7000.0
30
0.0
39
0.0
210
0.0
220
0.0
230
1.0
50
360.0
0
POINT
5
2A8
330
2A4
100
AcDbEntity
8
Defpoints
62
256
6
ByLayer
370
-1
48
1.0
60
0
100
AcDbPoint
10
-500.0
20
-7200.0
30
0.0
39
0.0
210
0.0
220
0.0
230
1.0
50
360.0
0
POINT
5
2A9
330
2A4
100
AcDbEntity
8
Defpoints
62
256
6
ByLayer
370
-1
48
1.0
60
0
100
AcDbPoint
10
-400.0
20
-7200.0
30
0.0
39
0.0
210
0.0
220
0.0
230
1.0
50
360.0
0
LINE
5
2AA
330
2A4
100
AcDbEntity
8
0
62
0
6
ByBlock
370
-2
48
1.0
60
0
100
AcDbLine
10
-468.75
20
-7000.0
30
0.0
11
-310.0
21
-7000.0
31
0.0
39
0.0
210
0.0
220
0.0
230
1.0
0
LINE
5
2AB
330
2A4
100
AcDbEntity
8
0
62
0
6
ByBlock
370
-2
48
1.0
60
0
100
AcDbLine
10
-468.75
20
-7200.0
30
0.0
11
-310.0
21
-7200.0
31
0.0
39
0.0
210
0.0
220
0.0
230
1.0
0
LINE
5
2AC
330
2A4
100
AcDbEntity
8
0
62
0
6
ByBlock
370
-2
48
1.0
60
0
100
AcDbLine
10
-400.0
20
-7090.0
30
0.0
11
-400.0
21
-7110.0
31
0.0
39
0.0
210
0.0
220
0.0
230
1.0
0
SOLID
5
2AD
330
2A4
100
AcDbEntity
8
0
62
0
6
ByLayer
370
-1
48
1.0
60
0
100
AcDbTrace
10
-400.0
20
-7000.0
30
0.0
11
-385.0
21
-7090.0
31
0.0
12
-415.0
22
-7090.0
32
0.0
13
-415.0
23
-7090.0
33
0.0
39
0.0
210
0.0
220
0.0
230
1.0
0
SOLID
5
2AE
330
2A4
100
AcDbEntity
8
0
62
0
6
ByLayer
370
-1
48
1.0
60
0
100
AcDbTrace
10
-400.0
20
-7200.0
30
0.0
11
-415.0
21
-7110.0
31
0.0
12
-385.0
22
-7110.0
32
0.0
13
-385.0
23
-7110.0
33
0.0
39
0.0
210
0.0
220
0.0
230
1.0
0
MTEXT
5
2AF
330
2A4
100
AcDbEntity
8
0
62
0
6
ByLayer
370
-1
48
1.0
60
0
100
AcDbMText
10
-445.0
20
-7100.0
30
0.0
210
0.0
220
0.0
230
1.0
1
200.00
40
90.0
41
0.0
44
1.0
50
90.0
71
8
72
5
7
Standard
0
ENDBLK
5
2A5
330
2A4
100
AcDbEntity
8
0
100
AcDbBlockEnd
0
BLOCK
5
2B3
330
2B1
100
AcDbEntity
8
0
100
AcDbBlockBegin
2
*D26
70
1
10
0.0
20
0.0
30
0.0
3
*D26
0
POINT
5
2B4
330
2B1
100
AcDbEntity
8
Defpoints
62
256
6
ByLayer
370
-1
48
1.0
60
0
100
AcDbPoint
10
-500.0
20
-7200.0
30
0.0
39
0.0
210
0.0
220
0.0
230
1.0
50
360.0
0
POINT
5
2B5
330
2B1
100
AcDbEntity
8
Defpoints
62
256
6
ByLayer
370
-1
48
1.0
60
0
100
AcDbPoint
10
-500.0
20
-8800.0
30
0.0
39
0.0
210
0.0
220
0.0
230
1.0
50
360.0
0
POINT
5
2B6
330
2B1
100
AcDbEntity
8
Defpoints
62
256
6
ByLayer
370
-1
48
1.0
60
0
100
AcDbPoint
10
-400.0
20
-8800.0
30
0.0
39
0.0
210
0.0
220
0.0
230
1.0
50
360.0
0
LINE
5
2B7
330
2B1
100
AcDbEntity
8
0
62
0
6
ByBlock
370
-2
48
1.0
60
0
100
AcDbLine
10
-468.75
20
-7200.0
30
0.0
11
-310.0
21
-7200.0
31
0.0
39
0.0
210
0.0
220
0.0
230
1.0
0
LINE
5
2B8
330
2B1
100
AcDbEntity
8
0
62
0
6
ByBlock
370
-2
48
1.0
60
0
100
AcDbLine
10
-468.75
20
-8800.0
30
0.0
11
-310.0
21
-8800.0
31
0.0
39
0.0
210
0.0
220
0.0
230
1.0
0
LINE
5
2B9
330
2B1
100
AcDbEntity
8
0
62
0
6
ByBlock
370
-2
48
1.0
60
0
100
AcDbLine
10
-400.0
20
-7290.0
30
0.0
11
-400.0
21
-8710.0
31
0.0
39
0.0
210
0.0
220
0.0
230
1.0
0
SOLID
5
2BA
330
2B1
100
AcDbEntity
8
0
62
0
6
ByLayer
370
-1
48
1.0
60
0
100
AcDbTrace
10
-400.0
20
-7200.0
30
0.0
11
-385.0
21
-7290.0
31
0.0
12
-415.0
22
-7290.0
32
0.0
13
-415.0
23
-7290.0
33
0.0
39
0.0
210
0.0
220
0.0
230
1.0
0
SOLID
5
2BB
330
2B1
100
AcDbEntity
8
0
62
0
6
ByLayer
370
-1
48
1.0
60
0
100
AcDbTrace
10
-400.0
20
-8800.0
30
0.0
11
-415.0
21
-8710.0
31
0.0
12
-385.0
22
-8710.0
32
0.0
13
-385.0
23
-8710.0
33
0.0
39
0.0
210
0.0
220
0.0
230
1.0
0
MTEXT
5
2BC
330
2B1
100
AcDbEntity
8
0
62
0
6
ByLayer
370
-1
48
1.0
60
0
100
AcDbMText
10
-445.0
20
-8000.0
30
0.0
210
0.0
220
0.0
230
1.0
1
1600.00
40
90.0
41
0.0
44
1.0
50
90.0
71
8
72
5
7
Standard
0
ENDBLK
5
2B2
330
2B1
100
AcDbEntity
8
0
100
AcDbBlockEnd
0
BLOCK
5
2C0
330
2BE
100
AcDbEntity
8
0
100
AcDbBlockBegin
2
*D27
70
1
10
0.0
20
0.0
30
0.0
3
*D27
0
POINT
5
2C1
330
2BE
100
AcDbEntity
8
Defpoints
62
256
6
ByLayer
370
-1
48
1.0
60
0
100
AcDbPoint
10
-500.0
20
-7000.0
30
0.0
39
0.0
210
0.0
220
0.0
230
1.0
50
360.0
0
POINT
5
2C2
330
2BE
100
AcDbEntity
8
Defpoints
62
256
6
ByLayer
370
-1
48
1.0
60
0
100
AcDbPoint
10
500.0
20
-7000.0
30
0.0
39
0.0
210
0.0
220
0.0
230
1.0
50
360.0
0
POINT
5
2C3
330
2BE
100
AcDbEntity
8
Defpoints
62
256
6
ByLayer
370
-1
48
1.0
60
0
100
AcDbPoint
10
500.0
20
-6500.0
30
0.0
39
0.0
210
0.0
220
0.0
230
1.0
50
360.0
0
LINE
5
2C4
330
2BE
100
AcDbEntity
8
0
62
0
6
ByBlock
370
-2
48
1.0
60
0
100
AcDbLine
10
-500.0
20
-6968.75
30
0.0
11
-500.0
21
-6410.0
31
0.0
39
0.0
210
0.0
220
0.0
230
1.0
0
LINE
5
2C5
330
2BE
100
AcDbEntity
8
0
62
0
6
ByBlock
370
-2
48
1.0
60
0
100
AcDbLine
10
500.0
20
-6968.75
30
0.0
11
500.0
21
-6410.0
31
0.0
39
0.0
210
0.0
220
0.0
230
1.0
0
LINE
5
2C6
330
2BE
100
AcDbEntity
8
0
62
0
6
ByBlock
370
-2
48
1.0
60
0
100
AcDbLine
10
-410.0
20
-6500.0
30
0.0
11
410.0
21
-6500.0
31
0.0
39
0.0
210
0.0
220
0.0
230
1.0
0
SOLID
5
2C7
330
2BE
100
AcDbEntity
8
0
62
0
6
ByLayer
370
-1
48
1.0
60
0
100
AcDbTrace
10
-500.0
20
-6500.0
30
0.0
11
-410.0
21
-6485.0
31
0.0
12
-410.0
22
-6515.0
32
0.0
13
-410.0
23
-6515.0
33
0.0
39
0.0
210
0.0
220
0.0
230
1.0
0
SOLID
5
2C8
330
2BE
100
AcDbEntity
8
0
62
0
6
ByLayer
370
-1
48
1.0
60
0
100
AcDbTrace
10
500.0
20
-6500.0
30
0.0
11
410.0
21
-6515.0
31
0.0
12
410.0
22
-6485.0
32
0.0
13
410.0
23
-6485.0
33
0.0
39
0.0
210
0.0
220
0.0
230
1.0
0
MTEXT
5
2C9
330
2BE
100
AcDbEntity
8
0
62
0
6
ByLayer
370
-1
48
1.0
60
0
100
AcDbMText
10
0.0000000000000596
20
-6455.0
30
0.0
210
0.0
220
0.0
230
1.0
1
1000.00
40
90.0
41
0.0
44
1.0
50
0.0
71
8
72
5
7
Standard
0
ENDBLK
5
2BF
330
2BE
100
AcDbEntity
8
0
100
AcDbBlockEnd
0
BLOCK
5
2CD
330
2CB
100
AcDbEntity
8
0
100
AcDbBlockBegin
2
*D28
70
1
10
0.0
20
0.0
30
0.0
3
*D28
0
POINT
5
2CE
330
2CB
100
AcDbEntity
8
Defpoints
62
256
6
ByLayer
370
-1
48
1.0
60
0
100
AcDbPoint
10
-500.0
20
-7000.0
30
0.0
39
0.0
210
0.0
220
0.0
230
1.0
50
360.0
0
POINT
5
2CF
330
2CB
100
AcDbEntity
8
Defpoints
62
256
6
ByLayer
370
-1
48
1.0
60
0
100
AcDbPoint
10
-50.0
20
-7000.0
30
0.0
39
0.0
210
0.0
220
0.0
230
1.0
50
360.0
0
POINT
5
2D0
330
2CB
100
AcDbEntity
8
Defpoints
62
256
6
ByLayer
370
-1
48
1.0
60
0
100
AcDbPoint
10
-50.0
20
-6900.0
30
0.0
39
0.0
210
0.0
220
0.0
230
1.0
50
360.0
0
LINE
5
2D1
330
2CB
100
AcDbEntity
8
0
62
0
6
ByBlock
370
-2
48
1.0
60
0
100
AcDbLine
10
-500.0
20
-6968.75
30
0.0
11
-500.0
21
-6810.0
31
0.0
39
0.0
210
0.0
220
0.0
230
1.0
0
LINE
5
2D2
330
2CB
100
AcDbEntity
8
0
62
0
6
ByBlock
370
-2
48
1.0
60
0
100
AcDbLine
10
-50.0
20
-6968.75
30
0.0
11
-50.0
21
-6810.0
31
0.0
39
0.0
210
0.0
220
0.0
230
1.0
0
LINE
5
2D3
330
2CB
100
AcDbEntity
8
0
62
0
6
ByBlock
370
-2
48
1.0
60
0
100
AcDbLine
10
-410.0
20
-6900.0
30
0.0
11
-140.0
21
-6900.0
31
0.0
39
0.0
210
0.0
220
0.0
230
1.0
0
SOLID
5
2D4
330
2CB
100
AcDbEntity
8
0
62
0
6
ByLayer
370
-1
48
1.0
60
0
100
AcDbTrace
10
-500.0
20
-6900.0
30
0.0
11
-410.0
21
-6885.0
31
0.0
12
-410.0
22
-6915.0
32
0.0
13
-410.0
23
-6915.0
33
0.0
39
0.0
210
0.0
220
0.0
230
1.0
0
SOLID
5
2D5
330
2CB
100
AcDbEntity
8
0
62
0
6
ByLayer
370
-1
48
1.0
60
0
100
AcDbTrace
10
-50.0
20
-6900.0
30
0.0
11
-140.0
21
-6915.0
31
0.0
12
-140.0
22
-6885.0
32
0.0
13
-140.0
23
-6885.0
33
0.0
39
0.0
210
0.0
220
0.0
230
1.0
0
MTEXT
5
2D6
330
2CB
100
AcDbEntity
8
0
62
0
6
ByLayer
370
-1
48
1.0
60
0
100
AcDbMText
10
-275.0
20
-6855.0
30
0.0
210
0.0
220
0.0
230
1.0
1
450.00
40
90.0
41
0.0
44
1.0
50
0.0
71
8
72
5
7
Standard
0
ENDBLK
5
2CC
330
2CB
100
AcDbEntity
8
0
100
AcDbBlockEnd
0
BLOCK
5
2DA
330
2D8
100
AcDbEntity
8
0
100
AcDbBlockBegin
2
*D29
70
1
10
0.0
20
0.0
30
0.0
3
*D29
0
POINT
5
2DB
330
2D8
100
AcDbEntity
8
Defpoints
62
256
6
ByLayer
370
-1
48
1.0
60
0
100
AcDbPoint
10
500.0
20
-7000.0
30
0.0
39
0.0
210
0.0
220
0.0
230
1.0
50
360.0
0
POINT
5
2DC
330
2D8
100
AcDbEntity
8
Defpoints
62
256
6
ByLayer
370
-1
48
1.0
60
0
100
AcDbPoint
10
50.0
20
-7000.0
30
0.0
39
0.0
210
0.0
220
0.0
230
1.0
50
360.0
0
POINT
5
2DD
330
2D8
100
AcDbEntity
8
Defpoints
62
256
6
ByLayer
370
-1
48
1.0
60
0
100
AcDbPoint
10
50.0
20
-7100.0
30
0.0
39
0.0
210
0.0
220
0.0
230
1.0
50
360.0
0
LINE
5
2DE
330
2D8
100
AcDbEntity
8
0
62
0
6
ByBlock
370
-2
48
1.0
60
0
100
AcDbLine
10
500.0
20
-7031.25
30
0.0
11
500.0
21
-7190.0
31
0.0
39
0.0
210
0.0
220
0.0
230
1.0
0
LINE
5
2DF
330
2D8
100
AcDbEntity
8
0
62
0
6
ByBlock
370
-2
48
1.0
60
0
100
AcDbLine
10
50.0
20
-7031.25
30
0.0
11
50.0
21
-7190.0
31
0.0
39
0.0
210
0.0
220
0.0
230
1.0
0
LINE
5
2E0
330
2D8
100
AcDbEntity
8
0
62
0
6
ByBlock
370
-2
48
1.0
60
0
100
AcDbLine
10
410.0
20
-7100.0
30
0.0
11
140.0
21
-7100.0
31
0.0
39
0.0
210
0.0
220
0.0
230
1.0
0
SOLID
5
2E1
330
2D8
100
AcDbEntity
8
0
62
0
6
ByLayer
370
-1
48
1.0
60
0
100
AcDbTrace
10
500.0
20
-7100.0
30
0.0
11
410.0
21
-7115.0
31
0.0
12
410.0
22
-7085.0
32
0.0
13
410.0
23
-7085.0
33
0.0
39
0.0
210
0.0
220
0.0
230
1.0
0
SOLID
5
2E2
330
2D8
100
AcDbEntity
8
0
62
0
6
ByLayer
370
-1
48
1.0
60
0
100
AcDbTrace
10
50.0
20
-7100.0
30
0.0
11
140.0
21
-7085.0
31
0.0
12
140.0
22
-7115.0
32
0.0
13
140.0
23
-7115.0
33
0.0
39
0.0
210
0.0
220
0.0
230
1.0
0
MTEXT
5
2E3
330
2D8
100
AcDbEntity
8
0
62
0
6
ByLayer
370
-1
48
1.0
60
0
100
AcDbMText
10
275.0
20
-7055.0
30
0.0
210
0.0
220
0.0
230
1.0
1
450.00
40
90.0
41
0.0
44
1.0
50
0.0
71
8
72
5
7
Standard
0
ENDBLK
5
2D9
330
2D8
100
AcDbEntity
8
0
100
AcDbBlockEnd
0
BLOCK
5
2E7
330
2E5
100
AcDbEntity
8
0
100
AcDbBlockBegin
2
*D30
70
1
10
0.0
20
0.0
30
0.0
3
*D30
0
POINT
5
2E8
330
2E5
100
AcDbEntity
8
Defpoints
62
256
6
ByLayer
370
-1
48
1.0
60
0
100
AcDbPoint
10
-50.0
20
-7200.0
30
0.0
39
0.0
210
0.0
220
0.0
230
1.0
50
360.0
0
POINT
5
2E9
330
2E5
100
AcDbEntity
8
Defpoints
62
256
6
ByLayer
370
-1
48
1.0
60
0
100
AcDbPoint
10
50.0
20
-7200.0
30
0.0
39
0.0
210
0.0
220
0.0
230
1.0
50
360.0
0
POINT
5
2EA
330
2E5
100
AcDbEntity
8
Defpoints
62
256
6
ByLayer
370
-1
48
1.0
60
0
100
AcDbPoint
10
50.0
20
-7500.0
30
0.0
39
0.0
210
0.0
220
0.0
230
1.0
50
360.0
0
LINE
5
2EB
330
2E5
100
AcDbEntity
8
0
62
0
6
ByBlock
370
-2
48
1.0
60
0
100
AcDbLine
10
-50.0
20
-7231.25
30
0.0
11
-50.0
21
-7590.0
31
0.0
39
0.0
210
0.0
220
0.0
230
1.0
0
LINE
5
2EC
330
2E5
100
AcDbEntity
8
0
62
0
6
ByBlock
370
-2
48
1.0
60
0
100
AcDbLine
10
50.0
20
-7231.25
30
0.0
11
50.0
21
-7590.0
31
0.0
39
0.0
210
0.0
220
0.0
230
1.0
0
LINE
5
2ED
330
2E5
100
AcDbEntity
8
0
62
0
6
ByBlock
370
-2
48
1.0
60
0
100
AcDbLine
10
40.0
20
-7500.0
30
0.0
11
-40.0
21
-7500.0
31
0.0
39
0.0
210
0.0
220
0.0
230
1.0
0
SOLID
5
2EE
330
2E5
100
AcDbEntity
8
0
62
0
6
ByLayer
370
-1
48
1.0
60
0
100
AcDbTrace
10
-50.0
20
-7500.0
30
0.0
11
40.0
21
-7485.0
31
0.0
12
40.0
22
-7515.0
32
0.0
13
40.0
23
-7515.0
33
0.0
39
0.0
210
0.0
220
0.0
230
1.0
0
SOLID
5
2EF
330
2E5
100
AcDbEntity
8
0
62
0
6
ByLayer
370
-1
48
1.0
60
0
100
AcDbTrace
10
50.0
20
-7500.0
30
0.0
11
-40.0
21
-7515.0
31
0.0
12
-40.0
22
-7485.0
32
0.0
13
-40.0
23
-7485.0
33
0.0
39
0.0
210
0.0
220
0.0
230
1.0
0
MTEXT
5
2F0
330
2E5
100
AcDbEntity
8
0
62
0
6
ByLayer
370
-1
48
1.0
60
0
100
AcDbMText
10
-0.00000000000001856
20
-7455.0
30
0.0
210
0.0
220
0.0
230
1.0
1
100.00
40
90.0
41
0.0
44
1.0
50
0.0
71
8
72
5
7
Standard
0
ENDBLK
5
2E6
330
2E5
100
AcDbEntity
8
0
100
AcDbBlockEnd
0
BLOCK
5
2F4
330
2F2
100
AcDbEntity
8
0
100
AcDbBlockBegin
2
*D31
70
1
10
0.0
20
0.0
30
0.0
3
*D31
0
POINT
5
2F5
330
2F2
100
AcDbEntity
8
Defpoints
62
256
6
ByLayer
370
-1
48
1.0
60
0
100
AcDbPoint
10
-700.0
20
-9000.0
30
0.0
39
0.0
210
0.0
220
0.0
230
1.0
50
360.0
0
POINT
5
2F6
330
2F2
100
AcDbEntity
8
Defpoints
62
256
6
ByLayer
370
-1
48
1.0
60
0
100
AcDbPoint
10
-700.0
20
-7000.0
30
0.0
39
0.0
210
0.0
220
0.0
230
1.0
50
360.0
0
POINT
5
2F7
330
2F2
100
AcDbEntity
8
Defpoints
62
256
6
ByLayer
370
-1
48
1.0
60
0
100
AcDbPoint
10
-800.0
20
-7000.0
30
0.0
39
0.0
210
0.0
220
0.0
230
1.0
50
360.0
0
LINE
5
2F8
330
2F2
100
AcDbEntity
8
0
62
0
6
ByBlock
370
-2
48
1.0
60
0
100
AcDbLine
10
-731.25
20
-9000.0
30
0.0
11
-890.0
21
-9000.0
31
0.0
39
0.0
210
0.0
220
0.0
230
1.0
0
LINE
5
2F9
330
2F2
100
AcDbEntity
8
0
62
0
6
ByBlock
370
-2
48
1.0
60
0
100
AcDbLine
10
-731.25
20
-7000.0
30
0.0
11
-890.0
21
-7000.0
31
0.0
39
0.0
210
0.0
220
0.0
230
1.0
0
LINE
5
2FA
330
2F2
100
AcDbEntity
8
0
62
0
6
ByBlock
370
-2
48
1.0
60
0
100
AcDbLine
10
-800.0
20
-8910.0
30
0.0
11
-800.0
21
-7090.0
31
0.0
39
0.0
210
0.0
220
0.0
230
1.0
0
SOLID
5
2FB
330
2F2
100
AcDbEntity
8
0
62
0
6
ByLayer
370
-1
48
1.0
60
0
100
AcDbTrace
10
-800.0
20
-9000.0
30
0.0
11
-815.0
21
-8910.0
31
0.0
12
-785.0
22
-8910.0
32
0.0
13
-785.0
23
-8910.0
33
0.0
39
0.0
210
0.0
220
0.0
230
1.0
0
SOLID
5
2FC
330
2F2
100
AcDbEntity
8
0
62
0
6
ByLayer
370
-1
48
1.0
60
0
100
AcDbTrace
10
-800.0
20
-7000.0
30
0.0
11
-785.0
21
-7090.0
31
0.0
12
-815.0
22
-7090.0
32
0.0
13
-815.0
23
-7090.0
33
0.0
39
0.0
210
0.0
220
0.0
230
1.0
0
MTEXT
5
2FD
330
2F2
100
AcDbEntity
8
0
62
0
6
ByLayer
370
-1
48
1.0
60
0
100
AcDbMText
10
-845.0
20
-8000.0
30
0.0
210
0.0
220
0.0
230
1.0
1
2000.00
40
90.0
41
0.0
44
1.0
50
90.0
71
8
72
5
7
Standard
0
ENDBLK
5
2F3
330
2F2
100
AcDbEntity
8
0
100
AcDbBlockEnd
0
BLOCK
5
303
330
301
100
AcDbEntity
8
Columns
100
AcDbBlockBegin
2
Right Beam Detailing
70
0
10
0.0
20
0.0
30
0.0
3
Right Beam Detailing
0
POLYLINE
5
312
330
301
100
AcDbEntity
8
0
62
256
6
ByLayer
370
-1
48
1.0
60
0
100
AcDb3dPolyline
10
0.0
20
0.0
30
0.0
70
9
75
0
210
0.0
220
0.0
230
1.0
0
VERTEX
5
304
100
AcDbEntity
8
0
62
256
100
AcDbVertex
100
AcDb3dPolylineVertex
10
-500.0
20
0.0
30
0.0
70
32
0
VERTEX
5
305
100
AcDbEntity
8
0
62
256
100
AcDbVertex
100
AcDb3dPolylineVertex
10
-500.0
20
200.0
30
0.0
70
32
0
VERTEX
5
306
100
AcDbEntity
8
0
62
256
100
AcDbVertex
100
AcDb3dPolylineVertex
10
-50.0
20
200.0
30
0.0
70
32
0
VERTEX
5
307
100
AcDbEntity
8
0
62
256
100
AcDbVertex
100
AcDb3dPolylineVertex
10
-50.0
20
1800.0
30
0.0
70
32
0
VERTEX
5
308
100
AcDbEntity
8
0
62
256
100
AcDbVertex
100
AcDb3dPolylineVertex
10
-500.0
20
1800.0
30
0.0
70
32
0
VERTEX
5
309
100
AcDbEntity
8
0
62
256
100
AcDbVertex
100
AcDb3dPolylineVertex
10
-500.0
20
2000.0
30
0.0
70
32
0
VERTEX
5
30A
100
AcDbEntity
8
0
62
256
100
AcDbVertex
100
AcDb3dPolylineVertex
10
500.0
20
2000.0
30
0.0
70
32
0
VERTEX
5
30B
100
AcDbEntity
8
0
62
256
100
AcDbVertex
100
AcDb3dPolylineVertex
10
500.0
20
1800.0
30
0.0
70
32
0
VERTEX
5
30C
100
AcDbEntity
8
0
62
256
100
AcDbVertex
100
AcDb3dPolylineVertex
10
50.0
20
1800.0
30
0.0
70
32
0
VERTEX
5
30D
100
AcDbEntity
8
0
62
256
100
AcDbVertex
100
AcDb3dPolylineVertex
10
50.0
20
200.0
30
0.0
70
32
0
VERTEX
5
30E
100
AcDbEntity
8
0
62
256
100
AcDbVertex
100
AcDb3dPolylineVertex
10
500.0
20
200.0
30
0.0
70
32
0
VERTEX
5
30F
100
AcDbEntity
8
0
62
256
100
AcDbVertex
100
AcDb3dPolylineVertex
10
500.0
20
0.0
30
0.0
70
32
0
VERTEX
5
310
100
AcDbEntity
8
0
62
256
100
AcDbVertex
100
AcDb3dPolylineVertex
10
-500.0
20
0.0
30
0.0
70
32
0
SEQEND
5
311
100
AcDbEntity
8
0
0
ENDBLK
5
302
330
301
100
AcDbEntity
8
Columns
100
AcDbBlockEnd
0
BLOCK
5
316
330
314
100
AcDbEntity
8
0
100
AcDbBlockBegin
2
*D32
70
1
10
0.0
20
0.0
30
0.0
3
*D32
0
POINT
5
317
330
314
100
AcDbEntity
8
Defpoints
62
256
6
ByLayer
370
-1
48
1.0
60
0
100
AcDbPoint
10
2600.0
20
-9000.0
30
0.0
39
0.0
210
0.0
220
0.0
230
1.0
50
360.0
0
POINT
5
318
330
314
100
AcDbEntity
8
Defpoints
62
256
6
ByLayer
370
-1
48
1.0
60
0
100
AcDbPoint
10
2600.0
20
-7000.0
30
0.0
39
0.0
210
0.0
220
0.0
230
1.0
50
360.0
0
POINT
5
319
330
314
100
AcDbEntity
8
Defpoints
62
256
6
ByLayer
370
-1
48
1.0
60
0
100
AcDbPoint
10
2700.0
20
-7000.0
30
0.0
39
0.0
210
0.0
220
0.0
230
1.0
50
360.0
0
LINE
5
31A
330
314
100
AcDbEntity
8
0
62
0
6
ByBlock
370
-2
48
1.0
60
0
100
AcDbLine
10
2631.25
20
-9000.0
30
0.0
11
2790.0
21
-9000.0
31
0.0
39
0.0
210
0.0
220
0.0
230
1.0
0
LINE
5
31B
330
314
100
AcDbEntity
8
0
62
0
6
ByBlock
370
-2
48
1.0
60
0
100
AcDbLine
10
2631.25
20
-7000.0
30
0.0
11
2790.0
21
-7000.0
31
0.0
39
0.0
210
0.0
220
0.0
230
1.0
0
LINE
5
31C
330
314
100
AcDbEntity
8
0
62
0
6
ByBlock
370
-2
48
1.0
60
0
100
AcDbLine
10
2700.0
20
-8910.0
30
0.0
11
2700.0
21
-7090.0
31
0.0
39
0.0
210
0.0
220
0.0
230
1.0
0
SOLID
5
31D
330
314
100
AcDbEntity
8
0
62
0
6
ByLayer
370
-1
48
1.0
60
0
100
AcDbTrace
10
2700.0
20
-9000.0
30
0.0
11
2685.0
21
-8910.0
31
0.0
12
2715.0
22
-8910.0
32
0.0
13
2715.0
23
-8910.0
33
0.0
39
0.0
210
0.0
220
0.0
230
1.0
0
SOLID
5
31E
330
314
100
AcDbEntity
8
0
62
0
6
ByLayer
370
-1
48
1.0
60
0
100
AcDbTrace
10
2700.0
20
-7000.0
30
0.0
11
2715.0
21
-7090.0
31
0.0
12
2685.0
22
-7090.0
32
0.0
13
2685.0
23
-7090.0
33
0.0
39
0.0
210
0.0
220
0.0
230
1.0
0
MTEXT
5
31F
330
314
100
AcDbEntity
8
0
62
0
6
ByLayer
370
-1
48
1.0
60
0
100
AcDbMText
10
2655.0
20
-8000.0
30
0.0
210
0.0
220
0.0
230
1.0
1
2000.00
40
90.0
41
0.0
44
1.0
50
90.0
71
8
72
5
7
Standard
0
ENDBLK
5
315
330
314
100
AcDbEntity
8
0
100
AcDbBlockEnd
0
BLOCK
5
324
330
322
100
AcDbEntity
8
0
100
AcDbBlockBegin
2
*D33
70
1
10
0.0
20
0.0
30
0.0
3
*D33
0
POINT
5
325
330
322
100
AcDbEntity
8
Defpoints
62
256
6
ByLayer
370
-1
48
1.0
60
0
100
AcDbPoint
10
1500.0
20
-9000.0
30
0.0
39
0.0
210
0.0
220
0.0
230
1.0
50
360.0
0
POINT
5
326
330
322
100
AcDbEntity
8
Defpoints
62
256
6
ByLayer
370
-1
48
1.0
60
0
100
AcDbPoint
10
1500.0
20
-8800.0
30
0.0
39
0.0
210
0.0
220
0.0
230
1.0
50
360.0
0
POINT
5
327
330
322
100
AcDbEntity
8
Defpoints
62
256
6
ByLayer
370
-1
48
1.0
60
0
100
AcDbPoint
10
1400.0
20
-8800.0
30
0.0
39
0.0
210
0.0
220
0.0
230
1.0
50
360.0
0
LINE
5
328
330
322
100
AcDbEntity
8
0
62
0
6
ByBlock
370
-2
48
1.0
60
0
100
AcDbLine
10
1468.75
20
-9000.0
30
0.0
11
1310.0
21
-9000.0
31
0.0
39
0.0
210
0.0
220
0.0
230
1.0
0
LINE
5
329
330
322
100
AcDbEntity
8
0
62
0
6
ByBlock
370
-2
48
1.0
60
0
100
AcDbLine
10
1468.75
20
-8800.0
30
0.0
11
1310.0
21
-8800.0
31
0.0
39
0.0
210
0.0
220
0.0
230
1.0
0
LINE
5
32A
330
322
100
AcDbEntity
8
0
62
0
6
ByBlock
370
-2
48
1.0
60
0
100
AcDbLine
10
1400.0
20
-8910.0
30
0.0
11
1400.0
21
-8890.0
31
0.0
39
0.0
210
0.0
220
0.0
230
1.0
0
SOLID
5
32B
330
322
100
AcDbEntity
8
0
62
0
6
ByLayer
370
-1
48
1.0
60
0
100
AcDbTrace
10
1400.0
20
-9000.0
30
0.0
11
1385.0
21
-8910.0
31
0.0
12
1415.0
22
-8910.0
32
0.0
13
1415.0
23
-8910.0
33
0.0
39
0.0
210
0.0
220
0.0
230
1.0
0
SOLID
5
32C
330
322
100
AcDbEntity
8
0
62
0
6
ByLayer
370
-1
48
1.0
60
0
100
AcDbTrace
10
1400.0
20
-8800.0
30
0.0
11
1415.0
21
-8890.0
31
0.0
12
1385.0
22
-8890.0
32
0.0
13
1385.0
23
-8890.0
33
0.0
39
0.0
210
0.0
220
0.0
230
1.0
0
MTEXT
5
32D
330
322
100
AcDbEntity
8
0
62
0
6
ByLayer
370
-1
48
1.0
60
0
100
AcDbMText
10
1355.0
20
-8900.0
30
0.0
210
0.0
220
0.0
230
1.0
1
200.00
40
90.0
41
0.0
44
1.0
50
90.0
71
8
72
5
7
Standard
0
ENDBLK
5
323
330
322
100
AcDbEntity
8
0
100
AcDbBlockEnd
0
BLOCK
5
331
330
32F
100
AcDbEntity
8
0
100
AcDbBlockBegin
2
*D34
70
1
10
0.0
20
0.0
30
0.0
3
*D34
0
POINT
5
332
330
32F
100
AcDbEntity
8
Defpoints
62
256
6
ByLayer
370
-1
48
1.0
60
0
100
AcDbPoint
10
1500.0
20
-7000.0
30
0.0
39
0.0
210
0.0
220
0.0
230
1.0
50
360.0
0
POINT
5
333
330
32F
100
AcDbEntity
8
Defpoints
62
256
6
ByLayer
370
-1
48
1.0
60
0
100
AcDbPoint
10
1500.0
20
-7200.0
30
0.0
39
0.0
210
0.0
220
0.0
230
1.0
50
360.0
0
POINT
5
334
330
32F
100
AcDbEntity
8
Defpoints
62
256
6
ByLayer
370
-1
48
1.0
60
0
100
AcDbPoint
10
1600.0
20
-7200.0
30
0.0
39
0.0
210
0.0
220
0.0
230
1.0
50
360.0
0
LINE
5
335
330
32F
100
AcDbEntity
8
0
62
0
6
ByBlock
370
-2
48
1.0
60
0
100
AcDbLine
10
1531.25
20
-7000.0
30
0.0
11
1690.0
21
-7000.0
31
0.0
39
0.0
210
0.0
220
0.0
230
1.0
0
LINE
5
336
330
32F
100
AcDbEntity
8
0
62
0
6
ByBlock
370
-2
48
1.0
60
0
100
AcDbLine
10
1531.25
20
-7200.0
30
0.0
11
1690.0
21
-7200.0
31
0.0
39
0.0
210
0.0
220
0.0
230
1.0
0
LINE
5
337
330
32F
100
AcDbEntity
8
0
62
0
6
ByBlock
370
-2
48
1.0
60
0
100
AcDbLine
10
1600.0
20
-7090.0
30
0.0
11
1600.0
21
-7110.0
31
0.0
39
0.0
210
0.0
220
0.0
230
1.0
0
SOLID
5
338
330
32F
100
AcDbEntity
8
0
62
0
6
ByLayer
370
-1
48
1.0
60
0
100
AcDbTrace
10
1600.0
20
-7000.0
30
0.0
11
1615.0
21
-7090.0
31
0.0
12
1585.0
22
-7090.0
32
0.0
13
1585.0
23
-7090.0
33
0.0
39
0.0
210
0.0
220
0.0
230
1.0
0
SOLID
5
339
330
32F
100
AcDbEntity
8
0
62
0
6
ByLayer
370
-1
48
1.0
60
0
100
AcDbTrace
10
1600.0
20
-7200.0
30
0.0
11
1585.0
21
-7110.0
31
0.0
12
1615.0
22
-7110.0
32
0.0
13
1615.0
23
-7110.0
33
0.0
39
0.0
210
0.0
220
0.0
230
1.0
0
MTEXT
5
33A
330
32F
100
AcDbEntity
8
0
62
0
6
ByLayer
370
-1
48
1.0
60
0
100
AcDbMText
10
1555.0
20
-7100.0
30
0.0
210
0.0
220
0.0
230
1.0
1
200.00
40
90.0
41
0.0
44
1.0
50
90.0
71
8
72
5
7
Standard
0
ENDBLK
5
330
330
32F
100
AcDbEntity
8
0
100
AcDbBlockEnd
0
BLOCK
5
33E
330
33C
100
AcDbEntity
8
0
100
AcDbBlockBegin
2
*D35
70
1
10
0.0
20
0.0
30
0.0
3
*D35
0
POINT
5
33F
330
33C
100
AcDbEntity
8
Defpoints
62
256
6
ByLayer
370
-1
48
1.0
60
0
100
AcDbPoint
10
1500.0
20
-7200.0
30
0.0
39
0.0
210
0.0
220
0.0
230
1.0
50
360.0
0
POINT
5
340
330
33C
100
AcDbEntity
8
Defpoints
62
256
6
ByLayer
370
-1
48
1.0
60
0
100
AcDbPoint
10
1500.0
20
-8800.0
30
0.0
39
0.0
210
0.0
220
0.0
230
1.0
50
360.0
0
POINT
5
341
330
33C
100
AcDbEntity
8
Defpoints
62
256
6
ByLayer
370
-1
48
1.0
60
0
100
AcDbPoint
10
1600.0
20
-8800.0
30
0.0
39
0.0
210
0.0
220
0.0
230
1.0
50
360.0
0
LINE
5
342
330
33C
100
AcDbEntity
8
0
62
0
6
ByBlock
370
-2
48
1.0
60
0
100
AcDbLine
10
1531.25
20
-7200.0
30
0.0
11
1690.0
21
-7200.0
31
0.0
39
0.0
210
0.0
220
0.0
230
1.0
0
LINE
5
343
330
33C
100
AcDbEntity
8
0
62
0
6
ByBlock
370
-2
48
1.0
60
0
100
AcDbLine
10
1531.25
20
-8800.0
30
0.0
11
1690.0
21
-8800.0
31
0.0
39
0.0
210
0.0
220
0.0
230
1.0
0
LINE
5
344
330
33C
100
AcDbEntity
8
0
62
0
6
ByBlock
370
-2
48
1.0
60
0
100
AcDbLine
10
1600.0
20
-7290.0
30
0.0
11
1600.0
21
-8710.0
31
0.0
39
0.0
210
0.0
220
0.0
230
1.0
0
SOLID
5
345
330
33C
100
AcDbEntity
8
0
62
0
6
ByLayer
370
-1
48
1.0
60
0
100
AcDbTrace
10
1600.0
20
-7200.0
30
0.0
11
1615.0
21
-7290.0
31
0.0
12
1585.0
22
-7290.0
32
0.0
13
1585.0
23
-7290.0
33
0.0
39
0.0
210
0.0
220
0.0
230
1.0
0
SOLID
5
346
330
33C
100
AcDbEntity
8
0
62
0
6
ByLayer
370
-1
48
1.0
60
0
100
AcDbTrace
10
1600.0
20
-8800.0
30
0.0
11
1585.0
21
-8710.0
31
0.0
12
1615.0
22
-8710.0
32
0.0
13
1615.0
23
-8710.0
33
0.0
39
0.0
210
0.0
220
0.0
230
1.0
0
MTEXT
5
347
330
33C
100
AcDbEntity
8
0
62
0
6
ByLayer
370
-1
48
1.0
60
0
100
AcDbMText
10
1555.0
20
-8000.0
30
0.0
210
0.0
220
0.0
230
1.0
1
1600.00
40
90.0
41
0.0
44
1.0
50
90.0
71
8
72
5
7
Standard
0
ENDBLK
5
33D
330
33C
100
AcDbEntity
8
0
100
AcDbBlockEnd
0
BLOCK
5
34B
330
349
100
AcDbEntity
8
0
100
AcDbBlockBegin
2
*D36
70
1
10
0.0
20
0.0
30
0.0
3
*D36
0
POINT
5
34C
330
349
100
AcDbEntity
8
Defpoints
62
256
6
ByLayer
370
-1
48
1.0
60
0
100
AcDbPoint
10
1500.0
20
-7000.0
30
0.0
39
0.0
210
0.0
220
0.0
230
1.0
50
360.0
0
POINT
5
34D
330
349
100
AcDbEntity
8
Defpoints
62
256
6
ByLayer
370
-1
48
1.0
60
0
100
AcDbPoint
10
2500.0
20
-7000.0
30
0.0
39
0.0
210
0.0
220
0.0
230
1.0
50
360.0
0
POINT
5
34E
330
349
100
AcDbEntity
8
Defpoints
62
256
6
ByLayer
370
-1
48
1.0
60
0
100
AcDbPoint
10
2500.0
20
-6500.0
30
0.0
39
0.0
210
0.0
220
0.0
230
1.0
50
360.0
0
LINE
5
34F
330
349
100
AcDbEntity
8
0
62
0
6
ByBlock
370
-2
48
1.0
60
0
100
AcDbLine
10
1500.0
20
-6968.75
30
0.0
11
1500.0
21
-6410.0
31
0.0
39
0.0
210
0.0
220
0.0
230
1.0
0
LINE
5
350
330
349
100
AcDbEntity
8
0
62
0
6
ByBlock
370
-2
48
1.0
60
0
100
AcDbLine
10
2500.0
20
-6968.75
30
0.0
11
2500.0
21
-6410.0
31
0.0
39
0.0
210
0.0
220
0.0
230
1.0
0
LINE
5
351
330
349
100
AcDbEntity
8
0
62
0
6
ByBlock
370
-2
48
1.0
60
0
100
AcDbLine
10
1590.0
20
-6500.0
30
0.0
11
2410.0
21
-6500.0
31
0.0
39
0.0
210
0.0
220
0.0
230
1.0
0
SOLID
5
352
330
349
100
AcDbEntity
8
0
62
0
6
ByLayer
370
-1
48
1.0
60
0
100
AcDbTrace
10
1500.0
20
-6500.0
30
0.0
11
1590.0
21
-6485.0
31
0.0
12
1590.0
22
-6515.0
32
0.0
13
1590.0
23
-6515.0
33
0.0
39
0.0
210
0.0
220
0.0
230
1.0
0
SOLID
5
353
330
349
100
AcDbEntity
8
0
62
0
6
ByLayer
370
-1
48
1.0
60
0
100
AcDbTrace
10
2500.0
20
-6500.0
30
0.0
11
2410.0
21
-6515.0
31
0.0
12
2410.0
22
-6485.0
32
0.0
13
2410.0
23
-6485.0
33
0.0
39
0.0
210
0.0
220
0.0
230
1.0
0
MTEXT
5
354
330
349
100
AcDbEntity
8
0
62
0
6
ByLayer
370
-1
48
1.0
60
0
100
AcDbMText
10
2000.0
20
-6455.0
30
0.0
210
0.0
220
0.0
230
1.0
1
1000.00
40
90.0
41
0.0
44
1.0
50
0.0
71
8
72
5
7
Standard
0
ENDBLK
5
34A
330
349
100
AcDbEntity
8
0
100
AcDbBlockEnd
0
BLOCK
5
358
330
356
100
AcDbEntity
8
0
100
AcDbBlockBegin
2
*D37
70
1
10
0.0
20
0.0
30
0.0
3
*D37
0
POINT
5
359
330
356
100
AcDbEntity
8
Defpoints
62
256
6
ByLayer
370
-1
48
1.0
60
0
100
AcDbPoint
10
1500.0
20
-7000.0
30
0.0
39
0.0
210
0.0
220
0.0
230
1.0
50
360.0
0
POINT
5
35A
330
356
100
AcDbEntity
8
Defpoints
62
256
6
ByLayer
370
-1
48
1.0
60
0
100
AcDbPoint
10
1950.0
20
-7000.0
30
0.0
39
0.0
210
0.0
220
0.0
230
1.0
50
360.0
0
POINT
5
35B
330
356
100
AcDbEntity
8
Defpoints
62
256
6
ByLayer
370
-1
48
1.0
60
0
100
AcDbPoint
10
1950.0
20
-6900.0
30
0.0
39
0.0
210
0.0
220
0.0
230
1.0
50
360.0
0
LINE
5
35C
330
356
100
AcDbEntity
8
0
62
0
6
ByBlock
370
-2
48
1.0
60
0
100
AcDbLine
10
1500.0
20
-6968.75
30
0.0
11
1500.0
21
-6810.0
31
0.0
39
0.0
210
0.0
220
0.0
230
1.0
0
LINE
5
35D
330
356
100
AcDbEntity
8
0
62
0
6
ByBlock
370
-2
48
1.0
60
0
100
AcDbLine
10
1950.0
20
-6968.75
30
0.0
11
1950.0
21
-6810.0
31
0.0
39
0.0
210
0.0
220
0.0
230
1.0
0
LINE
5
35E
330
356
100
AcDbEntity
8
0
62
0
6
ByBlock
370
-2
48
1.0
60
0
100
AcDbLine
10
1590.0
20
-6900.0
30
0.0
11
1860.0
21
-6900.0
31
0.0
39
0.0
210
0.0
220
0.0
230
1.0
0
SOLID
5
35F
330
356
100
AcDbEntity
8
0
62
0
6
ByLayer
370
-1
48
1.0
60
0
100
AcDbTrace
10
1500.0
20
-6900.0
30
0.0
11
1590.0
21
-6885.0
31
0.0
12
1590.0
22
-6915.0
32
0.0
13
1590.0
23
-6915.0
33
0.0
39
0.0
210
0.0
220
0.0
230
1.0
0
SOLID
5
360
330
356
100
AcDbEntity
8
0
62
0
6
ByLayer
370
-1
48
1.0
60
0
100
AcDbTrace
10
1950.0
20
-6900.0
30
0.0
11
1860.0
21
-6915.0
31
0.0
12
1860.0
22
-6885.0
32
0.0
13
1860.0
23
-6885.0
33
0.0
39
0.0
210
0.0
220
0.0
230
1.0
0
MTEXT
5
361
330
356
100
AcDbEntity
8
0
62
0
6
ByLayer
370
-1
48
1.0
60
0
100
AcDbMText
10
1725.0
20
-6855.0
30
0.0
210
0.0
220
0.0
230
1.0
1
450.00
40
90.0
41
0.0
44
1.0
50
0.0
71
8
72
5
7
Standard
0
ENDBLK
5
357
330
356
100
AcDbEntity
8
0
100
AcDbBlockEnd
0
BLOCK
5
365
330
363
100
AcDbEntity
8
0
100
AcDbBlockBegin
2
*D38
70
1
10
0.0
20
0.0
30
0.0
3
*D38
0
POINT
5
366
330
363
100
AcDbEntity
8
Defpoints
62
256
6
ByLayer
370
-1
48
1.0
60
0
100
AcDbPoint
10
2500.0
20
-7000.0
30
0.0
39
0.0
210
0.0
220
0.0
230
1.0
50
360.0
0
POINT
5
367
330
363
100
AcDbEntity
8
Defpoints
62
256
6
ByLayer
370
-1
48
1.0
60
0
100
AcDbPoint
10
2050.0
20
-7000.0
30
0.0
39
0.0
210
0.0
220
0.0
230
1.0
50
360.0
0
POINT
5
368
330
363
100
AcDbEntity
8
Defpoints
62
256
6
ByLayer
370
-1
48
1.0
60
0
100
AcDbPoint
10
2050.0
20
-7100.0
30
0.0
39
0.0
210
0.0
220
0.0
230
1.0
50
360.0
0
LINE
5
369
330
363
100
AcDbEntity
8
0
62
0
6
ByBlock
370
-2
48
1.0
60
0
100
AcDbLine
10
2500.0
20
-7031.25
30
0.0
11
2500.0
21
-7190.0
31
0.0
39
0.0
210
0.0
220
0.0
230
1.0
0
LINE
5
36A
330
363
100
AcDbEntity
8
0
62
0
6
ByBlock
370
-2
48
1.0
60
0
100
AcDbLine
10
2050.0
20
-7031.25
30
0.0
11
2050.0
21
-7190.0
31
0.0
39
0.0
210
0.0
220
0.0
230
1.0
0
LINE
5
36B
330
363
100
AcDbEntity
8
0
62
0
6
ByBlock
370
-2
48
1.0
60
0
100
AcDbLine
10
2410.0
20
-7100.0
30
0.0
11
2140.0
21
-7100.0
31
0.0
39
0.0
210
0.0
220
0.0
230
1.0
0
SOLID
5
36C
330
363
100
AcDbEntity
8
0
62
0
6
ByLayer
370
-1
48
1.0
60
0
100
AcDbTrace
10
2500.0
20
-7100.0
30
0.0
11
2410.0
21
-7115.0
31
0.0
12
2410.0
22
-7085.0
32
0.0
13
2410.0
23
-7085.0
33
0.0
39
0.0
210
0.0
220
0.0
230
1.0
0
SOLID
5
36D
330
363
100
AcDbEntity
8
0
62
0
6
ByLayer
370
-1
48
1.0
60
0
100
AcDbTrace
10
2050.0
20
-7100.0
30
0.0
11
2140.0
21
-7085.0
31
0.0
12
2140.0
22
-7115.0
32
0.0
13
2140.0
23
-7115.0
33
0.0
39
0.0
210
0.0
220
0.0
230
1.0
0
MTEXT
5
36E
330
363
100
AcDbEntity
8
0
62
0
6
ByLayer
370
-1
48
1.0
60
0
100
AcDbMText
10
2275.0
20
-7055.0
30
0.0
210
0.0
220
0.0
230
1.0
1
450.00
40
90.0
41
0.0
44
1.0
50
0.0
71
8
72
5
7
Standard
0
ENDBLK
5
364
330
363
100
AcDbEntity
8
0
100
AcDbBlockEnd
0
BLOCK
5
372
330
370
100
AcDbEntity
8
0
100
AcDbBlockBegin
2
*D39
70
1
10
0.0
20
0.0
30
0.0
3
*D39
0
POINT
5
373
330
370
100
AcDbEntity
8
Defpoints
62
256
6
ByLayer
370
-1
48
1.0
60
0
100
AcDbPoint
10
1950.0
20
-7200.0
30
0.0
39
0.0
210
0.0
220
0.0
230
1.0
50
360.0
0
POINT
5
374
330
370
100
AcDbEntity
8
Defpoints
62
256
6
ByLayer
370
-1
48
1.0
60
0
100
AcDbPoint
10
2050.0
20
-7200.0
30
0.0
39
0.0
210
0.0
220
0.0
230
1.0
50
360.0
0
POINT
5
375
330
370
100
AcDbEntity
8
Defpoints
62
256
6
ByLayer
370
-1
48
1.0
60
0
100
AcDbPoint
10
2050.0
20
-7500.0
30
0.0
39
0.0
210
0.0
220
0.0
230
1.0
50
360.0
0
LINE
5
376
330
370
100
AcDbEntity
8
0
62
0
6
ByBlock
370
-2
48
1.0
60
0
100
AcDbLine
10
1950.0
20
-7231.25
30
0.0
11
1950.0
21
-7590.0
31
0.0
39
0.0
210
0.0
220
0.0
230
1.0
0
LINE
5
377
330
370
100
AcDbEntity
8
0
62
0
6
ByBlock
370
-2
48
1.0
60
0
100
AcDbLine
10
2050.0
20
-7231.25
30
0.0
11
2050.0
21
-7590.0
31
0.0
39
0.0
210
0.0
220
0.0
230
1.0
0
LINE
5
378
330
370
100
AcDbEntity
8
0
62
0
6
ByBlock
370
-2
48
1.0
60
0
100
AcDbLine
10
2040.0
20
-7500.0
30
0.0
11
1960.0
21
-7500.0
31
0.0
39
0.0
210
0.0
220
0.0
230
1.0
0
SOLID
5
379
330
370
100
AcDbEntity
8
0
62
0
6
ByLayer
370
-1
48
1.0
60
0
100
AcDbTrace
10
1950.0
20
-7500.0
30
0.0
11
2040.0
21
-7485.0
31
0.0
12
2040.0
22
-7515.0
32
0.0
13
2040.0
23
-7515.0
33
0.0
39
0.0
210
0.0
220
0.0
230
1.0
0
SOLID
5
37A
330
370
100
AcDbEntity
8
0
62
0
6
ByLayer
370
-1
48
1.0
60
0
100
AcDbTrace
10
2050.0
20
-7500.0
30
0.0
11
1960.0
21
-7515.0
31
0.0
12
1960.0
22
-7485.0
32
0.0
13
1960.0
23
-7485.0
33
0.0
39
0.0
210
0.0
220
0.0
230
1.0
0
MTEXT
5
37B
330
370
100
AcDbEntity
8
0
62
0
6
ByLayer
370
-1
48
1.0
60
0
100
AcDbMText
10
2000.0
20
-7455.0
30
0.0
210
0.0
220
0.0
230
1.0
1
100.00
40
90.0
41
0.0
44
1.0
50
0.0
71
8
72
5
7
Standard
0
ENDBLK
5
371
330
370
100
AcDbEntity
8
0
100
AcDbBlockEnd
0
BLOCK
5
37F
330
37D
100
AcDbEntity
8
0
100
AcDbBlockBegin
2
*D40
70
1
10
0.0
20
0.0
30
0.0
3
*D40
0
POINT
5
380
330
37D
100
AcDbEntity
8
Defpoints
62
256
6
ByLayer
370
-1
48
1.0
60
0
100
AcDbPoint
10
1300.0
20
-9000.0
30
0.0
39
0.0
210
0.0
220
0.0
230
1.0
50
360.0
0
POINT
5
381
330
37D
100
AcDbEntity
8
Defpoints
62
256
6
ByLayer
370
-1
48
1.0
60
0
100
AcDbPoint
10
1300.0
20
-7000.0
30
0.0
39
0.0
210
0.0
220
0.0
230
1.0
50
360.0
0
POINT
5
382
330
37D
100
AcDbEntity
8
Defpoints
62
256
6
ByLayer
370
-1
48
1.0
60
0
100
AcDbPoint
10
1200.0
20
-7000.0
30
0.0
39
0.0
210
0.0
220
0.0
230
1.0
50
360.0
0
LINE
5
383
330
37D
100
AcDbEntity
8
0
62
0
6
ByBlock
370
-2
48
1.0
60
0
100
AcDbLine
10
1268.75
20
-9000.0
30
0.0
11
1110.0
21
-9000.0
31
0.0
39
0.0
210
0.0
220
0.0
230
1.0
0
LINE
5
384
330
37D
100
AcDbEntity
8
0
62
0
6
ByBlock
370
-2
48
1.0
60
0
100
AcDbLine
10
1268.75
20
-7000.0
30
0.0
11
1110.0
21
-7000.0
31
0.0
39
0.0
210
0.0
220
0.0
230
1.0
0
LINE
5
385
330
37D
100
AcDbEntity
8
0
62
0
6
ByBlock
370
-2
48
1.0
60
0
100
AcDbLine
10
1200.0
20
-8910.0
30
0.0
11
1200.0
21
-7090.0
31
0.0
39
0.0
210
0.0
220
0.0
230
1.0
0
SOLID
5
386
330
37D
100
AcDbEntity
8
0
62
0
6
ByLayer
370
-1
48
1.0
60
0
100
AcDbTrace
10
1200.0
20
-9000.0
30
0.0
11
1185.0
21
-8910.0
31
0.0
12
1215.0
22
-8910.0
32
0.0
13
1215.0
23
-8910.0
33
0.0
39
0.0
210
0.0
220
0.0
230
1.0
0
SOLID
5
387
330
37D
100
AcDbEntity
8
0
62
0
6
ByLayer
370
-1
48
1.0
60
0
100
AcDbTrace
10
1200.0
20
-7000.0
30
0.0
11
1215.0
21
-7090.0
31
0.0
12
1185.0
22
-7090.0
32
0.0
13
1185.0
23
-7090.0
33
0.0
39
0.0
210
0.0
220
0.0
230
1.0
0
MTEXT
5
388
330
37D
100
AcDbEntity
8
0
62
0
6
ByLayer
370
-1
48
1.0
60
0
100
AcDbMText
10
1155.0
20
-8000.0
30
0.0
210
0.0
220
0.0
230
1.0
1
2000.00
40
90.0
41
0.0
44
1.0
50
90.0
71
8
72
5
7
Standard
0
ENDBLK
5
37E
330
37D
100
AcDbEntity
8
0
100
AcDbBlockEnd
0
BLOCK
5
38C
330
38A
100
AcDbEntity
8
0
100
AcDbBlockBegin
2
*Paper_Space
70
0
10
0.0
20
0.0
30
0.0
3
*Paper_Space
0
ENDBLK
5
38B
330
38A
100
AcDbEntity
8
0
100
AcDbBlockEnd
0
ENDSEC
0
SECTION
2
ENTITIES
0
INSERT
5
1E
330
17
100
AcDbEntity
67
0
8
Bracing
62
256
6
ByLayer
370
-1
48
1.0
60
0
100
AcDbBlockReference
2
Bracing
10
21818.1818181818
20
0.0
30
0.0
41
1.0
42
1.0
43
1.0
50
0.0
210
0.0
220
0.0
230
1.0
0
INSERT
5
2A
330
17
100
AcDbEntity
67
0
8
Bracing
62
256
6
ByLayer
370
-1
48
1.0
60
0
100
AcDbBlockReference
2
Bracing
10
21818.1818181818
20
4000.0
30
0.0
41
1.0
42
1.0
43
1.0
50
0.0
210
0.0
220
0.0
230
1.0
0
INSERT
5
2C
330
17
100
AcDbEntity
67
0
8
Bracing
62
256
6
ByLayer
370
-1
48
1.0
60
0
100
AcDbBlockReference
2
Bracing
10
21818.1818181818
20
8000.0
30
0.0
41
1.0
42
1.0
43
1.0
50
0.0
210
0.0
220
0.0
230
1.0
0
INSERT
5
2E
330
17
100
AcDbEntity
67
0
8
Bracing
62
256
6
ByLayer
370
-1
48
1.0
60
0
100
AcDbBlockReference
2
Bracing
10
21818.1818181818
20
12000.0
30
0.0
41
1.0
42
1.0
43
1.0
50
0.0
210
0.0
220
0.0
230
1.0
0
INSERT
5
30
330
17
100
AcDbEntity
67
0
8
Bracing
62
256
6
ByLayer
370
-1
48
1.0
60
0
100
AcDbBlockReference
2
Bracing
10
21818.1818181818
20
16000.0
30
0.0
41
1.0
42
1.0
43
1.0
50
0.0
210
0.0
220
0.0
230
1.0
0
LINE
5
31
330
17
100
AcDbEntity
67
0
8
Grids
62
256
6
Center
370
-1
48
300.0
60
0
100
AcDbLine
10
0.0
20
-1000.0
30
0.0
11
0.0
21
21000.0
31
0.0
39
0.0
210
0.0
220
0.0
230
1.0
0
CIRCLE
5
34
330
17
100
AcDbEntity
67
0
8
Grids
62
256
6
ByLayer
370
-1
48
1.0
60
0
100
AcDbCircle
10
0.0
20
-1500.0
30
0.0
40
500.0
39
0.0
210
0.0
220
0.0
230
1.0
0
CIRCLE
5
35
330
17
100
AcDbEntity
67
0
8
Grids
62
256
6
ByLayer
370
-1
48
1.0
60
0
100
AcDbCircle
10
0.0
20
21500.0
30
0.0
40
500.0
39
0.0
210
0.0
220
0.0
230
1.0
0
MTEXT
5
36
330
17
100
AcDbEntity
67
0
8
Text
62
256
6
ByLayer
370
-1
48
1.0
60
0
100
AcDbMText
10
-200.0
20
-1400.0
30
0.0
210
0.0
220
0.0
230
1.0
1
1
40
400.0
41
0.0
44
1.0
50
0.0
71
1
72
5
7
Standard
0
MTEXT
5
38
330
17
100
AcDbEntity
67
0
8
Text
62
256
6
ByLayer
370
-1
48
1.0
60
0
100
AcDbMText
10
-200.0
20
21600.0
30
0.0
210
0.0
220
0.0
230
1.0
1
1
40
400.0
41
0.0
44
1.0
50
0.0
71
1
72
5
7
Standard
0
INSERT
5
3A
330
17
100
AcDbEntity
67
0
8
Columns
62
256
6
ByLayer
370
-1
48
1.0
60
0
100
AcDbBlockReference
2
Vertical Down I Column
10
0.0
20
0.0
30
0.0
41
1.0
42
1.0
43
1.0
50
0.0
210
0.0
220
0.0
230
1.0
0
INSERT
5
4F
330
17
100
AcDbEntity
67
0
8
Columns
62
256
6
ByLayer
370
-1
48
1.0
60
0
100
AcDbBlockReference
2
Vertical Down I Column
10
0.0
20
18000.0
30
0.0
41
1.0
42
1.0
43
1.0
50
0.0
210
0.0
220
0.0
230
1.0
0
DIMENSION
5
50
330
17
100
AcDbEntity
67
0
8
Dimensions
62
256
6
ByLayer
370
-1
48
1.0
60
0
100
AcDbDimension
2
*D1
10
5454.54545454546
20
-500.0
30
0.0
11
2727.27272727273
21
-500.0
31
0.0
70
33
71
5
72
1
41
1.0
210
0.0
220
0.0
230
1.0
3
karim
100
AcDbAlignedDimension
13
0.0
23
0.0
33
0.0
14
5454.54545454546
24
0.0
34
0.0
0
LINE
5
60
330
17
100
AcDbEntity
67
0
8
Grids
62
256
6
Center
370
-1
48
300.0
60
0
100
AcDbLine
10
5454.54545454546
20
-1000.0
30
0.0
11
5454.54545454546
21
21000.0
31
0.0
39
0.0
210
0.0
220
0.0
230
1.0
0
CIRCLE
5
61
330
17
100
AcDbEntity
67
0
8
Grids
62
256
6
ByLayer
370
-1
48
1.0
60
0
100
AcDbCircle
10
5454.54545454546
20
-1500.0
30
0.0
40
500.0
39
0.0
210
0.0
220
0.0
230
1.0
0
CIRCLE
5
62
330
17
100
AcDbEntity
67
0
8
Grids
62
256
6
ByLayer
370
-1
48
1.0
60
0
100
AcDbCircle
10
5454.54545454546
20
21500.0
30
0.0
40
500.0
39
0.0
210
0.0
220
0.0
230
1.0
0
MTEXT
5
63
330
17
100
AcDbEntity
67
0
8
Text
62
256
6
ByLayer
370
-1
48
1.0
60
0
100
AcDbMText
10
5254.54545454546
20
-1400.0
30
0.0
210
0.0
220
0.0
230
1.0
1
2
40
400.0
41
0.0
44
1.0
50
0.0
71
1
72
5
7
Standard
0
MTEXT
5
64
330
17
100
AcDbEntity
67
0
8
Text
62
256
6
ByLayer
370
-1
48
1.0
60
0
100
AcDbMText
10
5254.54545454546
20
21600.0
30
0.0
210
0.0
220
0.0
230
1.0
1
2
40
400.0
41
0.0
44
1.0
50
0.0
71
1
72
5
7
Standard
0
INSERT
5
66
330
17
100
AcDbEntity
67
0
8
Columns
62
256
6
ByLayer
370
-1
48
1.0
60
0
100
AcDbBlockReference
2
Vertical Down I Column
10
5454.54545454546
20
0.0
30
0.0
41
1.0
42
1.0
43
1.0
50
0.0
210
0.0
220
0.0
230
1.0
0
INSERT
5
68
330
17
100
AcDbEntity
67
0
8
Columns
62
256
6
ByLayer
370
-1
48
1.0
60
0
100
AcDbBlockReference
2
Vertical Down I Column
10
5454.54545454546
20
18000.0
30
0.0
41
1.0
42
1.0
43
1.0
50
0.0
210
0.0
220
0.0
230
1.0
0
DIMENSION
5
69
330
17
100
AcDbEntity
67
0
8
Dimensions
62
256
6
ByLayer
370
-1
48
1.0
60
0
100
AcDbDimension
2
*D2
10
10909.0909090909
20
-500.0
30
0.0
11
8181.81818181818
21
-500.0
31
0.0
70
33
71
5
72
1
41
1.0
210
0.0
220
0.0
230
1.0
3
karim
100
AcDbAlignedDimension
13
5454.54545454546
23
0.0
33
0.0
14
10909.0909090909
24
0.0
34
0.0
0
LINE
5
76
330
17
100
AcDbEntity
67
0
8
Grids
62
256
6
Center
370
-1
48
300.0
60
0
100
AcDbLine
10
10909.0909090909
20
-1000.0
30
0.0
11
10909.0909090909
21
21000.0
31
0.0
39
0.0
210
0.0
220
0.0
230
1.0
0
CIRCLE
5
77
330
17
100
AcDbEntity
67
0
8
Grids
62
256
6
ByLayer
370
-1
48
1.0
60
0
100
AcDbCircle
10
10909.0909090909
20
-1500.0
30
0.0
40
500.0
39
0.0
210
0.0
220
0.0
230
1.0
0
CIRCLE
5
78
330
17
100
AcDbEntity
67
0
8
Grids
62
256
6
ByLayer
370
-1
48
1.0
60
0
100
AcDbCircle
10
10909.0909090909
20
21500.0
30
0.0
40
500.0
39
0.0
210
0.0
220
0.0
230
1.0
0
MTEXT
5
79
330
17
100
AcDbEntity
67
0
8
Text
62
256
6
ByLayer
370
-1
48
1.0
60
0
100
AcDbMText
10
10709.0909090909
20
-1400.0
30
0.0
210
0.0
220
0.0
230
1.0
1
3
40
400.0
41
0.0
44
1.0
50
0.0
71
1
72
5
7
Standard
0
MTEXT
5
7A
330
17
100
AcDbEntity
67
0
8
Text
62
256
6
ByLayer
370
-1
48
1.0
60
0
100
AcDbMText
10
10709.0909090909
20
21600.0
30
0.0
210
0.0
220
0.0
230
1.0
1
3
40
400.0
41
0.0
44
1.0
50
0.0
71
1
72
5
7
Standard
0
INSERT
5
7C
330
17
100
AcDbEntity
67
0
8
Columns
62
256
6
ByLayer
370
-1
48
1.0
60
0
100
AcDbBlockReference
2
Vertical Down I Column
10
10909.0909090909
20
0.0
30
0.0
41
1.0
42
1.0
43
1.0
50
0.0
210
0.0
220
0.0
230
1.0
0
INSERT
5
7E
330
17
100
AcDbEntity
67
0
8
Columns
62
256
6
ByLayer
370
-1
48
1.0
60
0
100
AcDbBlockReference
2
Vertical Down I Column
10
10909.0909090909
20
18000.0
30
0.0
41
1.0
42
1.0
43
1.0
50
0.0
210
0.0
220
0.0
230
1.0
0
DIMENSION
5
7F
330
17
100
AcDbEntity
67
0
8
Dimensions
62
256
6
ByLayer
370
-1
48
1.0
60
0
100
AcDbDimension
2
*D3
10
16363.6363636364
20
-500.0
30
0.0
11
13636.3636363636
21
-500.0
31
0.0
70
33
71
5
72
1
41
1.0
210
0.0
220
0.0
230
1.0
3
karim
100
AcDbAlignedDimension
13
10909.0909090909
23
0.0
33
0.0
14
16363.6363636364
24
0.0
34
0.0
0
LINE
5
8C
330
17
100
AcDbEntity
67
0
8
Grids
62
256
6
Center
370
-1
48
300.0
60
0
100
AcDbLine
10
16363.6363636364
20
-1000.0
30
0.0
11
16363.6363636364
21
21000.0
31
0.0
39
0.0
210
0.0
220
0.0
230
1.0
0
CIRCLE
5
8D
330
17
100
AcDbEntity
67
0
8
Grids
62
256
6
ByLayer
370
-1
48
1.0
60
0
100
AcDbCircle
10
16363.6363636364
20
-1500.0
30
0.0
40
500.0
39
0.0
210
0.0
220
0.0
230
1.0
0
CIRCLE
5
8E
330
17
100
AcDbEntity
67
0
8
Grids
62
256
6
ByLayer
370
-1
48
1.0
60
0
100
AcDbCircle
10
16363.6363636364
20
21500.0
30
0.0
40
500.0
39
0.0
210
0.0
220
0.0
230
1.0
0
MTEXT
5
8F
330
17
100
AcDbEntity
67
0
8
Text
62
256
6
ByLayer
370
-1
48
1.0
60
0
100
AcDbMText
10
16163.6363636364
20
-1400.0
30
0.0
210
0.0
220
0.0
230
1.0
1
4
40
400.0
41
0.0
44
1.0
50
0.0
71
1
72
5
7
Standard
0
MTEXT
5
90
330
17
100
AcDbEntity
67
0
8
Text
62
256
6
ByLayer
370
-1
48
1.0
60
0
100
AcDbMText
10
16163.6363636364
20
21600.0
30
0.0
210
0.0
220
0.0
230
1.0
1
4
40
400.0
41
0.0
44
1.0
50
0.0
71
1
72
5
7
Standard
0
INSERT
5
92
330
17
100
AcDbEntity
67
0
8
Columns
62
256
6
ByLayer
370
-1
48
1.0
60
0
100
AcDbBlockReference
2
Vertical Down I Column
10
16363.6363636364
20
0.0
30
0.0
41
1.0
42
1.0
43
1.0
50
0.0
210
0.0
220
0.0
230
1.0
0
INSERT
5
94
330
17
100
AcDbEntity
67
0
8
Columns
62
256
6
ByLayer
370
-1
48
1.0
60
0
100
AcDbBlockReference
2
Vertical Down I Column
10
16363.6363636364
20
18000.0
30
0.0
41
1.0
42
1.0
43
1.0
50
0.0
210
0.0
220
0.0
230
1.0
0
DIMENSION
5
95
330
17
100
AcDbEntity
67
0
8
Dimensions
62
256
6
ByLayer
370
-1
48
1.0
60
0
100
AcDbDimension
2
*D4
10
21818.1818181818
20
-500.0
30
0.0
11
19090.9090909091
21
-500.0
31
0.0
70
33
71
5
72
1
41
1.0
210
0.0
220
0.0
230
1.0
3
karim
100
AcDbAlignedDimension
13
16363.6363636364
23
0.0
33
0.0
14
21818.1818181818
24
0.0
34
0.0
0
LINE
5
A2
330
17
100
AcDbEntity
67
0
8
Grids
62
256
6
Center
370
-1
48
300.0
60
0
100
AcDbLine
10
21818.1818181818
20
-1000.0
30
0.0
11
21818.1818181818
21
21000.0
31
0.0
39
0.0
210
0.0
220
0.0
230
1.0
0
CIRCLE
5
A3
330
17
100
AcDbEntity
67
0
8
Grids
62
256
6
ByLayer
370
-1
48
1.0
60
0
100
AcDbCircle
10
21818.1818181818
20
-1500.0
30
0.0
40
500.0
39
0.0
210
0.0
220
0.0
230
1.0
0
CIRCLE
5
A4
330
17
100
AcDbEntity
67
0
8
Grids
62
256
6
ByLayer
370
-1
48
1.0
60
0
100
AcDbCircle
10
21818.1818181818
20
21500.0
30
0.0
40
500.0
39
0.0
210
0.0
220
0.0
230
1.0
0
MTEXT
5
A5
330
17
100
AcDbEntity
67
0
8
Text
62
256
6
ByLayer
370
-1
48
1.0
60
0
100
AcDbMText
10
21618.1818181818
20
-1400.0
30
0.0
210
0.0
220
0.0
230
1.0
1
5
40
400.0
41
0.0
44
1.0
50
0.0
71
1
72
5
7
Standard
0
MTEXT
5
A6
330
17
100
AcDbEntity
67
0
8
Text
62
256
6
ByLayer
370
-1
48
1.0
60
0
100
AcDbMText
10
21618.1818181818
20
21600.0
30
0.0
210
0.0
220
0.0
230
1.0
1
5
40
400.0
41
0.0
44
1.0
50
0.0
71
1
72
5
7
Standard
0
INSERT
5
A8
330
17
100
AcDbEntity
67
0
8
Columns
62
256
6
ByLayer
370
-1
48
1.0
60
0
100
AcDbBlockReference
2
Vertical Down I Column
10
21818.1818181818
20
0.0
30
0.0
41
1.0
42
1.0
43
1.0
50
0.0
210
0.0
220
0.0
230
1.0
0
INSERT
5
AA
330
17
100
AcDbEntity
67
0
8
Columns
62
256
6
ByLayer
370
-1
48
1.0
60
0
100
AcDbBlockReference
2
Vertical Down I Column
10
21818.1818181818
20
18000.0
30
0.0
41
1.0
42
1.0
43
1.0
50
0.0
210
0.0
220
0.0
230
1.0
0
DIMENSION
5
AB
330
17
100
AcDbEntity
67
0
8
Dimensions
62
256
6
ByLayer
370
-1
48
1.0
60
0
100
AcDbDimension
2
*D5
10
27272.7272727273
20
-500.0
30
0.0
11
24545.4545454545
21
-500.0
31
0.0
70
33
71
5
72
1
41
1.0
210
0.0
220
0.0
230
1.0
3
karim
100
AcDbAlignedDimension
13
21818.1818181818
23
0.0
33
0.0
14
27272.7272727273
24
0.0
34
0.0
0
LINE
5
B8
330
17
100
AcDbEntity
67
0
8
Grids
62
256
6
Center
370
-1
48
300.0
60
0
100
AcDbLine
10
27272.7272727273
20
-1000.0
30
0.0
11
27272.7272727273
21
21000.0
31
0.0
39
0.0
210
0.0
220
0.0
230
1.0
0
CIRCLE
5
B9
330
17
100
AcDbEntity
67
0
8
Grids
62
256
6
ByLayer
370
-1
48
1.0
60
0
100
AcDbCircle
10
27272.7272727273
20
-1500.0
30
0.0
40
500.0
39
0.0
210
0.0
220
0.0
230
1.0
0
CIRCLE
5
BA
330
17
100
AcDbEntity
67
0
8
Grids
62
256
6
ByLayer
370
-1
48
1.0
60
0
100
AcDbCircle
10
27272.7272727273
20
21500.0
30
0.0
40
500.0
39
0.0
210
0.0
220
0.0
230
1.0
0
MTEXT
5
BB
330
17
100
AcDbEntity
67
0
8
Text
62
256
6
ByLayer
370
-1
48
1.0
60
0
100
AcDbMText
10
27072.7272727273
20
-1400.0
30
0.0
210
0.0
220
0.0
230
1.0
1
6
40
400.0
41
0.0
44
1.0
50
0.0
71
1
72
5
7
Standard
0
MTEXT
5
BC
330
17
100
AcDbEntity
67
0
8
Text
62
256
6
ByLayer
370
-1
48
1.0
60
0
100
AcDbMText
10
27072.7272727273
20
21600.0
30
0.0
210
0.0
220
0.0
230
1.0
1
6
40
400.0
41
0.0
44
1.0
50
0.0
71
1
72
5
7
Standard
0
INSERT
5
BE
330
17
100
AcDbEntity
67
0
8
Columns
62
256
6
ByLayer
370
-1
48
1.0
60
0
100
AcDbBlockReference
2
Vertical Down I Column
10
27272.7272727273
20
0.0
30
0.0
41
1.0
42
1.0
43
1.0
50
0.0
210
0.0
220
0.0
230
1.0
0
INSERT
5
C0
330
17
100
AcDbEntity
67
0
8
Columns
62
256
6
ByLayer
370
-1
48
1.0
60
0
100
AcDbBlockReference
2
Vertical Down I Column
10
27272.7272727273
20
18000.0
30
0.0
41
1.0
42
1.0
43
1.0
50
0.0
210
0.0
220
0.0
230
1.0
0
DIMENSION
5
C1
330
17
100
AcDbEntity
67
0
8
Dimensions
62
256
6
ByLayer
370
-1
48
1.0
60
0
100
AcDbDimension
2
*D6
10
32727.2727272727
20
-500.0
30
0.0
11
30000.0
21
-500.0
31
0.0
70
33
71
5
72
1
41
1.0
210
0.0
220
0.0
230
1.0
3
karim
100
AcDbAlignedDimension
13
27272.7272727273
23
0.0
33
0.0
14
32727.2727272727
24
0.0
34
0.0
0
LINE
5
CE
330
17
100
AcDbEntity
67
0
8
Grids
62
256
6
Center
370
-1
48
300.0
60
0
100
AcDbLine
10
32727.2727272727
20
-1000.0
30
0.0
11
32727.2727272727
21
21000.0
31
0.0
39
0.0
210
0.0
220
0.0
230
1.0
0
CIRCLE
5
CF
330
17
100
AcDbEntity
67
0
8
Grids
62
256
6
ByLayer
370
-1
48
1.0
60
0
100
AcDbCircle
10
32727.2727272727
20
-1500.0
30
0.0
40
500.0
39
0.0
210
0.0
220
0.0
230
1.0
0
CIRCLE
5
D0
330
17
100
AcDbEntity
67
0
8
Grids
62
256
6
ByLayer
370
-1
48
1.0
60
0
100
AcDbCircle
10
32727.2727272727
20
21500.0
30
0.0
40
500.0
39
0.0
210
0.0
220
0.0
230
1.0
0
MTEXT
5
D1
330
17
100
AcDbEntity
67
0
8
Text
62
256
6
ByLayer
370
-1
48
1.0
60
0
100
AcDbMText
10
32527.2727272727
20
-1400.0
30
0.0
210
0.0
220
0.0
230
1.0
1
7
40
400.0
41
0.0
44
1.0
50
0.0
71
1
72
5
7
Standard
0
MTEXT
5
D2
330
17
100
AcDbEntity
67
0
8
Text
62
256
6
ByLayer
370
-1
48
1.0
60
0
100
AcDbMText
10
32527.2727272727
20
21600.0
30
0.0
210
0.0
220
0.0
230
1.0
1
7
40
400.0
41
0.0
44
1.0
50
0.0
71
1
72
5
7
Standard
0
INSERT
5
D4
330
17
100
AcDbEntity
67
0
8
Columns
62
256
6
ByLayer
370
-1
48
1.0
60
0
100
AcDbBlockReference
2
Vertical Down I Column
10
32727.2727272727
20
0.0
30
0.0
41
1.0
42
1.0
43
1.0
50
0.0
210
0.0
220
0.0
230
1.0
0
INSERT
5
D6
330
17
100
AcDbEntity
67
0
8
Columns
62
256
6
ByLayer
370
-1
48
1.0
60
0
100
AcDbBlockReference
2
Vertical Down I Column
10
32727.2727272727
20
18000.0
30
0.0
41
1.0
42
1.0
43
1.0
50
0.0
210
0.0
220
0.0
230
1.0
0
DIMENSION
5
D7
330
17
100
AcDbEntity
67
0
8
Dimensions
62
256
6
ByLayer
370
-1
48
1.0
60
0
100
AcDbDimension
2
*D7
10
38181.8181818182
20
-500.0
30
0.0
11
35454.5454545455
21
-500.0
31
0.0
70
33
71
5
72
1
41
1.0
210
0.0
220
0.0
230
1.0
3
karim
100
AcDbAlignedDimension
13
32727.2727272727
23
0.0
33
0.0
14
38181.8181818182
24
0.0
34
0.0
0
LINE
5
E4
330
17
100
AcDbEntity
67
0
8
Grids
62
256
6
Center
370
-1
48
300.0
60
0
100
AcDbLine
10
38181.8181818182
20
-1000.0
30
0.0
11
38181.8181818182
21
21000.0
31
0.0
39
0.0
210
0.0
220
0.0
230
1.0
0
CIRCLE
5
E5
330
17
100
AcDbEntity
67
0
8
Grids
62
256
6
ByLayer
370
-1
48
1.0
60
0
100
AcDbCircle
10
38181.8181818182
20
-1500.0
30
0.0
40
500.0
39
0.0
210
0.0
220
0.0
230
1.0
0
CIRCLE
5
E6
330
17
100
AcDbEntity
67
0
8
Grids
62
256
6
ByLayer
370
-1
48
1.0
60
0
100
AcDbCircle
10
38181.8181818182
20
21500.0
30
0.0
40
500.0
39
0.0
210
0.0
220
0.0
230
1.0
0
MTEXT
5
E7
330
17
100
AcDbEntity
67
0
8
Text
62
256
6
ByLayer
370
-1
48
1.0
60
0
100
AcDbMText
10
37981.8181818182
20
-1400.0
30
0.0
210
0.0
220
0.0
230
1.0
1
8
40
400.0
41
0.0
44
1.0
50
0.0
71
1
72
5
7
Standard
0
MTEXT
5
E8
330
17
100
AcDbEntity
67
0
8
Text
62
256
6
ByLayer
370
-1
48
1.0
60
0
100
AcDbMText
10
37981.8181818182
20
21600.0
30
0.0
210
0.0
220
0.0
230
1.0
1
8
40
400.0
41
0.0
44
1.0
50
0.0
71
1
72
5
7
Standard
0
INSERT
5
EA
330
17
100
AcDbEntity
67
0
8
Columns
62
256
6
ByLayer
370
-1
48
1.0
60
0
100
AcDbBlockReference
2
Vertical Down I Column
10
38181.8181818182
20
0.0
30
0.0
41
1.0
42
1.0
43
1.0
50
0.0
210
0.0
220
0.0
230
1.0
0
INSERT
5
EC
330
17
100
AcDbEntity
67
0
8
Columns
62
256
6
ByLayer
370
-1
48
1.0
60
0
100
AcDbBlockReference
2
Vertical Down I Column
10
38181.8181818182
20
18000.0
30
0.0
41
1.0
42
1.0
43
1.0
50
0.0
210
0.0
220
0.0
230
1.0
0
DIMENSION
5
ED
330
17
100
AcDbEntity
67
0
8
Dimensions
62
256
6
ByLayer
370
-1
48
1.0
60
0
100
AcDbDimension
2
*D8
10
43636.3636363636
20
-500.0
30
0.0
11
40909.0909090909
21
-500.0
31
0.0
70
33
71
5
72
1
41
1.0
210
0.0
220
0.0
230
1.0
3
karim
100
AcDbAlignedDimension
13
38181.8181818182
23
0.0
33
0.0
14
43636.3636363636
24
0.0
34
0.0
0
LINE
5
FA
330
17
100
AcDbEntity
67
0
8
Grids
62
256
6
Center
370
-1
48
300.0
60
0
100
AcDbLine
10
43636.3636363636
20
-1000.0
30
0.0
11
43636.3636363636
21
21000.0
31
0.0
39
0.0
210
0.0
220
0.0
230
1.0
0
CIRCLE
5
FB
330
17
100
AcDbEntity
67
0
8
Grids
62
256
6
ByLayer
370
-1
48
1.0
60
0
100
AcDbCircle
10
43636.3636363636
20
-1500.0
30
0.0
40
500.0
39
0.0
210
0.0
220
0.0
230
1.0
0
CIRCLE
5
FC
330
17
100
AcDbEntity
67
0
8
Grids
62
256
6
ByLayer
370
-1
48
1.0
60
0
100
AcDbCircle
10
43636.3636363636
20
21500.0
30
0.0
40
500.0
39
0.0
210
0.0
220
0.0
230
1.0
0
MTEXT
5
FD
330
17
100
AcDbEntity
67
0
8
Text
62
256
6
ByLayer
370
-1
48
1.0
60
0
100
AcDbMText
10
43436.3636363636
20
-1400.0
30
0.0
210
0.0
220
0.0
230
1.0
1
9
40
400.0
41
0.0
44
1.0
50
0.0
71
1
72
5
7
Standard
0
MTEXT
5
FE
330
17
100
AcDbEntity
67
0
8
Text
62
256
6
ByLayer
370
-1
48
1.0
60
0
100
AcDbMText
10
43436.3636363636
20
21600.0
30
0.0
210
0.0
220
0.0
230
1.0
1
9
40
400.0
41
0.0
44
1.0
50
0.0
71
1
72
5
7
Standard
0
INSERT
5
100
330
17
100
AcDbEntity
67
0
8
Columns
62
256
6
ByLayer
370
-1
48
1.0
60
0
100
AcDbBlockReference
2
Vertical Down I Column
10
43636.3636363636
20
0.0
30
0.0
41
1.0
42
1.0
43
1.0
50
0.0
210
0.0
220
0.0
230
1.0
0
INSERT
5
102
330
17
100
AcDbEntity
67
0
8
Columns
62
256
6
ByLayer
370
-1
48
1.0
60
0
100
AcDbBlockReference
2
Vertical Down I Column
10
43636.3636363636
20
18000.0
30
0.0
41
1.0
42
1.0
43
1.0
50
0.0
210
0.0
220
0.0
230
1.0
0
DIMENSION
5
103
330
17
100
AcDbEntity
67
0
8
Dimensions
62
256
6
ByLayer
370
-1
48
1.0
60
0
100
AcDbDimension
2
*D9
10
49090.9090909091
20
-500.0
30
0.0
11
46363.6363636364
21
-500.0
31
0.0
70
33
71
5
72
1
41
1.0
210
0.0
220
0.0
230
1.0
3
karim
100
AcDbAlignedDimension
13
43636.3636363636
23
0.0
33
0.0
14
49090.9090909091
24
0.0
34
0.0
0
LINE
5
110
330
17
100
AcDbEntity
67
0
8
Grids
62
256
6
Center
370
-1
48
300.0
60
0
100
AcDbLine
10
49090.9090909091
20
-1000.0
30
0.0
11
49090.9090909091
21
21000.0
31
0.0
39
0.0
210
0.0
220
0.0
230
1.0
0
CIRCLE
5
111
330
17
100
AcDbEntity
67
0
8
Grids
62
256
6
ByLayer
370
-1
48
1.0
60
0
100
AcDbCircle
10
49090.9090909091
20
-1500.0
30
0.0
40
500.0
39
0.0
210
0.0
220
0.0
230
1.0
0
CIRCLE
5
112
330
17
100
AcDbEntity
67
0
8
Grids
62
256
6
ByLayer
370
-1
48
1.0
60
0
100
AcDbCircle
10
49090.9090909091
20
21500.0
30
0.0
40
500.0
39
0.0
210
0.0
220
0.0
230
1.0
0
MTEXT
5
113
330
17
100
AcDbEntity
67
0
8
Text
62
256
6
ByLayer
370
-1
48
1.0
60
0
100
AcDbMText
10
48890.9090909091
20
-1400.0
30
0.0
210
0.0
220
0.0
230
1.0
1
10
40
400.0
41
0.0
44
1.0
50
0.0
71
1
72
5
7
Standard
0
MTEXT
5
114
330
17
100
AcDbEntity
67
0
8
Text
62
256
6
ByLayer
370
-1
48
1.0
60
0
100
AcDbMText
10
48890.9090909091
20
21600.0
30
0.0
210
0.0
220
0.0
230
1.0
1
10
40
400.0
41
0.0
44
1.0
50
0.0
71
1
72
5
7
Standard
0
INSERT
5
116
330
17
100
AcDbEntity
67
0
8
Columns
62
256
6
ByLayer
370
-1
48
1.0
60
0
100
AcDbBlockReference
2
Vertical Down I Column
10
49090.9090909091
20
0.0
30
0.0
41
1.0
42
1.0
43
1.0
50
0.0
210
0.0
220
0.0
230
1.0
0
INSERT
5
118
330
17
100
AcDbEntity
67
0
8
Columns
62
256
6
ByLayer
370
-1
48
1.0
60
0
100
AcDbBlockReference
2
Vertical Down I Column
10
49090.9090909091
20
18000.0
30
0.0
41
1.0
42
1.0
43
1.0
50
0.0
210
0.0
220
0.0
230
1.0
0
DIMENSION
5
119
330
17
100
AcDbEntity
67
0
8
Dimensions
62
256
6
ByLayer
370
-1
48
1.0
60
0
100
AcDbDimension
2
*D10
10
54545.4545454546
20
-500.0
30
0.0
11
51818.1818181818
21
-500.0
31
0.0
70
33
71
5
72
1
41
1.0
210
0.0
220
0.0
230
1.0
3
karim
100
AcDbAlignedDimension
13
49090.9090909091
23
0.0
33
0.0
14
54545.4545454546
24
0.0
34
0.0
0
LINE
5
126
330
17
100
AcDbEntity
67
0
8
Grids
62
256
6
Center
370
-1
48
300.0
60
0
100
AcDbLine
10
54545.4545454546
20
-1000.0
30
0.0
11
54545.4545454546
21
21000.0
31
0.0
39
0.0
210
0.0
220
0.0
230
1.0
0
CIRCLE
5
127
330
17
100
AcDbEntity
67
0
8
Grids
62
256
6
ByLayer
370
-1
48
1.0
60
0
100
AcDbCircle
10
54545.4545454546
20
-1500.0
30
0.0
40
500.0
39
0.0
210
0.0
220
0.0
230
1.0
0
CIRCLE
5
128
330
17
100
AcDbEntity
67
0
8
Grids
62
256
6
ByLayer
370
-1
48
1.0
60
0
100
AcDbCircle
10
54545.4545454546
20
21500.0
30
0.0
40
500.0
39
0.0
210
0.0
220
0.0
230
1.0
0
MTEXT
5
129
330
17
100
AcDbEntity
67
0
8
Text
62
256
6
ByLayer
370
-1
48
1.0
60
0
100
AcDbMText
10
54345.4545454546
20
-1400.0
30
0.0
210
0.0
220
0.0
230
1.0
1
11
40
400.0
41
0.0
44
1.0
50
0.0
71
1
72
5
7
Standard
0
MTEXT
5
12A
330
17
100
AcDbEntity
67
0
8
Text
62
256
6
ByLayer
370
-1
48
1.0
60
0
100
AcDbMText
10
54345.4545454546
20
21600.0
30
0.0
210
0.0
220
0.0
230
1.0
1
11
40
400.0
41
0.0
44
1.0
50
0.0
71
1
72
5
7
Standard
0
INSERT
5
12C
330
17
100
AcDbEntity
67
0
8
Columns
62
256
6
ByLayer
370
-1
48
1.0
60
0
100
AcDbBlockReference
2
Vertical Down I Column
10
54545.4545454546
20
0.0
30
0.0
41
1.0
42
1.0
43
1.0
50
0.0
210
0.0
220
0.0
230
1.0
0
INSERT
5
12E
330
17
100
AcDbEntity
67
0
8
Columns
62
256
6
ByLayer
370
-1
48
1.0
60
0
100
AcDbBlockReference
2
Vertical Down I Column
10
54545.4545454546
20
18000.0
30
0.0
41
1.0
42
1.0
43
1.0
50
0.0
210
0.0
220
0.0
230
1.0
0
LINE
5
12F
330
17
100
AcDbEntity
67
0
8
Grids
62
256
6
Center
370
-1
48
150.0
60
0
100
AcDbLine
10
-1000.0
20
0.0
30
0.0
11
61000.0
21
0.0
31
0.0
39
0.0
210
0.0
220
0.0
230
1.0
0
CIRCLE
5
130
330
17
100
AcDbEntity
67
0
8
Grids
62
256
6
ByLayer
370
-1
48
1.0
60
0
100
AcDbCircle
10
-1500.0
20
0.0
30
0.0
40
500.0
39
0.0
210
0.0
220
0.0
230
1.0
0
CIRCLE
5
131
330
17
100
AcDbEntity
67
0
8
Grids
62
256
6
ByLayer
370
-1
48
1.0
60
0
100
AcDbCircle
10
61500.0
20
0.0
30
0.0
40
500.0
39
0.0
210
0.0
220
0.0
230
1.0
0
MTEXT
5
132
330
17
100
AcDbEntity
67
0
8
Text
62
256
6
ByLayer
370
-1
48
1.0
60
0
100
AcDbMText
10
-1700.0
20
100.0
30
0.0
210
0.0
220
0.0
230
1.0
1
A
40
400.0
41
0.0
44
1.0
50
0.0
71
1
72
5
7
Standard
0
MTEXT
5
133
330
17
100
AcDbEntity
67
0
8
Text
62
256
6
ByLayer
370
-1
48
1.0
60
0
100
AcDbMText
10
61300.0
20
100.0
30
0.0
210
0.0
220
0.0
230
1.0
1
A
40
400.0
41
0.0
44
1.0
50
0.0
71
1
72
5
7
Standard
0
INSERT
5
135
330
17
100
AcDbEntity
67
0
8
Columns
62
256
6
ByLayer
370
-1
48
1.0
60
0
100
AcDbBlockReference
2
Horizontal Left I beam
10
0.0
20
2000.0
30
0.0
41
1.0
42
1.0
43
1.0
50
0.0
210
0.0
220
0.0
230
1.0
0
INSERT
5
149
330
17
100
AcDbEntity
67
0
8
Columns
62
256
6
ByLayer
370
-1
48
1.0
60
0
100
AcDbBlockReference
2
Horizontal right I Column
10
58000.0
20
2000.0
30
0.0
41
1.0
42
1.0
43
1.0
50
0.0
210
0.0
220
0.0
230
1.0
0
DIMENSION
5
15C
330
17
100
AcDbEntity
67
0
8
Dimensions
62
256
6
ByLayer
370
-1
48
1.0
60
0
100
AcDbDimension
2
*D11
10
60500.0
20
2000.0
30
0.0
11
60500.0
21
1000.0
31
0.0
70
33
71
5
72
1
41
1.0
210
0.0
220
0.0
230
1.0
3
karim
100
AcDbAlignedDimension
13
60000.0
23
0.0
33
0.0
14
60000.0
24
2000.0
34
0.0
0
LINE
5
169
330
17
100
AcDbEntity
67
0
8
Grids
62
256
6
Center
370
-1
48
150.0
60
0
100
AcDbLine
10
-1000.0
20
2000.0
30
0.0
11
61000.0
21
2000.0
31
0.0
39
0.0
210
0.0
220
0.0
230
1.0
0
CIRCLE
5
16A
330
17
100
AcDbEntity
67
0
8
Grids
62
256
6
ByLayer
370
-1
48
1.0
60
0
100
AcDbCircle
10
-1500.0
20
2000.0
30
0.0
40
500.0
39
0.0
210
0.0
220
0.0
230
1.0
0
CIRCLE
5
16B
330
17
100
AcDbEntity
67
0
8
Grids
62
256
6
ByLayer
370
-1
48
1.0
60
0
100
AcDbCircle
10
61500.0
20
2000.0
30
0.0
40
500.0
39
0.0
210
0.0
220
0.0
230
1.0
0
MTEXT
5
16C
330
17
100
AcDbEntity
67
0
8
Text
62
256
6
ByLayer
370
-1
48
1.0
60
0
100
AcDbMText
10
-1700.0
20
2100.0
30
0.0
210
0.0
220
0.0
230
1.0
1
B
40
400.0
41
0.0
44
1.0
50
0.0
71
1
72
5
7
Standard
0
MTEXT
5
16D
330
17
100
AcDbEntity
67
0
8
Text
62
256
6
ByLayer
370
-1
48
1.0
60
0
100
AcDbMText
10
61300.0
20
2100.0
30
0.0
210
0.0
220
0.0
230
1.0
1
B
40
400.0
41
0.0
44
1.0
50
0.0
71
1
72
5
7
Standard
0
INSERT
5
16F
330
17
100
AcDbEntity
67
0
8
Columns
62
256
6
ByLayer
370
-1
48
1.0
60
0
100
AcDbBlockReference
2
Horizontal Left I beam
10
0.0
20
4000.0
30
0.0
41
1.0
42
1.0
43
1.0
50
0.0
210
0.0
220
0.0
230
1.0
0
INSERT
5
171
330
17
100
AcDbEntity
67
0
8
Columns
62
256
6
ByLayer
370
-1
48
1.0
60
0
100
AcDbBlockReference
2
Horizontal right I Column
10
58000.0
20
4000.0
30
0.0
41
1.0
42
1.0
43
1.0
50
0.0
210
0.0
220
0.0
230
1.0
0
DIMENSION
5
172
330
17
100
AcDbEntity
67
0
8
Dimensions
62
256
6
ByLayer
370
-1
48
1.0
60
0
100
AcDbDimension
2
*D12
10
60500.0
20
4000.0
30
0.0
11
60500.0
21
3000.0
31
0.0
70
33
71
5
72
1
41
1.0
210
0.0
220
0.0
230
1.0
3
karim
100
AcDbAlignedDimension
13
60000.0
23
2000.0
33
0.0
14
60000.0
24
4000.0
34
0.0
0
LINE
5
17F
330
17
100
AcDbEntity
67
0
8
Grids
62
256
6
Center
370
-1
48
150.0
60
0
100
AcDbLine
10
-1000.0
20
4000.0
30
0.0
11
61000.0
21
4000.0
31
0.0
39
0.0
210
0.0
220
0.0
230
1.0
0
CIRCLE
5
180
330
17
100
AcDbEntity
67
0
8
Grids
62
256
6
ByLayer
370
-1
48
1.0
60
0
100
AcDbCircle
10
-1500.0
20
4000.0
30
0.0
40
500.0
39
0.0
210
0.0
220
0.0
230
1.0
0
CIRCLE
5
181
330
17
100
AcDbEntity
67
0
8
Grids
62
256
6
ByLayer
370
-1
48
1.0
60
0
100
AcDbCircle
10
61500.0
20
4000.0
30
0.0
40
500.0
39
0.0
210
0.0
220
0.0
230
1.0
0
MTEXT
5
182
330
17
100
AcDbEntity
67
0
8
Text
62
256
6
ByLayer
370
-1
48
1.0
60
0
100
AcDbMText
10
-1700.0
20
4100.0
30
0.0
210
0.0
220
0.0
230
1.0
1
C
40
400.0
41
0.0
44
1.0
50
0.0
71
1
72
5
7
Standard
0
MTEXT
5
183
330
17
100
AcDbEntity
67
0
8
Text
62
256
6
ByLayer
370
-1
48
1.0
60
0
100
AcDbMText
10
61300.0
20
4100.0
30
0.0
210
0.0
220
0.0
230
1.0
1
C
40
400.0
41
0.0
44
1.0
50
0.0
71
1
72
5
7
Standard
0
INSERT
5
185
330
17
100
AcDbEntity
67
0
8
Columns
62
256
6
ByLayer
370
-1
48
1.0
60
0
100
AcDbBlockReference
2
Horizontal Left I beam
10
0.0
20
6000.0
30
0.0
41
1.0
42
1.0
43
1.0
50
0.0
210
0.0
220
0.0
230
1.0
0
INSERT
5
187
330
17
100
AcDbEntity
67
0
8
Columns
62
256
6
ByLayer
370
-1
48
1.0
60
0
100
AcDbBlockReference
2
Horizontal right I Column
10
58000.0
20
6000.0
30
0.0
41
1.0
42
1.0
43
1.0
50
0.0
210
0.0
220
0.0
230
1.0
0
DIMENSION
5
188
330
17
100
AcDbEntity
67
0
8
Dimensions
62
256
6
ByLayer
370
-1
48
1.0
60
0
100
AcDbDimension
2
*D13
10
60500.0
20
6000.0
30
0.0
11
60500.0
21
5000.0
31
0.0
70
33
71
5
72
1
41
1.0
210
0.0
220
0.0
230
1.0
3
karim
100
AcDbAlignedDimension
13
60000.0
23
4000.0
33
0.0
14
60000.0
24
6000.0
34
0.0
0
LINE
5
195
330
17
100
AcDbEntity
67
0
8
Grids
62
256
6
Center
370
-1
48
150.0
60
0
100
AcDbLine
10
-1000.0
20
6000.0
30
0.0
11
61000.0
21
6000.0
31
0.0
39
0.0
210
0.0
220
0.0
230
1.0
0
CIRCLE
5
196
330
17
100
AcDbEntity
67
0
8
Grids
62
256
6
ByLayer
370
-1
48
1.0
60
0
100
AcDbCircle
10
-1500.0
20
6000.0
30
0.0
40
500.0
39
0.0
210
0.0
220
0.0
230
1.0
0
CIRCLE
5
197
330
17
100
AcDbEntity
67
0
8
Grids
62
256
6
ByLayer
370
-1
48
1.0
60
0
100
AcDbCircle
10
61500.0
20
6000.0
30
0.0
40
500.0
39
0.0
210
0.0
220
0.0
230
1.0
0
MTEXT
5
198
330
17
100
AcDbEntity
67
0
8
Text
62
256
6
ByLayer
370
-1
48
1.0
60
0
100
AcDbMText
10
-1700.0
20
6100.0
30
0.0
210
0.0
220
0.0
230
1.0
1
D
40
400.0
41
0.0
44
1.0
50
0.0
71
1
72
5
7
Standard
0
MTEXT
5
199
330
17
100
AcDbEntity
67
0
8
Text
62
256
6
ByLayer
370
-1
48
1.0
60
0
100
AcDbMText
10
61300.0
20
6100.0
30
0.0
210
0.0
220
0.0
230
1.0
1
D
40
400.0
41
0.0
44
1.0
50
0.0
71
1
72
5
7
Standard
0
INSERT
5
19B
330
17
100
AcDbEntity
67
0
8
Columns
62
256
6
ByLayer
370
-1
48
1.0
60
0
100
AcDbBlockReference
2
Horizontal Left I beam
10
0.0
20
8000.0
30
0.0
41
1.0
42
1.0
43
1.0
50
0.0
210
0.0
220
0.0
230
1.0
0
INSERT
5
19D
330
17
100
AcDbEntity
67
0
8
Columns
62
256
6
ByLayer
370
-1
48
1.0
60
0
100
AcDbBlockReference
2
Horizontal right I Column
10
58000.0
20
8000.0
30
0.0
41
1.0
42
1.0
43
1.0
50
0.0
210
0.0
220
0.0
230
1.0
0
DIMENSION
5
19E
330
17
100
AcDbEntity
67
0
8
Dimensions
62
256
6
ByLayer
370
-1
48
1.0
60
0
100
AcDbDimension
2
*D14
10
60500.0
20
8000.0
30
0.0
11
60500.0
21
7000.0
31
0.0
70
33
71
5
72
1
41
1.0
210
0.0
220
0.0
230
1.0
3
karim
100
AcDbAlignedDimension
13
60000.0
23
6000.0
33
0.0
14
60000.0
24
8000.0
34
0.0
0
LINE
5
1AB
330
17
100
AcDbEntity
67
0
8
Grids
62
256
6
Center
370
-1
48
150.0
60
0
100
AcDbLine
10
-1000.0
20
8000.0
30
0.0
11
61000.0
21
8000.0
31
0.0
39
0.0
210
0.0
220
0.0
230
1.0
0
CIRCLE
5
1AC
330
17
100
AcDbEntity
67
0
8
Grids
62
256
6
ByLayer
370
-1
48
1.0
60
0
100
AcDbCircle
10
-1500.0
20
8000.0
30
0.0
40
500.0
39
0.0
210
0.0
220
0.0
230
1.0
0
CIRCLE
5
1AD
330
17
100
AcDbEntity
67
0
8
Grids
62
256
6
ByLayer
370
-1
48
1.0
60
0
100
AcDbCircle
10
61500.0
20
8000.0
30
0.0
40
500.0
39
0.0
210
0.0
220
0.0
230
1.0
0
MTEXT
5
1AE
330
17
100
AcDbEntity
67
0
8
Text
62
256
6
ByLayer
370
-1
48
1.0
60
0
100
AcDbMText
10
-1700.0
20
8100.0
30
0.0
210
0.0
220
0.0
230
1.0
1
E
40
400.0
41
0.0
44
1.0
50
0.0
71
1
72
5
7
Standard
0
MTEXT
5
1AF
330
17
100
AcDbEntity
67
0
8
Text
62
256
6
ByLayer
370
-1
48
1.0
60
0
100
AcDbMText
10
61300.0
20
8100.0
30
0.0
210
0.0
220
0.0
230
1.0
1
E
40
400.0
41
0.0
44
1.0
50
0.0
71
1
72
5
7
Standard
0
INSERT
5
1B1
330
17
100
AcDbEntity
67
0
8
Columns
62
256
6
ByLayer
370
-1
48
1.0
60
0
100
AcDbBlockReference
2
Horizontal Left I beam
10
0.0
20
10000.0
30
0.0
41
1.0
42
1.0
43
1.0
50
0.0
210
0.0
220
0.0
230
1.0
0
INSERT
5
1B3
330
17
100
AcDbEntity
67
0
8
Columns
62
256
6
ByLayer
370
-1
48
1.0
60
0
100
AcDbBlockReference
2
Horizontal right I Column
10
58000.0
20
10000.0
30
0.0
41
1.0
42
1.0
43
1.0
50
0.0
210
0.0
220
0.0
230
1.0
0
DIMENSION
5
1B4
330
17
100
AcDbEntity
67
0
8
Dimensions
62
256
6
ByLayer
370
-1
48
1.0
60
0
100
AcDbDimension
2
*D15
10
60500.0
20
10000.0
30
0.0
11
60500.0
21
9000.0
31
0.0
70
33
71
5
72
1
41
1.0
210
0.0
220
0.0
230
1.0
3
karim
100
AcDbAlignedDimension
13
60000.0
23
8000.0
33
0.0
14
60000.0
24
10000.0
34
0.0
0
LINE
5
1C1
330
17
100
AcDbEntity
67
0
8
Grids
62
256
6
Center
370
-1
48
150.0
60
0
100
AcDbLine
10
-1000.0
20
10000.0
30
0.0
11
61000.0
21
10000.0
31
0.0
39
0.0
210
0.0
220
0.0
230
1.0
0
CIRCLE
5
1C2
330
17
100
AcDbEntity
67
0
8
Grids
62
256
6
ByLayer
370
-1
48
1.0
60
0
100
AcDbCircle
10
-1500.0
20
10000.0
30
0.0
40
500.0
39
0.0
210
0.0
220
0.0
230
1.0
0
CIRCLE
5
1C3
330
17
100
AcDbEntity
67
0
8
Grids
62
256
6
ByLayer
370
-1
48
1.0
60
0
100
AcDbCircle
10
61500.0
20
10000.0
30
0.0
40
500.0
39
0.0
210
0.0
220
0.0
230
1.0
0
MTEXT
5
1C4
330
17
100
AcDbEntity
67
0
8
Text
62
256
6
ByLayer
370
-1
48
1.0
60
0
100
AcDbMText
10
-1700.0
20
10100.0
30
0.0
210
0.0
220
0.0
230
1.0
1
F
40
400.0
41
0.0
44
1.0
50
0.0
71
1
72
5
7
Standard
0
MTEXT
5
1C5
330
17
100
AcDbEntity
67
0
8
Text
62
256
6
ByLayer
370
-1
48
1.0
60
0
100
AcDbMText
10
61300.0
20
10100.0
30
0.0
210
0.0
220
0.0
230
1.0
1
F
40
400.0
41
0.0
44
1.0
50
0.0
71
1
72
5
7
Standard
0
INSERT
5
1C7
330
17
100
AcDbEntity
67
0
8
Columns
62
256
6
ByLayer
370
-1
48
1.0
60
0
100
AcDbBlockReference
2
Horizontal Left I beam
10
0.0
20
12000.0
30
0.0
41
1.0
42
1.0
43
1.0
50
0.0
210
0.0
220
0.0
230
1.0
0
INSERT
5
1C9
330
17
100
AcDbEntity
67
0
8
Columns
62
256
6
ByLayer
370
-1
48
1.0
60
0
100
AcDbBlockReference
2
Horizontal right I Column
10
58000.0
20
12000.0
30
0.0
41
1.0
42
1.0
43
1.0
50
0.0
210
0.0
220
0.0
230
1.0
0
DIMENSION
5
1CA
330
17
100
AcDbEntity
67
0
8
Dimensions
62
256
6
ByLayer
370
-1
48
1.0
60
0
100
AcDbDimension
2
*D16
10
60500.0
20
12000.0
30
0.0
11
60500.0
21
11000.0
31
0.0
70
33
71
5
72
1
41
1.0
210
0.0
220
0.0
230
1.0
3
karim
100
AcDbAlignedDimension
13
60000.0
23
10000.0
33
0.0
14
60000.0
24
12000.0
34
0.0
0
LINE
5
1D7
330
17
100
AcDbEntity
67
0
8
Grids
62
256
6
Center
370
-1
48
150.0
60
0
100
AcDbLine
10
-1000.0
20
12000.0
30
0.0
11
61000.0
21
12000.0
31
0.0
39
0.0
210
0.0
220
0.0
230
1.0
0
CIRCLE
5
1D8
330
17
100
AcDbEntity
67
0
8
Grids
62
256
6
ByLayer
370
-1
48
1.0
60
0
100
AcDbCircle
10
-1500.0
20
12000.0
30
0.0
40
500.0
39
0.0
210
0.0
220
0.0
230
1.0
0
CIRCLE
5
1D9
330
17
100
AcDbEntity
67
0
8
Grids
62
256
6
ByLayer
370
-1
48
1.0
60
0
100
AcDbCircle
10
61500.0
20
12000.0
30
0.0
40
500.0
39
0.0
210
0.0
220
0.0
230
1.0
0
MTEXT
5
1DA
330
17
100
AcDbEntity
67
0
8
Text
62
256
6
ByLayer
370
-1
48
1.0
60
0
100
AcDbMText
10
-1700.0
20
12100.0
30
0.0
210
0.0
220
0.0
230
1.0
1
G
40
400.0
41
0.0
44
1.0
50
0.0
71
1
72
5
7
Standard
0
MTEXT
5
1DB
330
17
100
AcDbEntity
67
0
8
Text
62
256
6
ByLayer
370
-1
48
1.0
60
0
100
AcDbMText
10
61300.0
20
12100.0
30
0.0
210
0.0
220
0.0
230
1.0
1
G
40
400.0
41
0.0
44
1.0
50
0.0
71
1
72
5
7
Standard
0
INSERT
5
1DD
330
17
100
AcDbEntity
67
0
8
Columns
62
256
6
ByLayer
370
-1
48
1.0
60
0
100
AcDbBlockReference
2
Horizontal Left I beam
10
0.0
20
14000.0
30
0.0
41
1.0
42
1.0
43
1.0
50
0.0
210
0.0
220
0.0
230
1.0
0
INSERT
5
1DF
330
17
100
AcDbEntity
67
0
8
Columns
62
256
6
ByLayer
370
-1
48
1.0
60
0
100
AcDbBlockReference
2
Horizontal right I Column
10
58000.0
20
14000.0
30
0.0
41
1.0
42
1.0
43
1.0
50
0.0
210
0.0
220
0.0
230
1.0
0
DIMENSION
5
1E0
330
17
100
AcDbEntity
67
0
8
Dimensions
62
256
6
ByLayer
370
-1
48
1.0
60
0
100
AcDbDimension
2
*D17
10
60500.0
20
14000.0
30
0.0
11
60500.0
21
13000.0
31
0.0
70
33
71
5
72
1
41
1.0
210
0.0
220
0.0
230
1.0
3
karim
100
AcDbAlignedDimension
13
60000.0
23
12000.0
33
0.0
14
60000.0
24
14000.0
34
0.0
0
LINE
5
1ED
330
17
100
AcDbEntity
67
0
8
Grids
62
256
6
Center
370
-1
48
150.0
60
0
100
AcDbLine
10
-1000.0
20
14000.0
30
0.0
11
61000.0
21
14000.0
31
0.0
39
0.0
210
0.0
220
0.0
230
1.0
0
CIRCLE
5
1EE
330
17
100
AcDbEntity
67
0
8
Grids
62
256
6
ByLayer
370
-1
48
1.0
60
0
100
AcDbCircle
10
-1500.0
20
14000.0
30
0.0
40
500.0
39
0.0
210
0.0
220
0.0
230
1.0
0
CIRCLE
5
1EF
330
17
100
AcDbEntity
67
0
8
Grids
62
256
6
ByLayer
370
-1
48
1.0
60
0
100
AcDbCircle
10
61500.0
20
14000.0
30
0.0
40
500.0
39
0.0
210
0.0
220
0.0
230
1.0
0
MTEXT
5
1F0
330
17
100
AcDbEntity
67
0
8
Text
62
256
6
ByLayer
370
-1
48
1.0
60
0
100
AcDbMText
10
-1700.0
20
14100.0
30
0.0
210
0.0
220
0.0
230
1.0
1
H
40
400.0
41
0.0
44
1.0
50
0.0
71
1
72
5
7
Standard
0
MTEXT
5
1F1
330
17
100
AcDbEntity
67
0
8
Text
62
256
6
ByLayer
370
-1
48
1.0
60
0
100
AcDbMText
10
61300.0
20
14100.0
30
0.0
210
0.0
220
0.0
230
1.0
1
H
40
400.0
41
0.0
44
1.0
50
0.0
71
1
72
5
7
Standard
0
INSERT
5
1F3
330
17
100
AcDbEntity
67
0
8
Columns
62
256
6
ByLayer
370
-1
48
1.0
60
0
100
AcDbBlockReference
2
Horizontal Left I beam
10
0.0
20
16000.0
30
0.0
41
1.0
42
1.0
43
1.0
50
0.0
210
0.0
220
0.0
230
1.0
0
INSERT
5
1F5
330
17
100
AcDbEntity
67
0
8
Columns
62
256
6
ByLayer
370
-1
48
1.0
60
0
100
AcDbBlockReference
2
Horizontal right I Column
10
58000.0
20
16000.0
30
0.0
41
1.0
42
1.0
43
1.0
50
0.0
210
0.0
220
0.0
230
1.0
0
DIMENSION
5
1F6
330
17
100
AcDbEntity
67
0
8
Dimensions
62
256
6
ByLayer
370
-1
48
1.0
60
0
100
AcDbDimension
2
*D18
10
60500.0
20
16000.0
30
0.0
11
60500.0
21
15000.0
31
0.0
70
33
71
5
72
1
41
1.0
210
0.0
220
0.0
230
1.0
3
karim
100
AcDbAlignedDimension
13
60000.0
23
14000.0
33
0.0
14
60000.0
24
16000.0
34
0.0
0
LINE
5
203
330
17
100
AcDbEntity
67
0
8
Grids
62
256
6
Center
370
-1
48
150.0
60
0
100
AcDbLine
10
-1000.0
20
16000.0
30
0.0
11
61000.0
21
16000.0
31
0.0
39
0.0
210
0.0
220
0.0
230
1.0
0
CIRCLE
5
204
330
17
100
AcDbEntity
67
0
8
Grids
62
256
6
ByLayer
370
-1
48
1.0
60
0
100
AcDbCircle
10
-1500.0
20
16000.0
30
0.0
40
500.0
39
0.0
210
0.0
220
0.0
230
1.0
0
CIRCLE
5
205
330
17
100
AcDbEntity
67
0
8
Grids
62
256
6
ByLayer
370
-1
48
1.0
60
0
100
AcDbCircle
10
61500.0
20
16000.0
30
0.0
40
500.0
39
0.0
210
0.0
220
0.0
230
1.0
0
MTEXT
5
206
330
17
100
AcDbEntity
67
0
8
Text
62
256
6
ByLayer
370
-1
48
1.0
60
0
100
AcDbMText
10
-1700.0
20
16100.0
30
0.0
210
0.0
220
0.0
230
1.0
1
I
40
400.0
41
0.0
44
1.0
50
0.0
71
1
72
5
7
Standard
0
MTEXT
5
207
330
17
100
AcDbEntity
67
0
8
Text
62
256
6
ByLayer
370
-1
48
1.0
60
0
100
AcDbMText
10
61300.0
20
16100.0
30
0.0
210
0.0
220
0.0
230
1.0
1
I
40
400.0
41
0.0
44
1.0
50
0.0
71
1
72
5
7
Standard
0
INSERT
5
209
330
17
100
AcDbEntity
67
0
8
Columns
62
256
6
ByLayer
370
-1
48
1.0
60
0
100
AcDbBlockReference
2
Horizontal Left I beam
10
0.0
20
18000.0
30
0.0
41
1.0
42
1.0
43
1.0
50
0.0
210
0.0
220
0.0
230
1.0
0
INSERT
5
20B
330
17
100
AcDbEntity
67
0
8
Columns
62
256
6
ByLayer
370
-1
48
1.0
60
0
100
AcDbBlockReference
2
Horizontal right I Column
10
58000.0
20
18000.0
30
0.0
41
1.0
42
1.0
43
1.0
50
0.0
210
0.0
220
0.0
230
1.0
0
DIMENSION
5
20C
330
17
100
AcDbEntity
67
0
8
Dimensions
62
256
6
ByLayer
370
-1
48
1.0
60
0
100
AcDbDimension
2
*D19
10
60500.0
20
18000.0
30
0.0
11
60500.0
21
17000.0
31
0.0
70
33
71
5
72
1
41
1.0
210
0.0
220
0.0
230
1.0
3
karim
100
AcDbAlignedDimension
13
60000.0
23
16000.0
33
0.0
14
60000.0
24
18000.0
34
0.0
0
LINE
5
219
330
17
100
AcDbEntity
67
0
8
Grids
62
256
6
Center
370
-1
48
150.0
60
0
100
AcDbLine
10
-1000.0
20
18000.0
30
0.0
11
61000.0
21
18000.0
31
0.0
39
0.0
210
0.0
220
0.0
230
1.0
0
CIRCLE
5
21A
330
17
100
AcDbEntity
67
0
8
Grids
62
256
6
ByLayer
370
-1
48
1.0
60
0
100
AcDbCircle
10
-1500.0
20
18000.0
30
0.0
40
500.0
39
0.0
210
0.0
220
0.0
230
1.0
0
CIRCLE
5
21B
330
17
100
AcDbEntity
67
0
8
Grids
62
256
6
ByLayer
370
-1
48
1.0
60
0
100
AcDbCircle
10
61500.0
20
18000.0
30
0.0
40
500.0
39
0.0
210
0.0
220
0.0
230
1.0
0
MTEXT
5
21C
330
17
100
AcDbEntity
67
0
8
Text
62
256
6
ByLayer
370
-1
48
1.0
60
0
100
AcDbMText
10
-1700.0
20
18100.0
30
0.0
210
0.0
220
0.0
230
1.0
1
J
40
400.0
41
0.0
44
1.0
50
0.0
71
1
72
5
7
Standard
0
MTEXT
5
21D
330
17
100
AcDbEntity
67
0
8
Text
62
256
6
ByLayer
370
-1
48
1.0
60
0
100
AcDbMText
10
61300.0
20
18100.0
30
0.0
210
0.0
220
0.0
230
1.0
1
J
40
400.0
41
0.0
44
1.0
50
0.0
71
1
72
5
7
Standard
0
DIMENSION
5
21E
330
17
100
AcDbEntity
67
0
8
Dimensions
62
256
6
ByLayer
370
-1
48
1.0
60
0
100
AcDbDimension
2
*D20
10
60500.0
20
20000.0
30
0.0
11
60500.0
21
19000.0
31
0.0
70
33
71
5
72
1
41
1.0
210
0.0
220
0.0
230
1.0
3
karim
100
AcDbAlignedDimension
13
60000.0
23
18000.0
33
0.0
14
60000.0
24
20000.0
34
0.0
0
LINE
5
22B
330
17
100
AcDbEntity
67
0
8
Grids
62
256
6
Center
370
-1
48
150.0
60
0
100
AcDbLine
10
-1000.0
20
20000.0
30
0.0
11
61000.0
21
20000.0
31
0.0
39
0.0
210
0.0
220
0.0
230
1.0
0
CIRCLE
5
22C
330
17
100
AcDbEntity
67
0
8
Grids
62
256
6
ByLayer
370
-1
48
1.0
60
0
100
AcDbCircle
10
-1500.0
20
20000.0
30
0.0
40
500.0
39
0.0
210
0.0
220
0.0
230
1.0
0
CIRCLE
5
22D
330
17
100
AcDbEntity
67
0
8
Grids
62
256
6
ByLayer
370
-1
48
1.0
60
0
100
AcDbCircle
10
61500.0
20
20000.0
30
0.0
40
500.0
39
0.0
210
0.0
220
0.0
230
1.0
0
MTEXT
5
22E
330
17
100
AcDbEntity
67
0
8
Text
62
256
6
ByLayer
370
-1
48
1.0
60
0
100
AcDbMText
10
-1700.0
20
20100.0
30
0.0
210
0.0
220
0.0
230
1.0
1
K
40
400.0
41
0.0
44
1.0
50
0.0
71
1
72
5
7
Standard
0
MTEXT
5
22F
330
17
100
AcDbEntity
67
0
8
Text
62
256
6
ByLayer
370
-1
48
1.0
60
0
100
AcDbMText
10
61300.0
20
20100.0
30
0.0
210
0.0
220
0.0
230
1.0
1
K
40
400.0
41
0.0
44
1.0
50
0.0
71
1
72
5
7
Standard
0
INSERT
5
231
330
17
100
AcDbEntity
67
0
8
Bracing
62
256
6
ByLayer
370
-1
48
1.0
60
0
100
AcDbBlockReference
2
Bracing
10
0.0
20
0.0
30
0.0
41
1.0
42
1.0
43
1.0
50
0.0
210
0.0
220
0.0
230
1.0
0
INSERT
5
233
330
17
100
AcDbEntity
67
0
8
Bracing
62
256
6
ByLayer
370
-1
48
1.0
60
0
100
AcDbBlockReference
2
Bracing
10
0.0
20
4000.0
30
0.0
41
1.0
42
1.0
43
1.0
50
0.0
210
0.0
220
0.0
230
1.0
0
INSERT
5
235
330
17
100
AcDbEntity
67
0
8
Bracing
62
256
6
ByLayer
370
-1
48
1.0
60
0
100
AcDbBlockReference
2
Bracing
10
0.0
20
8000.0
30
0.0
41
1.0
42
1.0
43
1.0
50
0.0
210
0.0
220
0.0
230
1.0
0
INSERT
5
237
330
17
100
AcDbEntity
67
0
8
Bracing
62
256
6
ByLayer
370
-1
48
1.0
60
0
100
AcDbBlockReference
2
Bracing
10
0.0
20
12000.0
30
0.0
41
1.0
42
1.0
43
1.0
50
0.0
210
0.0
220
0.0
230
1.0
0
INSERT
5
239
330
17
100
AcDbEntity
67
0
8
Bracing
62
256
6
ByLayer
370
-1
48
1.0
60
0
100
AcDbBlockReference
2
Bracing
10
0.0
20
16000.0
30
0.0
41
1.0
42
1.0
43
1.0
50
0.0
210
0.0
220
0.0
230
1.0
0
INSERT
5
23B
330
17
100
AcDbEntity
67
0
8
Bracing
62
256
6
ByLayer
370
-1
48
1.0
60
0
100
AcDbBlockReference
2
Bracing
10
49090.9090909091
20
0.0
30
0.0
41
1.0
42
1.0
43
1.0
50
0.0
210
0.0
220
0.0
230
1.0
0
INSERT
5
23D
330
17
100
AcDbEntity
67
0
8
Bracing
62
256
6
ByLayer
370
-1
48
1.0
60
0
100
AcDbBlockReference
2
Bracing
10
49090.9090909091
20
4000.0
30
0.0
41
1.0
42
1.0
43
1.0
50
0.0
210
0.0
220
0.0
230
1.0
0
INSERT
5
23F
330
17
100
AcDbEntity
67
0
8
Bracing
62
256
6
ByLayer
370
-1
48
1.0
60
0
100
AcDbBlockReference
2
Bracing
10
49090.9090909091
20
8000.0
30
0.0
41
1.0
42
1.0
43
1.0
50
0.0
210
0.0
220
0.0
230
1.0
0
INSERT
5
241
330
17
100
AcDbEntity
67
0
8
Bracing
62
256
6
ByLayer
370
-1
48
1.0
60
0
100
AcDbBlockReference
2
Bracing
10
49090.9090909091
20
12000.0
30
0.0
41
1.0
42
1.0
43
1.0
50
0.0
210
0.0
220
0.0
230
1.0
0
INSERT
5
243
330
17
100
AcDbEntity
67
0
8
Bracing
62
256
6
ByLayer
370
-1
48
1.0
60
0
100
AcDbBlockReference
2
Bracing
10
49090.9090909091
20
16000.0
30
0.0
41
1.0
42
1.0
43
1.0
50
0.0
210
0.0
220
0.0
230
1.0
0
POLYLINE
5
24A
330
17
100
AcDbEntity
67
0
8
Border
62
256
6
ByLayer
370
-1
48
1.0
60
0
100
AcDb3dPolyline
10
0.0
20
0.0
30
0.0
70
8
75
0
210
0.0
220
0.0
230
1.0
0
VERTEX
5
244
100
AcDbEntity
8
Border
62
256
100
AcDbVertex
100
AcDb3dPolylineVertex
10
-8000.0
20
-18000.0
30
0.0
70
32
0
VERTEX
5
245
100
AcDbEntity
8
Border
62
256
100
AcDbVertex
100
AcDb3dPolylineVertex
10
75000.0
20
-18000.0
30
0.0
70
32
0
VERTEX
5
246
100
AcDbEntity
8
Border
62
256
100
AcDbVertex
100
AcDb3dPolylineVertex
10
75000.0
20
35000.0
30
0.0
70
32
0
VERTEX
5
247
100
AcDbEntity
8
Border
62
256
100
AcDbVertex
100
AcDb3dPolylineVertex
10
-8000.0
20
35000.0
30
0.0
70
32
0
VERTEX
5
248
100
AcDbEntity
8
Border
62
256
100
AcDbVertex
100
AcDb3dPolylineVertex
10
-8000.0
20
-18000.0
30
0.0
70
32
0
SEQEND
5
249
100
AcDbEntity
8
0
0
POLYLINE
5
252
330
17
100
AcDbEntity
67
0
8
Border
62
256
6
ByLayer
370
-1
48
1.0
60
0
100
AcDb3dPolyline
10
0.0
20
0.0
30
0.0
70
8
75
0
210
0.0
220
0.0
230
1.0
0
VERTEX
5
24C
100
AcDbEntity
8
Border
62
256
100
AcDbVertex
100
AcDb3dPolylineVertex
10
-8300.0
20
-18300.0
30
0.0
70
32
0
VERTEX
5
24D
100
AcDbEntity
8
Border
62
256
100
AcDbVertex
100
AcDb3dPolylineVertex
10
75300.0
20
-18300.0
30
0.0
70
32
0
VERTEX
5
24E
100
AcDbEntity
8
Border
62
256
100
AcDbVertex
100
AcDb3dPolylineVertex
10
75300.0
20
35300.0
30
0.0
70
32
0
VERTEX
5
24F
100
AcDbEntity
8
Border
62
256
100
AcDbVertex
100
AcDb3dPolylineVertex
10
-8300.0
20
35300.0
30
0.0
70
32
0
VERTEX
5
250
100
AcDbEntity
8
Border
62
256
100
AcDbVertex
100
AcDb3dPolylineVertex
10
-8300.0
20
-18300.0
30
0.0
70
32
0
SEQEND
5
251
100
AcDbEntity
8
0
0
POLYLINE
5
259
330
17
100
AcDbEntity
67
0
8
Border
62
256
6
ByLayer
370
-1
48
1.0
60
0
100
AcDb3dPolyline
10
0.0
20
0.0
30
0.0
70
8
75
0
210
0.0
220
0.0
230
1.0
0
VERTEX
5
253
100
AcDbEntity
8
Border
62
256
100
AcDbVertex
100
AcDb3dPolylineVertex
10
60000.0
20
-18000.0
30
0.0
70
32
0
VERTEX
5
254
100
AcDbEntity
8
Border
62
256
100
AcDbVertex
100
AcDb3dPolylineVertex
10
75000.0
20
-18000.0
30
0.0
70
32
0
VERTEX
5
255
100
AcDbEntity
8
Border
62
256
100
AcDbVertex
100
AcDb3dPolylineVertex
10
75000.0
20
-5000.0
30
0.0
70
32
0
VERTEX
5
256
100
AcDbEntity
8
Border
62
256
100
AcDbVertex
100
AcDb3dPolylineVertex
10
60000.0
20
-5000.0
30
0.0
70
32
0
VERTEX
5
257
100
AcDbEntity
8
Border
62
256
100
AcDbVertex
100
AcDb3dPolylineVertex
10
60000.0
20
-18000.0
30
0.0
70
32
0
SEQEND
5
258
100
AcDbEntity
8
0
0
MTEXT
5
25A
330
17
100
AcDbEntity
67
0
8
Text
62
256
6
ByLayer
370
-1
48
1.0
60
0
100
AcDbMText
10
27500.0
20
-4000.0
30
0.0
210
0.0
220
0.0
230
1.0
1
Plan showing Horizontal Bracing
40
700.0
41
20000.0
44
1.0
50
0.0
71
1
72
5
7
Standard
0
DIMENSION
5
25B
330
17
100
AcDbEntity
67
0
8
Dimensions
62
256
6
ByLayer
370
-1
48
1.0
60
0
100
AcDbDimension
2
*D21
10
60000.0
20
-3000.0
30
0.0
11
30000.0
21
-3000.0
31
0.0
70
33
71
5
72
1
41
1.0
210
0.0
220
0.0
230
1.0
3
karim
100
AcDbAlignedDimension
13
0.0
23
0.0
33
0.0
14
60000.0
24
0.0
34
0.0
0
DIMENSION
5
268
330
17
100
AcDbEntity
67
0
8
Dimensions
62
256
6
ByLayer
370
-1
48
1.0
60
0
100
AcDbDimension
2
*D22
10
63000.0
20
20000.0
30
0.0
11
63000.0
21
10000.0
31
0.0
70
33
71
5
72
1
41
1.0
210
0.0
220
0.0
230
1.0
3
karim
100
AcDbAlignedDimension
13
60000.0
23
0.0
33
0.0
14
60000.0
24
20000.0
34
0.0
0
INSERT
5
276
330
17
100
AcDbEntity
67
0
8
Columns
62
256
6
ByLayer
370
-1
48
1.0
60
0
100
AcDbBlockReference
2
Right Column Detailing
10
0.0
20
-9000.0
30
0.0
41
1.0
42
1.0
43
1.0
50
0.0
210
0.0
220
0.0
230
1.0
0
DIMENSION
5
289
330
17
100
AcDbEntity
67
0
8
Dimensions
62
256
6
ByLayer
370
-1
48
1.0
60
0
100
AcDbDimension
2
*D23
10
700.0
20
-7000.0
30
0.0
11
700.0
21
-8000.0
31
0.0
70
33
71
5
72
1
41
1.0
210
0.0
220
0.0
230
1.0
3
karim
100
AcDbAlignedDimension
13
600.0
23
-9000.0
33
0.0
14
600.0
24
-7000.0
34
0.0
0
DIMENSION
5
296
330
17
100
AcDbEntity
67
0
8
Dimensions
62
256
6
ByLayer
370
-1
48
1.0
60
0
100
AcDbDimension
2
*D24
10
-600.0
20
-8800.0
30
0.0
11
-600.0
21
-8900.0
31
0.0
70
33
71
5
72
1
41
1.0
210
0.0
220
0.0
230
1.0
3
karim
100
AcDbAlignedDimension
13
-500.0
23
-9000.0
33
0.0
14
-500.0
24
-8800.0
34
0.0
0
DIMENSION
5
2A3
330
17
100
AcDbEntity
67
0
8
Dimensions
62
256
6
ByLayer
370
-1
48
1.0
60
0
100
AcDbDimension
2
*D25
10
-400.0
20
-7200.0
30
0.0
11
-400.0
21
-7100.0
31
0.0
70
33
71
5
72
1
41
1.0
210
0.0
220
0.0
230
1.0
3
karim
100
AcDbAlignedDimension
13
-500.0
23
-7000.0
33
0.0
14
-500.0
24
-7200.0
34
0.0
0
DIMENSION
5
2B0
330
17
100
AcDbEntity
67
0
8
Dimensions
62
256
6
ByLayer
370
-1
48
1.0
60
0
100
AcDbDimension
2
*D26
10
-400.0
20
-8800.0
30
0.0
11
-400.0
21
-8000.0
31
0.0
70
33
71
5
72
1
41
1.0
210
0.0
220
0.0
230
1.0
3
karim
100
AcDbAlignedDimension
13
-500.0
23
-7200.0
33
0.0
14
-500.0
24
-8800.0
34
0.0
0
DIMENSION
5
2BD
330
17
100
AcDbEntity
67
0
8
Dimensions
62
256
6
ByLayer
370
-1
48
1.0
60
0
100
AcDbDimension
2
*D27
10
500.0
20
-6500.0
30
0.0
11
0.00000000000005684
21
-6500.0
31
0.0
70
33
71
5
72
1
41
1.0
210
0.0
220
0.0
230
1.0
3
karim
100
AcDbAlignedDimension
13
-500.0
23
-7000.0
33
0.0
14
500.0
24
-7000.0
34
0.0
0
DIMENSION
5
2CA
330
17
100
AcDbEntity
67
0
8
Dimensions
62
256
6
ByLayer
370
-1
48
1.0
60
0
100
AcDbDimension
2
*D28
10
-50.0
20
-6900.0
30
0.0
11
-275.0
21
-6900.0
31
0.0
70
33
71
5
72
1
41
1.0
210
0.0
220
0.0
230
1.0
3
karim
100
AcDbAlignedDimension
13
-500.0
23
-7000.0
33
0.0
14
-50.0
24
-7000.0
34
0.0
0
DIMENSION
5
2D7
330
17
100
AcDbEntity
67
0
8
Dimensions
62
256
6
ByLayer
370
-1
48
1.0
60
0
100
AcDbDimension
2
*D29
10
50.0
20
-7100.0
30
0.0
11
275.0
21
-7100.0
31
0.0
70
33
71
5
72
1
41
1.0
210
0.0
220
0.0
230
1.0
3
karim
100
AcDbAlignedDimension
13
500.0
23
-7000.0
33
0.0
14
50.0
24
-7000.0
34
0.0
0
DIMENSION
5
2E4
330
17
100
AcDbEntity
67
0
8
Dimensions
62
256
6
ByLayer
370
-1
48
1.0
60
0
100
AcDbDimension
2
*D30
10
50.0
20
-7500.0
30
0.0
11
-0.00000000000002132
21
-7500.0
31
0.0
70
33
71
5
72
1
41
1.0
210
0.0
220
0.0
230
1.0
3
karim
100
AcDbAlignedDimension
13
-50.0
23
-7200.0
33
0.0
14
50.0
24
-7200.0
34
0.0
0
DIMENSION
5
2F1
330
17
100
AcDbEntity
67
0
8
Dimensions
62
256
6
ByLayer
370
-1
48
1.0
60
0
100
AcDbDimension
2
*D31
10
-800.0
20
-7000.0
30
0.0
11
-800.0
21
-8000.0
31
0.0
70
33
71
5
72
1
41
1.0
210
0.0
220
0.0
230
1.0
3
karim
100
AcDbAlignedDimension
13
-700.0
23
-9000.0
33
0.0
14
-700.0
24
-7000.0
34
0.0
0
MTEXT
5
2FE
330
17
100
AcDbEntity
67
0
8
Text
62
256
6
ByLayer
370
-1
48
1.0
60
0
100
AcDbMText
10
-500.0
20
-9200.0
30
0.0
210
0.0
220
0.0
230
1.0
1
Column Built Up Section
40
200.0
41
2000.0
44
1.0
50
0.0
71
1
72
5
7
Standard
0
INSERT
5
300
330
17
100
AcDbEntity
67
0
8
Columns
62
256
6
ByLayer
370
-1
48
1.0
60
0
100
AcDbBlockReference
2
Right Beam Detailing
10
2000.0
20
-9000.0
30
0.0
41
1.0
42
1.0
43
1.0
50
0.0
210
0.0
220
0.0
230
1.0
0
DIMENSION
5
313
330
17
100
AcDbEntity
67
0
8
Dimensions
62
256
6
ByLayer
370
-1
48
1.0
60
0
100
AcDbDimension
2
*D32
10
2700.0
20
-7000.0
30
0.0
11
2700.0
21
-8000.0
31
0.0
70
33
71
5
72
1
41
1.0
210
0.0
220
0.0
230
1.0
3
karim
100
AcDbAlignedDimension
13
2600.0
23
-9000.0
33
0.0
14
2600.0
24
-7000.0
34
0.0
0
DIMENSION
5
320
330
17
100
AcDbEntity
67
0
8
Dimensions
62
256
6
ByLayer
370
-1
48
1.0
60
0
100
AcDbDimension
2
*D33
10
1400.0
20
-8800.0
30
0.0
11
1400.0
21
-8900.0
31
0.0
70
33
71
5
72
1
41
1.0
210
0.0
220
0.0
230
1.0
3
karim2
100
AcDbAlignedDimension
13
1500.0
23
-9000.0
33
0.0
14
1500.0
24
-8800.0
34
0.0
0
DIMENSION
5
32E
330
17
100
AcDbEntity
67
0
8
Dimensions
62
256
6
ByLayer
370
-1
48
1.0
60
0
100
AcDbDimension
2
*D34
10
1600.0
20
-7200.0
30
0.0
11
1600.0
21
-7100.0
31
0.0
70
33
71
5
72
1
41
1.0
210
0.0
220
0.0
230
1.0
3
karim2
100
AcDbAlignedDimension
13
1500.0
23
-7000.0
33
0.0
14
1500.0
24
-7200.0
34
0.0
0
DIMENSION
5
33B
330
17
100
AcDbEntity
67
0
8
Dimensions
62
256
6
ByLayer
370
-1
48
1.0
60
0
100
AcDbDimension
2
*D35
10
1600.0
20
-8800.0
30
0.0
11
1600.0
21
-8000.0
31
0.0
70
33
71
5
72
1
41
1.0
210
0.0
220
0.0
230
1.0
3
karim2
100
AcDbAlignedDimension
13
1500.0
23
-7200.0
33
0.0
14
1500.0
24
-8800.0
34
0.0
0
DIMENSION
5
348
330
17
100
AcDbEntity
67
0
8
Dimensions
62
256
6
ByLayer
370
-1
48
1.0
60
0
100
AcDbDimension
2
*D36
10
2500.0
20
-6500.0
30
0.0
11
2000.0
21
-6500.0
31
0.0
70
33
71
5
72
1
41
1.0
210
0.0
220
0.0
230
1.0
3
karim2
100
AcDbAlignedDimension
13
1500.0
23
-7000.0
33
0.0
14
2500.0
24
-7000.0
34
0.0
0
DIMENSION
5
355
330
17
100
AcDbEntity
67
0
8
Dimensions
62
256
6
ByLayer
370
-1
48
1.0
60
0
100
AcDbDimension
2
*D37
10
1950.0
20
-6900.0
30
0.0
11
1725.0
21
-6900.0
31
0.0
70
33
71
5
72
1
41
1.0
210
0.0
220
0.0
230
1.0
3
karim2
100
AcDbAlignedDimension
13
1500.0
23
-7000.0
33
0.0
14
1950.0
24
-7000.0
34
0.0
0
DIMENSION
5
362
330
17
100
AcDbEntity
67
0
8
Dimensions
62
256
6
ByLayer
370
-1
48
1.0
60
0
100
AcDbDimension
2
*D38
10
2050.0
20
-7100.0
30
0.0
11
2275.0
21
-7100.0
31
0.0
70
33
71
5
72
1
41
1.0
210
0.0
220
0.0
230
1.0
3
karim2
100
AcDbAlignedDimension
13
2500.0
23
-7000.0
33
0.0
14
2050.0
24
-7000.0
34
0.0
0
DIMENSION
5
36F
330
17
100
AcDbEntity
67
0
8
Dimensions
62
256
6
ByLayer
370
-1
48
1.0
60
0
100
AcDbDimension
2
*D39
10
2050.0
20
-7500.0
30
0.0
11
2000.0
21
-7500.0
31
0.0
70
33
71
5
72
1
41
1.0
210
0.0
220
0.0
230
1.0
3
karim2
100
AcDbAlignedDimension
13
1950.0
23
-7200.0
33
0.0
14
2050.0
24
-7200.0
34
0.0
0
DIMENSION
5
37C
330
17
100
AcDbEntity
67
0
8
Dimensions
62
256
6
ByLayer
370
-1
48
1.0
60
0
100
AcDbDimension
2
*D40
10
1200.0
20
-7000.0
30
0.0
11
1200.0
21
-8000.0
31
0.0
70
33
71
5
72
1
41
1.0
210
0.0
220
0.0
230
1.0
3
karim2
100
AcDbAlignedDimension
13
1300.0
23
-9000.0
33
0.0
14
1300.0
24
-7000.0
34
0.0
0
MTEXT
5
389
330
17
100
AcDbEntity
67
0
8
Text
62
256
6
ByLayer
370
-1
48
1.0
60
0
100
AcDbMText
10
1500.0
20
-9200.0
30
0.0
210
0.0
220
0.0
230
1.0
1
Beam Built Up Section
40
200.0
41
2000.0
44
1.0
50
0.0
71
1
72
5
7
Standard
0
VIEWPORT
5
38E
330
38A
100
AcDbEntity
67
1
8
0
62
256
6
ByLayer
370
-1
48
1.0
60
0
100
AcDbViewport
10
0.0
20
0.0
30
0.0
40
297.0
41
210.0
68
1
69
1
12
50.0
22
100.0
13
0.0
23
0.0
14
10.0
24
10.0
15
10.0
25
10.0
16
0.0
26
0.0
36
1.0
17
0.0
27
0.0
37
0.0
42
50.0
43
0.0
44
0.0
45
250.0
50
0.0
51
0.0
72
1000
90
819232
110
0.0
120
0.0
130
0.0
111
1.0
121
0.0
131
0.0
112
0.0
122
1.0
132
0.0
0
ENDSEC
0
SECTION
2
OBJECTS
0
DICTIONARY
5
391
330
0
100
AcDbDictionary
280
0
281
1
3
ACAD_GROUP
350
392
3
ACAD_LAYOUT
350
393
3
ACAD_MLINESTYLE
350
394
0
DICTIONARY
5
392
330
391
100
AcDbDictionary
280
0
281
1
0
DICTIONARY
5
393
330
391
100
AcDbDictionary
280
0
281
1
3
Model
350
1B
3
Layout1
350
38F
0
DICTIONARY
5
394
330
391
100
AcDbDictionary
280
0
281
1
3
Standard
350
16
0
LAYOUT
5
1B
330
393
100
AcDbPlotSettings
1

2
none_device
4
ISO_A4_(210.00_x_297.00_MM)
6

40
7.5
41
20.0
42
7.5
43
20.0
44
210.0
45
297.0
46
0.0
47
0.0
48
0.0
49
0.0
140
0.0
141
0.0
142
1.0
143
1.0
70
11952
72
1
73
1
74
5
7

75
16
147
1.0
148
0.0
149
0.0
100
AcDbLayout
1
Model
70
1
71
0
10
-20.0
20
-7.5
11
277.0
21
202.5
12
0.0
22
0.0
32
0.0
14
25.7
24
19.5
34
0.0
15
231.3
25
175.5
35
0.0
146
0.0
13
0.0
23
0.0
33
0.0
16
1.0
26
0.0
36
0.0
17
0.0
27
1.0
37
0.0
76
0
330
17
0
LAYOUT
5
38F
330
393
100
AcDbPlotSettings
1

2
none_device
4
ISO_A4_(210.00_x_297.00_MM)
6

40
7.5
41
20.0
42
7.5
43
20.0
44
210.0
45
297.0
46
0.0
47
0.0
48
0.0
49
0.0
140
0.0
141
0.0
142
1.0
143
1.0
70
688
72
1
73
1
74
5
7

75
16
147
1.0
148
0.0
149
0.0
100
AcDbLayout
1
Layout1
70
1
71
1
10
-20.0
20
-7.5
11
277.0
21
202.5
12
0.0
22
0.0
32
0.0
14
25.7
24
19.5
34
0.0
15
231.3
25
175.5
35
0.0
146
0.0
13
0.0
23
0.0
33
0.0
16
1.0
26
0.0
36
0.0
17
0.0
27
1.0
37
0.0
76
0
330
38A
0
MLINESTYLE
5
16
330
394
100
AcDbMlineStyle
2
Standard
70
0
3

62
256
51
90.0
52
90.0
71
2
49
0.5
62
256
6
ByLayer
49
-0.5
62
256
6
ByLayer
0
ENDSEC
0
EOF
